<?xml version="1.0" encoding="UTF-8"?><svg id="_圖層_2" xmlns="http://www.w3.org/2000/svg" xmlns:xlink="http://www.w3.org/1999/xlink" viewBox="0 0 300 150"><defs><style>.cls-1{fill:none;}.cls-2{filter:url(#drop-shadow-1);}.cls-3{fill:#fff;}</style><filter id="drop-shadow-1" x="107.54" y="26.25" width="84.92" height="97.5" filterUnits="userSpaceOnUse"><feOffset dx="0" dy="0"/><feGaussianBlur result="blur" stdDeviation="2.83"/><feFlood flood-color="#231815" flood-opacity=".75"/><feComposite in2="blur" operator="in"/><feComposite in="SourceGraphic"/></filter></defs><g id="_圖層_1-2"><g class="cls-2"><rect class="cls-3" x="112.49" y="26.25" width="2.16" height="71.66"/><polygon class="cls-3" points="120.73 68.58 120.73 26.25 118.57 26.25 118.57 41.95 116.23 42.97 116.23 70.39 118.91 69.22 120.73 68.58"/><polygon class="cls-3" points="126.82 66.39 126.82 66.25 126.82 38.84 126.82 26.25 124.65 26.25 124.65 39.78 122.4 40.76 122.4 68.17 125.2 66.96 126.82 66.39"/><polygon class="cls-3" points="132.9 64.27 132.9 64.16 132.91 64.15 132.91 36.74 132.9 36.74 132.9 26.25 130.74 26.25 130.74 37.68 128.48 38.66 128.48 66.08 131.58 64.73 132.9 64.27"/><polygon class="cls-3" points="130.74 97.92 132.91 97.92 132.91 90.59 130.74 91.34 130.74 97.92"/><polygon class="cls-3" points="126.82 97.92 126.82 92.78 124.65 93.54 124.65 97.92 126.82 97.92"/><polygon class="cls-3" points="120.73 97.92 120.73 94.9 118.57 95.66 118.57 97.92 120.73 97.92"/><polygon class="cls-3" points="169.11 97.92 169.11 95.55 172.82 94.07 172.82 97.92 174.99 97.92 174.99 93.21 178.69 91.73 178.69 97.92 180.86 97.92 180.86 90.87 184.78 89.31 184.78 97.92 186.94 97.92 186.94 88.45 186.94 88.09 186.94 61.73 169.11 68.18 169.11 26.27 166.95 26.27 166.95 68.96 163.36 70.26 163.36 61.7 163.36 44.82 163.36 26.27 161.2 26.27 161.2 43.88 158.94 42.89 158.94 68.88 157.28 68.26 157.28 42.48 157.23 42.46 157.23 26.27 155.07 26.27 155.07 41.52 152.86 40.56 152.86 66.62 151.15 65.99 151.15 61.7 151.15 40.03 151.15 26.27 148.99 26.27 148.99 39.09 146.73 38.11 146.73 64.35 145.11 63.75 145.11 37.61 145.07 37.59 145.07 26.27 142.9 26.27 142.9 36.65 140.69 35.69 140.69 62.11 138.98 61.48 138.98 26.27 136.82 26.27 136.82 35.08 134.5 36.09 134.5 63.51 136.76 62.52 136.76 88.09 136.76 88.1 136.76 97.92 138.92 97.92 138.92 88.89 143.22 90.46 143.22 97.92 145.39 97.92 145.39 91.25 149.31 92.69 149.31 97.92 151.47 97.92 151.47 93.48 155.07 94.8 155.07 97.92 157.23 97.92 157.23 95.59 163.36 97.83 166.95 96.41 166.95 97.92 169.11 97.92"/><polygon class="cls-3" points="184.78 26.27 184.78 62.49 186.94 61.73 186.94 26.27 184.78 26.27"/><polygon class="cls-3" points="174.99 26.27 172.82 26.27 172.82 40.35 174.99 39.6 174.99 26.27"/><polygon class="cls-3" points="180.86 26.27 178.69 26.27 178.69 38.46 180.86 37.7 180.86 26.27"/><path class="cls-3" d="M179.87,109.53h12.59v-2.63h-16.14c-4.58,0-8.29,3.71-8.29,8.29h0c0,4.73,3.83,8.56,8.56,8.56h15.86v-2.63h-12.51c-3.36,0-6.06-2.81-5.88-6.2.16-3.04,2.75-5.39,5.8-5.39Z"/><path class="cls-3" d="M115.83,106.9c-4.58,0-8.29,3.71-8.29,8.29h0c0,4.73,3.83,8.56,8.56,8.56h18.79v-9.65h-12.4v2.67h7.23v4.35h-10.26c-3.36,0-6.06-2.81-5.88-6.2.16-3.04,2.75-5.39,5.8-5.39h15.52v-2.63h-19.07Z"/><path class="cls-3" d="M145.14,106.9c-3.43,0-6.22,2.78-6.22,6.22v10.63h5.68v-7.06h19.58v-2.72h-19.58v-.67c0-2.11,1.71-3.83,3.83-3.83h15.75v-2.57h-19.04Z"/></g><rect class="cls-1" width="300" height="150"/></g></svg>