<?xml version="1.0" encoding="UTF-8"?><svg id="_圖層_2" xmlns="http://www.w3.org/2000/svg" viewBox="0 0 300 150"><defs><style>.cls-1{fill:none;}.cls-2{fill:#fff;}</style></defs><g id="_圖層_1-2"><path class="cls-2" d="M110.58,121.29c2.73,2.47,6.12,6.03,7.63,8.41l-2.26,1.68c-.43-.73-1.01-1.54-1.68-2.38-15.95.84-17.81.9-19.12,1.36-.12-.55-.58-1.89-.87-2.64.7-.12,1.42-.73,2.38-1.65,1.02-.96,4.29-4.52,6.41-8.04l2.7,1.16c-2.09,2.93-4.55,5.74-6.93,8.01l13.49-.55c-1.25-1.39-2.58-2.78-3.83-3.94l2.09-1.42ZM96.45,132.57h18.8v12.3h-2.87v-1.48h-13.2v1.54h-2.73v-12.36ZM99.18,135.15v5.63h13.2v-5.63h-13.2Z"/><path class="cls-2" d="M125.54,131.15c-.84-.93-2.7-2.23-4.15-3.02l1.48-1.86c1.48.73,3.37,1.89,4.24,2.78l-1.57,2.09ZM121.97,143.21c1.04-2.23,2.52-5.95,3.6-9.2l2.15,1.39c-.93,2.99-2.18,6.47-3.34,9.17l-2.41-1.36ZM126.03,123.69c-.78-.99-2.58-2.32-4.03-3.22l1.57-1.77c1.45.78,3.25,2.03,4.12,2.96l-1.65,2.03ZM129.43,129.17c-.23,1.39-.7,2.93-1.22,3.92-.26-.26-.87-.64-1.25-.84.55-.99.87-2.23,1.04-3.42l1.42.35ZM133.2,128.01c-.09-.26-.17-.58-.32-.9-3.8.52-4.53.7-4.93.87-.09-.26-.38-.9-.58-1.22.46-.09.87-.46,1.36-1.02.32-.29.96-1.07,1.65-2.03-1.71.17-2.23.29-2.52.41-.09-.29-.35-.93-.55-1.22.35-.06.58-.35.9-.78.29-.41,1.3-2.06,1.74-3.6l1.6.55c-.46,1.13-1.16,2.32-1.89,3.28l1.65-.09c.29-.44.52-.87.75-1.31l1.51.67c-.93,1.57-2.12,3.13-3.34,4.44l2.12-.26c-.14-.26-.32-.58-.46-.84l1.22-.43c.55.93,1.13,2.18,1.33,2.9l-1.25.58ZM146.92,138.98s-.06.7-.17,1.02c-.49,2.41-1.07,3.68-1.83,4.26-.67.49-1.33.64-2.41.67-.87,0-2.64,0-4.44-.09-.03-.64-.35-1.48-.73-2.06,1.77.17,3.66.2,4.38.2.64,0,.93,0,1.25-.2.41-.29.72-.93,1.04-2.06h-14.94c.46-1.31.93-3.07,1.28-4.58h12.7v-1.25h-13.66v-1.62h16.19v4.5h-13.11l-.35,1.22h14.79ZM130.5,132.57c-.03-.9-.26-2.35-.58-3.45l1.28-.32c.35,1.07.64,2.47.67,3.34l-1.36.43ZM133.02,131.87c-.12-.81-.46-2.12-.9-3.16l1.16-.41c.46.96.87,2.23.99,3.02l-1.25.55ZM140.91,122.68h-6.9v-1.51h2.93c-.2-.64-.67-1.54-1.01-2.2l1.77-.41c.46.67.96,1.68,1.16,2.26l-1.33.35h3.39v1.51ZM134.79,128.07h5.48v4.26h-5.48v-4.26ZM140.25,124.97h-5.4v-1.36h5.4v1.36ZM134.85,125.75h5.4v1.36h-5.4v-1.36ZM136.48,131h2.06v-1.6h-2.06v1.6ZM142.92,129.06c-.26,1.39-.7,2.9-1.22,3.92-.26-.26-.87-.67-1.25-.87.58-.96.87-2.2,1.04-3.39l1.42.35ZM146.72,128.07c-.09-.26-.2-.64-.35-1.02-3.8.55-4.53.7-4.96.87-.09-.23-.38-.9-.55-1.25.44-.06.84-.44,1.36-.99.26-.29.93-1.04,1.6-2-1.68.17-2.18.26-2.49.41-.09-.29-.35-.93-.52-1.25.29-.03.58-.32.87-.75.32-.41,1.31-2.06,1.77-3.6l1.57.55c-.46,1.13-1.16,2.32-1.89,3.28l1.68-.09c.23-.44.49-.87.7-1.31l1.54.67c-.93,1.57-2.09,3.13-3.34,4.44l2.12-.26c-.15-.29-.32-.58-.46-.84l1.19-.43c.61.96,1.22,2.23,1.42,3.05l-1.25.52ZM143.96,132.83c0-.96-.29-2.52-.61-3.77l1.28-.29c.35,1.19.67,2.7.67,3.63l-1.33.44ZM146.74,128.28c.55,1.13,1.04,2.61,1.19,3.57l-1.28.55c-.12-.99-.58-2.55-1.1-3.71l1.19-.41Z"/><path class="cls-2" d="M161.27,126.1c-1.36,7.63-4.61,13.2-8.67,16.16-.46-.64-1.51-1.68-2.18-2.12,3.51-2.32,6.24-6.5,7.57-11.89h-6.61v-2.73h7.6l.49-.12,1.8.7ZM175.22,125.29c-2,2.18-4.52,4.67-6.55,6.38,2.32,3.45,5.39,6.32,8.9,7.95-.64.55-1.57,1.65-2,2.47-4.32-2.29-7.75-6.38-10.21-11.28v10.59c0,1.65-.35,2.52-1.33,2.99-.99.49-2.52.61-4.79.61-.15-.81-.58-2.2-1.02-3.02,1.62.09,3.13.09,3.63.06.46,0,.67-.14.67-.64v-23.06h2.84v6.93c.55,1.48,1.22,2.93,2.03,4.32,1.86-1.77,4-4.15,5.37-6.06l2.46,1.77Z"/><path class="cls-2" d="M184.96,131.26c-1.16-.81-3.57-2.15-5.25-3.1l1.45-1.94c1.65.78,4.09,2.03,5.31,2.81l-1.51,2.23ZM187.69,135.12c-1.36,3.05-3.13,6.53-4.7,9.28l-2.38-1.65c1.42-2.23,3.45-5.98,4.96-9.25l2.12,1.62ZM186.59,123.75c-1.16-.84-3.6-2.2-5.31-3.13l1.51-1.97c1.68.81,4.15,2.09,5.4,2.93l-1.6,2.18ZM192.07,128.33v.03c0,4.87-.49,11.98-3.77,16.53-.49-.41-1.65-1.04-2.32-1.28,3.22-4.35,3.51-10.7,3.51-15.26v-8.59h15.17v8.56h-12.59ZM192.07,122.27v3.6h9.98v-3.6h-9.98ZM202.22,142.32c1.25,0,1.45-.67,1.62-4.35.55.44,1.65.87,2.32,1.04-.32,4.47-1.02,5.71-3.74,5.71h-4.84c-3.02,0-3.83-.81-3.83-3.65v-11.43h2.55v3.6h8.59v2.29h-8.59v5.51c0,1.1.23,1.28,1.54,1.28h4.38Z"/><path class="cls-2" d="M213.84,54.28c-1.37-1.81-3.71-2.55-5.9-1.92-.89.26-1.93.39-3.13.39-6.78,0-8.29-4.32-8.29-10.31v-5.14c0-5.99,1.52-10.31,8.29-10.31,1.2,0,2.23.14,3.13.39,2.18.63,4.53-.11,5.9-1.92l.08-.1c-2.15-1.76-5.16-2.72-9.11-2.72-9.23,0-13.3,5.16-13.3,13.69v7.07c0,8.53,4.07,13.69,13.3,13.69,3.95,0,6.96-.95,9.11-2.72l-.08-.1h0Z"/><path class="cls-2" d="M192.22,54.28c-1.37-1.81-3.71-2.55-5.9-1.92-.89.26-1.93.39-3.13.39-6.78,0-8.29-4.32-8.29-10.31v-5.14c0-5.99,1.52-10.31,8.29-10.31,1.2,0,2.23.14,3.13.39,2.18.63,4.53-.11,5.9-1.92l.08-.1c-2.15-1.76-5.16-2.72-9.11-2.72-9.23,0-13.29,5.16-13.29,13.69v7.07c0,8.53,4.07,13.69,13.29,13.69,3.95,0,6.96-.95,9.11-2.72l-.08-.1h0Z"/><path class="cls-2" d="M141.57,28.82h11.97v28.28c2.77,0,5.01-2.24,5.01-5v-23.28h3.32c2.77,0,7.26-.79,10.03-5h-25.31c-2.77,0-5.01,2.24-5.01,5h0Z"/><path class="cls-2" d="M110.73,5.28c-5.46,1.02-7.91,4.98-7.91,10.97v29.28c0,4.53-1.1,7.1-6.01,7.1-1.44,0-2.55-.22-3.4-.65,1.17,2.56,3.27,4.25,6.41,4.86,5.46-1.02,7.91-4.98,7.91-10.97v-29.28c0-4.53,1.1-7.1,6.01-7.1,1.44,0,2.55.22,3.4.65-1.17-2.56-3.27-4.25-6.41-4.86h0Z"/><path class="cls-2" d="M113.74,5.02c-.87,0-1.69.06-2.45.17,5.84.85,8.46,4.87,8.46,11.06v5.48c0,4.53-1.1,7.1-6.01,7.1h-16.92c-7.57,0-10.91,4.24-10.91,11.23v5.81c0,7,3.34,11.23,10.91,11.23.87,0,1.69-.06,2.45-.17-5.84-.85-8.46-4.87-8.46-11.06v-5.48c0-4.53,1.1-7.1,6.01-7.1h16.92c7.57,0,10.91-4.24,10.91-11.23v-5.81c0-6.99-3.34-11.23-10.91-11.23Z"/><path class="cls-2" d="M124.65,45.87v-12.57h-4.9v12.57c0,7,3.34,11.23,10.91,11.23.87,0,1.69-.06,2.45-.17-5.84-.85-8.46-4.87-8.46-11.06h0Z"/><path class="cls-2" d="M130.66,28.82h-6.01c-1.04,1.88-2.66,3.22-4.9,3.92v.55h10.91c4.91,0,6.01,2.57,6.01,7.1v5.14c0,4.53-1.1,7.1-6.01,7.1-1.44,0-2.55-.22-3.4-.65,1.17,2.56,3.27,4.25,6.41,4.86,5.46-1.02,7.91-4.98,7.91-10.97v-5.81c0-7-3.34-11.23-10.91-11.23h0Z"/><path class="cls-2" d="M73.33,87.94h2.19v4.84c-.64.5-1.39.88-2.24,1.15-.86.27-1.73.4-2.64.4-1.27,0-2.42-.27-3.44-.81s-1.82-1.28-2.4-2.23c-.58-.95-.87-2.02-.87-3.21s.29-2.26.87-3.21c.58-.95,1.39-1.69,2.41-2.23,1.03-.54,2.18-.81,3.46-.81,1.05,0,1.99.17,2.85.5.86.34,1.57.83,2.15,1.47l-1.46,1.39c-.95-.93-2.1-1.39-3.44-1.39-.88,0-1.66.18-2.34.54-.68.36-1.22.86-1.6,1.51-.39.65-.58,1.39-.58,2.22s.19,1.54.58,2.19c.39.65.92,1.16,1.6,1.53.68.37,1.46.56,2.33.56.97,0,1.83-.21,2.57-.62v-3.78h0Z"/><path class="cls-2" d="M86.73,94.15l-2.55-3.56c-.11.01-.27.02-.48.02h-2.81v3.54h-2.32v-12.15h5.13c1.08,0,2.02.17,2.82.52.8.35,1.42.85,1.84,1.49.43.65.64,1.42.64,2.31s-.23,1.7-.69,2.36c-.46.66-1.11,1.15-1.97,1.47l2.87,3.99h-2.49ZM85.89,84.53c-.52-.42-1.29-.62-2.3-.62h-2.71v4.84h2.71c1.01,0,1.77-.21,2.3-.63s.78-1.02.78-1.8-.26-1.37-.78-1.79h0Z"/><path class="cls-2" d="M93.97,93.52c-1.02-.54-1.82-1.28-2.4-2.24-.58-.96-.87-2.02-.87-3.2s.29-2.25.87-3.2c.58-.96,1.38-1.7,2.4-2.24,1.02-.54,2.17-.81,3.44-.81s2.42.27,3.44.81c1.02.54,1.82,1.28,2.4,2.23.58.95.87,2.02.87,3.21s-.29,2.26-.87,3.21c-.58.95-1.38,1.69-2.4,2.23-1.02.54-2.17.81-3.44.81s-2.42-.27-3.44-.81h0ZM99.66,91.8c.66-.36,1.19-.87,1.57-1.53s.57-1.39.57-2.2-.19-1.54-.57-2.2c-.38-.65-.9-1.16-1.57-1.53-.66-.36-1.41-.55-2.24-.55s-1.58.18-2.24.55c-.66.36-1.19.87-1.57,1.53-.38.66-.57,1.39-.57,2.2s.19,1.54.57,2.2c.38.65.9,1.16,1.57,1.53.66.36,1.41.55,2.24.55s1.58-.18,2.24-.55Z"/><path class="cls-2" d="M107.92,92.91c-.96-.94-1.44-2.29-1.44-4.05v-6.86h2.32v6.77c0,2.38,1.06,3.58,3.17,3.58s3.15-1.19,3.15-3.58v-6.77h2.28v6.86c0,1.76-.48,3.11-1.43,4.05-.96.94-2.29,1.42-4.02,1.42s-3.06-.47-4.03-1.42h0Z"/><path class="cls-2" d="M128.59,82.52c.8.35,1.42.85,1.84,1.49.43.65.64,1.42.64,2.31s-.21,1.65-.64,2.3c-.43.66-1.04,1.15-1.84,1.5-.8.35-1.74.52-2.82.52h-2.81v3.51h-2.32v-12.15h5.13c1.08,0,2.02.17,2.82.52h0ZM127.96,88.11c.52-.42.78-1.01.78-1.79s-.26-1.37-.78-1.79c-.52-.42-1.29-.62-2.3-.62h-2.71v4.83h2.71c1.01,0,1.78-.21,2.3-.62h0Z"/><path class="cls-2" d="M149.57,82v12.15h-2.32v-5.21h-6.45v5.21h-2.32v-12.15h2.32v5.02h6.45v-5.02h2.32Z"/><path class="cls-2" d="M155.3,93.52c-1.02-.54-1.82-1.28-2.4-2.24-.58-.96-.87-2.02-.87-3.2s.29-2.25.87-3.2c.58-.96,1.38-1.7,2.4-2.24,1.02-.54,2.17-.81,3.44-.81s2.42.27,3.44.81c1.02.54,1.83,1.28,2.41,2.23.58.95.87,2.02.87,3.21s-.29,2.26-.87,3.21c-.58.95-1.38,1.69-2.41,2.23-1.02.54-2.17.81-3.44.81s-2.42-.27-3.44-.81ZM160.99,91.8c.66-.36,1.19-.87,1.57-1.53.38-.65.57-1.39.57-2.2s-.19-1.54-.57-2.2c-.38-.65-.9-1.16-1.57-1.53-.66-.36-1.41-.55-2.24-.55s-1.58.18-2.24.55c-.66.36-1.19.87-1.57,1.53-.38.66-.57,1.39-.57,2.2s.19,1.54.57,2.2c.38.65.9,1.16,1.57,1.53.66.36,1.41.55,2.24.55s1.58-.18,2.24-.55Z"/><path class="cls-2" d="M167.92,82h2.32v10.24h6.52v1.91h-8.84v-12.15h0Z"/><path class="cls-2" d="M178.59,82h5.45c1.33,0,2.51.25,3.55.76,1.03.5,1.83,1.22,2.4,2.13.57.92.86,1.98.86,3.19s-.29,2.27-.86,3.19c-.57.92-1.37,1.63-2.4,2.13-1.03.5-2.21.76-3.55.76h-5.45v-12.15h0ZM183.93,92.24c.91,0,1.72-.17,2.41-.51.7-.34,1.23-.83,1.6-1.46s.56-1.36.56-2.2-.19-1.57-.56-2.2c-.37-.63-.91-1.12-1.6-1.46-.69-.34-1.5-.51-2.41-.51h-3.03v8.33h3.03Z"/><path class="cls-2" d="M193.3,82h2.32v12.15h-2.32v-12.15Z"/><path class="cls-2" d="M210.06,82v12.15h-1.91l-6.88-8.23v8.23h-2.3v-12.15h1.91l6.88,8.23v-8.23h2.3Z"/><path class="cls-2" d="M221.93,87.94h2.19v4.84c-.64.5-1.39.88-2.24,1.15-.86.27-1.73.4-2.64.4-1.27,0-2.42-.27-3.44-.81-1.02-.54-1.82-1.28-2.4-2.23-.58-.95-.87-2.02-.87-3.21s.29-2.26.87-3.21c.58-.95,1.39-1.69,2.41-2.23,1.03-.54,2.18-.81,3.46-.81,1.05,0,1.99.17,2.85.5.86.34,1.57.83,2.15,1.47l-1.46,1.39c-.95-.93-2.1-1.39-3.44-1.39-.88,0-1.66.18-2.34.54-.68.36-1.22.86-1.6,1.51-.39.65-.58,1.39-.58,2.22s.19,1.54.58,2.19c.39.65.92,1.16,1.6,1.53.68.37,1.46.56,2.33.56.97,0,1.83-.21,2.56-.62v-3.78h0Z"/><path class="cls-2" d="M228.24,93.92c-.9-.27-1.61-.62-2.13-1.06l.8-1.75c.51.39,1.14.71,1.88.96.74.25,1.49.37,2.23.37.93,0,1.62-.15,2.08-.43.46-.29.69-.67.69-1.15,0-.35-.13-.63-.38-.86-.25-.23-.58-.4-.97-.53-.39-.13-.93-.27-1.6-.43-.95-.22-1.72-.44-2.31-.66-.59-.22-1.09-.56-1.52-1.03-.42-.47-.63-1.1-.63-1.9,0-.67.19-1.28.56-1.83.37-.55.94-.99,1.69-1.31.76-.32,1.68-.49,2.77-.49.76,0,1.51.09,2.24.28.74.19,1.37.45,1.91.8l-.73,1.75c-.55-.31-1.12-.55-1.71-.71-.6-.16-1.17-.24-1.73-.24-.92,0-1.59.15-2.04.45-.45.3-.67.7-.67,1.2,0,.35.13.63.38.85.25.22.58.39.97.52.39.13.93.27,1.6.43.93.21,1.68.43,2.28.65.59.23,1.1.57,1.52,1.03.42.46.63,1.09.63,1.88,0,.67-.19,1.28-.56,1.82-.37.54-.94.98-1.7,1.3-.76.32-1.69.49-2.78.49-.96,0-1.89-.13-2.79-.4h0Z"/><rect class="cls-2" x="123.83" y="69.45" width="52.16" height=".52"/><rect class="cls-1" width="300" height="150"/></g></svg>