<?xml version="1.0" encoding="UTF-8"?><svg id="_圖層_2" xmlns="http://www.w3.org/2000/svg" viewBox="0 0 300 150"><defs><style>.cls-1{fill:none;}.cls-2{fill:#fff;}</style></defs><g id="_圖層_1-2"><path class="cls-2" d="M110.53,126c2.73,2.47,6.12,6.03,7.63,8.41l-2.26,1.68c-.43-.73-1.02-1.54-1.68-2.38-15.95.84-17.81.9-19.12,1.36-.12-.55-.58-1.89-.87-2.64.7-.12,1.42-.73,2.38-1.65,1.02-.96,4.29-4.52,6.41-8.04l2.7,1.16c-2.09,2.93-4.55,5.74-6.93,8.01l13.49-.55c-1.25-1.39-2.58-2.78-3.83-3.94l2.09-1.42ZM96.41,137.28h18.8v12.3h-2.87v-1.48h-13.2v1.54h-2.73v-12.36ZM99.13,139.87v5.63h13.2v-5.63h-13.2Z"/><path class="cls-2" d="M125.49,135.86c-.84-.93-2.7-2.23-4.15-3.02l1.48-1.86c1.48.73,3.36,1.89,4.24,2.78l-1.57,2.09ZM121.92,147.93c1.04-2.23,2.52-5.95,3.6-9.2l2.15,1.39c-.93,2.99-2.18,6.47-3.34,9.17l-2.41-1.36ZM125.99,128.41c-.78-.99-2.58-2.32-4.03-3.22l1.57-1.77c1.45.78,3.25,2.03,4.12,2.96l-1.65,2.03ZM129.38,133.89c-.23,1.39-.7,2.93-1.22,3.92-.26-.26-.87-.64-1.25-.84.55-.99.87-2.23,1.04-3.42l1.42.35ZM133.15,132.73c-.09-.26-.17-.58-.32-.9-3.8.52-4.53.7-4.93.87-.09-.26-.38-.9-.58-1.22.46-.09.87-.46,1.36-1.02.32-.29.96-1.07,1.65-2.03-1.71.17-2.23.29-2.52.41-.09-.29-.35-.93-.55-1.22.35-.06.58-.35.9-.78.29-.41,1.31-2.06,1.74-3.6l1.6.55c-.46,1.13-1.16,2.32-1.89,3.28l1.65-.09c.29-.44.52-.87.75-1.31l1.51.67c-.93,1.57-2.12,3.13-3.34,4.44l2.12-.26c-.15-.26-.32-.58-.46-.84l1.22-.43c.55.93,1.13,2.18,1.33,2.9l-1.25.58ZM146.87,143.7s-.06.7-.17,1.02c-.49,2.41-1.07,3.68-1.83,4.26-.67.49-1.33.64-2.41.67-.87,0-2.64,0-4.44-.09-.03-.64-.35-1.48-.73-2.06,1.77.17,3.65.2,4.38.2.64,0,.93,0,1.25-.2.41-.29.73-.93,1.04-2.06h-14.94c.46-1.31.93-3.07,1.28-4.58h12.71v-1.25h-13.66v-1.62h16.19v4.5h-13.11l-.35,1.22h14.79ZM130.45,137.28c-.03-.9-.26-2.35-.58-3.45l1.28-.32c.35,1.07.64,2.47.67,3.34l-1.36.43ZM132.98,136.59c-.12-.81-.46-2.12-.9-3.16l1.16-.41c.46.96.87,2.23.99,3.02l-1.25.55ZM140.87,127.39h-6.9v-1.51h2.93c-.2-.64-.67-1.54-1.02-2.2l1.77-.41c.46.67.96,1.68,1.16,2.26l-1.33.35h3.39v1.51ZM134.75,132.79h5.48v4.26h-5.48v-4.26ZM140.2,129.69h-5.4v-1.36h5.4v1.36ZM134.8,130.47h5.4v1.36h-5.4v-1.36ZM136.43,135.72h2.06v-1.6h-2.06v1.6ZM142.87,133.78c-.26,1.39-.7,2.9-1.22,3.92-.26-.26-.87-.67-1.25-.87.58-.96.87-2.2,1.04-3.39l1.42.35ZM146.67,132.79c-.09-.26-.2-.64-.35-1.02-3.8.55-4.52.7-4.96.87-.09-.23-.38-.9-.55-1.25.44-.06.84-.44,1.36-.99.26-.29.93-1.04,1.6-2-1.68.17-2.18.26-2.49.41-.09-.29-.35-.93-.52-1.25.29-.03.58-.32.87-.75.32-.41,1.31-2.06,1.77-3.6l1.57.55c-.46,1.13-1.16,2.32-1.89,3.28l1.68-.09c.23-.44.49-.87.7-1.31l1.54.67c-.93,1.57-2.09,3.13-3.34,4.44l2.12-.26c-.15-.29-.32-.58-.46-.84l1.19-.43c.61.96,1.22,2.23,1.42,3.05l-1.25.52ZM143.91,137.55c0-.96-.29-2.52-.61-3.77l1.28-.29c.35,1.19.67,2.7.67,3.63l-1.33.44ZM146.7,132.99c.55,1.13,1.04,2.61,1.19,3.57l-1.28.55c-.12-.99-.58-2.55-1.1-3.71l1.19-.41Z"/><path class="cls-2" d="M159.63,143.29c-3.02,1.19-6.21,2.38-8.67,3.34l-.55-2.58c.99-.32,2.23-.73,3.57-1.22v-7.22h-3.05v-2.49h3.05v-5.77h-3.34v-2.49h8.96v2.49h-3.1v5.77h2.49v2.49h-2.49v6.29l2.7-1.02.44,2.41ZM175.61,134.76c-.93,3.86-2.49,6.9-4.58,9.34,1.77,1.36,3.83,2.41,6.24,3.07-.58.52-1.36,1.62-1.74,2.35-2.47-.81-4.61-2-6.41-3.54-1.83,1.57-3.94,2.78-6.24,3.68-.32-.67-.93-1.65-1.48-2.18,2.15-.7,4.18-1.8,5.92-3.31-1.8-2.03-3.19-4.5-4.21-7.34-.17,4.09-.96,9.14-3.63,12.59-.41-.49-1.48-1.39-2.06-1.71,2.9-3.71,3.19-9.05,3.19-13v-7.63h6.44v-4.06h2.58v4.06h4.81l.41-.09,1.94.43c-.55,2.09-1.25,4.47-1.89,6l-2.32-.52c.32-.9.64-2.09.93-3.31h-3.89v4.58h3.83l.49-.12,1.65.67ZM163.17,129.63v4.58h3.89v-4.58h-3.89ZM165.57,136.59c.84,2.18,2.06,4.12,3.54,5.77,1.42-1.62,2.58-3.57,3.34-5.77h-6.87Z"/><path class="cls-2" d="M185.29,142.07c1.07-.26,2.15-.52,3.25-.78l.26,2.41c-3.13.81-6.44,1.68-9.02,2.29l-.52-2.52c1.02-.2,2.26-.49,3.63-.78v-6.61h-2.93v-2.41h2.93v-5.95h-3.28v-2.38h8.73v2.38h-3.05v5.95h2.73v2.41h-2.73v6ZM205.39,147.12c0,1.19-.23,1.74-1.07,2.12-.81.35-2.12.35-3.97.35-.09-.67-.41-1.48-.73-2.09,1.25.06,2.49.06,2.81.03.41-.03.49-.12.49-.44v-6.47h-5.74c-.35,1.16-.7,2.32-1.04,3.31l3.07-.46c-.23-.52-.49-1.07-.75-1.57l1.65-.49c.78,1.45,1.74,3.42,2.15,4.55l-1.68.64c-.14-.35-.32-.81-.52-1.33-2.55.49-5.13.93-7.22,1.28l-.61-2.03,1.48-.2c.38-1.07.75-2.38,1.16-3.68h-2.87v8.96h-2.47v-8.96h-.9v-2.2h.9v-.93h2.47v.93h3.51c.15-.58.29-1.1.43-1.62h-5.48v-8.03h2.32v5.95h9.14v-5.95h2.41v8.03h-6.09l-.44,1.62h7.6v8.7ZM205.77,125.54v2.32h-16.53v-2.32h6.9c-.29-.7-.61-1.42-.9-2.03l2.41-.61c.38.78.87,1.83,1.22,2.64h6.9ZM200.11,134.24c-.64-.52-1.54-1.22-2.52-1.91-1.07.84-2.15,1.65-3.13,2.26-.26-.35-.93-1.04-1.31-1.33.96-.52,2-1.22,3.02-1.94-.93-.64-1.83-1.25-2.64-1.8l1.22-1.02c.84.55,1.77,1.16,2.73,1.77.73-.64,1.45-1.31,2-1.97l1.65.67c-.64.75-1.45,1.51-2.26,2.29.96.67,1.86,1.33,2.47,1.83l-1.22,1.16Z"/><path id="path47907" class="cls-2" d="M102.56,47.07h93.47l-34.53-34.53-8.18,8.18,15.06,15.06h-38.17l27.28-27.26L149.3.33l-46.74,46.74ZM196.04,52.75h-93.47l46.74,46.74,46.74-46.74ZM130.21,64.04h38.17l-19.09,19.09-19.09-19.09Z"/><rect class="cls-1" width="300" height="150"/></g></svg>