<?xml version="1.0" encoding="UTF-8"?><svg id="_圖層_2" xmlns="http://www.w3.org/2000/svg" viewBox="0 0 530.81 146"><defs><style>.cls-1{fill:#7092c5;}</style></defs><g id="_圖層_1-2"><path class="cls-1" d="M22.03,2.16c-1.17-.04-3.78-.13-6.2-.13-.99,0-1.98,0-2.83.04-.4,0-.49.18-.49.58-.04,2.38-.04,7.19-.04,12.72,0,7.82.04,17.13.13,23.2,0,.4-.04.67-1.12.67-.72,0-1.12-.04-1.12-.63.27-4.9.4-13.44.4-21.26,0-6.88-.09-13.22-.36-16.09v-.09c0-.58.54-.99,1.12-.99,2.25.05,3.91.09,5.53.09s3.15-.04,5.03-.14c.09,0,.31.05.36.23.09.18.09.45.09.76,0,.22,0,1.03-.49,1.03Z"/><path class="cls-1" d="M50.89,15.87c0,.32-.18.58-.9.58h-8.36c-1.57,2.11-3.1,3.96-4.67,5.53h5.66c.22,0,.45-.13.58-.36.49-.81.99-.99,1.12-.99.36,0,3.24,1.44,3.24,2.34,0,.45-.58.76-.99,1.03-.72.49-.72.63-.72,3.24s.18,6.43.31,9.48v.09c0,1.03-.85,1.66-1.66,1.66-.63,0-1.17-.4-1.17-1.35v-1.26h-7.46v2.47c0,.9-.9,1.48-1.66,1.48-.63,0-1.17-.36-1.17-1.21v-.14c.27-3.91.31-8,.31-10.56,0-1.35,0-2.25-.04-2.7-4.27,3.33-7.73,4.45-7.82,4.45-.13,0-.22-.04-.22-.13,0-.18.31-.49.67-.72,2.38-1.39,4.81-3.1,7.24-5.44-.09-1.12-.18-2.34-.31-3.1-.04-.13-.04-.22-.04-.31,0-.04,0-.09.04-.09.22,0,2.02.85,2.56,1.17,1.21-1.35,2.43-2.83,3.64-4.58h-2.11c-2.34,0-4.5.04-8.36.4h-.05c-.76,0-2.02-1.66-2.02-2.16,3.69.45,6.92.58,9.31.63v-6.07c-1.3.04-2.47.13-5.17.4h-.04c-.76,0-1.84-1.66-1.84-2.16,3.19.4,5.26.54,7.06.58v-.76c-.05-1.17-.05-4.09-.49-5.93-.04-.13-.04-.18-.04-.27,0-.05.04-.09.09-.09.22,0,4.99.63,4.99,1.53,0,.31-.36.63-.9.94-.9.54-1.03.63-1.03,4.63h.49c.09,0,.4-.13.49-.36.18-.36,1.03-2.16,1.57-2.16.09,0,.18,0,.22.04.9.45,2.16,1.57,2.65,2.61,0,.05.04.05.04.09,1.62-3.24,2.2-4.36,2.43-6.2.04-.13.04-.18.09-.18.18,0,4.23,1.44,4.23,2.52,0,.36-.31.58-1.03.63q-.85,0-1.44,1.12c-1.98,3.46-3.87,6.47-5.71,9.08h2.29c.13,0,.4-.13.54-.36.58-.94,1.62-2.25,1.98-2.25.81,0,3.6,2.11,3.6,3.15ZM43.33,23.82c0-.13-.09-.63-.36-.63h-6.16l-.27.22c-.67.49-.63.72-.67,1.8,0,.9-.04,1.8-.04,2.7h7.6c0-1.62-.04-3.06-.09-4.09ZM35.83,29.08v5.62h7.51c.04-1.98.09-3.91.09-5.62h-7.6ZM43.2,9.26h-4.76v6.07h1.39c1.21-1.8,2.43-3.87,3.64-6.11-.09,0-.18.04-.27.04ZM66.84,6.07c0,.49-.54.85-1.26,1.08-.36.13-.63.23-1.17,1.03-4.23,6.47-4.27,7.82-4.27,8.09,0,.76.4,1.39,1.26,2.25,1.93,2.02,4.94,4.94,4.94,9.35,0,5.03-3.73,7.28-6.25,7.28-.4,0-.63-.09-.81-.45-.49-.99-3.51-3.1-3.51-3.46t.09-.05s.18,0,.4.09c1.08.36,2.11.58,3.06.58,3.64,0,4-3.37,4-5.17,0-3.06-1.48-5.21-2.97-7.46-.85-1.3-1.3-2.02-1.3-3.1,0-.54.13-1.17.36-1.98,2.11-7.24,2.25-7.87,2.25-7.91,0-.22-.18-.36-.45-.36h-5.44l-.18.14c-.54.4-.67.45-.67,2.2-.04,4.99-.09,10.7-.09,16.54,0,4.81.04,9.71.09,14.34,0,1.03-.99,1.71-1.89,1.71-.67,0-1.26-.4-1.26-1.39v-.13c.27-5.26.4-12.77.4-19.46,0-3.69-.05-7.1-.09-9.8,0-1.26-.22-5.35-.63-7.1-.04-.13-.04-.22-.04-.27q0-.09.04-.09c.22,0,3.42,1.21,4.54,1.98l.18.13h4.99c.22,0,.45-.05.67-.27,1.08-1.08,1.12-1.08,1.35-1.08.72,0,3.64,1.93,3.64,2.74Z"/><path class="cls-1" d="M111.93,9.35c0,.27-.22.54-.99.54h-23.82c-2.52,0-8.36.09-12.41.49h-.04c-.85,0-2.11-1.75-2.11-2.34,4.63.58,12.18.72,14.79.72h3.51v-1.66c0-2.2-.14-4.72-.49-6.25-.04-.13-.04-.22-.04-.31t.04-.04c.22,0,5.35.63,5.35,1.66,0,.31-.27.58-.72.9-1.03.67-1.17.22-1.3,2.34-.04.67-.09,2.29-.09,3.37h10.61c.31,0,.63-.18.76-.4.63-.99,2.11-2.97,2.61-2.97.94,0,4.36,3.06,4.36,3.96ZM107.88,18.34c0,.31-.27.54-.76.81-1.03.54-1.17.31-1.26,1.75v1.17c0,2.29.04,6.92.04,7.64,0,.76.09,1.21.09,2.07,0,3.28-3.1,4.63-4.9,4.63-.36,0-.49-.18-.72-.54-.58-.99-4.99-2.92-4.99-3.24t.09-.04c.13,0,.31.04.63.09,1.89.4,3.28.59,4.32.59,2.38,0,2.74-.94,2.79-2.25v-12c0-.23-.05-.58-.63-.58h-9.17v3.82c0,6.25.09,13.85.18,17.04v.05c0,.99-.94,1.66-1.8,1.66-.63,0-1.21-.4-1.21-1.44v-.09c.13-4.36.27-15.24.31-21.04h-7.91c-.09.09-.18.13-.27.18-1.03.54-.85.13-.99,1.71-.09.81-.09,2.92-.09,5.35,0,3.69.04,8,.04,9.62,0,.9-.94,1.57-1.8,1.57-.63,0-1.21-.4-1.21-1.3v-.13c.18-2.56.36-9.66.36-13.31,0-2.07-.18-4.63-.49-6.43v-.13c0-.14.04-.23.22-.23.72,0,3.46,1.39,3.96,1.71.09.04.13.13.18.18h8v-1.57c0-3.28-.09-4.18-.31-5.08-.05-.13-.05-.22-.05-.31t.05-.05c.31,0,4.54.54,4.54,1.39,0,.27-.36.58-.67.76-.85.54-.94.22-.99,1.93,0,.76-.04,1.8-.04,2.92h9.04c.27,0,.49-.18.63-.4.72-.99.85-.99,1.03-.99.67,0,3.78,1.8,3.78,2.52Z"/><path class="cls-1" d="M133.24,38.48c-.4,0-.63-.09-.63-.18,0-.22.72-.58,2.02-.94,11.82-3.19,15.01-11.01,15.01-16.59,0-6.65-4.59-12.72-13.13-12.72-.54,0-1.08.05-1.62.09,1.12.81,1.75,3.1,1.75,5.98,0,9.84-7.87,19.87-11.73,19.87-2.2,0-3.01-3.01-4.85-5.66-.72-.99-1.08-2.43-1.08-4.09,0-6.83,5.98-17.67,18.12-17.67,10.2,0,15.46,7.06,15.46,14.38,0,13.67-15.64,17.53-19.33,17.53ZM133.33,8.5c-.13,0-.27,0-.45.04-.13.04-.27.04-.36.04-6.92,1.98-11.28,8.72-11.28,14.61,0,3.96,1.98,6.97,4.14,6.97,3.01,0,9.71-9.4,9.71-17.67,0-3.24-.76-4-1.75-4Z"/><path class="cls-1" d="M166.18,26.93c0,.32-.31.59-1.08.76-.67.13-.76.4-.99,1.03-2.43,6.38-5.21,9.84-5.66,9.84-.05,0-.09-.04-.09-.14,0-.13.04-.31.18-.58.85-1.8,3.1-7.96,3.1-12.54,0-.45.09-.45.09-.45.58,0,4.45,1.17,4.45,2.07ZM176.12,21.04c0,1.12-.76,1.89-1.53,1.89-.67,0-1.3-.54-1.53-1.84-.09-.4-.13-.85-.27-1.26l-2.74.76c.27.13.45.27.45.45s-.18.4-.54.58c-.63.36-.63.4-.63,4.36,0,3.64.09,9.17.18,12.9v.09c0,.99-.94,1.57-1.75,1.57-.58,0-1.12-.36-1.12-1.3v-.18c.31-4.81.45-9.66.45-14.48,0-1.12-.04-2.34-.09-3.28l-4.59,1.08c-.45.09-.76.54-1.08.54-.54,0-2.11-2.97-2.11-3.42,0-.04,0-.09.09-.09s.18.04.31.04c1.08.13,2.29.18,3.19.18h1.21c.99-1.39,6.61-9.48,7.24-13.58.05-.36.09-.45.18-.45.36,0,4.05,1.75,4.05,2.43,0,.32-.36.63-1.26.72-.45.05-.72.27-1.03.67-2.43,3.28-5.8,7.73-8.14,10.11,2.43-.13,5.35-.31,7.42-.54-.45-1.12-1.03-2.11-1.48-2.83-.18-.27-.27-.45-.27-.54s.04-.09.09-.09c.85,0,5.3,2.88,5.3,5.48ZM170.68,2.34c0,.27-.36.58-1.21.72-.54.09-.72.22-.99.72-.99,1.75-2.83,4.45-4.14,6.16,2.11.99,2.47,1.98,2.47,2.88,0,.94-.67,1.66-1.39,1.66-.54,0-1.17-.36-1.62-1.26-.94-1.8-2.29-2.92-3.37-3.78-.31-.22-.4-.4-.4-.49,0-.05.09-.09.22-.09.54,0,2.02.22,3.33.76,2.38-5.93,2.61-7.78,2.61-8.77V.23c0-.18,0-.23.09-.23.05,0,4.41,1.48,4.41,2.34ZM175.85,29.8c0,1.08-.72,1.8-1.48,1.8-.58,0-1.21-.45-1.53-1.62-.54-1.98-1.26-3.87-2.25-5.3-.18-.27-.27-.4-.27-.49,0-.04.05-.09.09-.09.99,0,5.44,3.01,5.44,5.71ZM200.98,35.29c0,.36-3.15.22-4.54,1.17-.14.09-.27.18-.4.18-.49,0-6.47-6.61-8-19.55-.36.27-.4.85-.4,2.16,0,2.97.18,11.82.23,13.49.04.76.22,2.11.22,3.06v.09c0,3.15-3.06,4.45-4.54,4.45-.31,0-.49-.18-.72-.54-.63-1.03-4.41-2.79-4.41-3.1,0-.04.05-.04.14-.04.13,0,.31.04.58.09,1.57.36,2.92.58,3.96.58,2.43,0,2.47-.9,2.47-3.37,0-1.71,0-4.41-.04-7.06-2.88,3.37-6.16,6.25-7.96,7.87-.31.27-.31.76-.63.76s-3.15-1.89-3.15-2.34c0-.05.09-.09.18-.13,2.52-.63,8.68-4.72,11.55-6.83-.09-8.54-.22-9.89-.31-10.52h-2.34c-2.2,0-4.77.09-7.33.36h-.04c-.72,0-1.75-1.39-1.75-1.98v-.05c3.15.4,7.01.58,9.31.58h6.56l.18-4.95h-1.39c-2.74,0-3.42.04-8,.36h-.04c-.76,0-2.07-1.53-2.07-2.07,5.39.58,7.06.58,10.07.58h1.48c.04-1.39.09-2.65.09-3.46v-.67c0-.18-.13-.49-.54-.49h-1.84c-1.39,0-4.81,0-8.5.36h-.09c-.76,0-1.93-1.39-1.93-1.93,2.79.31,6.02.45,10.47.45h1.53c.23,0,.36-.04.54-.27.72-.94.94-1.21,1.26-1.21.49,0,3.33,1.75,3.33,2.56,0,.49-.54.81-.99,1.08-.76.45-.72.45-.81,1.53-.09,1.03-.18,6.02-.18,8.14h1.57c.13,0,.45-.18.58-.4,1.21-1.84,1.53-1.93,1.8-1.93.09,0,.18,0,.27.05,1.21.45,3.01,1.98,3.01,2.79,0,.31-.23.58-.99.58h-9.98c.31.13.49.36.49.58,0,.18-.13.4-.45.58.58,2.56,1.39,5.17,2.52,7.6,3.01-3.01,3.69-4.59,3.82-5.21.04-.18.04-.22.18-.22.49,0,3.6,2.16,3.6,3.15,0,.31-.31.54-.99.54-.13,0-.31,0-.49-.05-.18,0-.31-.04-.49-.04-.23,0-.49.04-.72.18l-4.59,2.29c2.11,4.36,5.21,8.05,9.26,9.89.27.13.4.22.4.31ZM183.13,23.73c0,.94-.63,1.66-1.39,1.66-.49,0-1.03-.31-1.48-1.17-.58-1.12-2.2-2.74-3.33-3.64-.31-.27-.49-.4-.49-.45s.04-.04.18-.04c3.87,0,6.52,1.89,6.52,3.64Z"/><path class="cls-1" d="M211.05,34.16c0,.76.09,1.48.36,2.11.18.45.27.85.27,1.21,0,.9-.49,1.44-1.12,1.44-2.07,0-3.42-5.08-3.42-9.62,0-4.77,1.48-8.81,2.34-12.59.36-1.62.76-3.1.76-4.67,0-1.8-.54-3.73-2.2-6.02-.22-.32-.49-.58-.49-.72,0-.22.54-.22.58-.22,1.57,0,4.99,4.05,4.99,7.24,0,1.66-.85,3.01-1.75,5.35-1.17,2.97-2.43,6.2-2.43,9.21,0,1.39.32,2.83.63,2.83.14,0,.32-.22.54-.76.54-1.3,3.96-8.72,4.72-8.72.09,0,.18.04.18.23s-.09.45-.27.81c-2.65,5.75-3.69,10.92-3.69,12.9ZM239.95,35.29c0,.9-.54,1.71-1.26,1.71-.45,0-.99-.36-1.53-1.21-1.08-1.8-2.79-3.19-4.36-4-.63,3.82-3.73,6.47-7.1,6.47-3.15,0-6.02-2.34-6.02-4.72,0-2.65,3.69-4.58,8.14-4.58.94,0,1.93.09,2.92.27v-2.25c-.04-1.98-.09-6.29-.13-10.61-1.03.22-1.84.22-2.2.22-5.35,0-7.33-3.69-7.33-4.18,0-.09.05-.13.18-.13.18,0,.54.09,1.03.27.85.31,2.38,1.03,3.28,1.3.9.27,1.98.45,3.1.45.09,0,.54,0,1.93-.18v-2.65c0-4.45-.27-4.5-1.39-4.81-.67-.18-1.03-.31-1.03-.63,0-.45,1.17-1.39,1.93-1.39,1.03,0,3.15,1.66,3.15,3.28,0,.27-.05.58-.09.9.81.31,2.52,1.03,3.1,1.21,1.71.45,2.34.76,2.34,1.75,0,2.38-4.63,3.73-6.07,4.14v1.98c0,3.46.14,6.56.27,8.59.05,1.03.13,2.16.13,3.24,3.33.99,7.01,3.64,7.01,5.57ZM226.55,30.48c-3.28,0-5.48,1.53-5.48,3.01,0,1.8,2.34,2.34,3.87,2.34,2.79,0,4.99-1.84,5.57-4.77-1.35-.36-2.7-.58-3.96-.58ZM233.12,9.13c-.45,3.1-.49,4.27-.49,4.54,3.24-.85,3.24-1.84,3.24-2.2,0-.72-.76-1.17-2.74-2.34Z"/><path class="cls-1" d="M275.73,12.41c0,.31-.27.63-.94.85-.63.18-.63.4-.81,1.66-1.12,9.12-7.01,9.17-7.78,9.17-.27,0-.58,0-.85-.04-.22,0-.49-.31-.58-.49-.36-.94-4.05-2.88-5.08-3.6-5.26,5.26-13.98,6.07-14.56,6.07-.27,0-.45-.04-.45-.13,0-.13.58-.4,1.44-.63,7.55-1.8,11.73-5.26,14.34-10.38.54-1.03.76-1.93.85-2.52-1.66.09-3.46.22-5.26.4h-.04c-.49,0-1.17-.63-1.62-1.26-4.45,3.73-9.35,6.07-10.34,6.07-.09,0-.13-.04-.13-.09,0-.09.22-.32.76-.63,4.41-2.56,10.92-9.3,11.42-12,.04-.27,0-.45.22-.45s4,1.48,4,2.38c0,.31-.36.58-1.35.72-.58.09-.67.09-1.21.72-.76.9-1.62,1.75-2.52,2.56,3.78.31,8.32.36,10.56.36h5.08c.49,0,.58-.22.76-.4.9-.9.94-.94,1.08-.94.72,0,3.01,1.98,3.01,2.61ZM285.13,38.43c0,.27-.23.54-.99.54h-24.18c-2.52,0-8.41.09-12.45.49h-.04c-.85,0-2.11-1.75-2.11-2.34,2.25.27,5.12.45,7.82.54.04-.9.04-1.75.04-2.56,0-1.66-.04-3.1-.04-4.14,0-.58-.22-3.96-.58-5.62-.04-.13-.04-.22-.04-.27s0-.09.04-.09c.49,0,3.69,1.53,4.27,1.93h16.45c.23,0,.4-.04.58-.27.31-.31.67-.76.94-.99.14-.09.27-.18.45-.18.36,0,3.55,1.62,3.55,2.56,0,.45-.58.76-1.08,1.03-.81.45-.85.99-.85,3.6,0,1.53.05,3.19.14,5.17h1.3c.32,0,.63-.18.76-.4,1.12-1.84,1.75-2.61,2.2-2.61.94,0,3.82,2.88,3.82,3.6ZM260.04,28.1h-3.06l-.45.31q-.72.45-.76,1.89v7.46c1.84.04,3.37.09,4.32.09.05-1.93.09-4.18.09-5.8,0-2.2-.13-3.87-.13-3.96ZM286.47,12.54c0,.31-3.19,1.26-4.41,2.56-.14.18-.36.27-.58.27-.76,0-8.05-3.82-11.55-11.24-.23-.49-.31-.81-.81-.81h-2.83c-1.35,0-4.72.09-7.28.45h-.04c-.67,0-2.11-1.66-2.11-2.25,3.28.49,8,.67,9.35.67h2.65c.22,0,.49-.18.67-.45.63-1.03.9-1.3,1.21-1.3.18,0,2.88,1.17,2.88,2.29,0,.45-.54.72-1.12.9-.99.31-1.26.63-1.26.94,0,.58,5.8,7.28,14.83,7.82.27,0,.4.04.4.13ZM270.92,12.23h-6.47l.4.09c.27.09.45.27.45.45,0,.27-.31.58-.94.76q-.49.13-1.08,1.3c-.94,1.89-2.07,3.51-3.42,4.9,2.74.67,4.81,1.44,6.47,1.44,4.99,0,5.21-8.14,5.21-8.27,0-.45,0-.67-.63-.67ZM267.1,28.1h-3.46c.18.13.27.27.27.4,0,.27-.27.58-.76.76-.49.18-.49.58-.49,7.19v1.39h4.5c.05-1.93.09-4.18.09-5.8,0-2.2-.13-3.87-.13-3.96ZM274.38,32.68c0-1.57-.05-2.97-.09-4.14,0-.27-.23-.45-.4-.45h-3.19c.18.13.27.27.27.4,0,.27-.27.58-.76.76s-.49.58-.49,7.19v1.39h4.59c.04-1.89.09-3.6.09-5.17Z"/><path class="cls-1" d="M312.05,22.66c0,.27-.23.54-1.03.54h-7.51c-.04.9-.04,1.84-.04,2.83,1.3.05,6.79.36,6.79,3.28,0,.81-.54,1.39-1.26,1.39-.45,0-1.03-.27-1.57-.94-1.26-1.62-2.7-2.52-3.96-3.33,0,3.01.04,6.38.18,9.44v.09c0,.81-.76,1.44-1.66,1.44-.63,0-1.17-.4-1.17-1.26v-.14c.13-2.83.22-6.02.32-8.86-4.05,4.77-10.56,7.06-11.6,7.06-.13,0-.22,0-.22-.09s.22-.27.76-.54c3.96-1.89,9.84-7.42,11.15-10.29v-.09c-2.29,0-4.23.04-7.64.36h-.04c-.72,0-1.84-1.62-1.84-2.11,3.87.49,7.06.63,9.53.63,0-.27-.04-.54-.04-.81-.04-1.3-.04-2.79-.36-4-.04-.13-.09-.22-.09-.27,0-.09.04-.09.18-.09.85,0,4.63.67,4.63,1.48,0,.27-.27.58-.72.81-.99.49-1.12.18-1.21,1.66-.04.36-.04.81-.04,1.21h2.38c.13,0,.49-.27.67-.49,1.44-1.93,1.57-1.98,1.8-1.98.13,0,.22.04.31.04,1.57.58,3.33,2.65,3.33,3.01ZM330.8,27.02s.09.13.09.4c0,1.35-.67,6.02-.67,8,0,.4,0,.72.09.85.4.63.58,1.21.58,1.71,0,1.12-.94,1.75-2.29,1.75-2.56,0-7.78-2.34-10.92-8.86-8.36,8.81-20.23,9.35-20.36,9.35-.4,0-.63-.09-.63-.22,0-.09.27-.27.9-.4,6.83-1.48,14.02-5.03,19.01-11.24-1.57-4.23-2.25-8.95-2.61-12.95h-8c-2.43,0-9.44.09-13.35.49h-.04c-.76,0-1.98-1.75-1.98-2.34,2.79.36,7.15.54,10.65.63v-5.44c-1.75,0-3.51.09-6.38.4h-.04c-.72,0-1.84-1.62-1.84-2.11,3.28.4,6.11.58,8.27.63-.04-2.11-.13-4.85-.4-6.56-.04-.18-.04-.27-.04-.31q0-.09.13-.09c.45,0,4.68.63,4.68,1.53,0,.27-.36.63-.85.9-.99.54-.99.58-.99,4.54h1.93c.13,0,.45-.13.58-.36.36-.58,1.44-2.34,1.98-2.34.63,0,3.64,2.2,3.64,3.24,0,.27-.18.54-.9.54h-7.24v5.48c.99,0,1.84.04,2.38.04h7.73c-.18-2.61-.27-4.9-.31-6.43-.04-1.21-.13-5.08-.63-6.97-.04-.13-.04-.22-.04-.27s0-.09.04-.09c0,0,4.99.4,4.99,1.53,0,.31-.32.67-.81.99-.9.58-.81.67-.9,2.34-.09,1.39-.14,2.97-.14,4.68,0,1.35.04,2.79.14,4.23h6.43c.27,0,.63-.13.76-.36,1.71-2.47,1.98-2.79,2.43-2.79.13,0,.22.05.31.05.76.27,3.91,2.61,3.91,3.69,0,.27-.22.54-.99.54h-12.77c.31,3.6.9,7.33,1.98,10.61,2.56-3.82,3.19-6.79,3.46-8.45.04-.18,0-.27.13-.27.32,0,4.27,1.75,4.27,2.61,0,.36-.4.63-1.39.85-.85.18-.72.04-1.12.94-1.17,2.7-2.61,5.08-4.23,7.15,2.38,5.12,5.66,6.7,6.43,6.7,1.48,0,2.92-2.97,4.59-7.78.18-.45.27-.72.36-.76ZM325.09,8.36c0,.94-.67,1.71-1.53,1.71-.54,0-1.12-.31-1.66-1.08-.9-1.26-2.43-2.56-3.87-3.37-.27-.13-.36-.23-.36-.31,0-.18,1.26-.18,1.66-.18,2.88,0,5.75,1.08,5.75,3.24Z"/><path class="cls-1" d="M346.8,23.11c0,6.88.09,13.22.36,16.09v.09c0,.58-.54.99-1.12.99-2.2-.04-3.91-.09-5.53-.09s-3.15.04-5.03.13c-.09,0-.32-.04-.36-.22-.04-.18-.09-.45-.09-.76,0-.22,0-1.03.49-1.03,1.17.04,3.78.13,6.2.13.99,0,1.98,0,2.83-.04.4,0,.49-.18.49-.58.04-2.38.04-7.19.04-12.72,0-7.82-.04-17.13-.13-23.2,0-.4.04-.67,1.17-.67.67,0,1.08.04,1.08.63-.27,4.9-.4,13.44-.4,21.26Z"/><path class="cls-1" d="M29.89,60.82c0,1.12.04,2.34.04,3.46,0,.63,0,1.21-.04,1.75,0,.31-.27.45-.54.45s-.58-.13-.63-.31c-.99-3.24-1.35-4.63-5.98-5.26-.76-.09-1.44-.13-2.02-.13-.81,0-1.53.04-2.11.09-.81,0-.94.49-.99.9-.04.31-.31,3.87-.31,10.92,0,2.92.04,6.56.04,9.04.04,6.07-.4,7.51,4.76,8.14.31.22.45.54.45.76,0,.31-.18.54-.54.54,0,0-3.96-.31-7.91-.31-1.98,0-3.96.09-5.44.31h-.13c-.27,0-.4-.23-.4-.49s.13-.63.4-.85c4.76-.72,4.76-.76,4.85-8.14.04-2.07.04-4.54.04-6.83s0-4.45-.04-5.89c0-.18-.04-6.16-.27-7.15-.22-.94-.31-.99-3.51-.99-4.67,0-6.34,1.08-8.36,5.71-.09.22-.36.31-.63.31-.31,0-.63-.13-.63-.45v-.09c.54-2.88,1.62-6.11,1.75-8.05.05-.27.36-.45.72-.45.27,0,.54.14.63.36.36.94,1.8,1.26,4.41,1.26,2.79.04,5.53.09,8.18.09,9.75,0,12.36-.31,13.26-1.48.09-.13.27-.18.4-.18.31,0,.67.18.67.36v.04c-.09.63-.13,1.57-.13,2.56Z"/><path class="cls-1" d="M54.53,90.71c0,.27-.13.45-.4.45,0,0-2.65-.27-5.39-.27-1.35,0-2.74.04-3.87.27h-.09c-.22,0-.36-.18-.36-.4,0-.27.09-.54.36-.72,2.92-.27,2.97-1.89,2.97-6.92v-1.08c0-1.12,0-2.61-.04-2.97-.18-3.06-2.11-4.41-3.96-4.41-3.06,0-4.76,2.29-4.9,3.55-.04.49-.09,1.71-.09,3.15,0,2.43.09,5.39.14,6.2.09,1.21.72,2.38,3.01,2.43.22.18.31.45.31.63,0,.31-.18.54-.4.54,0,0-2.7-.31-5.44-.31-1.35,0-2.74.09-3.82.31h-.09c-.22,0-.36-.18-.36-.45,0-.22.13-.54.4-.72,2.25-.22,2.56-1.26,2.65-2.38.09-1.53.27-12.27.27-18.07,0-8.86,0-9.04-2.74-9.71-.13-.04-.22-.27-.22-.49,0-.18.09-.4.22-.45,2.11-.36,4.54-1.3,5.84-1.93.09-.04.18-.09.27-.09.18,0,.36.13.36.49-.18,4.18-.13,8.09-.27,15.15l-.04,2.7c0,.13.09.22.18.22t.09-.04c2.11-2.47,4.36-2.97,5.93-2.97,3.42,0,6.07,2.25,6.25,6.07.04.99.04,3.24.04,4.67s0,3.64.04,4.41c.09,1.26.72,2.43,2.83,2.47.22.22.31.45.31.67Z"/><path class="cls-1" d="M65.99,91.88c-5.12,0-9.08-3.64-9.08-9.44,0-5.17,3.82-10.07,9.4-10.07,4.59,0,6.65,3.19,6.65,5.12,0,2.2-3.24,2.25-11.15,2.25-.94,0-1.26.27-1.26,1.8,0,4.18,2.47,8.23,7.01,8.23,2.52,0,3.96-1.26,4.54-1.8.09-.09.18-.13.31-.13.31,0,.72.4.72.81,0,.27-2.02,3.24-7.15,3.24ZM65.58,73.63c-3.55,0-4.72,4.05-4.72,4.72,0,.22.04.4.22.4h.09c1.57-.49,4.32-.81,6.56-1.03.45-.05,1.26-.27,1.26-.99-.05-1.12-.9-3.1-3.42-3.1Z"/><path class="cls-1" d="M120.47,78.13c.27,0,.45.27.45.54,0,.36-.22.72-.67.85-2.2.49-2.38.85-2.38,4.5,0,2.43.22,4.32,1.3,5.12.14.09.18.22.18.36,0,.27-.23.54-.54.58-.31,0-6.2,1.71-11.82,1.71-9.35,0-18.12-5.62-18.12-16.99,0-8.81,7.46-16.36,17.4-16.36,4,0,6.38.81,9.31.81h.45c1.08,0,1.3,0,1.35,1.08,0,1.26.81,4.9.81,6.56,0,.31-.45.49-.81.49-.22,0-.45-.09-.54-.27-1.75-5.12-5.93-7.19-10.74-7.19-6.16,0-12.54,4.9-12.54,14.88s6.56,15.37,13.89,15.37c6.02,0,6.74-3.64,6.74-6.25,0-.45-.04-.94-.09-1.57-.22-2.83-2.07-2.56-4.63-2.83-.31-.04-.49-.4-.49-.76,0-.31.13-.63.49-.63,0,0,3.19.22,6.43.22,1.62,0,3.24-.05,4.5-.22h.09Z"/><path class="cls-1" d="M137.95,73.81c0,1.08-1.21,2.43-2.47,2.43-.31,0-.58-.09-.9-.27-.76-.49-1.44-.67-2.02-.67-1.53,0-2.38,1.44-2.47,2.74,0,.67-.05,1.98-.05,3.28,0,4.32.13,6.02.13,6.02.13,1.93,1.08,2.34,3.6,2.65.18.18.27.4.27.63,0,.31-.13.54-.36.54,0,0-2.97-.23-5.89-.23-1.44,0-2.88.05-3.96.23h-.09c-.22,0-.31-.18-.31-.4s.09-.49.31-.72c2.88-.18,2.88-1.3,2.88-4.99v-.49c.04-.63.04-1.44.04-2.29,0-5.89-.09-7.06-2.25-7.55-.13-.04-.22-.23-.22-.45,0-.18.09-.36.27-.4,1.8-.4,3.87-1.35,4.85-1.8h.18c.31,0,.49.27.49.76l-.13,2.11v.09c0,.18.05.23.13.23.04,0,.09-.04.13-.09,1.62-1.53,3.91-2.79,5.57-2.79s2.25.67,2.25,1.44Z"/><path class="cls-1" d="M149.23,91.88c-5.12,0-9.08-3.64-9.08-9.44,0-5.17,3.82-10.07,9.4-10.07,4.59,0,6.65,3.19,6.65,5.12,0,2.2-3.24,2.25-11.15,2.25-.94,0-1.26.27-1.26,1.8,0,4.18,2.47,8.23,7.01,8.23,2.52,0,3.96-1.26,4.54-1.8.09-.09.18-.13.31-.13.31,0,.72.4.72.81,0,.27-2.02,3.24-7.15,3.24ZM148.83,73.63c-3.55,0-4.72,4.05-4.72,4.72,0,.22.04.4.22.4h.09c1.57-.49,4.32-.81,6.56-1.03.45-.05,1.26-.27,1.26-.99-.04-1.12-.9-3.1-3.42-3.1Z"/><path class="cls-1" d="M168.52,91.88c-5.12,0-9.08-3.64-9.08-9.44,0-5.17,3.82-10.07,9.4-10.07,4.59,0,6.65,3.19,6.65,5.12,0,2.2-3.24,2.25-11.15,2.25-.94,0-1.26.27-1.26,1.8,0,4.18,2.47,8.23,7.01,8.23,2.52,0,3.96-1.26,4.54-1.8.09-.09.18-.13.31-.13.31,0,.72.4.72.81,0,.27-2.02,3.24-7.15,3.24ZM168.11,73.63c-3.55,0-4.72,4.05-4.72,4.72,0,.22.04.4.22.4h.09c1.57-.49,4.32-.81,6.56-1.03.45-.05,1.26-.27,1.26-.99-.04-1.12-.9-3.1-3.42-3.1Z"/><path class="cls-1" d="M200.48,90.67c0,.27-.18.49-.45.49,0,0-2.83-.23-5.53-.23-1.3,0-2.65.05-3.55.23h-.13c-.22,0-.31-.18-.31-.4,0-.27.09-.54.36-.72,2.16-.18,2.92-.45,2.92-6.88,0-1.3-.04-3.37-.09-4.18-.18-3.15-2.11-4.32-3.96-4.32-3.06,0-4.77,2.11-4.94,3.46-.09,1.03-.13,2.74-.13,4.23,0,.85.04,1.62.04,2.11v1.53c0,2.56.31,4,3.06,4.05.18.18.27.4.27.63,0,.27-.13.49-.4.49,0,0-2.74-.23-5.44-.23-1.35,0-2.65.05-3.64.23h-.09c-.22,0-.31-.18-.31-.45,0-.22.09-.49.31-.67,2.61-.31,2.83-.67,2.83-8.27,0-5.66-.04-6.38-2.2-6.79-.18-.04-.31-.27-.31-.49s.13-.45.36-.49c1.89-.36,3.82-1.39,4.9-1.89.09-.04.22-.09.27-.09.23,0,.31.18.31.49v.13c0,.58-.04,1.57-.04,2.29v.49c0,.09.04.18.13.18.04,0,.09-.05.13-.09.94-1.03,3.24-3.1,6.2-3.1,3.46,0,6.11,2.11,6.25,6.02v5.62c0,4.63.04,5.8,2.88,5.98.23.18.32.4.32.63Z"/><path class="cls-1" d="M207.85,91.7c-2.07,0-3.6-.49-4.76-1.08-.76-.4-.85-3.78-.85-4v-.05c0-.27.27-.36.58-.36.27,0,.54.09.58.22.76,2.02,1.98,4.09,4.36,4.09,3.28,0,3.42-2.88,3.42-3.19,0-1.48-1.12-2.74-2.74-3.73-2.74-1.71-5.12-3.28-5.12-6.43,0-3.37,3.46-4.9,6.11-4.9,1.39,0,3.82.27,4.18,1.21.23.63.54,2.2.54,2.92,0,.22-.36.4-.63.4-.18,0-.36-.09-.4-.18-.85-1.71-1.84-3.24-3.73-3.24-.99,0-3.01.27-3.01,2.83,0,1.44.58,1.89,4.14,4.05,2.16,1.35,3.82,2.97,3.82,5.89,0,4.18-3.91,5.53-6.47,5.53Z"/><path class="cls-1" d="M239.4,91.84c-5.62,0-9.66-4.18-9.66-9.62s4.09-9.8,9.75-9.8,9.57,4.41,9.57,9.8-3.6,9.62-9.66,9.62ZM239.27,73.54c-3.78,0-5.53,3.51-5.53,7.6,0,1.53.31,9.48,5.98,9.48,3.82,0,5.3-3.42,5.3-7.55,0-3.69-1.17-9.53-5.75-9.53Z"/><path class="cls-1" d="M270.6,62.12c-.58,0-1.44-.4-2.61-1.89-.72-.94-1.84-2.02-3.15-2.02-5.75,0-5.93,6.52-5.93,14.29,0,.36.4.58.85.58.27,0,1.66-.09,2.2-.18h.04c.27,0,.45.27.45.85v.18c-.09.58-.31,1.03-.58,1.03-.4-.04-1.08-.04-1.71-.04h-.72c-.49,0-.58.27-.58.58v9.22c.04,3.24-.31,4.76,3.73,5.3.18.18.27.4.27.63,0,.27-.18.54-.4.54,0,0-3.01-.36-6.11-.36-1.48,0-2.97.09-4.18.31h-.13c-.23,0-.36-.18-.36-.4,0-.27.13-.54.36-.72,3.46-.49,3.19-2.7,3.24-5.26v-9.08c0-.58-.27-.76-.9-.76-.22-.05-.49-.05-.76-.05-.22,0-.45,0-.58.05-.22,0-.36-.32-.36-.67,0-.31.09-.58.31-.67.94-.31,2.07-.94,2.2-2.2.13-1.44.22-2.29.31-3.37.63-7.73,5.21-11.1,10.2-11.1,1.08,0,6.25.36,6.25,3.46,0,1.66-1.08,1.75-1.35,1.75Z"/><path class="cls-1" d="M285.48,91.75c-2.92,0-4.99-1.66-5.17-4.72-.09-1.3-.13-2.83-.13-4.45,0-2.47.09-5.08.18-6.83,0-.63-.13-.54-.45-.58-.49,0-1.53.22-2.02.22h-.04c-.22,0-.36-.36-.36-.72,0-.31.13-.67.36-.72,2.2-.63,4.41-2.38,5.21-4.68.13-.36.45-.49.76-.49s.63.18.63.4v.04c0,1.03-.14,3.24-.14,3.24v.18c0,.31.09.45.4.45.27,0,3.19-.13,5.35-.63h.09c.36,0,.49.4.49.85,0,.63-.22,1.3-.49,1.3-2.43,0-5.53.27-5.53.27-.49.05-.49.22-.49.54-.13,1.35-.18,3.6-.18,5.75,0,5.71.09,8.27,3.24,8.27.14,0,1.35,0,3.28-.81h.04c.22,0,.58.49.58.81,0,.67-2.7,2.29-5.62,2.29Z"/><path class="cls-1" d="M314.96,90.71c0,.27-.14.45-.4.45,0,0-2.65-.27-5.39-.27-1.35,0-2.74.04-3.87.27h-.09c-.22,0-.36-.18-.36-.4,0-.27.09-.54.36-.72,2.92-.27,2.97-1.89,2.97-6.92v-1.08c0-1.12,0-2.61-.04-2.97-.18-3.06-2.11-4.41-3.96-4.41-3.06,0-4.77,2.29-4.9,3.55-.04.49-.09,1.71-.09,3.15,0,2.43.09,5.39.13,6.2.09,1.21.72,2.38,3.01,2.43.22.18.31.45.31.63,0,.31-.18.54-.4.54,0,0-2.7-.31-5.44-.31-1.35,0-2.74.09-3.82.31h-.09c-.22,0-.36-.18-.36-.45,0-.22.14-.54.4-.72,2.25-.22,2.56-1.26,2.65-2.38.09-1.53.27-12.27.27-18.07,0-8.86,0-9.04-2.74-9.71-.13-.04-.22-.27-.22-.49,0-.18.09-.4.22-.45,2.11-.36,4.54-1.3,5.84-1.93.09-.04.18-.09.27-.09.18,0,.36.13.36.49-.18,4.18-.13,8.09-.27,15.15l-.04,2.7c0,.13.09.22.18.22t.09-.04c2.11-2.47,4.36-2.97,5.93-2.97,3.42,0,6.07,2.25,6.25,6.07.05.99.05,3.24.05,4.67s0,3.64.04,4.41c.09,1.26.72,2.43,2.83,2.47.23.22.32.45.32.67Z"/><path class="cls-1" d="M326.43,91.88c-5.12,0-9.08-3.64-9.08-9.44,0-5.17,3.82-10.07,9.4-10.07,4.59,0,6.65,3.19,6.65,5.12,0,2.2-3.24,2.25-11.15,2.25-.94,0-1.26.27-1.26,1.8,0,4.18,2.47,8.23,7.01,8.23,2.52,0,3.96-1.26,4.54-1.8.09-.09.18-.13.31-.13.31,0,.72.4.72.81,0,.27-2.02,3.24-7.15,3.24ZM326.02,73.63c-3.55,0-4.72,4.05-4.72,4.72,0,.22.04.4.22.4h.09c1.57-.49,4.32-.81,6.56-1.03.45-.05,1.26-.27,1.26-.99-.04-1.12-.9-3.1-3.42-3.1Z"/><path class="cls-1" d="M377.8,88.33c-.18.63-.13.63-.67.99-2.2,1.39-6.38,2.47-9.71,2.47-9.58,0-18.12-5.62-18.12-16.99,0-8.81,7.46-16.36,17.4-16.36,4.09,0,6.47.85,9.57.85h.22c1.12,0,1.3,0,1.35,1.03.04,1.26.76,4.9.76,6.61,0,.31-.45.49-.81.49-.22,0-.45-.09-.49-.27-1.8-5.17-5.93-7.19-10.79-7.19-6.16,0-12.54,4.81-12.54,14.83s6.52,15.37,13.89,15.37c3.82,0,7.82-3.01,9.75-7.37.09-.18.31-.22.54-.22.4,0,.9.22.9.63,0,.09-.04.18-.09.27-.63,1.17-.9,3.69-1.17,4.85Z"/><path class="cls-1" d="M392.68,90.67c0,.27-.13.49-.36.49,0,0-2.7-.27-5.53-.27-1.39,0-2.88.04-4.05.27h-.09c-.18,0-.31-.18-.31-.45,0-.22.09-.49.36-.72,3.1-.36,3.15-2.11,3.15-6.83,0-1.66-.04-3.33-.13-5.03-.09-2.11-.27-2.7-2.25-3.1-.18-.04-.31-.27-.31-.49,0-.27.13-.49.31-.49,2.02-.27,4-1.12,5.48-1.84.13-.09.27-.13.36-.13.23,0,.36.13.36.45v.13c-.13,1.57-.18,5.03-.31,7.55,0,1.03-.05,2.2-.05,3.46v1.26c0,3.1.05,4.9,3.1,5.08.18.18.27.45.27.67ZM387.29,64.86c-1.57,0-2.83-1.3-2.83-2.88s1.26-2.79,2.83-2.79,2.79,1.26,2.79,2.79-1.21,2.88-2.79,2.88Z"/><path class="cls-1" d="M402.75,91.75c-2.92,0-4.99-1.66-5.17-4.72-.09-1.3-.13-2.83-.13-4.45,0-2.47.09-5.08.18-6.83,0-.63-.13-.54-.45-.58-.49,0-1.53.22-2.02.22h-.04c-.22,0-.36-.36-.36-.72,0-.31.13-.67.36-.72,2.2-.63,4.41-2.38,5.21-4.68.13-.36.45-.49.76-.49s.63.18.63.4v.04c0,1.03-.14,3.24-.14,3.24v.18c0,.31.09.45.4.45.27,0,3.19-.13,5.35-.63h.09c.36,0,.49.4.49.85,0,.63-.22,1.3-.49,1.3-2.43,0-5.53.27-5.53.27-.49.05-.49.22-.49.54-.13,1.35-.18,3.6-.18,5.75,0,5.71.09,8.27,3.24,8.27.14,0,1.35,0,3.28-.81h.05c.22,0,.58.49.58.81,0,.67-2.7,2.29-5.62,2.29Z"/><path class="cls-1" d="M426.48,76.42c-3.33,7.73-5.35,15.87-9.39,23.42-1.21,2.25-3.24,5.39-6.11,5.39-.85,0-1.89-.45-1.89-1.75,0-.94.76-2.11,1.98-2.29,1.44-.23,2.74.13,4.05-1.75,2.11-2.88,3.78-7.28,3.78-7.69,0-.31-.09-.63-.22-.9-2.34-4.58-5.53-12.09-6.83-14.79-.58-1.17-.85-1.48-2.43-1.75-.18-.18-.27-.49-.27-.72,0-.31.14-.58.4-.58,0,0,2.34.27,4.86.27,1.26,0,2.61-.09,3.69-.27h.04c.27,0,.45.27.45.58,0,.27-.14.58-.4.72-.94.18-2.43.27-2.43,1.26,0,.72,4.63,11.51,5.08,11.51s3.69-10.52,3.69-11.24c0-1.21-1.39-1.39-2.7-1.53-.22-.22-.36-.54-.36-.76,0-.27.13-.49.4-.49,0,0,1.75.23,3.87.23,1.12,0,2.34-.09,3.42-.27h.04c.31,0,.49.31.49.63,0,.27-.13.54-.4.67-1.48.22-2.25.9-2.79,2.11Z"/><path class="cls-1" d="M435.47,90.26c0,4.99-5.53,7.24-6.65,7.24-.4,0-.76-.58-.76-.99,0-.18.09-.31.23-.36,3.1-.76,4.05-2.34,4.05-3.51,0-1.26-.67-1.57-1.84-2.02-.99-.45-1.48-1.26-1.48-2.07,0-1.35,1.21-2.61,2.83-2.61,2.83,0,3.64,3.1,3.64,4.32Z"/><path class="cls-1" d="M30.57,142.27c-.18.63-.13.63-.67.99-2.2,1.39-6.38,2.47-9.71,2.47-9.58,0-18.12-5.62-18.12-16.99,0-8.81,7.46-16.36,17.4-16.36,4.09,0,6.47.85,9.57.85h.22c1.12,0,1.3,0,1.35,1.03.04,1.26.76,4.9.76,6.61,0,.31-.45.49-.81.49-.22,0-.45-.09-.49-.27-1.8-5.17-5.93-7.19-10.79-7.19-6.16,0-12.54,4.81-12.54,14.83s6.52,15.37,13.89,15.37c3.82,0,7.82-3.01,9.75-7.37.09-.18.31-.23.54-.23.4,0,.9.23.9.63,0,.09-.05.18-.09.27-.63,1.17-.9,3.69-1.17,4.85Z"/><path class="cls-1" d="M49.18,145.78c-1.3,0-2.56-.58-3.15-2.38-.13-.4-.18-.63-.22-.63s-.09.04-.13.13c-.4.45-2.65,3.01-6.02,3.01-3.19,0-4.36-2.65-4.36-4.05,0-1.8,1.66-3.33,3.42-4.09,3.1-1.35,5.48-1.8,6.92-2.74.14-.04.27-.09.27-.4.04-.27.09-1.08.18-2.02,0-1.71-.05-4.77-3.01-4.77-1.35,0-2.38,1.03-2.38,2.07-.09,2.29-2.02,2.79-2.83,2.79-.76,0-1.35-.4-1.35-1.12,0-1.8,3.91-5.21,8-5.21,3.46,0,5.3,1.75,5.3,5.03,0,.23-.04.45-.04.67-.18,2.2-.4,6.07-.4,7.42,0,2.38.63,3.78,1.66,3.78.54,0,1.44-.45,1.89-.72.05-.04.13-.04.18-.04.31,0,.58.45.58.72s-1.71,2.56-4.5,2.56ZM45.89,136.97c0-.31-.09-.45-.22-.45,0,0-4.14,1.66-4.94,2.11-1.08.63-1.35,1.3-1.35,2.16v.4c.18.9,1.08,2.47,2.56,2.47,1.84,0,3.91-2.43,3.91-3.46v-.09c-.04-.27-.04-.59-.04-.9,0-.72.04-1.48.09-1.93v-.31Z"/><path class="cls-1" d="M69.45,127.75c0,1.08-1.21,2.43-2.47,2.43-.31,0-.58-.09-.9-.27-.76-.49-1.44-.67-2.02-.67-1.53,0-2.38,1.44-2.47,2.74,0,.67-.04,1.98-.04,3.28,0,4.32.13,6.02.13,6.02.14,1.93,1.08,2.34,3.6,2.65.18.18.27.4.27.63,0,.31-.13.54-.36.54,0,0-2.97-.22-5.89-.22-1.44,0-2.88.04-3.96.22h-.09c-.22,0-.31-.18-.31-.4s.09-.49.31-.72c2.88-.18,2.88-1.3,2.88-4.99v-.49c.04-.63.04-1.44.04-2.29,0-5.89-.09-7.06-2.25-7.55-.13-.05-.22-.23-.22-.45,0-.18.09-.36.27-.4,1.8-.4,3.87-1.35,4.86-1.8h.18c.31,0,.49.27.49.76l-.13,2.11v.09c0,.18.05.22.13.22.05,0,.09-.04.13-.09,1.62-1.53,3.91-2.79,5.57-2.79s2.25.67,2.25,1.44Z"/><path class="cls-1" d="M80.73,145.82c-5.12,0-9.08-3.64-9.08-9.44,0-5.17,3.82-10.07,9.39-10.07,4.59,0,6.65,3.19,6.65,5.12,0,2.2-3.24,2.25-11.15,2.25-.94,0-1.26.27-1.26,1.8,0,4.18,2.47,8.23,7.01,8.23,2.52,0,3.96-1.26,4.54-1.8.09-.09.18-.13.31-.13.31,0,.72.4.72.81,0,.27-2.02,3.24-7.15,3.24ZM80.33,127.57c-3.55,0-4.72,4.05-4.72,4.72,0,.23.04.4.22.4h.09c1.57-.49,4.32-.81,6.56-1.03.45-.04,1.26-.27,1.26-.99-.05-1.12-.9-3.1-3.42-3.1Z"/><path class="cls-1" d="M107.25,145.82c-.18.13-.31.18-.45.18-.18,0-.31-.18-.54-.49-.22-.4-.63-1.26-.85-1.8-.04-.09-.09-.18-.18-.18-.04,0-.09,0-.18.09-.72.63-2.61,2.02-5.3,2.02-5.98,0-8.86-4.54-8.86-9.35,0-5.26,3.37-9.84,9.66-9.84,1.48,0,2.65.45,4.23.81h.04c.14,0,.4-.36.4-.72,0-1.26.09-3.78.09-6.07,0-1.44-.04-2.74-.13-3.6-.31-2.56-.45-2.56-2.56-3.06-.22-.04-.36-.36-.36-.58s.09-.4.22-.4c2.16-.36,4.54-1.35,5.98-1.98.04-.04.13-.04.22-.04.22,0,.49.18.49.58-.09,1.89-.22,4.36-.22,6.74-.09,5.71-.27,11.42-.27,17.13,0,1.35,0,2.74.04,4.09.09,2.38,1.17,3.51,2.79,3.51.31,0,.58-.05.9-.09.22-.04.36.36.36.67,0,.22-.05.4-.22.45-1.53.4-4.32,1.26-5.3,1.93ZM100.15,127.84c-2.2,0-5.57,1.26-5.57,7.1,0,4.27,2.34,8.54,6.43,8.54,3.1,0,3.96-2.02,4.14-3.15.09-.81.14-2.38.14-3.87,0-1.03,0-2.07-.05-2.7-.13-4.05-2.34-5.93-5.08-5.93Z"/><path class="cls-1" d="M144.83,116.06c-.58,0-1.44-.4-2.61-1.89-.72-.94-1.84-2.02-3.15-2.02-5.75,0-5.93,6.52-5.93,14.29,0,.36.4.58.85.58.27,0,1.66-.09,2.2-.18h.04c.27,0,.45.27.45.85v.18c-.09.58-.31,1.03-.58,1.03-.4-.04-1.08-.04-1.71-.04h-.72c-.49,0-.58.27-.58.58v9.22c.04,3.24-.31,4.76,3.73,5.3.18.18.27.4.27.63,0,.27-.18.54-.4.54,0,0-3.01-.36-6.11-.36-1.48,0-2.97.09-4.18.31h-.13c-.23,0-.36-.18-.36-.4,0-.27.13-.54.36-.72,3.46-.49,3.19-2.7,3.24-5.26v-9.08c0-.58-.27-.76-.9-.76-.22-.05-.49-.05-.76-.05-.22,0-.45,0-.58.05-.22,0-.36-.31-.36-.67,0-.31.09-.58.31-.67.94-.31,2.07-.94,2.2-2.2.13-1.44.22-2.29.31-3.37.63-7.73,5.21-11.1,10.2-11.1,1.08,0,6.25.36,6.25,3.46,0,1.66-1.08,1.75-1.35,1.75Z"/><path class="cls-1" d="M149.77,145.78c-5.62,0-9.66-4.18-9.66-9.62s4.09-9.8,9.75-9.8,9.57,4.41,9.57,9.8-3.6,9.62-9.66,9.62ZM149.64,127.48c-3.78,0-5.53,3.51-5.53,7.6,0,1.53.31,9.49,5.98,9.49,3.82,0,5.3-3.42,5.3-7.55,0-3.69-1.17-9.53-5.75-9.53Z"/><path class="cls-1" d="M176.88,127.75c0,1.08-1.21,2.43-2.47,2.43-.31,0-.58-.09-.9-.27-.76-.49-1.44-.67-2.02-.67-1.53,0-2.38,1.44-2.47,2.74,0,.67-.04,1.98-.04,3.28,0,4.32.13,6.02.13,6.02.13,1.93,1.08,2.34,3.6,2.65.18.18.27.4.27.63,0,.31-.13.54-.36.54,0,0-2.97-.22-5.89-.22-1.44,0-2.88.04-3.96.22h-.09c-.22,0-.31-.18-.31-.4s.09-.49.31-.72c2.88-.18,2.88-1.3,2.88-4.99v-.49c.04-.63.04-1.44.04-2.29,0-5.89-.09-7.06-2.25-7.55-.13-.05-.22-.23-.22-.45,0-.18.09-.36.27-.4,1.8-.4,3.87-1.35,4.86-1.8h.18c.32,0,.49.27.49.76l-.13,2.11v.09c0,.18.04.22.13.22.04,0,.09-.04.13-.09,1.62-1.53,3.91-2.79,5.57-2.79s2.25.67,2.25,1.44Z"/><path class="cls-1" d="M213.24,144.52c-.22.54-.4.58-1.26.58,0,0-7.28-.27-13.44-.27-3.1,0-5.89.04-7.33.27h-.14c-.27,0-.4-.22-.4-.49s.13-.58.4-.81c4-.31,3.91-.67,4-7.82.04-2.02.04-4.36.04-6.7s0-4.72-.04-6.74c-.09-7.15.45-7.64-4.14-8.09-.27-.22-.4-.49-.4-.76s.18-.54.49-.54c0,0,3.46.22,6.97.22,1.89,0,3.82-.04,5.21-.27h.09c.27,0,.4.27.4.54,0,.31-.13.63-.4.81-4.54.54-4.14.9-4.27,8.14,0,1.71-.05,4.23-.05,6.83s.05,5.3.05,7.33c.09,5.39.27,6.43,4,6.79.13,0,.31.04.54.04.76,0,1.84-.13,2.65-.22,4.76-.49,6.38-2.56,8.5-5.71.04-.09.23-.13.4-.13.36,0,.76.13.76.4,0,.45-1.84,4.81-2.65,6.61Z"/><path class="cls-1" d="M227.45,144.61c0,.27-.13.49-.36.49,0,0-2.7-.27-5.53-.27-1.39,0-2.88.04-4.05.27h-.09c-.18,0-.31-.18-.31-.45,0-.22.09-.49.36-.72,3.1-.36,3.15-2.11,3.15-6.83,0-1.66-.04-3.33-.13-5.03-.09-2.11-.27-2.7-2.25-3.1-.18-.04-.31-.27-.31-.49,0-.27.13-.49.31-.49,2.02-.27,4-1.12,5.48-1.84.13-.09.27-.13.36-.13.23,0,.36.13.36.45v.13c-.13,1.57-.18,5.04-.32,7.55,0,1.03-.04,2.2-.04,3.46v1.26c0,3.1.04,4.9,3.1,5.08.18.18.27.45.27.67ZM222.05,118.81c-1.57,0-2.83-1.3-2.83-2.88s1.26-2.79,2.83-2.79,2.79,1.26,2.79,2.79-1.21,2.88-2.79,2.88Z"/><path class="cls-1" d="M251.27,144.61c0,.31-.18.54-.4.54,0,0-2.65-.27-5.35-.27-1.35,0-2.7.09-3.78.27h-.09c-.23,0-.36-.22-.36-.49,0-.22.13-.54.4-.67.54-.09,1.71-.31,1.71-1.03,0-.81-5.98-7.24-6.65-7.42h-.36c-.27,0-.31.27-.31.85,0,.81-.04,1.66-.04,2.47,0,3.64.04,4.76,2.92,5.12.22.22.31.45.31.67,0,.27-.18.49-.4.49,0,0-2.61-.27-5.3-.27-1.35,0-2.7.04-3.78.27h-.09c-.27,0-.4-.22-.4-.49,0-.22.13-.49.36-.67,2.34-.27,2.61-1.3,2.7-2.38.36-4.63.36-16.54.36-17.98,0-9.12-.04-9.21-2.56-9.89-.23-.04-.36-.27-.36-.54,0-.18.13-.4.4-.45,2.29-.32,4.5-1.48,5.57-1.89.09-.04.18-.04.27-.04.22,0,.4.09.4.4v.09c-.31,4.14-.22,12.72-.31,17.13-.04,1.71-.04,3.37-.09,5.08,0,.58.31.81.63.81,1.3,0,6.97-4.77,6.97-5.39,0-.49-.85-.67-1.66-.81-.22-.14-.36-.4-.36-.63,0-.27.18-.49.45-.49,0,0,1.89.23,4.14.23,1.12,0,2.34-.04,3.46-.23h.04c.22,0,.4.31.4.63,0,.22-.09.45-.31.54-1.21.22-2.83.9-4.45,1.93-1.53.99-3.91,2.97-4.9,3.6-.09.09-.18.23-.18.36,0,.45,6.56,7.06,7.87,8.36.76.76,1.66,1.39,2.83,1.53.22.22.31.45.31.67Z"/><path class="cls-1" d="M262.19,145.82c-5.12,0-9.08-3.64-9.08-9.44,0-5.17,3.82-10.07,9.4-10.07,4.59,0,6.65,3.19,6.65,5.12,0,2.2-3.24,2.25-11.15,2.25-.94,0-1.26.27-1.26,1.8,0,4.18,2.47,8.23,7.01,8.23,2.52,0,3.96-1.26,4.54-1.8.09-.09.18-.13.31-.13.31,0,.72.4.72.81,0,.27-2.02,3.24-7.15,3.24ZM261.79,127.57c-3.55,0-4.72,4.05-4.72,4.72,0,.23.04.4.22.4h.09c1.57-.49,4.32-.81,6.56-1.03.45-.04,1.26-.27,1.26-.99-.04-1.12-.9-3.1-3.42-3.1Z"/><path class="cls-1" d="M297.84,145.78c-1.3,0-2.56-.58-3.15-2.38-.13-.4-.18-.63-.23-.63s-.09.04-.13.13c-.4.45-2.65,3.01-6.02,3.01-3.19,0-4.36-2.65-4.36-4.05,0-1.8,1.66-3.33,3.42-4.09,3.1-1.35,5.48-1.8,6.92-2.74.13-.04.27-.09.27-.4.05-.27.09-1.08.18-2.02,0-1.71-.04-4.77-3.01-4.77-1.35,0-2.38,1.03-2.38,2.07-.09,2.29-2.02,2.79-2.83,2.79-.76,0-1.35-.4-1.35-1.12,0-1.8,3.91-5.21,8-5.21,3.46,0,5.3,1.75,5.3,5.03,0,.23-.04.45-.04.67-.18,2.2-.4,6.07-.4,7.42,0,2.38.63,3.78,1.66,3.78.54,0,1.44-.45,1.89-.72.04-.04.13-.04.18-.04.31,0,.58.45.58.72s-1.71,2.56-4.5,2.56ZM294.56,136.97c0-.31-.09-.45-.23-.45,0,0-4.14,1.66-4.94,2.11-1.08.63-1.35,1.3-1.35,2.16v.4c.18.9,1.08,2.47,2.56,2.47,1.84,0,3.91-2.43,3.91-3.46v-.09c-.04-.27-.04-.59-.04-.9,0-.72.04-1.48.09-1.93v-.31Z"/><path class="cls-1" d="M328.72,145.15c-2.79,0-5.44-.31-8.27-.31-1.35,0-2.74.09-4.18.27h-.09c-.31,0-.45-.22-.45-.49s.13-.58.45-.81c3.78-.36,3.82-1.17,3.96-5.44,0-1.39,0-3.19.04-5.39.05-1.12.05-2.92.05-4.68s0-3.55-.05-4.63v-.9c0-7.01-.04-7.96-3.78-8.14-.27-.05-.4-.4-.4-.72s.13-.58.36-.58h.05c.67.09,1.48.09,2.38.09,2.7,0,6.07-.27,8.23-.27,6.16,0,11.01,1.98,11.01,7.01,0,4.45-3.42,6.56-6.38,7.15-.22.05-.31.09-.31.13,0,.13.63.22.76.27,3.87.4,8.5,3.01,8.5,7.96,0,7.15-7.1,9.48-11.87,9.48ZM327.06,114.44c-2.38,0-2.79.36-3.01,1.98-.05.14-.05.27-.05,4.59v4.94c.05.31.09,1.17.76,1.17h.23c.45-.09,1.35-.18,2.11-.18,2.38-.09,6.61-.67,6.61-5.93,0-3.06-1.62-6.56-6.65-6.56ZM327.59,128.38c-1.57,0-2.52.09-2.88.18-.49.13-.72.36-.72.85,0,2.25,0,5.53.05,7.33.14,4.58.23,7.1,4.85,7.1,4.27,0,7.28-3.51,7.28-7.51,0-3.69-1.93-7.96-8.59-7.96Z"/><path class="cls-1" d="M354.25,145.78c-5.62,0-9.66-4.18-9.66-9.62s4.09-9.8,9.75-9.8,9.57,4.41,9.57,9.8-3.6,9.62-9.66,9.62ZM354.12,127.48c-3.78,0-5.53,3.51-5.53,7.6,0,1.53.31,9.49,5.98,9.49,3.82,0,5.3-3.42,5.3-7.55,0-3.69-1.17-9.53-5.75-9.53Z"/><path class="cls-1" d="M389.13,144.61c0,.27-.18.49-.45.49,0,0-2.83-.22-5.53-.22-1.3,0-2.65.04-3.55.22h-.13c-.22,0-.31-.18-.31-.4,0-.27.09-.54.36-.72,2.16-.18,2.92-.45,2.92-6.88,0-1.3-.04-3.37-.09-4.18-.18-3.15-2.11-4.32-3.96-4.32-3.06,0-4.77,2.11-4.94,3.46-.09,1.03-.13,2.74-.13,4.23,0,.85.04,1.62.04,2.11v1.53c0,2.56.31,4,3.06,4.05.18.18.27.4.27.63,0,.27-.13.49-.4.49,0,0-2.74-.22-5.44-.22-1.35,0-2.65.04-3.64.22h-.09c-.22,0-.31-.18-.31-.45,0-.22.09-.49.31-.67,2.61-.31,2.83-.67,2.83-8.27,0-5.66-.04-6.38-2.2-6.79-.18-.04-.31-.27-.31-.49s.13-.45.36-.49c1.89-.36,3.82-1.39,4.9-1.89.09-.04.22-.09.27-.09.23,0,.31.18.31.49v.13c0,.59-.05,1.57-.05,2.29v.49c0,.09.05.18.13.18.04,0,.09-.04.13-.09.94-1.03,3.24-3.1,6.2-3.1,3.46,0,6.11,2.11,6.25,6.02v5.62c0,4.63.05,5.8,2.88,5.98.23.18.31.4.31.63Z"/><path class="cls-1" d="M396.5,145.64c-2.07,0-3.6-.49-4.76-1.08-.76-.4-.85-3.78-.85-4v-.05c0-.27.27-.36.58-.36.27,0,.54.09.58.22.76,2.02,1.98,4.09,4.36,4.09,3.28,0,3.42-2.88,3.42-3.19,0-1.48-1.12-2.74-2.74-3.73-2.74-1.71-5.12-3.28-5.12-6.43,0-3.37,3.46-4.9,6.11-4.9,1.39,0,3.82.27,4.18,1.21.23.63.54,2.2.54,2.92,0,.22-.36.4-.63.4-.18,0-.36-.09-.4-.18-.85-1.71-1.84-3.24-3.73-3.24-.99,0-3.01.27-3.01,2.83,0,1.44.58,1.89,4.14,4.05,2.16,1.35,3.82,2.97,3.82,5.89,0,4.18-3.91,5.53-6.47,5.53Z"/><path class="cls-1" d="M419.88,145.78c-1.3,0-2.56-.58-3.15-2.38-.13-.4-.18-.63-.23-.63s-.09.04-.13.13c-.4.45-2.65,3.01-6.02,3.01-3.19,0-4.36-2.65-4.36-4.05,0-1.8,1.66-3.33,3.42-4.09,3.1-1.35,5.48-1.8,6.92-2.74.13-.04.27-.09.27-.4.04-.27.09-1.08.18-2.02,0-1.71-.04-4.77-3.01-4.77-1.35,0-2.38,1.03-2.38,2.07-.09,2.29-2.02,2.79-2.83,2.79-.76,0-1.35-.4-1.35-1.12,0-1.8,3.91-5.21,8-5.21,3.46,0,5.3,1.75,5.3,5.03,0,.23-.04.45-.04.67-.18,2.2-.4,6.07-.4,7.42,0,2.38.63,3.78,1.66,3.78.54,0,1.44-.45,1.89-.72.04-.04.14-.04.18-.04.31,0,.58.45.58.72s-1.71,2.56-4.5,2.56ZM416.6,136.97c0-.31-.09-.45-.23-.45,0,0-4.14,1.66-4.94,2.11-1.08.63-1.35,1.3-1.35,2.16v.4c.18.9,1.08,2.47,2.56,2.47,1.84,0,3.91-2.43,3.91-3.46v-.09c-.05-.27-.05-.59-.05-.9,0-.72.05-1.48.09-1.93v-.31Z"/><path class="cls-1" d="M435.88,144.61c0,.27-.13.49-.36.49,0,0-2.7-.27-5.53-.27-1.39,0-2.88.04-4.05.27h-.09c-.18,0-.31-.18-.31-.45,0-.22.09-.49.36-.72,3.1-.36,3.15-2.11,3.15-6.83,0-1.66-.04-3.33-.13-5.03-.09-2.11-.27-2.7-2.25-3.1-.18-.04-.31-.27-.31-.49,0-.27.13-.49.31-.49,2.02-.27,4-1.12,5.48-1.84.13-.09.27-.13.36-.13.23,0,.36.13.36.45v.13c-.13,1.57-.18,5.04-.32,7.55,0,1.03-.04,2.2-.04,3.46v1.26c0,3.1.04,4.9,3.1,5.08.18.18.27.45.27.67ZM430.49,118.81c-1.57,0-2.83-1.3-2.83-2.88s1.26-2.79,2.83-2.79,2.79,1.26,2.79,2.79-1.21,2.88-2.79,2.88Z"/><path class="cls-1" d="M478.9,114.76c0,1.12.04,2.34.04,3.46,0,.63,0,1.21-.04,1.75,0,.31-.27.45-.54.45s-.58-.13-.63-.31c-.99-3.24-1.35-4.63-5.98-5.26-.76-.09-1.44-.13-2.02-.13-.81,0-1.53.04-2.11.09-.81,0-.94.49-.99.9-.04.31-.31,3.87-.31,10.92,0,2.92.05,6.56.05,9.04.04,6.07-.4,7.51,4.76,8.14.32.23.45.54.45.76,0,.31-.18.54-.54.54,0,0-3.96-.31-7.91-.31-1.98,0-3.96.09-5.44.31h-.14c-.27,0-.4-.22-.4-.49s.13-.63.4-.85c4.77-.72,4.77-.76,4.85-8.14.04-2.07.04-4.54.04-6.83s0-4.45-.04-5.89c0-.18-.04-6.16-.27-7.15-.23-.94-.31-.99-3.51-.99-4.68,0-6.34,1.08-8.36,5.71-.09.22-.36.31-.63.31-.31,0-.63-.13-.63-.45v-.09c.54-2.88,1.62-6.11,1.75-8.05.05-.27.36-.45.72-.45.27,0,.54.13.63.36.36.94,1.8,1.26,4.41,1.26,2.79.04,5.53.09,8.18.09,9.75,0,12.36-.31,13.26-1.48.09-.13.27-.18.4-.18.31,0,.67.18.67.36v.04c-.09.63-.13,1.57-.13,2.56Z"/><path class="cls-1" d="M493.1,127.75c0,1.08-1.21,2.43-2.47,2.43-.31,0-.58-.09-.9-.27-.76-.49-1.44-.67-2.02-.67-1.53,0-2.38,1.44-2.47,2.74,0,.67-.04,1.98-.04,3.28,0,4.32.13,6.02.13,6.02.13,1.93,1.08,2.34,3.6,2.65.18.18.27.4.27.63,0,.31-.13.54-.36.54,0,0-2.97-.22-5.89-.22-1.44,0-2.88.04-3.96.22h-.09c-.22,0-.31-.18-.31-.4s.09-.49.31-.72c2.88-.18,2.88-1.3,2.88-4.99v-.49c.04-.63.04-1.44.04-2.29,0-5.89-.09-7.06-2.25-7.55-.13-.05-.22-.23-.22-.45,0-.18.09-.36.27-.4,1.8-.4,3.87-1.35,4.85-1.8h.18c.32,0,.49.27.49.76l-.13,2.11v.09c0,.18.04.22.13.22.05,0,.09-.04.13-.09,1.62-1.53,3.91-2.79,5.57-2.79s2.25.67,2.25,1.44Z"/><path class="cls-1" d="M504.38,145.82c-5.12,0-9.08-3.64-9.08-9.44,0-5.17,3.82-10.07,9.39-10.07,4.59,0,6.65,3.19,6.65,5.12,0,2.2-3.24,2.25-11.15,2.25-.94,0-1.26.27-1.26,1.8,0,4.18,2.47,8.23,7.01,8.23,2.52,0,3.96-1.26,4.54-1.8.09-.09.18-.13.31-.13.31,0,.72.4.72.81,0,.27-2.02,3.24-7.15,3.24ZM503.98,127.57c-3.55,0-4.72,4.05-4.72,4.72,0,.23.04.4.22.4h.09c1.57-.49,4.32-.81,6.56-1.03.45-.04,1.26-.27,1.26-.99-.04-1.12-.9-3.1-3.42-3.1Z"/><path class="cls-1" d="M523.67,145.82c-5.12,0-9.08-3.64-9.08-9.44,0-5.17,3.82-10.07,9.39-10.07,4.59,0,6.65,3.19,6.65,5.12,0,2.2-3.24,2.25-11.15,2.25-.94,0-1.26.27-1.26,1.8,0,4.18,2.47,8.23,7.01,8.23,2.52,0,3.96-1.26,4.54-1.8.09-.09.18-.13.31-.13.31,0,.72.4.72.81,0,.27-2.02,3.24-7.15,3.24ZM523.26,127.57c-3.55,0-4.72,4.05-4.72,4.72,0,.23.04.4.22.4h.09c1.57-.49,4.32-.81,6.56-1.03.45-.04,1.26-.27,1.26-.99-.04-1.12-.9-3.1-3.42-3.1Z"/></g></svg>