<?xml version="1.0" encoding="UTF-8"?><svg id="_圖層_2" xmlns="http://www.w3.org/2000/svg" viewBox="0 0 76.49 101.94"><defs><style>.cls-1{fill:#231815;}</style></defs><g id="_圖層_1-2"><path d="M36.51,74.28h-.18c-14.5-.1-26.22-11.98-26.13-26.48.1-14.44,11.88-26.13,26.3-26.13h.18c7.03.05,13.61,2.83,18.55,7.83,4.94,5,7.63,11.62,7.58,18.65-.05,7.03-2.83,13.61-7.83,18.55-4.96,4.89-11.51,7.58-18.47,7.58ZM10.33,47.8h.13c-.1,14.36,11.51,26.13,25.87,26.22.06,0,.12,0,.18,0,6.89,0,13.38-2.66,18.29-7.51,4.95-4.89,7.71-11.41,7.75-18.37.05-6.96-2.62-13.52-7.51-18.47-4.89-4.95-11.41-7.71-18.37-7.75-.06,0-.12,0-.18,0-14.28,0-25.95,11.57-26.05,25.88h-.13Z"/><path d="M36.57,74.35h0c-.07,0-.13-.06-.13-.13l.35-52.49c0-.07.06-.13.13-.13.08-.01.13.06.13.13l-.35,52.49c0,.07-.06.13-.13.13Z"/><path d="M36.57,74.35s0,0-.01,0c-.06,0-.11-.06-.11-.13l.36-52.49s0-.07.01-.08c.02-.03.07-.05.11-.05h0c.07,0,.13.06.13.13v.27c.27,2.23,4.08,19.06,5.6,25.69,0,.02,0,.04,0,.06l-5.96,26.5c-.01.06-.07.1-.12.1ZM37.04,23.36l-.33,49.68,5.69-25.32c-1.79-7.81-4.54-19.92-5.36-24.36Z"/><path d="M36.57,74.35c-.06,0-.11-.04-.12-.1l-6.08-26.59s0-.04,0-.06c.02-.06,1.54-6.55,3.08-12.95,3.12-12.92,3.31-13.05,3.47-13.05.08-.01.13.06.13.13,0,.04-.02.08-.05.1-.45.78-4.75,18.83-6.38,25.8l6.08,26.56c.02.07-.03.14-.1.15,0,0-.02,0-.03,0Z"/><path d="M62.66,48.52h0l-52.31-.35c-.07,0-.13-.06-.13-.13,0-.07.05-.12.13-.13l52.31.35c.07,0,.13.06.13.13,0,.07-.06.13-.13.13Z"/><path d="M36.77,54.13s-.02,0-.03,0l-26.41-5.96c-.06-.01-.11-.08-.1-.14,0-.07.05-.12.13-.11l52.31.36s.06,0,.08.01c.03.02.05.07.05.11,0,.07-.06.13-.13.13h-.27c-2.22.27-18.99,4.08-25.6,5.6,0,0-.02,0-.03,0ZM11.53,48.18l25.23,5.69c7.78-1.79,19.85-4.54,24.28-5.36l-49.51-.33Z"/><path d="M62.66,48.52h0s-.08-.02-.1-.05c-.78-.45-18.77-4.75-25.71-6.38l-26.47,6.08c-.07.02-.14-.03-.15-.1-.02-.07.03-.14.1-.15l26.49-6.08s.04,0,.06,0c.06.01,6.53,1.54,12.91,3.08,13.01,3.15,13,3.31,13,3.48,0,.07-.06.13-.13.13Z"/><path d="M36.48,85.69h0c-.07,0-.13-.06-.13-.13l.08-12.04c0-.07.06-.13.13-.13h0c.07,0,.13.06.13.13l-.08,12.04c0,.07-.06.13-.13.13Z"/><path d="M36.9,22.73h0c-.07,0-.13-.06-.13-.13l.08-12.04c0-.07.06-.13.13-.13h0c.07,0,.13.06.13.13l-.08,12.04c0,.07-.06.13-.13.13Z"/><path class="cls-1" d="M40.47,101.94l-2.37-.02-3.33-5.92-1.15-2.4h-.08c.1,1.15.28,2.62.27,3.87l-.03,4.42h-2.2s.07-11.08.07-11.08l2.35.02,3.32,5.94,1.16,2.38h.08c-.1-1.2-.27-2.59-.26-3.86l.03-4.44h2.2s-.07,11.08-.07,11.08Z"/><path class="cls-1" d="M76.49,51.43h-1.41s-.53-3.25-.53-3.25c-.1-.7-.21-1.4-.31-2.11h-.04c-.15.71-.3,1.42-.46,2.11l-.83,3.23h-1.19s-.78-3.25-.78-3.25c-.15-.68-.28-1.4-.43-2.11h-.05c-.11.71-.22,1.42-.32,2.11l-.58,3.23h-1.32s1.33-6.62,1.33-6.62h1.73s.76,3.29.76,3.29c.11.52.21,1.03.29,1.54h.04c.1-.51.19-1.02.31-1.54l.78-3.27h1.7s1.29,6.65,1.29,6.65Z"/><path class="cls-1" d="M4.33,50.94l-4.27-.03v-1.11s2.88.02,2.88.02v-1.53s-2.43-.02-2.43-.02v-1.11s2.45.02,2.45.02v-1.77s-2.97-.02-2.97-.02v-1.11s4.38.03,4.38.03l-.04,6.62Z"/><path class="cls-1" d="M39.52.98l-.81.91c-.5-.44-1.15-.74-1.76-.75-.72,0-1.11.29-1.11.75,0,.49.42.65,1.04.9l.93.38c.7.28,1.4.82,1.4,1.79,0,1.08-1.01,1.91-2.42,1.9-.81,0-1.61-.32-2.18-.86l.71-.83c.44.35.9.55,1.47.56.61,0,1-.25,1-.69,0-.47-.48-.65-1.07-.87l-.91-.37c-.84-.34-1.39-.85-1.39-1.81,0-1.08.96-2,2.57-1.99.93,0,1.86.36,2.53.98Z"/></g></svg>