<?xml version="1.0" encoding="UTF-8"?><svg id="_圖層_2" xmlns="http://www.w3.org/2000/svg" viewBox="0 0 30 30"><defs><style>.cls-1{fill:none;}.cls-2{fill:#4c3b30;}</style></defs><g id="_圖層_1-2"><path class="cls-2" d="M22.34,1.18l-.13-.08c-.08-.05-.18-.08-.28-.09l-2.4-.16c-2.21-.05-4.73.14-6.47,2.18-1.64,1.93-1.6,4.28-1.55,6.56,0,.38.02.77.01,1.15h-3.56c-.34,0-.62.28-.62.62v4.81c0,.34.28.62.62.62h3.47l.08,11.74c0,.34.28.62.62.62h4.96c.34,0,.62-.28.62-.62v-11.73h3.49c.32,0,.59-.24.62-.55l.55-4.81c.02-.18-.04-.35-.15-.49-.12-.13-.29-.21-.47-.21h-4.05v-3.05c0-.2.24-.67.41-.79.18-.14.7-.3.95-.3h2.93c.34,0,.62-.28.62-.62V1.72c0-.22-.12-.42-.31-.54ZM21.4,5.35h-2.31c-.46,0-1.25.22-1.69.55-.49.36-.91,1.2-.91,1.8v3.67c0,.34.28.62.62.62h3.97l-.41,3.56h-3.56c-.34,0-.62.28-.62.62v11.73h-3.72l-.08-11.74c0-.34-.28-.62-.62-.62h-3.47v-3.56h3.55c.34,0,.61-.27.62-.6.02-.6,0-1.2,0-1.82-.04-2.14-.08-4.15,1.25-5.72,1.39-1.63,3.45-1.81,5.45-1.74l1.92.13v3.11Z"/><rect class="cls-1" width="30" height="30"/></g></svg>