<?xml version="1.0" encoding="UTF-8"?><svg id="_圖層_2" xmlns="http://www.w3.org/2000/svg" viewBox="0 0 309.19 163.59"><defs><style>.cls-1{fill:#040000;}.cls-2{fill:#231815;}.cls-3{fill:#bfd361;}</style></defs><g id="_圖層_1-2"><polygon class="cls-3" points="300.96 .15 300.96 6.1 245.5 6.1 245.5 .15 221.44 .15 207.14 .15 187.92 .15 187.92 3.01 187.92 5.38 190.54 5.38 190.54 42.03 207.01 42.03 207.01 65.36 249.31 65.36 249.31 66.78 281.01 66.78 281.01 77.49 300.96 77.49 300.96 78.92 309.04 78.92 309.04 .15 300.96 .15"/><polygon class="cls-3" points="102.17 65.36 102.17 42.03 118.65 42.03 118.65 5.38 121.26 5.38 121.26 3.01 121.26 .15 102.05 .15 87.74 .15 63.68 .15 63.68 6.1 8.23 6.1 8.23 .15 .15 .15 .15 78.92 8.23 78.92 8.23 77.49 28.18 77.49 28.18 66.78 59.68 66.78 59.68 65.36 102.17 65.36"/><path class="cls-2" d="M207.16,65.5h-105.14v-23.62h16.48V5.23h2.62v-2.37h66.95v2.37h2.62v36.65h16.48v23.62ZM102.32,65.21h104.55v-23.03h-16.48V5.53h-2.62v-2.37h-66.36v2.37h-2.62v36.65h-16.48v23.03Z"/><path class="cls-2" d="M309.19,79.06h-8.38v-1.42h-19.95v-10.71h-31.7v-1.42h-42.29v-23.32h-16.48V5.53h-2.62V0h57.88v5.95h55.16V0h8.38v79.06ZM301.1,78.77h7.79V.29h-7.79v5.95h-55.75V.29h-57.29v4.94h2.62v36.65h16.48v23.32h42.29v1.42h31.7v10.71h19.95v1.42Z"/><path class="cls-2" d="M8.38,79.06H0V0h8.38v5.95h55.16V0h57.88v5.53h-2.62v36.65h-16.48v23.32h-42.5v1.42h-31.5v10.71H8.38v1.42ZM.29,78.77h7.79v-1.42h19.95v-10.71h31.5v-1.42h42.5v-23.32h16.48V5.23h2.62V.29h-57.29v5.95H8.08V.29H.29v78.47Z"/><path class="cls-2" d="M138.9,138.83h-19.64v-73.62h70.46v70.17h-50.83v3.45ZM119.55,138.54h19.05v-3.45h50.83v-69.58h-69.88v73.04Z"/><path class="cls-2" d="M67.88,163.59h-8.36v-98.38h60.03v75.25h-4.76v16.65h-21.9v4.76h-25.01v1.72ZM59.82,163.3h7.77v-1.72h25.01v-4.76h21.9v-16.65h4.76v-74.66h-59.44v97.79Z"/><path class="cls-2" d="M249.46,163.59h-8.36v-1.72h-25.01v-4.76h-21.9v-16.65h-4.76v-75.25h60.03v98.38ZM241.39,163.3h7.77v-97.79h-59.44v74.66h4.76v16.65h21.9v4.76h25.01v1.72Z"/><path class="cls-1" d="M215.51,103.19h1.87l3.41,10.29h-1.72l-.87-2.93h-3.57l-.88,2.93h-1.65l3.41-10.29ZM215.01,109.28h2.81l-.4-1.38c-.35-1.12-.66-2.26-.96-3.42h-.07c-.29,1.17-.61,2.3-.95,3.42l-.42,1.38Z"/><path class="cls-1" d="M221.4,112.54c2.86-2.81,4.59-4.59,4.59-6.16,0-1.09-.59-1.81-1.75-1.81-.81,0-1.48.52-2.02,1.14l-.91-.89c.88-.95,1.79-1.54,3.13-1.54,1.88,0,3.1,1.2,3.1,3.02s-1.66,3.67-3.8,5.91c.52-.06,1.17-.1,1.68-.1h2.61v1.37h-6.63v-.94Z"/><path class="cls-1" d="M83.85,103.19h1.87l3.41,10.29h-1.72l-.87-2.93h-3.57l-.88,2.93h-1.65l3.41-10.29ZM83.35,109.28h2.81l-.4-1.38c-.35-1.12-.66-2.26-.96-3.42h-.07c-.29,1.17-.61,2.3-.95,3.42l-.42,1.38Z"/><path class="cls-1" d="M89.5,112.29l.77-1.05c.59.59,1.33,1.1,2.4,1.1,1.16,0,2.04-.78,2.04-2.05s-.78-2.01-1.95-2.01c-.66,0-1.05.2-1.65.59l-.78-.5.31-4.89h5.21v1.35h-3.81l-.24,2.64c.45-.22.85-.35,1.41-.35,1.72,0,3.13.96,3.13,3.11s-1.66,3.42-3.46,3.42c-1.62,0-2.64-.66-3.36-1.37Z"/><path class="cls-1" d="M149.68,92.5h1.87l3.41,10.29h-1.72l-.87-2.93h-3.57l-.88,2.93h-1.65l3.41-10.29ZM149.18,98.59h2.81l-.4-1.38c-.35-1.12-.66-2.26-.96-3.42h-.07c-.29,1.17-.61,2.3-.95,3.42l-.42,1.38Z"/><path class="cls-1" d="M155.35,101.56l.78-1.03c.6.61,1.37,1.13,2.43,1.13,1.16,0,1.95-.63,1.95-1.63,0-1.1-.73-1.81-3.04-1.81v-1.19c2.02,0,2.69-.74,2.69-1.7,0-.89-.6-1.44-1.58-1.44-.8,0-1.47.39-2.05.98l-.84-1c.81-.74,1.76-1.26,2.95-1.26,1.84,0,3.14.95,3.14,2.6,0,1.16-.68,1.93-1.77,2.33v.07c1.19.29,2.12,1.16,2.12,2.51,0,1.8-1.55,2.86-3.43,2.86-1.62,0-2.67-.64-3.35-1.41Z"/><path class="cls-1" d="M248.23,27.82h1.87l3.41,10.29h-1.72l-.87-2.93h-3.57l-.88,2.93h-1.65l3.41-10.29ZM247.72,33.9h2.81l-.4-1.38c-.35-1.12-.66-2.26-.96-3.42h-.07c-.29,1.17-.61,2.3-.95,3.42l-.42,1.38Z"/><path class="cls-1" d="M254.7,36.78h2.25v-6.87h-1.84v-1.02c.96-.17,1.65-.42,2.23-.78h1.21v8.67h2.01v1.33h-5.86v-1.33Z"/><path class="cls-1" d="M51.13,27.82h1.87l3.41,10.29h-1.72l-.87-2.93h-3.57l-.88,2.93h-1.65l3.41-10.29ZM50.63,33.9h2.81l-.4-1.38c-.35-1.12-.66-2.26-.96-3.42h-.07c-.29,1.17-.61,2.3-.95,3.42l-.42,1.38Z"/><path class="cls-1" d="M57.14,33.44c0-3.94,1.84-5.53,3.88-5.53,1.15,0,1.98.49,2.57,1.1l-.88.98c-.38-.45-1.01-.75-1.62-.75-1.3,0-2.39.98-2.46,3.91.6-.74,1.49-1.2,2.23-1.2,1.72,0,2.89,1.02,2.89,3.09s-1.4,3.25-3.07,3.25c-1.95,0-3.55-1.55-3.55-4.84ZM58.67,34.34c.17,1.86.91,2.72,2,2.72.89,0,1.61-.75,1.61-2.02s-.61-1.91-1.7-1.91c-.57,0-1.28.32-1.9,1.21Z"/></g></svg>