<?xml version="1.0" encoding="UTF-8"?><svg id="_圖層_2" xmlns="http://www.w3.org/2000/svg" viewBox="0 0 310 165"><defs><style>.cls-1{fill:none;}.cls-2{fill:#040000;}.cls-3{fill:#231815;}.cls-4{fill:#bfd361;}</style></defs><g id="_圖層_1-2"><polygon class="cls-4" points="119.1 66.06 102.58 66.06 60.08 66.06 60.08 67.48 60.08 102.72 60.08 131.9 60.08 138.63 60.08 141.02 60.08 154.79 60.08 157.67 60.08 162.43 60.08 164.15 68.14 164.15 68.14 162.43 93.16 162.43 93.16 157.67 115.05 157.67 115.05 141.02 119.81 141.02 119.81 139.39 119.81 135.94 119.81 126.68 119.81 74.14 119.81 73.86 119.81 66.06 119.1 66.06"/><polygon class="cls-4" points="207.42 66.06 197.81 66.06 189.98 66.06 189.98 73.86 189.98 74.14 189.98 135.94 189.98 141.02 194.74 141.02 194.74 157.67 216.64 157.67 216.64 162.43 241.65 162.43 241.65 164.15 249.71 164.15 249.71 162.43 249.71 157.67 249.71 154.79 249.71 141.02 249.71 138.63 249.71 131.9 249.71 93.39 249.71 72.16 249.71 66.06 207.42 66.06"/><path class="cls-3" d="M207.67,66.31h-105.34v-23.82h16.48V5.84h2.62v-2.37h67.16v2.37h2.62v36.65h16.47v23.82ZM102.83,65.81h104.34v-22.82h-16.47V6.34h-2.62v-2.37h-66.16v2.37h-2.62v36.65h-16.48v22.82Z"/><path class="cls-3" d="M309.7,79.87h-8.58v-1.42h-19.95v-10.71h-31.7v-1.42h-42.29v-23.32h-16.47V6.34h-2.62V.6h58.08v5.95h54.95V.6h8.58v79.27ZM301.61,79.37h7.58V1.1h-7.58v5.95h-55.95V1.1h-57.08v4.73h2.62v36.65h16.47v23.32h42.29v1.42h31.7v10.71h19.95v1.42Z"/><path class="cls-3" d="M8.89,79.87H.3V.6h8.58v5.95h54.95V.6h58.08v5.73h-2.62v36.65h-16.48v23.32h-42.5v1.42h-31.5v10.71H8.89v1.42ZM.8,79.37h7.58v-1.42h19.95v-10.71h31.5v-1.42h42.5v-23.32h16.48V5.84h2.62V1.1h-57.08v5.95H8.39V1.1H.8v78.27Z"/><path class="cls-3" d="M139.41,139.64h-19.84v-73.83h70.67v70.38h-50.83v3.45ZM120.06,139.14h18.84v-3.45h50.83v-69.38h-69.67v72.83Z"/><path class="cls-3" d="M68.39,164.4h-8.56v-98.59h60.23v75.46h-4.76v16.65h-21.9v4.76h-25.01v1.72ZM60.33,163.9h7.56v-1.72h25.01v-4.76h21.9v-16.65h4.76v-74.46h-59.23v97.59Z"/><path class="cls-3" d="M249.96,164.4h-8.56v-1.72h-25.01v-4.76h-21.9v-16.65h-4.76v-75.46h60.23v98.59ZM241.9,163.9h7.56v-97.59h-59.23v74.46h4.76v16.65h21.9v4.76h25.01v1.72Z"/><path class="cls-2" d="M215.92,103.89h1.87l3.41,10.29h-1.72l-.87-2.93h-3.57l-.88,2.93h-1.65l3.41-10.29ZM215.41,109.98h2.81l-.4-1.38c-.35-1.12-.66-2.26-.96-3.42h-.07c-.29,1.17-.61,2.3-.95,3.42l-.42,1.38Z"/><path class="cls-2" d="M221.81,113.24c2.86-2.81,4.59-4.59,4.59-6.16,0-1.09-.59-1.81-1.75-1.81-.81,0-1.48.52-2.02,1.14l-.91-.89c.88-.95,1.79-1.54,3.13-1.54,1.88,0,3.1,1.2,3.1,3.02s-1.66,3.67-3.8,5.91c.52-.06,1.17-.1,1.68-.1h2.61v1.37h-6.63v-.94Z"/><path class="cls-2" d="M84.25,103.89h1.87l3.41,10.29h-1.72l-.87-2.93h-3.57l-.88,2.93h-1.65l3.41-10.29ZM83.75,109.98h2.81l-.4-1.38c-.35-1.12-.66-2.26-.96-3.42h-.07c-.29,1.17-.61,2.3-.95,3.42l-.42,1.38Z"/><path class="cls-2" d="M89.91,112.99l.77-1.05c.59.59,1.33,1.1,2.4,1.1,1.16,0,2.04-.78,2.04-2.05s-.78-2.01-1.96-2.01c-.66,0-1.05.2-1.65.59l-.78-.5.31-4.89h5.21v1.35h-3.81l-.24,2.64c.45-.22.85-.35,1.41-.35,1.72,0,3.13.96,3.13,3.11s-1.66,3.42-3.46,3.42c-1.62,0-2.64-.66-3.37-1.37Z"/><path class="cls-2" d="M150.08,93.2h1.87l3.41,10.29h-1.72l-.87-2.93h-3.57l-.88,2.93h-1.65l3.41-10.29ZM149.58,99.29h2.81l-.4-1.38c-.35-1.12-.66-2.26-.96-3.42h-.07c-.29,1.17-.61,2.3-.95,3.42l-.42,1.38Z"/><path class="cls-2" d="M155.75,102.26l.78-1.03c.6.61,1.37,1.13,2.43,1.13,1.16,0,1.95-.63,1.95-1.63,0-1.1-.73-1.81-3.04-1.81v-1.19c2.02,0,2.7-.74,2.7-1.7,0-.89-.6-1.44-1.58-1.44-.8,0-1.47.39-2.05.98l-.84-1c.81-.74,1.76-1.26,2.95-1.26,1.84,0,3.14.95,3.14,2.6,0,1.16-.68,1.93-1.77,2.33v.07c1.19.29,2.12,1.16,2.12,2.51,0,1.8-1.55,2.86-3.43,2.86-1.62,0-2.67-.64-3.35-1.41Z"/><path class="cls-2" d="M248.63,28.52h1.87l3.41,10.29h-1.72l-.87-2.93h-3.57l-.88,2.93h-1.65l3.41-10.29ZM248.13,34.61h2.81l-.4-1.38c-.35-1.12-.66-2.26-.96-3.42h-.07c-.29,1.17-.61,2.3-.95,3.42l-.42,1.38Z"/><path class="cls-2" d="M255.11,37.48h2.25v-6.87h-1.84v-1.02c.96-.17,1.65-.42,2.23-.78h1.21v8.67h2.01v1.33h-5.86v-1.33Z"/><path class="cls-2" d="M51.54,28.52h1.87l3.41,10.29h-1.72l-.87-2.93h-3.57l-.88,2.93h-1.65l3.41-10.29ZM51.03,34.61h2.81l-.4-1.38c-.35-1.12-.66-2.26-.96-3.42h-.07c-.29,1.17-.61,2.3-.95,3.42l-.42,1.38Z"/><path class="cls-2" d="M57.54,34.15c0-3.94,1.84-5.53,3.88-5.53,1.14,0,1.98.49,2.57,1.1l-.88.98c-.38-.45-1-.75-1.62-.75-1.3,0-2.39.98-2.46,3.91.6-.74,1.49-1.2,2.23-1.2,1.72,0,2.89,1.02,2.89,3.09s-1.4,3.25-3.07,3.25c-1.96,0-3.55-1.55-3.55-4.84ZM59.07,35.04c.17,1.86.91,2.72,2,2.72.89,0,1.61-.75,1.61-2.02s-.61-1.91-1.7-1.91c-.57,0-1.28.32-1.9,1.21Z"/><rect class="cls-1" width="310" height="165"/></g></svg>