<?xml version="1.0" encoding="UTF-8"?><svg id="_圖層_2" xmlns="http://www.w3.org/2000/svg" viewBox="0 0 310 165"><defs><style>.cls-1{fill:none;}.cls-2{fill:#040000;}.cls-3{fill:#231815;}.cls-4{fill:#bfd361;}</style></defs><g id="_圖層_1-2"><polygon class="cls-4" points="301.36 .85 301.36 6.8 245.91 6.8 245.91 .85 221.85 .85 207.55 .85 188.33 .85 188.33 3.71 188.33 6.09 190.95 6.09 190.95 42.74 207.42 42.74 207.42 66.06 249.71 66.06 249.71 67.48 281.41 67.48 281.41 78.2 301.36 78.2 301.36 79.62 309.45 79.62 309.45 .85 301.36 .85"/><polygon class="cls-4" points="102.58 66.06 102.58 42.74 119.05 42.74 119.05 6.09 121.67 6.09 121.67 3.71 121.67 .85 102.45 .85 88.15 .85 64.09 .85 64.09 6.8 8.64 6.8 8.64 .85 .55 .85 .55 79.62 8.64 79.62 8.64 78.2 28.58 78.2 28.58 67.48 60.08 67.48 60.08 66.06 102.58 66.06"/><path class="cls-3" d="M207.57,66.21h-105.14v-23.62h16.48V5.94h2.62v-2.37h66.95v2.37h2.62v36.65h16.48v23.62ZM102.73,65.91h104.55v-23.03h-16.48V6.23h-2.62v-2.37h-66.36v2.37h-2.62v36.65h-16.48v23.03Z"/><path class="cls-3" d="M309.59,79.77h-8.38v-1.42h-19.95v-10.71h-31.7v-1.42h-42.29v-23.32h-16.48V6.23h-2.62V.7h57.88v5.95h55.16V.7h8.38v79.06ZM301.51,79.47h7.79V1h-7.79v5.95h-55.75V1h-57.29v4.94h2.62v36.65h16.48v23.32h42.29v1.42h31.7v10.71h19.95v1.42Z"/><path class="cls-3" d="M8.78,79.77H.41V.7h8.38v5.95h55.16V.7h57.88v5.53h-2.62v36.65h-16.48v23.32h-42.5v1.42h-31.5v10.71H8.78v1.42ZM.7,79.47h7.79v-1.42h19.95v-10.71h31.5v-1.42h42.5v-23.32h16.48V5.94h2.62V1h-57.29v5.95H8.49V1H.7v78.47Z"/><path class="cls-3" d="M139.3,139.54h-19.64v-73.62h70.46v70.17h-50.83v3.45ZM119.96,139.24h19.05v-3.45h50.83v-69.58h-69.88v73.04Z"/><path class="cls-3" d="M68.29,164.3h-8.36v-98.38h60.03v75.25h-4.76v16.65h-21.9v4.76h-25.01v1.72ZM60.23,164h7.77v-1.72h25.01v-4.76h21.9v-16.65h4.76v-74.66h-59.44v97.79Z"/><path class="cls-3" d="M249.86,164.3h-8.36v-1.72h-25.01v-4.76h-21.9v-16.65h-4.76v-75.25h60.03v98.38ZM241.8,164h7.77v-97.79h-59.44v74.66h4.76v16.65h21.9v4.76h25.01v1.72Z"/><path class="cls-2" d="M215.92,103.89h1.87l3.41,10.29h-1.72l-.87-2.93h-3.57l-.88,2.93h-1.65l3.41-10.29ZM215.41,109.98h2.81l-.4-1.38c-.35-1.12-.66-2.26-.96-3.42h-.07c-.29,1.17-.61,2.3-.95,3.42l-.42,1.38Z"/><path class="cls-2" d="M221.81,113.25c2.86-2.81,4.59-4.59,4.59-6.16,0-1.09-.59-1.81-1.75-1.81-.81,0-1.48.52-2.02,1.14l-.91-.89c.88-.95,1.79-1.54,3.13-1.54,1.88,0,3.1,1.2,3.1,3.02s-1.66,3.67-3.8,5.91c.52-.06,1.17-.1,1.68-.1h2.61v1.37h-6.63v-.94Z"/><path class="cls-2" d="M84.26,103.89h1.87l3.41,10.29h-1.72l-.87-2.93h-3.57l-.88,2.93h-1.65l3.41-10.29ZM83.75,109.98h2.81l-.4-1.38c-.35-1.12-.66-2.26-.96-3.42h-.07c-.29,1.17-.61,2.3-.95,3.42l-.42,1.38Z"/><path class="cls-2" d="M89.91,113l.77-1.05c.59.59,1.33,1.1,2.4,1.1,1.16,0,2.04-.78,2.04-2.05s-.78-2.01-1.95-2.01c-.66,0-1.05.2-1.65.59l-.78-.5.31-4.89h5.21v1.35h-3.81l-.24,2.64c.45-.22.85-.35,1.41-.35,1.72,0,3.13.96,3.13,3.11s-1.66,3.42-3.46,3.42c-1.62,0-2.64-.66-3.36-1.37Z"/><path class="cls-2" d="M150.08,93.21h1.87l3.41,10.29h-1.72l-.87-2.93h-3.57l-.88,2.93h-1.65l3.41-10.29ZM149.58,99.29h2.81l-.4-1.38c-.35-1.12-.66-2.26-.96-3.42h-.07c-.29,1.17-.61,2.3-.95,3.42l-.42,1.38Z"/><path class="cls-2" d="M155.75,102.27l.78-1.03c.6.61,1.37,1.13,2.43,1.13,1.16,0,1.95-.63,1.95-1.63,0-1.1-.73-1.81-3.04-1.81v-1.19c2.02,0,2.69-.74,2.69-1.7,0-.89-.6-1.44-1.58-1.44-.8,0-1.47.39-2.05.98l-.84-1c.81-.74,1.76-1.26,2.95-1.26,1.84,0,3.14.95,3.14,2.6,0,1.16-.68,1.93-1.77,2.33v.07c1.19.29,2.12,1.16,2.12,2.51,0,1.8-1.55,2.86-3.43,2.86-1.62,0-2.67-.64-3.35-1.41Z"/><path class="cls-2" d="M248.63,28.52h1.87l3.41,10.29h-1.72l-.87-2.93h-3.57l-.88,2.93h-1.65l3.41-10.29ZM248.13,34.61h2.81l-.4-1.38c-.35-1.12-.66-2.26-.96-3.42h-.07c-.29,1.17-.61,2.3-.95,3.42l-.42,1.38Z"/><path class="cls-2" d="M255.11,37.48h2.25v-6.87h-1.84v-1.02c.96-.17,1.65-.42,2.23-.78h1.21v8.67h2.01v1.33h-5.86v-1.33Z"/><path class="cls-2" d="M51.54,28.52h1.87l3.41,10.29h-1.72l-.87-2.93h-3.57l-.88,2.93h-1.65l3.41-10.29ZM51.04,34.61h2.81l-.4-1.38c-.35-1.12-.66-2.26-.96-3.42h-.07c-.29,1.17-.61,2.3-.95,3.42l-.42,1.38Z"/><path class="cls-2" d="M57.54,34.15c0-3.94,1.84-5.53,3.88-5.53,1.15,0,1.98.49,2.57,1.1l-.88.98c-.38-.45-1.01-.75-1.62-.75-1.3,0-2.39.98-2.46,3.91.6-.74,1.49-1.2,2.23-1.2,1.72,0,2.89,1.02,2.89,3.09s-1.4,3.25-3.07,3.25c-1.95,0-3.55-1.55-3.55-4.84ZM59.08,35.04c.17,1.86.91,2.72,2,2.72.89,0,1.61-.75,1.61-2.02s-.61-1.91-1.7-1.91c-.57,0-1.28.32-1.9,1.21Z"/><rect class="cls-1" width="310" height="165"/></g></svg>