<?xml version="1.0" encoding="UTF-8"?><svg id="_圖層_2" xmlns="http://www.w3.org/2000/svg" viewBox="0 0 497.47 545.16"><defs><style>.cls-1{fill:#fff;}</style></defs><g id="_圖層_1-2"><path class="cls-1" d="M432.57,10.34c0,1.21-1.43,1.98-2.2,2.53-1.54,1.21-1.65.88-1.76,3.63-.11,2.75-.22,7.48-.22,13.09,0,15.73.44,38.72.88,48.07v.22c0,2.64-2.2,4.4-4.18,4.4-1.43,0-2.75-.99-2.75-3.52v-3.63h-13.86c0,3.08.11,5.83.11,8.36s-2.2,4.07-4.18,4.07c-1.43,0-2.75-.88-2.75-3.3v-.33c.55-10.23.66-28.82.66-44.11,0-23.98-.22-30.36-1.21-35.31,0-.33-.11-.55-.11-.66,0-.22.11-.33.22-.33,1.32,0,8.8,4.07,9.79,4.84l.11.11h8.8c.55,0,1.21-.44,1.54-.99.55-.88,1.43-1.98,2.09-2.64.33-.22.55-.44.99-.44,1.43,0,8.03,3.85,8.03,5.94ZM422.45,12.76c0-.55-.22-1.32-.88-1.32h-10.89l-.55.44c-1.76,1.21-1.76,2.2-1.76,17.71h14.3c0-7.26-.11-13.31-.22-16.83ZM408.37,32.56v16.5h14.19c0-5.61.11-11.33.11-16.5h-14.3ZM408.37,52.03c0,6.82.11,13.86.11,20.13h13.97c0-5.83.11-12.87.11-20.13h-14.19ZM497.47,89.76c0,.99-9.24,1.65-11.77,3.74-.44.33-.88.55-1.32.55-1.54,0-10.45-7.26-16.5-17.38-.88.88-12.1,7.48-34.87,16.5-1.1.44-1.43,1.65-2.2,1.65-1.43,0-6.71-7.48-6.71-8.25,0-.11.11-.11.44-.11,3.96,0,6.6-.11,17.71-3.08.11-6.71.11-18.15.11-29.59,0-15.73,0-31.46-.11-35.42,0-1.43-.44-10.67-1.1-14.74v-.33c0-.33,0-.44.22-.44,1.21,0,7.81,3.08,9.79,4.51l.11.11h19.8c.55,0,.99-.11,1.43-.66,2.31-2.64,2.75-2.86,3.19-2.86.88,0,8.03,4.07,8.03,6.16,0,1.21-1.43,1.98-2.53,2.64-1.65.88-1.87,1.1-1.87,6.38,0,7.48.55,22.77.77,27.06v.11c0,1.54-1.65,3.52-3.85,3.52-1.54,0-2.86-.88-2.86-2.75v-1.98h-14.41c1.65,6.49,3.85,12.76,7.04,18.59,11.55-7.37,14.3-10.45,15.84-14.63.11-.33.22-.55.33-.55.77,0,8.8,6.49,8.8,8.8,0,.88-.77,1.32-2.2,1.32-.44,0-.99,0-1.54-.11-.55-.11-.88-.11-1.32-.11-.66,0-1.21.11-2.31.55-3.41,1.32-11.88,5.06-16.72,6.38,6.27,10.89,15.73,19.58,29.48,23.76.77.22,1.1.44,1.1.66ZM448.52,27.61c0,4.29-.11,9.35-.11,14.63h25.08c0-4.18.11-9.57.11-14.63h-25.08ZM457.21,45.1h-8.8c0,12.98.11,27.17.11,36.41,6.6-1.98,13.42-4.29,18.48-6.27-4.95-8.91-8.25-19.36-9.79-30.14ZM471.95,10.34h-20.57c-.44.33-.99.77-1.76,1.21-.77.44-.99,1.43-.99,3.3,0,1.98-.11,5.5-.11,9.9h25.08q0-14.41-1.65-14.41Z"/><path class="cls-1" d="M490.65,150.81c0,.77-.55,1.43-2.42,1.43h-28.93c.33.22.44.55.44.88,0,.66-.77,1.43-2.09,1.87-1.76.66-2.2.88-2.42,4.07-.33,4.29-.66,21.01-.66,29.81,0,7.81.11,9.35,13.97,9.35,11.77,0,14.08-.55,17.6-18.15.11-.55.22-.77.33-.77.66,0,1.21,13.31,3.08,14.63,1.54,1.1,2.31,2.31,2.31,3.52,0,6.6-15.62,7.26-24.09,7.26-9.57,0-20.02-.77-20.02-10.89v-.33c.22-12.32.44-20.35.55-29.7,0-1.65.11-3.63.11-5.61,0-2.09-.11-4.18-.33-5.94h-10.12c.44.22.66.55.66.88,0,.55-.55,1.21-1.43,1.54-1.54.66-2.09.44-2.2,5.5-.33,27.83-14.08,42.79-39.27,48.4-1.76.33-2.86.55-3.52.55-.55,0-.77-.11-.77-.22,0-.33,1.32-.99,3.3-1.76,22.77-8.36,33.11-22.11,33.11-49.17,0-1.98-.11-4.18-.22-5.61-7.04.11-17.82.33-25.96,1.1h-.11c-1.98,0-5.28-4.29-5.28-5.72,11.33,1.32,29.37,1.65,35.75,1.65h7.37c.11-5.17.22-11.11.22-15.73,0-10.78-.55-19.91-1.21-22.55-.11-.33-.11-.55-.11-.77q0-.11.11-.11c.88,0,13.09,1.76,13.09,4.18,0,.77-.66,1.54-1.76,2.2-2.53,1.65-2.97.44-3.3,5.61-.11,2.86-.22,8.03-.22,13.31s.11,10.56.11,13.86h25.08c.77,0,1.43-.44,1.76-.99.66-1.1,4.84-7.26,6.71-7.26.33,0,.55,0,.77.11,4.51,1.65,10.01,8.36,10.01,9.57ZM428.94,136.4c0,2.86-1.76,4.84-3.85,4.84-1.76,0-3.74-1.32-5.28-4.73-1.54-3.52-5.83-9.13-9.02-12.1-.66-.66-.99-.99-.99-1.21,0-.11.11-.11.33-.11,1.43,0,18.81,3.19,18.81,13.31ZM478.22,128.59c0,.88-.99,1.43-2.75,1.43-.44,0-.88-.11-1.32-.11-.33,0-.55-.11-.77-.11-1.21,0-1.65.55-2.64,1.32-7.81,6.6-17.05,12.65-18.81,12.65-.11,0-.22,0-.22-.11,0-.22.33-.77,1.1-1.54,3.85-4.07,8.8-11,11.66-15.51,1.43-2.2,2.09-4.29,2.64-5.83.22-.77.33-1.1.55-1.1.44,0,10.56,6.27,10.56,8.91Z"/><path class="cls-1" d="M491.75,294.69c0,.77-.55,1.43-2.42,1.43h-43.12c0,5.5.11,11.33.44,17.71v.11c0,2.86-3.19,3.74-4.18,3.74-1.54,0-2.86-.88-2.86-3.08v-.33c.33-6.38.55-13.31.66-18.15h-7.26c-6.05,0-22.66.22-32.45,1.21h-.11c-1.98,0-5.28-4.29-5.28-5.72,11.22,1.32,32.12,1.76,38.39,1.76h6.71v-1.54c0-6.49-.11-8.47-.66-11.33h-17.49v2.31c0,1.87-2.09,3.08-4.29,3.08-1.54,0-2.97-.77-2.97-2.64v-.33c.55-6.49.88-20.79.88-25.08,0-1.32-.22-10.34-1.21-14.63-.11-.33-.11-.55-.11-.66s0-.22.11-.22c.44,0,7.48,2.75,10.01,4.51l.22.11h14.74c.11-2.53.11-6.16.11-9.35,0-11.77-1.1-16.61-1.32-17.38-.11-.33-.11-.66-.11-.77s0-.11.11-.11c0,0,12.32,1.43,12.32,3.96,0,.66-.66,1.32-1.76,1.87-2.42,1.32-2.86.33-2.97,5.5v2.31h22.55c.33,0,1.21-.44,1.54-.99,2.31-3.52,4.29-5.83,5.5-5.83.22,0,.44,0,.55.11,3.85,1.32,9.24,6.6,9.24,8.36,0,.66-.44,1.21-2.31,1.21h-37.07v11.11h16.83c.55,0,.99-.11,1.43-.66,2.31-2.64,2.53-2.86,3.19-2.86.44,0,8.47,3.52,8.47,6.27,0,1.1-1.21,1.87-2.42,2.53-1.65.88-1.87,1.1-1.87,7.04,0,6.93.33,18.37.66,22.33v.22c0,2.42-2.42,3.41-4.07,3.41-1.54,0-2.97-.88-2.97-2.75v-1.98h-17.05l.22.11c.88.33,1.21.66,1.21.99,0,.55-.66,1.1-1.32,1.54-1.65.99-1.76.55-1.87,4.73,0,1.76-.11,3.63-.11,5.5h26.95c.77,0,1.43-.44,1.76-.99s4.51-6.82,6.38-6.82c.33,0,.55,0,.77.11,3.41,1.21,9.68,6.82,9.68,9.02ZM465.13,251.13c-.11-.88-.55-1.32-1.54-1.32h-38.72c-.44.33-.99.77-1.76,1.21-1.21.66-1.21,4.84-1.21,10.56h43.34c0-4.29,0-8.03-.11-10.45ZM421.9,264.44c0,4.4,0,8.91.11,13.2h43.12c.11-3.96.11-8.69.11-13.2h-43.34Z"/><path class="cls-1" d="M495.38,412.06c.33,0,.44.11.44.22,0,.99-7.59,6.05-9.13,9.24-.44.88-.99,1.54-2.09,1.76-.88.11-13.09,1.65-26.29,1.65-16.61,0-40.26-1.76-50.27-25.63-5.39,20.13-15.29,26.29-15.84,26.29-.11,0-.22-.11-.22-.33,0-.44.55-1.43,1.43-2.53,6.27-7.7,11-28.38,11-37.51,0-1.65-.11-3.08-.33-5.06,0-.22-.11-.44-.11-.55,0-.22.11-.22.55-.22.99,0,10.01.88,10.01,3.08,0,.44-.55.99-1.65,1.54-1.76.77-2.09,0-2.64,3.96-.33,2.64-.77,5.28-1.32,7.7,1.65,4.07,4.29,7.92,7.81,11.22.11-4.51.11-11,.11-16.83s0-11.22-.11-13.31c0-2.31-.11-4.18-.33-5.94h-.88c-2.09,0-7.81.11-14.74.88h-.11c-1.87,0-4.4-3.85-4.4-5.06,9.24,1.43,17.49,1.43,19.58,1.43h.88c.11-5.06.11-8.14.11-13.09h-1.32c-2.42,0-5.61.11-11.77.88h-.11c-1.87,0-4.4-3.85-4.4-5.06,9.35,1.32,14.74,1.43,16.61,1.43h.99v-2.09c0-2.97-.22-11.88-1.32-16.39-.11-.22-.11-.44-.11-.55,0-.33.11-.33.44-.33,2.86,0,11.11,1.65,11.11,3.63,0,.88-.99,1.76-2.53,2.53-1.32.55-1.32,1.21-1.65,13.2h1.54c.22,0,.99-.33,1.32-.88.88-1.65,2.75-4.73,4.07-4.73,1.21,0,7.37,4.29,7.37,7.04,0,.66-.55,1.32-2.09,1.32h-12.32c0,2.53-.11,5.06-.11,7.37s.11,4.29.11,5.72h3.96c.33,0,.99-.33,1.32-.88.88-1.54,3.19-4.73,4.4-4.73.33,0,.55.11.77.11,3.19,1.21,7.04,5.28,7.04,6.82,0,.77-.44,1.43-2.09,1.43h-12.87c.11.11.11.33.11.44,0,.55-.55,1.21-1.21,1.43q-1.54.66-1.54,13.31h4.07c.55,0,.77-.44,1.1-.99.88-1.76,3.19-4.84,4.07-4.84.11,0,.33,0,.44.11,4.4,2.31,6.71,5.61,6.71,7.04,0,.66-.44,1.32-1.87,1.32h-14.63c0,8.14.11,17.82.11,22.77,9.79,5.94,21.45,6.6,29.59,6.6,13.42,0,29.81-1.98,41.91-5.61.66-.22,1.1-.33,1.32-.33ZM492.41,386.98c.11,0,.11.33.11.33,0,1.98-2.53,11.55-2.53,14.96,0,.55.11.88.22,1.1.66.88.99,1.87.99,2.75,0,1.98-1.43,3.52-4.18,3.52-5.28,0-14.41-6.05-19.58-15.4-15.07,16.39-32.67,19.03-34.98,19.03-.55,0-.88-.11-.88-.22,0-.44,1.21-.99,3.3-1.65,9.79-2.97,21.34-10.56,30.03-22.55-4.18-10.23-5.61-22.11-6.27-31.68h-6.93c-.22.22-.66.44-.99.66-.99.55-1.21.44-1.21,3.19-.11,4.84-.11,16.5-.11,28.6,3.19-1.21,6.71-2.75,10.45-4.4.99-.44,1.65-.66,1.98-.66.22,0,.33.11.33.33,0,.99-13.09,9.79-24.09,16.17-.88.55-1.1,1.65-1.76,1.65-1.1,0-6.93-5.5-6.93-7.04,0-.22.22-.33.55-.33,3.52-.11,11.66-2.86,13.53-3.52v-11.33c0-11.66,0-24.53-1.21-29.92,0-.33-.11-.44-.11-.66s.11-.22.22-.22c.88,0,8.36,3.52,9.68,4.4l.55.44h5.94c-.88-14.96-1.43-19.14-2.31-21.89-.11-.44-.22-.66-.22-.88,0-.11.11-.22.33-.22.99,0,11.55,1.98,11.55,4.29,0,.66-.77,1.32-1.87,1.76-1.98.88-1.87.77-1.98,3.74-.11,3.08-.22,6.6-.22,10.45v2.75h10.01c.77,0,1.54-.44,1.87-.99,3.41-5.5,4.18-6.05,5.17-6.05,2.64,0,9.24,6.71,9.24,8.47,0,.66-.55,1.21-2.42,1.21h-23.76c.22,8.91,1.21,18.7,4.18,26.95,5.17-8.47,7.59-16.5,7.59-19.58,0-.88.33-.88.33-.88.66,0,9.9,3.96,9.9,5.61,0,.77-.99,1.54-2.86,1.76-1.32.11-1.76.66-2.2,1.65-2.64,6.6-6.05,12.43-10.01,17.49,3.85,7.04,9.02,9.9,10.56,9.9,2.97,0,6.27-4.29,10.12-11.88.44-.99.77-1.21.88-1.21ZM478.66,344.85c0,2.09-1.65,3.85-3.41,3.85-1.1,0-2.31-.66-3.19-2.2-1.43-2.42-3.85-4.62-6.16-6.6-.44-.33-.66-.55-.66-.66,0-.22,1.98-.33,2.86-.33,8.36,0,10.56,3.63,10.56,5.94Z"/><path class="cls-1" d="M365.38,199.54c.33,0,.44.11.44.22,0,.99-7.59,6.05-9.13,9.24-.44.88-.99,1.54-2.09,1.76-.88.11-13.09,1.65-26.29,1.65-16.61,0-40.26-1.76-50.27-25.63-5.39,20.13-15.29,26.29-15.84,26.29-.11,0-.22-.11-.22-.33,0-.44.55-1.43,1.43-2.53,6.27-7.7,11-28.38,11-37.51,0-1.65-.11-3.08-.33-5.06,0-.22-.11-.44-.11-.55,0-.22.11-.22.55-.22.99,0,10.01.88,10.01,3.08,0,.44-.55.99-1.65,1.54-1.76.77-2.09,0-2.64,3.96-.33,2.64-.77,5.28-1.32,7.7,1.65,4.07,4.29,7.92,7.81,11.22.11-4.51.11-11,.11-16.83s0-11.22-.11-13.31c0-2.31-.11-4.18-.33-5.94h-.88c-2.09,0-7.81.11-14.74.88h-.11c-1.87,0-4.4-3.85-4.4-5.06,9.24,1.43,17.49,1.43,19.58,1.43h.88c.11-4.95.11-8.14.11-13.09h-1.32c-2.42,0-5.61.11-11.77.88h-.11c-1.87,0-4.4-3.85-4.4-5.06,9.35,1.32,14.74,1.43,16.61,1.43h.99v-2.09c0-2.97-.22-11.88-1.32-16.39-.11-.22-.11-.44-.11-.55,0-.33.11-.33.44-.33,2.86,0,11.11,1.65,11.11,3.63,0,.88-.99,1.76-2.53,2.53-1.32.55-1.32.77-1.65,13.2h3.3c.22,0,.99-.33,1.32-.88.88-1.65,2.75-4.73,4.07-4.73,1.21,0,7.37,4.29,7.37,7.04,0,.66-.55,1.32-2.09,1.32h-14.08v13.09h5.06c.33,0,.99-.33,1.32-.88.88-1.54,3.19-4.73,4.4-4.73.33,0,.55.11.77.11,3.19,1.21,7.04,5.28,7.04,6.82,0,.77-.44,1.43-2.09,1.43h-13.97c.11.11.11.33.11.44,0,.55-.55,1.21-1.21,1.43-1.54.66-1.65,1.1-1.65,14.41h5.83c.55,0,.77-.44,1.1-.99.88-1.76,3.19-4.84,4.07-4.84.11,0,.33,0,.44.11,4.4,2.31,6.71,5.61,6.71,7.04,0,.66-.44,1.32-1.87,1.32h-16.28c0,7.92.11,16.94.11,21.67,9.79,5.94,21.45,6.6,29.59,6.6,13.42,0,29.81-1.98,41.91-5.61.66-.22,1.1-.33,1.32-.33ZM359.66,130.57c0,.88-.88,1.65-2.75,2.53-.99.55-1.43.55-1.54,1.76-.22,2.64-.77,11.66-2.53,15.18-1.98,3.96-6.27,7.81-12.32,7.92-.66,0-1.43-.33-1.65-.88-1.21-3.19-7.15-7.04-7.15-7.7q0-.11.22-.11c.22,0,.66.11,1.32.33,2.86.88,5.06,1.32,6.82,1.32,8.69,0,8.91-8.69,9.24-18.7,0-.66-.44-1.1-.99-1.1h-13.2c.77.22,3.41.99,3.41,1.76,0,.55-.66,1.21-1.65,1.43-1.32.44-1.87.11-2.2,2.09-3.85,21.78-25.96,25.19-27.28,25.19-.33,0-.66-.11-.66-.22,0-.33.77-.77,2.2-1.43,3.3-1.32,19.47-8.36,19.47-28.6-5.28.22-11.33.55-14.41.77h-.11c-1.65,0-4.95-3.96-4.95-5.39,8.8,1.1,21.45,1.54,26.73,1.54h11.55c1.1,0,1.98-.33,2.42-.77,2.31-2.31,2.53-2.31,2.64-2.31.44,0,7.37,3.19,7.37,5.39ZM355.48,169.95c0,1.1-1.21,1.87-2.2,2.53-1.76,1.21-1.98,1.87-1.98,8.25,0,3.85.33,7.37.77,13.42v.33c0,2.09-1.65,3.52-3.85,3.52-1.54,0-2.86-.88-2.86-2.97v-4.29h-22.99c0,1.65.11,3.41.11,5.28v.11c0,2.64-2.86,3.41-3.74,3.41-1.43,0-2.75-.88-2.75-2.86v-.33c.55-7.81.66-12.32.66-16.39,0-5.5-.11-11.33-1.21-16.28-.11-.33-.11-.55-.11-.66q0-.22.22-.22c.66,0,7.15,2.75,9.24,4.51l.11.11h18.37c.44,0,.99-.33,1.32-.88.77-1.21,2.2-2.97,2.86-2.97,1.1,0,8.03,3.96,8.03,6.38ZM345.36,171.6c0-.33-.11-1.32-1.32-1.32h-19.36l-.66.55c-1.54,1.1-1.65.88-1.65,4.07v13.09h23.1c0-6.49,0-12.1-.11-16.39Z"/><path class="cls-1" d="M365.38,309.54c.33,0,.44.11.44.22,0,.99-7.59,6.05-9.13,9.24-.44.88-.99,1.54-2.09,1.76-.88.11-13.09,1.65-26.29,1.65-16.61,0-40.26-1.76-50.27-25.63-5.39,20.13-15.29,26.29-15.84,26.29-.11,0-.22-.11-.22-.33,0-.44.55-1.43,1.43-2.53,6.27-7.7,11-28.38,11-37.51,0-1.65-.11-3.08-.33-5.06,0-.22-.11-.44-.11-.55,0-.22.11-.22.55-.22.99,0,10.01.88,10.01,3.08,0,.44-.55.99-1.65,1.54-1.76.77-2.09,0-2.64,3.96-.33,2.64-.77,5.28-1.32,7.7,1.65,4.07,4.29,7.92,7.81,11.22.11-4.51.11-11,.11-16.83s0-11.22-.11-13.31c0-2.31-.11-4.18-.33-5.94h-.88c-2.09,0-7.81.11-14.74.88h-.11c-1.87,0-4.4-3.85-4.4-5.06,9.24,1.43,17.49,1.43,19.58,1.43h.88c.11-5.06.11-8.14.11-13.09h-1.32c-2.42,0-5.61.11-11.77.88h-.11c-1.87,0-4.4-3.85-4.4-5.06,9.35,1.32,14.74,1.43,16.61,1.43h.99v-2.09c0-2.97-.22-11.88-1.32-16.39-.11-.22-.11-.44-.11-.55,0-.33.11-.33.44-.33,2.86,0,11.11,1.65,11.11,3.63,0,.88-.99,1.76-2.53,2.53-1.32.55-1.32,1.21-1.65,13.2h1.54c.22,0,.99-.33,1.32-.88.88-1.65,2.75-4.73,4.07-4.73,1.21,0,7.37,4.29,7.37,7.04,0,.66-.55,1.32-2.09,1.32h-12.32c0,2.53-.11,5.06-.11,7.37s.11,4.29.11,5.72h3.96c.33,0,.99-.33,1.32-.88.88-1.54,3.19-4.73,4.4-4.73.33,0,.55.11.77.11,3.19,1.21,7.04,5.28,7.04,6.82,0,.77-.44,1.43-2.09,1.43h-12.87c.11.11.11.33.11.44,0,.55-.55,1.21-1.21,1.43q-1.54.66-1.54,13.31h4.07c.55,0,.77-.44,1.1-.99.88-1.76,3.19-4.84,4.07-4.84.11,0,.33,0,.44.11,4.4,2.31,6.71,5.61,6.71,7.04,0,.66-.44,1.32-1.87,1.32h-14.63c0,8.14.11,17.82.11,22.77,9.79,5.94,21.45,6.6,29.59,6.6,13.42,0,29.81-1.98,41.91-5.61.66-.22,1.1-.33,1.32-.33ZM362.41,284.46c.11,0,.11.33.11.33,0,1.98-2.53,11.55-2.53,14.96,0,.55.11.88.22,1.1.66.88.99,1.87.99,2.75,0,1.98-1.43,3.52-4.18,3.52-5.28,0-14.41-6.05-19.58-15.4-15.07,16.39-32.67,19.03-34.98,19.03-.55,0-.88-.11-.88-.22,0-.44,1.21-.99,3.3-1.65,9.79-2.97,21.34-10.56,30.03-22.55-4.18-10.23-5.61-22.11-6.27-31.68h-6.93c-.22.22-.66.44-.99.66-.99.55-1.21.44-1.21,3.19-.11,4.84-.11,16.5-.11,28.6,3.19-1.21,6.71-2.75,10.45-4.4.99-.44,1.65-.66,1.98-.66.22,0,.33.11.33.33,0,.99-13.09,9.79-24.09,16.17-.88.55-1.1,1.65-1.76,1.65-1.1,0-6.93-5.5-6.93-7.04,0-.22.22-.33.55-.33,3.52-.11,11.66-2.86,13.53-3.52v-11.33c0-11.66,0-24.53-1.21-29.92,0-.33-.11-.44-.11-.66s.11-.22.22-.22c.88,0,8.36,3.52,9.68,4.4l.55.44h5.94c-.88-14.96-1.43-19.14-2.31-21.89-.11-.44-.22-.66-.22-.88,0-.11.11-.22.33-.22.99,0,11.55,1.98,11.55,4.29,0,.66-.77,1.32-1.87,1.76-1.98.88-1.87.77-1.98,3.74-.11,3.08-.22,6.6-.22,10.45v2.75h10.01c.77,0,1.54-.44,1.87-.99,3.41-5.5,4.18-6.05,5.17-6.05,2.64,0,9.24,6.71,9.24,8.47,0,.66-.55,1.21-2.42,1.21h-23.76c.22,8.91,1.21,18.7,4.18,26.95,5.17-8.47,7.59-16.5,7.59-19.58,0-.88.33-.88.33-.88.66,0,9.9,3.96,9.9,5.61,0,.77-.99,1.54-2.86,1.76-1.32.11-1.76.66-2.2,1.65-2.64,6.6-6.05,12.43-10.01,17.49,3.85,7.04,9.02,9.9,10.56,9.9,2.97,0,6.27-4.29,10.12-11.88.44-.99.77-1.21.88-1.21ZM348.66,242.33c0,2.09-1.65,3.85-3.41,3.85-1.1,0-2.31-.66-3.19-2.2-1.43-2.42-3.85-4.62-6.16-6.6-.44-.33-.66-.55-.66-.66,0-.22,1.98-.33,2.86-.33,8.36,0,10.56,3.63,10.56,5.94Z"/><path class="cls-1" d="M364.17,422.18c0,1.1-9.35,2.75-11.55,5.17-.44.44-.77.77-1.21.77-.66,0-23.21-10.01-32.12-50.71h-1.87c.22.22.22.33.22.55,0,.55-.55.99-1.65,1.1q-1.76.22-3.96,1.98c-1.43,1.21-3.08,2.42-4.84,3.52,9.57,4.51,16.06,18.37,16.06,29.7,0,12.43-7.92,20.57-18.26,20.57-1.32,0-1.32-.55-1.87-1.32-2.86-3.74-10.78-7.81-10.78-8.36,0,0,0-.11.11-.11.22,0,.66.11,1.32.33,4.51,1.21,8.14,1.87,11.22,1.87,6.16,0,12.21-2.53,12.21-14.85,0-1.65-.11-3.3-.33-4.95-.22,0-.33.11-.55.11-1.76.22-1.54.66-2.86,1.76-20.68,18.26-45.1,20.57-46.97,20.57-.88,0-1.43-.11-1.43-.33,0-.33,1.1-.77,3.74-1.43,14.74-3.63,36.41-17.38,40.81-24.86.44-.77.44-.99.66-.99.55,0,5.5,1.98,6.05,2.2-.66-2.97-1.54-5.94-2.75-8.69-.11,0-.33.11-.44.11-1.87.33-1.54-.22-3.63,1.32-17.05,12.32-39.27,15.84-41.47,15.84-.66,0-1.1-.11-1.1-.22,0-.33,1.1-.88,3.63-1.65,13.2-3.85,32.01-14.41,35.86-19.58.44-.55.44-.88.88-.88s1.98.33,4.4,1.65c-1.65-2.75-3.85-5.17-6.27-6.71-13.97,8.47-32.34,12.76-36.63,12.76-.55,0-.88,0-.88-.22s1.1-.77,3.52-1.54c18.26-5.83,32.01-15.51,35.75-19.25h-18.15v1.98c0,2.64-3.19,2.97-3.85,2.97-1.43,0-2.75-.77-2.75-2.42v-.33c.33-3.52.66-8.47.77-13.42v-.44c-7.81,6.27-17.38,11.99-19.69,11.99-.33,0-.44-.11-.44-.22,0-.33.55-.88,1.76-1.65,8.8-5.61,23.76-20.13,32.34-34.65.88-1.43,1.43-3.41,1.76-4.73.11-.55.11-.77.55-.77,1.1,0,10.23,3.41,10.23,5.39,0,.77-.88,1.43-2.86,1.43h-1.1c-1.21,0-1.54.33-2.2,1.43l-1.76,2.53h14.74c.88,0,1.21-.33,1.87-.88,2.53-2.09,2.64-2.09,2.75-2.09,1.21,0,8.14,4.29,8.14,6.27,0,1.1-1.54,1.65-2.53,1.98-1.21.44-2.31.44-4.29,1.98l-7.59,5.94h23.21c.44,0,.99-.22,1.32-.77.55-.77,1.43-1.65,1.98-2.09.33-.11.55-.33.99-.33,1.1,0,7.7,2.97,7.7,5.39,0,.99-1.1,1.54-2.09,2.09-1.87,1.1-1.87,1.21-1.87,3.52s.55,7.15.77,10.12v.11c0,2.09-1.98,3.41-3.85,3.41-1.43,0-2.75-.77-2.75-2.64v-1.1h-19.14c2.2,6.71,5.06,13.31,8.58,19.36,5.06-3.08,12.76-8.14,14.85-13.31.11-.33.22-.55.44-.55,1.21,0,8.91,5.83,8.91,8.25,0,.88-.77,1.32-2.2,1.32-.55,0-1.21-.11-1.87-.22-.55-.11-1.1-.22-1.54-.22-.55,0-1.1.11-1.65.33-2.2.88-8.91,3.85-15.95,6.05,7.04,11.22,17.27,20.02,32.56,23.32.66.11.88.33.88.44ZM310.6,362.45h-19.47l-.77.55c-1.54.99-1.54,1.1-1.54,6.71,0,1.65.11,3.41.11,5.06h21.56c.11-2.31.22-4.95.22-8.25,0-.88,0-2.75-.11-4.07ZM317.31,349.8c0-.22-.22-.44-.88-.44h-16.83c-2.75,3.52-5.83,6.82-9.02,9.9l.66.33c.11,0,.11.11.22.11h20.79c2.53-4.18,5.06-8.91,5.06-9.9ZM340.41,367.51c0-1.54,0-2.86-.11-3.96,0-.33-.44-1.1-1.32-1.1h-20.24c0,.11.11.11.11.22,0,.33-.33.77-1.1,1.21-1.32.77-1.54.77-1.54,6.38,0,1.54.11,3.08.11,4.51h23.98c.11-2.64.11-5.17.11-7.26Z"/><path class="cls-1" d="M303.89,457.49c0,.88-.99,1.65-2.42,2.09-.77.22-1.76.44-2.86,2.09-2.2,3.41-7.37,9.68-8.69,12.32-.66,1.43-.99,2.42-.99,3.41,0,1.54.99,2.86,2.75,4.73,3.85,4.07,9.79,9.79,9.79,18.48,0,9.68-7.26,15.4-12.87,15.4-.77,0-1.32-.22-1.65-.88-.99-1.98-6.93-6.71-6.93-7.7,0-.11,0-.22.22-.22.11,0,.44.11.77.22,2.09.77,4.18,1.21,5.94,1.21,4.95,0,7.59-3.3,7.59-10.67,0-5.83-2.53-10.12-5.39-14.41-1.65-2.53-2.53-3.96-2.53-6.05,0-1.1.22-2.31.66-3.96.88-2.97,3.85-11.11,4.84-15.4v-.22c0-.44-.22-.77-.77-.77h-9.46l-.66.44c-1.32.99-1.65,1.1-1.65,5.39-.11,12.21-.22,26.95-.22,41.91,0,12.32.11,24.75.22,36.08,0,2.53-2.42,4.18-4.51,4.18-1.54,0-2.97-.99-2.97-3.41v-.33c.66-12.87.99-32.23.99-49.39,0-9.35-.11-18.04-.22-24.64,0-3.08-.55-13.09-1.54-17.38-.11-.33-.11-.55-.11-.66q0-.22.11-.22c1.43,0,10.01,4.18,10.89,4.84l.44.33h8.58c.44,0,.88-.11,1.32-.55.66-.66,1.65-2.31,2.09-2.64.33-.22.66-.44.99-.44.55,0,8.25,4.84,8.25,6.82ZM366.92,537.02c0,.99-9.24,1.98-11.66,4.07-.44.44-.88.66-1.32.66-.99,0-10.01-5.5-17.49-17.82-1.43,1.43-13.75,8.25-35.2,16.72-1.1.44-1.43,1.65-2.2,1.65-1.43,0-6.71-7.48-6.71-8.25,0-.11.11-.11.44-.11,5.94,0,10.01-.88,17.27-2.97.11-6.6.11-18.04.11-29.59,0-15.73,0-31.57-.11-35.53,0-1.43-.44-10.67-1.1-14.74v-.33c0-.33,0-.44.22-.44,1.21,0,7.81,3.08,9.79,4.51l.11.11h20.02c.55,0,.99-.11,1.43-.66,2.31-2.64,2.75-2.86,3.19-2.86.88,0,8.03,4.07,8.03,6.16,0,1.21-1.43,1.98-2.53,2.64-1.65.88-1.87,1.1-1.87,6.38,0,7.48.55,22.77.77,27.06v.11c0,1.54-1.65,3.52-3.85,3.52-1.54,0-2.86-.88-2.86-2.75v-1.98h-14.19c1.65,6.49,3.96,12.76,7.15,18.48,10.89-6.93,14.08-10.12,15.73-14.52.11-.33.22-.55.33-.55.77,0,8.8,6.49,8.8,8.8,0,.88-.77,1.32-2.2,1.32-.44,0-.99,0-1.54-.11-.55-.11-.88-.11-1.32-.11-.66,0-1.21.11-2.31.55-3.41,1.32-11.66,4.84-16.5,6.27,6.6,11.11,16.5,19.91,30.47,23.65.77.22,1.1.44,1.1.66ZM316.32,475.09c0,4.29-.11,9.35-.11,14.63h25.3c0-4.18.11-9.57.11-14.63h-25.3ZM325.45,492.58h-9.24c0,13.09.11,27.39.11,36.63,6.82-1.98,13.97-4.4,19.14-6.49.11,0,.11-.11.22-.11-5.17-8.91-8.69-19.36-10.23-30.03ZM339.97,457.82h-20.79c-.44.33-.99.77-1.76,1.21s-.99,1.43-.99,3.3c0,1.98-.11,5.5-.11,9.9h25.3q0-14.41-1.65-14.41Z"/><path class="cls-1" d="M150.79,55.11c1.76.88,3.96,1.98,5.28,2.86h11.22c.55,0,1.21-.33,1.54-.88.66-.99,1.98-2.75,2.75-2.75,1.65,0,8.14,3.63,8.14,5.83,0,1.1-1.54,1.98-2.42,2.53-1.65,1.21-1.76,1.21-1.76,5.94,0,4.18.22,10.12.66,18.81v.22c0,2.09-1.76,3.96-4.07,3.96-1.43,0-2.75-.99-2.75-3.19v-.11c0-1.65.11-3.19.11-4.84h-15.51c0,2.86,0,6.05.11,9.35,0,1.87-1.43,3.74-4.18,3.74-1.65,0-2.97-.88-2.97-2.97v-.44c.88-10.89,1.1-17.49,1.32-23.65,0-7.15,0-8.14-.11-9.24-7.15,12.32-15.29,16.94-16.39,16.94-.11,0-.22-.11-.22-.22,0-.33.66-1.21,2.2-2.75,7.7-7.48,12.65-19.25,15.73-30.8-2.64.11-5.06.33-6.38.55h-.22c-1.98,0-5.28-3.74-5.28-5.06,3.19.66,8.14.99,12.65,1.21,1.1-4.62,1.76-9.13,2.31-13.2-4.18.11-9.02.22-14.74.88h-.11c-1.76,0-4.4-3.85-4.4-5.06,6.93.88,14.08,1.21,19.58,1.32.55-8.25.66-9.35.66-11,0-.77-.11-1.65-.11-2.42-3.3.11-7.04.33-10.23.77h-.11c-1.98,0-5.17-3.63-5.17-4.95,7.92,1.21,19.36,1.32,22.88,1.32h6.93c.55,0,.88-.11,1.32-.66,1.87-2.53,2.64-2.53,2.86-2.53.66,0,6.05,2.86,7.26,4.51.33.55.55.99.55,1.32,0,1.1-1.21,1.76-2.31,2.42q-1.87,1.1-1.87,4.84c0,1.43,0,3.74.11,6.49h.77c.22,0,.99-.33,1.21-.88,2.31-4.4,2.53-4.73,3.19-4.73.33,0,.55.11.66.11,1.76.77,4.18,3.08,5.39,5.61.11.11.22.22.22.44,6.82.66,12.21.77,16.61.77.99-1.54,9.02-14.85,10.23-24.31.11-.88,0-1.21.22-1.21.88,0,11.22,4.95,11.22,6.71,0,.88-1.1,1.54-3.52,1.65-1.76.11-1.76.55-2.75,1.76-2.64,3.3-7.81,10.01-12.65,15.4h8.14c.66,0,1.32-.44,1.65-.99,3.19-4.4,4.4-5.39,5.06-5.39.77,0,8.91,4.4,8.91,7.7,0,.77-.55,1.54-2.2,1.54h-18.81c.11,0,.22.11.33.11.33.11.66.44.66.77,0,.22-.22.55-.77.88-1.54.88-1.87.99-1.87,14.08h4.4c.66,0,1.21-.44,1.54-.99,3.41-4.4,4.18-4.95,4.73-4.95,1.54,0,8.58,5.28,8.58,7.26,0,.77-.44,1.54-2.09,1.54h-17.16c0,5.06,0,11.11.11,17.6h8.58c.66,0,1.43-.44,1.76-.99,1.54-2.31,4.51-5.83,5.39-5.83,1.1,0,9.35,4.95,9.35,8.25,0,.66-.44,1.32-2.2,1.32h-22.88c.11,8.58.33,17.82.66,26.62v.11c0,1.98-2.31,3.3-4.29,3.3-1.65,0-3.19-.88-3.19-2.86v-.22c.33-8.14.44-17.82.55-26.95-4.73.11-9.9.44-17.16,1.21h-.11c-1.98,0-5.5-4.4-5.5-5.83,8.36,1.1,16.83,1.65,22.88,1.76.11-6.6.11-12.65.11-17.49-4.07.11-6.82.55-12.98,1.1h-.11c-1.76,0-5.39-4.29-5.39-5.61,8.47,1.32,13.64,1.54,18.48,1.65v-6.27c0-1.32,0-6.38-.22-9.57-4.07,0-7.37.11-14.63.88h-.11c-.99,0-2.42-1.1-3.52-2.31h-7.37l.66,17.16v.22c0,2.42-2.2,3.52-3.96,3.52-1.43,0-2.75-.77-2.75-2.75v-.22c0-.44.11-.99.11-1.76h-10.23c-.99,0-2.53,0-4.4.11-1.1,3.96-2.64,8.03-4.4,11.88ZM169.6,80.74c.11-3.08.11-6.16.11-9.35s0-6.16-.22-9.24c0-.55-.22-1.32-.99-1.32h-13.09q-1.54.88-1.54,19.91h15.73ZM155.96,40.37h13.86c0-3.63.11-8.58.11-13.42h-11.33c-.66,4.18-1.43,8.8-2.64,13.42ZM163.55,11.88c0,.44-.44.88-1.98,1.54-1.43.66-1.43.55-1.76,3.85l-.77,6.93h10.89c0-5.94,0-11.11-.11-12.43,0-.33-.22-1.21-1.21-1.21h-6.93c1.76.88,1.87,1.1,1.87,1.32ZM185.88,4.29c-.77-.77-1.1-1.1-1.1-1.32,0-.11.11-.11.22-.11,4.4,0,16.5,4.73,16.5,11.88,0,2.75-1.76,4.73-3.74,4.73-1.54,0-3.19-1.21-4.29-4.18-1.21-3.19-4.95-8.25-7.59-11Z"/><path class="cls-1" d="M229.55,196.57c0,7.48-25.3,7.59-44.22,7.59-9.57,0-18.59-.11-22.99-.44-12.1-.77-14.52-7.59-14.52-12.65v-.33c.11-9.46.55-20.02.66-29.81,0-3.74-.22-10.89-.88-15.29-.11-.33-.11-.55-.11-.77,0-.33.11-.55.44-.55,1.98,0,10.01,4.18,10.67,4.84h49.5c.55,0,1.1-.22,1.43-.77.55-.77,1.32-1.65,1.98-2.09.33-.11.55-.33.99-.33,1.98,0,8.25,3.52,8.25,5.39,0,.99-1.1,1.54-2.09,2.09-1.76.99-1.87,1.1-1.87,3.85,0,3.85.44,16.28.66,19.14v.33c0,1.87-1.98,3.19-4.07,3.19-1.54,0-2.97-.77-2.97-2.64v-2.75h-55.77c-.11,5.72-.11,11.33-.11,14.63.22,8.58,3.63,8.69,28.38,8.69,12.65,0,26.51-.44,31.68-1.32,6.05-1.1,7.59-9.35,9.24-18.04.11-.55.22-.77.33-.77.66,0,1.21,14.52,3.3,15.73,1.21.77,2.09,1.87,2.09,3.08ZM215.47,120.56c0,.99-1.43,1.32-2.42,2.42-1.87,1.98-1.87.66-1.98,2.31v.66c0,2.97.55,9.46.88,12.98v.33c0,2.75-2.97,3.52-4.4,3.52-1.65,0-3.19-.88-3.19-2.86v-.11c0-.77.11-1.65.11-2.53h-44.22c0,.99.11,1.87.11,2.64v.11c0,1.87-2.2,3.19-4.4,3.19-1.65,0-3.08-.77-3.08-2.64v-.33c.55-5.28.77-12.1.77-15.4,0-.88-.33-6.38-1.21-10.56,0-.33-.11-.55-.11-.66,0-.22.11-.22.22-.22.22,0,7.59,2.86,10.23,4.84l.11.11h39.16c.55,0,1.21-.33,1.54-.88,1.43-2.2,2.97-3.19,3.41-3.19.88,0,8.47,4.18,8.47,6.27ZM179.72,151.91h-21.45l-1.1.66c-1.43.88-1.76.77-1.98,3.41-.22,2.53-.33,9.13-.44,15.95h24.97c.11-3.96.11-12.43.11-15.95,0-.88,0-2.75-.11-4.07ZM204.58,128.81c0-2.64-.11-4.95-.22-6.49,0-.44-.22-1.21-1.1-1.21h-40.59l-.44.33c-2.09,1.43-2.09,1.54-2.09,7.7,0,1.65.11,3.52.11,5.39h44.22c0-1.98.11-3.96.11-5.72ZM210.63,162.58c0-4.29-.11-8.14-.22-9.57,0-.33-.55-1.1-1.43-1.1h-20.24c.11.11.11.22.11.33,0,.33-.33.66-1.1,1.1-1.76.88-1.76.99-1.76,8.14,0,3.63,0,7.92.11,10.45h24.42c0-2.97.11-6.27.11-9.35Z"/><path class="cls-1" d="M202.05,223.3c0,.77-.88,1.43-2.2,2.2-2.31,1.21-2.09,1.1-2.31,3.96,0,.44-.11.88-.11,1.32h9.79c.55,0,.88-.22,1.32-.66.66-.77,1.21-1.98,1.87-2.42.33-.22.66-.44,1.1-.44.66,0,7.81,3.74,7.81,6.05,0,1.1-1.32,1.87-2.42,2.53-1.76,1.1-1.65.99-1.87,3.52v4.4h2.2c.33,0,1.1-.33,1.43-.88.11-.11,3.52-6.38,5.06-6.38,2.2,0,8.69,6.82,8.69,8.58,0,.66-.55,1.32-2.42,1.32h-14.85l.66,14.52v.11c0,2.42-2.53,3.52-3.85,3.52-1.43,0-2.64-.77-2.64-2.64v-1.1h-12.1c0,3.74,0,7.59.11,11.55h10.23c.33,0,.99-.33,1.32-.88,3.63-5.06,4.62-5.28,4.95-5.28,1.87,0,8.69,5.83,8.69,7.48,0,.66-.44,1.32-2.2,1.32h-22.88l.22,11.55h15.62c.33,0,1.21-.33,1.54-.88,1.21-1.87,4.4-6.38,5.61-6.38,2.53,0,9.57,7.37,9.57,8.58,0,.66-.55,1.32-2.53,1.32h-29.81l.22,8.91v.22c0,2.09-2.09,3.85-4.51,3.85-1.54,0-2.97-.99-2.97-3.3v-.33c.22-2.86.33-6.05.44-9.35-5.94.11-13.53.22-22.11.88h-.11c-1.87,0-5.06-3.74-5.06-4.95,10.56,1.32,20.35,1.43,27.39,1.43l.33-11.44c-4.95.11-10.67.33-16.17.77h-.11c-1.87,0-5.06-3.74-5.06-4.95,7.15.99,14.96,1.21,21.34,1.32.11-3.85.11-7.7.11-11.44-3.96.11-8.36.33-14.19.88h-.11c-1.54,0-3.96-2.42-4.84-4.07-.55.44-1.21.77-1.76,1.1-1.1.66-1.98,0-2.42,2.64-1.87,11.77-5.28,22.88-10.23,32.23,9.68,12.65,22.22,14.08,34.98,14.08s29.59-1.98,41.58-5.5c.66-.22,1.1-.33,1.32-.33.33,0,.44.11.44.22,0,.99-7.59,6.05-9.13,9.24-.44.88-.99,1.54-2.09,1.76-.88.11-13.42,1.65-26.73,1.65-15.62,0-31.9-.99-42.46-17.49-10.78,17.82-23.1,21.34-24.09,21.34-.22,0-.22-.11-.22-.22,0-.33.88-1.21,2.97-2.64,7.48-5.28,13.75-13.31,18.37-23.76-3.74-7.81-4.73-15.73-5.06-20.02-1.65,2.86-4.07,9.57-4.29,10.45v1.43c0,.88-.11,1.76-.99,1.76-1.76,0-7.48-3.96-7.48-4.62,0-.22.11-.33.55-.66,5.39-3.74,9.79-10.89,10.34-13.86.44-1.87,1.43-2.64,3.08-2.64,3.3,0,3.41,1.76,3.41,1.98,0,.66-.44,1.32-1.54,1.87-.22.11-.55.44-.77.66-.55,1.1-.55,2.09-.55,2.86.33,5.28,1.98,11.44,4.95,17.05,5.28-13.86,7.04-29.81,7.04-31.02,0-.55-.22-.88-.88-.88h-9.68l-.44.99c-.99,2.2-3.19,3.3-5.06,3.3-1.32,0-2.53-.66-2.53-1.98,0-.55.22-1.1.55-1.76,7.04-13.2,11.88-24.2,11.88-25.52,0-.44-.44-.66-1.1-.66h-1.76c-3.52,0-5.61.44-9.68.99h-.11c-1.54,0-4.95-4.07-4.95-5.61,8.58,1.32,11.55,1.76,14.74,1.76h1.98c.55,0,1.1-.44,1.65-.99.44-.55,2.2-2.53,3.08-2.53,1.43,0,7.59,3.85,7.59,5.94,0,1.32-1.65,1.98-2.86,2.53-1.54.66-2.2.44-3.52,3.08-2.31,4.73-5.39,11.33-8.14,17.49h8.03c.55,0,1.21-.44,1.65-.99.11-.22,2.09-2.42,2.86-2.42.66,0,8.03,3.96,8.03,6.6v.33c7.81.88,13.75,1.1,18.59,1.21v-11.55c-5.5.11-13.09.22-20.35.88h-.11c-1.87,0-4.95-3.85-4.95-5.06,9.02,1.43,18.48,1.43,25.41,1.43,0-3.08-.11-5.83-.11-8.03v-2.31c-3.96.11-8.91.33-13.64.77h-.11c-1.98,0-4.84-3.52-4.84-4.73,6.05.88,13.09,1.1,18.48,1.21-.11-3.41-.33-7.7-.99-10.23-.11-.33-.11-.55-.11-.66s0-.11.11-.11,11.88,1.32,11.88,3.63ZM197.1,243.76h12.43c0-4.29,0-8.03-.11-9.24,0-.33-.22-1.1-1.21-1.1h-10.89c-.11,2.75-.22,6.27-.22,10.34ZM197.21,258.17h12.21c0-3.08.11-7.59.11-11.77h-12.43c0,3.63.11,7.59.11,11.77Z"/><path class="cls-1" d="M236.26,418.33c0,.88-9.9,3.19-12.54,5.83-.44.44-.77.55-1.21.55-2.64,0-25.08-8.69-36.08-24.53-.11,2.42-.11,4.95-.11,7.59,0,6.27.22,12.76.33,16.94v.22c0,2.64-2.53,3.74-4.29,3.74-1.54,0-2.97-.99-2.97-3.3v-.44c.44-5.61.77-14.52.88-21.01-17.05,14.96-30.58,19.58-47.41,22.44-.66.11-1.21.11-1.65.11-.66,0-.99-.11-.99-.22,0-.33.77-.77,2.2-1.21,12.98-3.74,28.27-11.66,43.78-26.4h-4.07c-6.05,0-20.68.22-30.36,1.21h-.11c-2.09,0-5.61-4.18-5.61-5.61,11.11,1.32,30.25,1.76,36.52,1.76h7.59c-.22-2.86-.55-7.04-.99-8.8-.11-.22-.11-.33-.11-.55s.22-.33.66-.33c1.65,0,11.44,1.21,11.44,3.08,0,.66-.66,1.32-1.54,1.87-1.65.99-2.75.77-2.97,3.63,0,.33-.11.77-.11,1.1h25.74c.66,0,1.43-.44,1.76-.99.99-1.65,4.4-6.38,6.05-6.38.22,0,.44,0,.66.11,4.62,1.65,9.24,7.48,9.24,8.69,0,.66-.44,1.21-2.31,1.21h-39.93c8.69,8.25,26.51,17.93,47.52,19.36.66,0,.99.11.99.33ZM183.02,341.44c0,.66-.44,1.21-2.09,1.21h-26.07c-8.25,9.35-18.81,16.5-20.57,16.5-.11,0-.22,0-.22-.11,0-.22.33-.66,1.1-1.32,6.82-5.94,17.05-19.69,18.37-27.94.11-.88,0-1.21.33-1.21,1.43,0,11.11,4.4,11.11,6.6,0,.88-1.54,1.32-3.41,1.32-1.54,0-1.76.22-4.51,3.52h11.88c.33,0,.99-.22,1.32-.77,1.1-1.87,2.2-3.08,3.74-4.73.22-.22.55-.33.77-.33.33,0,.55.11.77.11,4.4,1.87,7.48,6.27,7.48,7.15ZM229.77,341.33c0,.66-.44,1.32-2.09,1.32h-35.31c-4.95,4.84-10.78,9.79-16.94,13.31l-.11.11c2.86,1.98,3.63,3.96,3.63,4.29,0,.66-.55,1.21-2.09,1.21h-11.11c.44.22.77.55.77.99s-.33.99-1.1,1.32c-.99.55-1.1.33-1.32,3.85v7.48c5.72-1.32,10.89-2.75,15.73-4.18.33-.11.66-.22.88-.22.33,0,.55.11.55.33,0,1.32-9.13,5.61-35.42,13.64-.99.33-1.32,1.21-1.98,1.21-.22,0-.55-.22-.99-.55-1.65-1.32-4.73-6.71-4.73-6.71,0,0,0-.11.77-.11h2.31c4.29,0,10.56-.88,16.94-2.2,0-3.63.11-7.92.11-9.24,0-1.98,0-3.41-.33-5.61-2.64.11-6.93.22-11.66.88h-.11c-1.32,0-4.18-3.63-4.18-4.84,7.92,1.21,17.16,1.43,18.59,1.43h4.18c.33,0,.88-.44,1.21-.88.44-.55,3.3-4.4,4.51-4.4.22,0,.44.11.66.11.99.44,2.09.99,3.19,1.65l.22-.22c5.83-5.28,12.32-13.42,15.73-20.02,1.1-2.09,1.54-4.51,1.76-5.83.11-.88.11-1.1.55-1.1,1.1,0,10.89,3.96,10.89,6.38,0,.88-1.21,1.32-3.41,1.32q-1.54,0-2.75,1.43l-2.42,2.53h18.92c.33,0,.99-.33,1.32-.77,4.29-5.72,4.95-5.94,5.5-5.94.22,0,.44.11.66.11,3.08,1.32,8.47,5.94,8.47,7.92ZM169.6,350.02c0,1.87-1.65,3.63-3.63,3.63-1.1,0-2.2-.55-3.19-1.98-1.1-1.65-3.85-3.96-6.27-5.28-.55-.33-.88-.55-.88-.66,0-.66,4.29-.66,4.51-.66,5.06,0,9.46,1.54,9.46,4.95ZM233.4,381.59c0,3.08-4.95,5.06-15.51,5.06-11.55,0-12.1-3.85-12.1-9.57,0-4.51.22-12.65.22-16.28,0-1.21-.55-1.76-1.76-1.76h-13.53c-.66.66-.88,1.76-.88,2.64v1.76c0,1.54-.11,2.97-.22,4.4,1.21-.22,2.75-.33,4.29-.33,8.03,0,9.24,3.19,9.24,4.73,0,1.87-1.54,3.41-3.41,3.41-1.21,0-2.42-.55-3.63-1.87-1.32-1.43-4.18-3.3-6.71-4.51-2.2,12.1-12.1,18.81-30.25,21.78-.88.11-1.54.22-2.09.22-.66,0-1.1-.11-1.1-.33s.88-.77,2.86-1.32c16.61-4.95,24.86-11.11,24.86-25.85,0-.77-.11-1.54-.11-2.31,0-.88-.44-4.84-1.1-8.14,0-.22-.11-.44-.11-.55,0-.22.11-.33.33-.33.33,0,7.26,2.09,9.13,3.52l.33.33h11.66c.77,0,1.32-.22,1.76-.88,0,0,1.54-1.98,2.53-1.98,2.31,0,8.36,4.18,8.36,5.83,0,.88-.88,1.43-2.2,2.09-2.53,1.32-2.53,1.43-2.53,13.09,0,5.28.22,6.6,5.83,6.6,6.82,0,7.59-1.1,10.23-13.53.22-.88.33-1.21.44-1.21.77,0,.77,11.66,2.86,12.65,1.65.77,2.31,1.65,2.31,2.64ZM209.75,349.69c0,1.98-1.65,3.74-3.63,3.74-1.1,0-2.2-.55-3.19-1.98-1.1-1.65-3.74-3.96-6.16-5.28-.66-.33-.88-.55-.88-.77s1.76-.55,4.18-.55c3.96,0,9.68.99,9.68,4.84Z"/><path class="cls-1" d="M43.67,125.07c0,.66-.55,1.1-1.65,1.1-.44,0-.88,0-1.43-.22-.33-.11-.77-.11-1.1-.11-.55,0-1.1.11-1.65.33-1.87.77-4.73,1.54-8.03,2.2,1.54.55,2.64.99,2.64,1.54,0,.44-.44.88-1.43,1.43-1.76.99-1.65.99-1.87,4.51-.22,2.97-.33,7.37-.33,12.43h.99c.33,0,.99-.33,1.32-.88,2.97-4.95,3.63-5.39,4.29-5.39,2.09,0,7.48,6.16,7.48,7.7,0,.66-.44,1.32-1.98,1.32h-12.1v11.33c6.38.11,13.53,2.75,13.53,7.48,0,1.98-1.32,3.52-3.08,3.52-1.1,0-2.42-.66-3.52-2.42-1.76-2.64-4.29-5.72-6.93-7.48,0,15.18.33,33.11.88,47.3v.11c0,2.53-2.42,4.18-4.62,4.18-1.65,0-3.19-1.1-3.19-3.63v-.22c.44-11.99.99-28.05,1.1-42.35-7.81,14.52-20.24,22.55-22,22.55-.11,0-.22-.11-.22-.22,0-.22.44-.77,1.54-1.76,5.83-5.17,19.14-24.53,20.79-35.75v-2.64c-3.63.11-6.27.22-12.21.99h-.11c-1.32,0-4.4-4.07-4.4-5.28,7.26,1.1,12.43,1.54,16.72,1.54-.11-10.78-.44-15.73-.77-18.59-5.5.88-11.11,1.43-15.18,1.43-1.54,0-2.42-.22-2.42-.44s.77-.55,2.2-.77c8.8-1.43,24.86-6.38,28.6-11.22.33-.33.33-.66.55-.66.66,0,7.59,5.5,7.59,7.04ZM102.52,134.53c0,.66-.44,1.32-2.2,1.32h-24.09c-.33,3.96-.44,8.03-.55,11h6.71c.55,0,1.1-.33,1.43-.88.44-.77,1.32-1.98,1.87-2.31.22-.22.55-.33.88-.33s.55,0,.88.22c.77.22,7.04,2.97,7.04,5.39,0,1.1-1.1,1.76-1.98,2.31-1.76,1.1-1.87,1.21-1.87,6.93,0,7.81.33,28.71.66,35.2v.22c0,2.2-2.09,3.52-3.85,3.52-1.54,0-2.97-.88-2.97-2.97v-2.64h-16.94c0,1.76.11,3.41.11,4.4,0,1.54-1.43,2.97-3.85,2.97-1.43,0-2.64-.77-2.64-2.31v-.33c.44-4.73.55-17.05.55-26.84,0-16.28-.22-21.23-1.1-25.96-.11-.33-.11-.55-.11-.77s.11-.33.33-.33c.66,0,6.71,2.75,9.02,4.51l.55-11h-1.65c-5.61,0-11.22.22-20.35,1.21h-.11c-1.87,0-5.17-4.29-5.17-5.72,10.34,1.43,20.35,1.76,26.18,1.76h1.21c0-1.87.11-3.52.11-4.62,0-3.19-.22-7.26-.77-10.23,0-.22-.11-.44-.11-.55,0-.33.22-.33.55-.33.77,0,10.78,1.1,10.78,3.52,0,.88-.99,1.87-2.53,2.64-.77.33-1.32.99-1.43,2.42-.33,1.98-.44,4.51-.66,7.15h9.68c.66,0,1.43-.44,1.76-.99,1.21-1.98,4.29-5.72,5.39-5.72,2.09,0,9.24,5.39,9.24,8.14ZM89.1,203.28c1.21-1.98,4.4-5.83,5.94-5.83.22,0,.44,0,.66.11,2.86.99,9.02,5.94,9.02,8.14,0,.66-.44,1.32-2.31,1.32h-50.71c0,1.21.11,2.42.11,3.3,0,2.09-1.65,3.85-3.74,3.85-1.65,0-3.08-.99-3.08-3.41v-.22c.33-7.26.44-31.24.44-44.88,0-11.33,0-14.74-.77-18.48-.11-.33-.11-.55-.11-.66,0-.33.11-.33.44-.33.77,0,10.56.88,10.56,3.19,0,.77-.66,1.43-1.21,1.76-1.87,1.1-2.42,1.43-2.64,4.29-.11,2.64-.22,9.35-.22,17.27,0,10.56.11,23.32.22,31.57h35.64c.66,0,1.43-.44,1.76-.99ZM69.63,149.6l-.77.55c-1.32.88-1.43,1.76-1.43,10.12h17.27c0-4.07-.11-7.81-.22-9.57,0-.33-.22-1.1-1.1-1.1h-13.75ZM84.7,162.91h-17.27v10.89h17.27v-10.89ZM84.7,176.44h-17.27c0,4.51,0,8.8.11,12.43h17.05c0-3.41.11-7.81.11-12.43Z"/><path class="cls-1" d="M106.26,308c0,.88-10.23,1.21-13.31,3.74-.44.33-.88.55-1.32.55-3.41,0-25.41-20.46-35.53-43.12,0,15.07.55,35.09.88,51.92v.11c0,2.42-2.42,4.07-4.84,4.07-1.65,0-3.19-.88-3.19-3.3v-.44c.88-13.42,1.32-31.68,1.43-46.75C31.35,306.68,1.1,316.8.22,316.8c-.11,0-.22,0-.22-.11,0-.22.77-.88,2.2-1.76,11.77-7.48,31.79-24.09,44.99-48.29h-4.73c-6.16,0-21.01.22-30.8,1.21h-.11c-1.98,0-4.95-4.29-4.95-5.72,11.33,1.32,29.92,1.76,36.3,1.76h7.48c0-3.52-.11-6.71-.11-9.24,0-4.95,0-8.69-.44-11.99-7.92.99-26.07,2.86-35.53,2.86-1.21,0-2.31-.44-2.31-.88,0-.33.55-.55,1.98-.77,16.61-1.98,40.81-6.49,54.56-10.78,3.08-.99,5.28-2.53,6.6-3.41.44-.33.66-.55.77-.55.33,0,7.7,6.16,7.7,8.58,0,.88-.77,1.32-1.76,1.32-.55,0-1.21-.22-1.87-.44-.66-.22-1.43-.44-2.2-.44-.33,0-.55,0-.88.11-4.62.99-10.78,2.2-17.71,3.19,1.21.44,1.76.99,1.76,1.54,0,.66-.77,1.32-2.09,1.98-2.2,1.21-1.76.99-2.09,3.74-.33,2.75-.55,8.14-.55,15.18h24.64c.77,0,1.54-.44,1.87-.99.99-1.54,4.62-7.04,6.38-7.04.22,0,.44,0,.66.11,3.3,1.21,9.9,7.26,9.9,9.35,0,.66-.55,1.32-2.42,1.32h-40.15c9.02,15.4,28.27,34.65,48.18,40.81.66.22.99.33.99.55Z"/><path class="cls-1" d="M102.41,428.78c0,2.42-2.2,3.85-5.39,3.85-.88,0-17.16-.66-28.93-21.45-19.14,22-45.21,24.64-48.95,24.64-.88,0-1.43-.11-1.43-.33,0-.33.77-.66,2.53-1.1,15.95-3.63,32.78-12.32,44.88-28.93-6.71-14.85-8.8-32.23-9.79-43.78h-27.72l-1.21.66c-1.54.77-1.54.99-1.54,5.94,0,3.41,0,6.93-.11,10.45h12.21c1.21,0,2.09-.44,2.53-.88,1.65-1.87,2.2-2.42,2.75-2.42,1.1,0,8.69,3.52,8.69,5.72,0,.99-1.1,1.87-3.08,2.86-1.32.66-1.43,1.1-1.43,2.2,0,9.35-.22,12.43-.77,15.07-2.2,11.44-10.01,13.09-12.76,13.09-.55,0-.99-.22-1.21-.77-1.21-2.86-8.25-6.82-8.25-7.59,0-.11.11-.11.33-.11.11,0,.33,0,.66.11,2.2.44,4.4.88,6.38.88,7.48,0,9.35-4.51,9.35-15.95,0-3.41-.11-6.6-.22-8.14,0-.77-.66-1.21-1.32-1.21h-13.97c-.88,18.59-4.51,37.18-20.57,49.5-1.76,1.32-3.19,2.2-3.85,2.2-.11,0-.22-.11-.22-.22,0-.44.66-1.32,2.2-2.97,12.54-12.98,15.4-30.25,15.4-49.83,0-11.55-.88-21.78-1.87-25.96-.11-.44-.11-.66-.11-.77,0-.22,0-.33.11-.33,1.1,0,8.8,3.3,11.66,5.17.22.11.44.33.66.55h27.06c-.99-15.29-1.98-20.02-2.64-22-.11-.44-.22-.66-.22-.77s.11-.11.22-.11c1.87,0,12.98,1.43,12.98,4.07,0,.77-.77,1.54-1.98,2.31-2.09,1.32-2.09,1.76-2.09,8.91,0,2.42,0,4.95.11,7.59h19.58c.77,0,1.54-.44,1.87-.99,4.18-5.94,4.95-6.71,6.16-6.71.22,0,.44,0,.66.11,3.74,1.32,9.79,7.26,9.79,9.02,0,.66-.55,1.32-2.42,1.32h-35.53c.66,12.1,2.75,26.07,7.48,37.73,8.14-13.64,9.13-22.66,9.68-28.71.11-.55,0-.77.44-.77s11.55,3.96,11.55,6.49c0,.77-.88,1.65-3.3,2.31-1.76.55-2.09.55-2.86,2.75-3.3,9.57-7.48,17.6-12.43,24.53,7.26,13.2,15.73,16.06,17.38,16.06,3.41,0,5.83-5.39,10.12-17.16.44-1.1.66-1.76.88-1.98l.11-.11c.11,0,.22.44.22,1.21,0,2.75-.99,10.34-.99,15.4,0,2.31.22,4.07.77,4.84,1.21,1.76,1.76,3.19,1.76,4.51ZM83.49,351.12c0,2.31-1.65,4.07-3.63,4.07-1.32,0-2.75-.66-4.07-2.53-2.2-3.08-5.83-6.16-9.35-8.14-.66-.33-.99-.55-.99-.66,0-.55,4.07-.55,4.18-.55,10.67,0,13.86,4.73,13.86,7.81Z"/><path class="cls-1" d="M51.7,475.42c0,.66-.44,1.32-1.98,1.32h-16.39l-.22,12.21h.66c7.37,0,16.94,2.86,16.94,8.8,0,1.98-1.43,3.63-3.3,3.63-1.32,0-2.86-.77-4.4-2.75-2.53-3.19-6.27-7.04-9.9-8.91-.11,10.67-.22,22.33-.22,33,0,6.49,0,12.65.11,18.04v.11c0,2.75-3.08,4.18-4.62,4.18-1.65,0-3.19-1.1-3.19-3.52v-.33c.77-11.88,1.54-30.47,1.98-47.08-9.79,18.92-25.96,27.28-26.84,27.28-.22,0-.33-.11-.33-.22,0-.22.55-.88,1.76-1.98,5.5-4.95,22.77-26.62,25.74-41.36v-1.1c-4.29,0-10.12.11-16.39.99h-.11c-1.32,0-4.4-4.18-4.4-5.39,7.48,1.21,16.17,1.54,21.01,1.65v-9.57c0-8.36-.22-12.98-.77-16.39-.11-.33-.11-.66-.11-.77,0-.22.11-.22.22-.22.33,0,11.99,1.54,11.99,3.85,0,.66-.66,1.43-1.98,2.09-1.87.99-2.64.66-2.86,4.18-.22,3.52-.44,9.46-.66,16.83h3.74c.33,0,.99-.33,1.32-.88.99-1.65,3.74-5.61,4.95-5.61,1.65,0,8.25,5.94,8.25,7.92ZM106.15,516.01c0,.99-7.37.99-10.78,3.41-.44.33-.77.55-1.1.55-1.1,0-12.98-16.72-19.14-39.93,0,21.67.44,50.93.77,60.17v.11c0,2.97-3.41,4.18-4.51,4.18-1.76,0-3.3-.99-3.3-3.63v-.22c.33-9.68.88-32.56,1.1-51.7-10.12,25.74-29.26,34.65-29.92,34.65-.22,0-.33-.11-.33-.22,0-.33.44-.99,1.43-1.76,8.03-6.71,19.69-21.67,26.84-44.77-3.41.11-7.26.33-11.22.88h-.11c-1.87,0-4.62-4.07-4.62-5.5,6.6.99,12.87,1.43,18.04,1.54,0-7.26,0-21.12-1.1-26.07-.11-.44-.11-.66-.11-.77s0-.11.11-.11c2.31,0,12.21,2.2,12.21,4.18,0,.77-.66,1.43-1.76,2.09-2.2,1.32-2.97.44-3.19,4.73-.22,3.19-.33,9.02-.33,16.06h8.47c.66,0,1.43-.44,1.76-.99.11-.11,4.07-6.71,5.72-6.71,1.54,0,9.9,6.27,9.9,9.13,0,.77-.55,1.43-2.31,1.43h-22.77c4.95,13.53,15.84,31.35,29.59,38.72.44.22.66.44.66.55Z"/></g></svg>