<?xml version="1.0" encoding="UTF-8"?><svg id="_圖層_2" xmlns="http://www.w3.org/2000/svg" viewBox="0 0 709.53 306.95"><defs><style>.cls-1{fill:#fff;}</style></defs><g id="_圖層_1-2"><path class="cls-1" d="M132.2,88.41c-7.38,0-14.4-.83-21.89-.83-3.57,0-7.26.24-11.07.71h-.24c-.83,0-1.19-.6-1.19-1.31s.36-1.55,1.19-2.14c9.99-.95,10.11-3.09,10.47-14.4,0-3.69,0-8.45.12-14.28.12-2.97.12-7.73.12-12.37s0-9.4-.12-12.26v-2.38c0-18.56-.12-21.06-9.99-21.54-.71-.12-1.07-1.07-1.07-1.9s.36-1.55.95-1.55h.12c1.78.24,3.93.24,6.31.24,7.14,0,16.06-.71,21.77-.71,16.3,0,29.15,5.24,29.15,18.56,0,11.78-9.04,17.37-16.9,18.92-.59.12-.83.24-.83.36,0,.36,1.67.6,2.02.71,10.23,1.07,22.49,7.97,22.49,21.06,0,18.92-18.8,25.11-31.41,25.11ZM127.79,7.14c-6.31,0-7.38.95-7.97,5.24-.12.36-.12.71-.12,12.14v13.09c.12.83.24,3.09,2.02,3.09h.59c1.19-.24,3.57-.48,5.59-.48,6.31-.24,17.49-1.78,17.49-15.71,0-8.09-4.28-17.37-17.61-17.37ZM129.22,44.03c-4.16,0-6.66.24-7.62.48-1.31.36-1.9.95-1.9,2.26,0,5.95,0,14.64.12,19.4.36,12.14.59,18.8,12.85,18.8,11.3,0,19.28-9.28,19.28-19.87,0-9.76-5.12-21.06-22.73-21.06Z"/><path class="cls-1" d="M246.66,89.12c-8.81,0-16.66-2.5-22.37-9.99-7.02-9.4-12.14-22.13-19.39-30.7-.83-1.07-2.02-1.9-3.57-1.9h-.59c-1.78.12-2.62.12-4.05.12-.95.12-1.55.48-1.55,1.31.12,5.35,0,10.71.24,15.94.59,18.09.71,19.99,12.14,20.94.71.59,1.07,1.31,1.07,2.02,0,.83-.48,1.43-1.31,1.43,0,0-9.04-.71-18.68-.71-4.88,0-9.76.12-13.8.71h-.36c-.71,0-1.07-.48-1.07-1.31,0-.71.36-1.55,1.19-2.14,10.11-1.19,10.23-2.14,10.47-20.58.12-4.64.12-14.64.12-23.44,0-6.54,0-12.49-.12-15.47-.48-16.9.12-15.59-10.95-17.73-.71-.59-1.07-1.31-1.07-2.02,0-.83.48-1.55,1.19-1.55h.12c3.81.24,7.14.36,10.23.36,6.07,0,11.42-.36,18.44-.71.95,0,1.9-.12,2.74-.12,15.11,0,27.61,5.71,27.61,19.51,0,12.37-8.92,18.56-18.56,20.82-.59.12-.71.24-.71.48,0,.36.48.95.95,1.43,8.09,9.16,12.38,21.77,20.7,31.06,5.35,5.95,10.47,8.45,18.44,8.45,2.5,0,2.5.6,2.5,1.55,0,1.55-2.02,2.26-10,2.26ZM203.35,7.14c-6.9,0-7.5,1.55-7.85,5.24-.12,2.97-.24,5-.24,11.18-.12,6.54-.12,10.83-.12,17.49,0,.83.48,2.14,1.31,2.14h1.43c10,0,24.27-2.5,24.27-17.37s-10.83-18.68-18.8-18.68Z"/><path class="cls-1" d="M302.23,89.84c-28.32,0-43.91-21.3-43.91-43.55,0-24.63,18.92-44.5,44.38-44.5s43.43,19.99,43.43,44.5-15.59,43.55-43.91,43.55ZM301.87,5.59c-20.23,0-30.94,18.56-30.94,38.43,0,14.87,6.07,42,31.89,42,23.08,0,30.82-19.28,30.82-37.96,0-19.99-8.81-42.48-31.77-42.48Z"/><path class="cls-1" d="M426.45,86.62c0,.95-.36,1.78-1.19,1.78,0,0-8.45-.83-17.02-.83-3.93,0-7.97.24-11.18.71h-.24c-.71,0-1.19-.71-1.19-1.43,0-.83.36-1.67,1.19-2.14,4.76-.59,7.62-1.43,7.62-4.88,0-3.21-6.07-20.7-7.73-25.23-.24-.71-.6-1.19-13.33-1.19-4.4,0-8.81.12-11.07.24-1.19,0-2.62.24-3.21,2.38-1.67,5.83-5.83,17.85-6.43,21.06-.12.83-.24,1.55-.24,2.26,0,3.93,3.09,4.52,8.45,5.35.83.59,1.19,1.43,1.19,2.14,0,.83-.59,1.55-1.43,1.55,0,0-7.26-.83-14.87-.83-3.45,0-7.02.12-10,.71h-.24c-.71,0-1.07-.6-1.07-1.43,0-.71.24-1.55.95-2.14,5.59-.83,7.97-3.21,10.47-8.09,5.47-10.83,14.99-43.19,23.92-65.8,0-.12.12-.36.12-.48,0-.59-.24-1.43-.48-1.9-.12-.12-.12-.36-.12-.59,0-.6.24-1.19.83-1.55,2.26-1.31,4.16-2.5,6.07-5.24.48-.71,1.07-1.07,1.67-1.07.48,0,.95.48,1.19,1.55.48,2.26,2.38,11.3,26.18,73.89,1.9,5,4.28,8.21,10.23,9.16.71.48.95,1.19.95,2.02ZM382.55,16.42c-.12,0-.36.12-.48.36-2.14,4.76-8.69,24.87-10.35,30.7v.12c0,.48.83.59,1.19.71,1.31.12,4.76.12,8.57.12,4.76,0,9.88,0,11.9-.24.6,0,.95-.24.95-.71,0-.6-11.19-31.06-11.78-31.06Z"/><path class="cls-1" d="M471.79,88.41c-7.62,0-17.85-.83-27.49-.83-4.4,0-8.81.24-12.61.71h-.24c-.71,0-1.19-.6-1.19-1.31s.36-1.55,1.19-2.14c11.19-1.07,11.19-1.67,11.19-35.22,0-6.9,0-13.92-.12-16.78,0-4.88,0-15.83-.71-19.28-.48-2.62-1.31-5.35-9.4-5.35-.71-.48-.95-1.19-.95-1.9s.36-1.43,1.19-1.43h.12c2.38.24,4.76.24,7.14.24,10.71,0,22.01-1.55,30.82-1.55,25.34,0,47.95,13.21,47.95,42,0,23.2-17.13,42.84-46.88,42.84ZM469.05,7.26c-12.97,0-14.75,1.55-15.23,5.35-.6,3.21-.95,9.76-.95,34.51,0,17.85.12,25.82,1.07,28.68,2.74,8.33,11.66,9.04,17.49,9.04,14.4,0,35.1-7.62,35.1-37.84,0-25.82-19.16-39.74-37.48-39.74Z"/><path class="cls-1" d="M73.42,126.47c-4.76,9.88-18.56,47.24-22.13,55.81-2.26,5.35-3.21,9.88-4.76,14.28-.48,1.67-.83,3.09-2.86,3.09-1.9,0-2.14-1.78-2.5-3.21-4.4-13.09-14.52-39.15-29.03-72.58-2.62-6.19-6.78-7.5-11.19-8.09-.71-.59-.95-1.43-.95-2.02,0-.95.48-1.67,1.31-1.67,0,0,8.09.6,16.54.6,4.28,0,8.69-.12,12.26-.6h.24c.71,0,1.19.71,1.19,1.43,0,.83-.36,1.79-1.19,2.26-4.4.71-7.14.83-7.14,3.57,0,.6.12,1.43.48,2.5,4.16,11.9,15.59,37.24,22.96,57.35.12.36.36.59.48.59.83,0,21.18-53.66,21.18-60.09,0-2.86-2.14-3.45-8.33-3.93-.83-.59-1.19-1.43-1.19-2.14s.48-1.43,1.43-1.43c0,0,6.31.48,13.92.48,3.81,0,7.97-.12,11.9-.48h.24c.95,0,1.43.71,1.43,1.55,0,.71-.36,1.55-1.07,2.02-8.45,1.55-10.23,4.4-13.21,10.71Z"/><path class="cls-1" d="M126.36,195.36c0,.83-.48,1.43-1.31,1.43,0,0-9.28-.83-18.44-.83-4.64,0-9.16.24-12.61.83h-.36c-.71,0-1.07-.6-1.07-1.31s.36-1.55,1.07-2.14c11.54-1.19,10.35-4.05,10.71-18.32.12-5.71.24-13.92.24-21.77s-.12-15.47-.24-19.63c-.59-17.02-.48-17.02-11.18-17.97-.71-.48-.95-1.31-.95-1.9,0-.83.48-1.55,1.31-1.55,0,0,8.21.59,17.25.59,4.88,0,10-.12,14.16-.71h.12c.83,0,1.31.83,1.31,1.67s-.36,1.55-1.19,1.9c-11.3,1.07-10,2.74-10.47,17.73-.24,5.35-.24,11.3-.24,17.49,0,8.33.12,16.9.24,24.04.24,13.68-.48,17.25,10.59,18.44.71.59,1.07,1.31,1.07,2.02Z"/><path class="cls-1" d="M196.21,195.48c-.36.83-1.19,1.31-3.21,1.31,0,0-19.63-.48-36.77-.48-8.57,0-16.54.12-21.18.48h-.12c-.83,0-1.31-.6-1.31-1.31s.36-1.55,1.07-2.14c10.23-.83,10.59-1.79,10.59-15.35.24-8.21.36-16.42.36-24.75,0-4.76-.12-9.52-.12-14.28,0-8.57-.36-15.11-.95-17.97-.48-2.74-2.14-5.35-10.35-5.35-.71-.6-1.07-1.31-1.07-2.02,0-.83.48-1.55,1.31-1.55h.12c3.69.36,10.83.48,18.92.48,15.94,0,35.1-.48,35.1-.48,2.02,0,2.62.12,2.62,1.19v.24c0,.48-.12,1.07-.12,1.67,0,3.81.83,8.81.83,12.73,0,2.14-1.78,2.14-1.9,2.14-.48,0-.95-.12-1.07-.6-4.16-11.3-8.92-13.56-22.25-13.56-2.62,0-5,.12-7.14.36-3.45.6-3.81,1.78-3.81,22.73v8.69c0,1.78,1.31,1.9,6.66,1.9,9.64,0,16.42-.48,18.21-10.59.12-.71.95-1.07,1.78-1.07.95,0,1.78.36,1.78,1.31v.12c-.48,2.97-.6,6.66-.6,10.47,0,7.38.6,14.64.6,14.64,0,.71-.83,1.19-1.78,1.19-.83,0-1.67-.48-1.78-1.19-.95-10.59-9.16-11.3-18.8-11.3-5.59,0-6.07,0-6.07,2.02v5c0,5.71.12,13.92.24,17.02.48,9.88.12,14.04,11.54,15.71,1.43.24,2.97.36,4.76.36,12.85,0,19.87-4.52,28.2-16.78.24-.36.59-.59,1.07-.59.95,0,2.02.95,2.02,1.55v.12c-1.55,5.12-6.19,14.4-7.38,17.97Z"/><path class="cls-1" d="M317.58,122.42c-7.85,15.83-28.08,66.28-31.41,74.01-.6,1.31-1.07,2.5-2.38,2.5-1.43,0-2.14-.59-2.74-2.5-2.02-6.66-14.75-33.79-15.11-33.79s-.36.12-13.57,34.03c-.48,1.31-1.43,2.5-2.74,2.62-1.43,0-2.02-.71-2.62-2.86-1.31-4.64-7.5-18.8-14.16-33.55-6.66-14.75-14.4-31.06-17.97-39.39-2.26-5.12-4.16-7.14-8.92-7.97-.71-.59-.95-1.31-.95-1.9,0-.83.48-1.43,1.19-1.43,0,0,7.14.48,14.87.48,3.81,0,7.73-.12,11.07-.48h.24c.71,0,1.07.59,1.07,1.43,0,.71-.36,1.55-1.07,2.02-3.93.48-6.78,1.07-6.78,3.81,0,3.57,26.89,62.23,27.13,62.23.71,0,10.35-24.63,10.35-25.11,0-1.43-10.83-24.99-14.75-33.08-2.5-5.24-5-7.38-10.11-7.97-.71-.59-.95-1.19-.95-1.9s.36-1.31,1.19-1.31c0,0,7.14.48,14.99.48,3.93,0,7.97-.12,11.3-.48h.12c.83,0,1.31.59,1.31,1.43,0,.59-.36,1.31-1.07,1.9-4.4.59-6.54,1.43-6.54,3.81s9.88,26.18,10.35,26.18c.71,0,7.97-19.04,9.04-25.11,0-.36.12-.59.12-.95,0-2.02-1.19-3.93-6.66-4.28-.71,0-1.07-.6-1.07-1.31,0-.83.6-1.78,1.31-1.78,0,0,5.83.59,12.37.59,3.33,0,6.78-.12,9.76-.59h.12c.48,0,.83.71.83,1.55s-.36,1.67-1.31,1.78c-4.4.6-6.9,2.14-8.69,5.83-4.52,9.52-12.85,28.68-12.85,29.98,0,.36.12.83.36,1.31,2.62,5.71,9.28,19.16,13.57,28.91.24.59.36,1.07.59,1.07.12,0,.36-.24.71-1.07,18.68-46.05,22.73-57.23,22.73-61.16,0-1.9-.36-4.16-8.92-4.88-.71-.59-1.07-1.31-1.07-1.9,0-.83.48-1.43,1.31-1.43,0,0,6.66.59,14.04.59,3.69,0,7.62-.12,10.95-.59h.24c.71,0,1.19.71,1.19,1.43s-.24,1.43-.95,1.9c-4.16.71-7.02,2.86-9.04,6.9Z"/><path class="cls-1" d="M410.03,198.34c-28.32,0-43.91-21.3-43.91-43.55,0-24.63,18.92-44.5,44.38-44.5s43.43,19.99,43.43,44.5-15.59,43.55-43.91,43.55ZM409.68,114.09c-20.23,0-30.94,18.56-30.94,38.43,0,14.87,6.07,42,31.89,42,23.08,0,30.82-19.28,30.82-37.96,0-19.99-8.81-42.48-31.77-42.48Z"/><path class="cls-1" d="M521.52,128.85c0,.83-.95,1.31-1.79,1.31-.48,0-.95-.24-1.19-.71-4.28-10.23-6.07-13.56-22.01-13.56-2.62,0-5,.12-7.02.48-3.21.48-3.69.83-3.69,26.06v6.54c0,1.31.95,1.9,7.85,1.9,9.16,0,17.25-.48,19.04-10.59.12-.83.95-1.19,1.78-1.19s1.67.48,1.67,1.43v.24c-.48,2.97-.6,6.66-.6,10.47,0,7.38.6,14.64.6,14.64,0,.83-.95,1.31-1.78,1.31s-1.67-.36-1.67-1.31c-1.19-11.42-10.11-11.54-19.87-11.54-6.54,0-7.02.24-7.02,2.14v1.55c0,4.16.24,11.42.24,15.71v1.67c0,16.18,1.43,16.06,12.26,17.97.71.12,1.07.83,1.07,1.55,0,.95-.48,1.9-1.19,1.9,0,0-9.4-.83-19.04-.83-4.88,0-9.76.24-13.68.83h-.36c-.71,0-1.07-.6-1.07-1.31s.36-1.55,1.07-2.14c10.47-1.43,10.35-3.33,10.47-18.8.12-6.9.12-16.18.12-25.11,0-6.54,0-12.97-.12-17.97-.24-15.11-.59-14.4-10.95-15.83-.71-.6-1.07-1.31-1.07-2.02,0-.83.48-1.43,1.19-1.43h.24c3.09.36,7.26.48,12.02.48,9.4,0,21.3-.48,31.89-.48,12.26,0,12.49.24,12.49,1.19,0,.48-.12,1.07-.24,1.78-.12.83-.12,1.67-.12,2.62,0,3.33.36,7.5.48,10.95v.12Z"/><path class="cls-1" d="M206.09,224.97c0,2.97.12,6.19.12,9.16,0,1.67,0,3.21-.12,4.64,0,.83-.71,1.19-1.43,1.19s-1.55-.36-1.67-.83c-2.62-8.57-3.57-12.26-15.83-13.92-2.02-.24-3.81-.36-5.35-.36-2.14,0-4.05.12-5.59.24-2.14,0-2.5,1.31-2.62,2.38-.12.83-.83,10.23-.83,28.91,0,7.73.12,17.37.12,23.92.12,16.06-1.07,19.87,12.61,21.54.83.59,1.19,1.43,1.19,2.02,0,.83-.48,1.43-1.43,1.43,0,0-10.47-.83-20.94-.83-5.24,0-10.47.24-14.4.83h-.36c-.71,0-1.07-.6-1.07-1.31s.36-1.67,1.07-2.26c12.61-1.9,12.61-2.02,12.85-21.54.12-5.47.12-12.02.12-18.09s0-11.78-.12-15.59c0-.48-.12-16.3-.71-18.92-.59-2.5-.83-2.62-9.28-2.62-12.37,0-16.78,2.86-22.13,15.11-.24.59-.95.83-1.67.83-.83,0-1.67-.36-1.67-1.19v-.24c1.43-7.62,4.28-16.18,4.64-21.3.12-.71.95-1.19,1.9-1.19.71,0,1.43.36,1.67.95.95,2.5,4.76,3.33,11.66,3.33,7.38.12,14.64.24,21.66.24,25.82,0,32.72-.83,35.1-3.93.24-.36.71-.48,1.07-.48.83,0,1.79.48,1.79.95v.12c-.24,1.67-.36,4.16-.36,6.78Z"/><path class="cls-1" d="M305.32,303.86c0,.71-.36,1.31-1.19,1.31,0,0-8.69-.83-17.73-.83-4.76,0-9.64.24-13.33.95h-.36c-.71,0-1.07-.6-1.07-1.31s.36-1.67,1.19-2.26c10.95-1.07,10.11-3.21,10.35-18.8.12-5.35.24-18.09.24-18.09,0-2.62-.24-2.74-20.7-2.74-9.88,0-20.7.24-25.46.48-1.67,0-2.14.95-2.14,2.26l.12,16.78c.12,19.28,1.43,18.8,10.59,20.11.71.59,1.07,1.43,1.07,2.02,0,.83-.48,1.43-1.31,1.43,0,0-8.57-.95-17.73-.95-4.76,0-9.64.24-13.56,1.07h-.36c-.71,0-1.07-.6-1.07-1.31s.36-1.67,1.19-2.26c10.47-1.07,10.35-2.86,10.71-19.51.12-4.05.24-12.14.24-20.23s-.12-16.3-.24-20.47c-.36-13.8.6-16.54-11.19-17.25-.71-.48-.95-1.31-.95-2.02,0-.83.36-1.55,1.19-1.55,0,0,8.21.59,17.37.59,5,0,10.11-.12,14.4-.71h.24c.59,0,.95.6.95,1.43s-.24,1.67-.95,2.26c-9.4.83-10.47-.48-10.59,16.54-.12,4.4-.12,15.11-.12,15.11,0,2.5.12,2.5,26.41,2.5,21.06,0,21.89,0,21.89-2.5,0,0-.12-9.4-.12-13.68-.48-17.49-.71-17.13-11.07-17.97-.71-.48-.95-1.31-.95-2.02,0-.83.36-1.55,1.31-1.55,0,0,8.57.59,17.73.59,4.88,0,9.88-.12,13.8-.71h.24c.71,0,1.07.71,1.07,1.55,0,.71-.36,1.55-1.07,2.14-10,1.07-10.35.6-10.71,18.44-.12,5.59-.12,11.66-.12,17.73,0,8.33,0,16.42.12,22.73.24,16.54,1.19,17.73,10.71,18.56.71.59.95,1.43.95,2.14Z"/><path class="cls-1" d="M375.17,303.98c-.36.83-1.19,1.31-3.21,1.31,0,0-19.63-.48-36.77-.48-8.57,0-16.54.12-21.18.48h-.12c-.83,0-1.31-.6-1.31-1.31s.36-1.55,1.07-2.14c10.23-.83,10.59-1.79,10.59-15.35.24-8.21.36-16.42.36-24.75,0-4.76-.12-9.52-.12-14.28,0-8.57-.36-15.11-.95-17.97-.48-2.74-2.14-5.35-10.35-5.35-.71-.6-1.07-1.31-1.07-2.02,0-.83.48-1.55,1.31-1.55h.12c3.69.36,10.83.48,18.92.48,15.94,0,35.1-.48,35.1-.48,2.02,0,2.62.12,2.62,1.19v.24c0,.48-.12,1.07-.12,1.67,0,3.81.83,8.81.83,12.73,0,2.14-1.79,2.14-1.9,2.14-.48,0-.95-.12-1.07-.6-4.16-11.3-8.92-13.56-22.25-13.56-2.62,0-5,.12-7.14.36-3.45.6-3.81,1.78-3.81,22.73v8.69c0,1.78,1.31,1.9,6.66,1.9,9.64,0,16.42-.48,18.21-10.59.12-.71.95-1.07,1.78-1.07.95,0,1.78.36,1.78,1.31v.12c-.48,2.97-.59,6.66-.59,10.47,0,7.38.59,14.64.59,14.64,0,.71-.83,1.19-1.78,1.19-.83,0-1.67-.48-1.78-1.19-.95-10.59-9.16-11.3-18.8-11.3-5.59,0-6.07,0-6.07,2.02v5c0,5.71.12,13.92.24,17.02.48,9.88.12,14.04,11.54,15.71,1.43.24,2.97.36,4.76.36,12.85,0,19.87-4.52,28.2-16.78.24-.36.6-.59,1.07-.59.95,0,2.02.95,2.02,1.55v.12c-1.55,5.12-6.19,14.4-7.38,17.97Z"/><path class="cls-1" d="M496.78,297.79c-.48,1.67-.36,1.67-1.78,2.62-5.83,3.69-16.9,6.54-25.7,6.54-25.34,0-47.95-14.87-47.95-44.98,0-23.32,19.75-43.31,46.05-43.31,10.83,0,17.13,2.26,25.34,2.26h.59c2.97,0,3.45,0,3.57,2.74.12,3.33,2.02,12.97,2.02,17.49,0,.83-1.19,1.31-2.14,1.31-.59,0-1.19-.24-1.31-.71-4.76-13.68-15.71-19.04-28.56-19.04-16.3,0-33.2,12.73-33.2,39.27s17.25,40.69,36.77,40.69c10.11,0,20.7-7.97,25.82-19.51.24-.48.83-.6,1.43-.6,1.07,0,2.38.6,2.38,1.67,0,.24-.12.48-.24.71-1.67,3.09-2.38,9.76-3.09,12.85Z"/><path class="cls-1" d="M543.66,303.86c0,.83-.48,1.43-1.31,1.43,0,0-9.28-.83-18.44-.83-4.64,0-9.16.24-12.61.83h-.36c-.71,0-1.07-.6-1.07-1.31s.36-1.55,1.07-2.14c11.54-1.19,10.35-4.05,10.71-18.32.12-5.71.24-13.92.24-21.77s-.12-15.47-.24-19.63c-.59-17.02-.48-17.02-11.18-17.97-.71-.48-.95-1.31-.95-1.9,0-.83.48-1.55,1.31-1.55,0,0,8.21.59,17.25.59,4.88,0,9.99-.12,14.16-.71h.12c.83,0,1.31.83,1.31,1.67s-.36,1.55-1.19,1.9c-11.3,1.07-10,2.74-10.47,17.73-.24,5.35-.24,11.3-.24,17.49,0,8.33.12,16.9.24,24.04.24,13.68-.48,17.25,10.59,18.44.71.59,1.07,1.31,1.07,2.02Z"/><path class="cls-1" d="M627.54,224.97c0,2.97.12,6.19.12,9.16,0,1.67,0,3.21-.12,4.64,0,.83-.71,1.19-1.43,1.19s-1.55-.36-1.67-.83c-2.62-8.57-3.57-12.26-15.83-13.92-2.02-.24-3.81-.36-5.35-.36-2.14,0-4.05.12-5.59.24-2.14,0-2.5,1.31-2.62,2.38-.12.83-.83,10.23-.83,28.91,0,7.73.12,17.37.12,23.92.12,16.06-1.07,19.87,12.61,21.54.83.59,1.19,1.43,1.19,2.02,0,.83-.48,1.43-1.43,1.43,0,0-10.47-.83-20.94-.83-5.24,0-10.47.24-14.4.83h-.36c-.71,0-1.07-.6-1.07-1.31s.36-1.67,1.07-2.26c12.61-1.9,12.61-2.02,12.85-21.54.12-5.47.12-12.02.12-18.09s0-11.78-.12-15.59c0-.48-.12-16.3-.71-18.92-.59-2.5-.83-2.62-9.28-2.62-12.38,0-16.78,2.86-22.13,15.11-.24.59-.95.83-1.67.83-.83,0-1.67-.36-1.67-1.19v-.24c1.43-7.62,4.28-16.18,4.64-21.3.12-.71.95-1.19,1.9-1.19.71,0,1.43.36,1.67.95.95,2.5,4.76,3.33,11.66,3.33,7.38.12,14.64.24,21.66.24,25.82,0,32.72-.83,35.1-3.93.24-.36.71-.48,1.07-.48.83,0,1.79.48,1.79.95v.12c-.24,1.67-.36,4.16-.36,6.78Z"/><path class="cls-1" d="M699.17,229.26c-4.76,6.31-13.09,20.23-21.42,31.89-1.67,2.14-1.9,3.45-1.9,13.33,0,4.64,0,10.11.12,11.78.24,12.37-1.07,14.4,12.37,15.47.83.59,1.19,1.43,1.19,2.02,0,.83-.59,1.55-1.55,1.55,0,0-10.35-.83-20.7-.83-5.12,0-10.23.24-14.04.83h-.24c-.71,0-1.19-.6-1.19-1.43,0-.71.36-1.55,1.19-2.14,12.85-1.67,11.66-2.86,12.38-15.35.12-1.55.12-5.12.12-8.45,0-9.52-.36-13.21-1.43-14.75-6.78-9.64-13.45-22.01-19.51-31.17-3.45-5.35-5-6.9-11.9-7.73-.71-.59-.95-1.31-.95-2.02,0-.83.48-1.55,1.31-1.55,0,0,8.21.71,17.37.71,4.52,0,9.28-.24,13.33-.71h.24c.71,0,1.07.59,1.07,1.31s-.36,1.55-.95,2.14c-2.86.36-9.28.24-9.28,3.45,0,.59.24,1.31.71,2.14,4.88,7.85,10.47,18.56,17.25,27.84.36.59.71.71,1.07.71,1.43,0,17.85-26.06,17.85-30.7,0-3.57-4.88-3.09-8.45-3.45-.71-.6-1.07-1.31-1.07-2.02s.48-1.43,1.31-1.43c0,0,6.07.48,13.33.48,3.69,0,7.62-.12,11.3-.48h.24c.71,0,1.19.71,1.19,1.43s-.24,1.43-.95,1.9c-3.69.71-6.78,1.78-9.4,5.24Z"/></g></svg>