<?xml version="1.0" encoding="UTF-8"?><svg id="_圖層_2" xmlns="http://www.w3.org/2000/svg" viewBox="0 0 585.74 243.47"><defs><style>.cls-1{fill:#7092c5;}</style></defs><g id="_圖層_1-2"><path class="cls-1" d="M90.25,96.65c-.57,1.99-.43,1.99-2.14,3.13-6.98,4.41-20.21,7.83-30.75,7.83C27.05,107.62,0,89.82,0,53.81,0,25.91,23.63,1.99,55.09,1.99c12.95,0,20.5,2.7,30.32,2.7h.71c3.56,0,4.13,0,4.27,3.27.14,3.99,2.42,15.52,2.42,20.93,0,1-1.42,1.57-2.56,1.57-.71,0-1.42-.29-1.57-.85-5.69-16.37-18.79-22.78-34.16-22.78-19.5,0-39.72,15.23-39.72,46.98s20.64,48.68,43.99,48.68c12.1,0,24.77-9.54,30.89-23.35.28-.57,1-.71,1.71-.71,1.28,0,2.85.71,2.85,1.99,0,.29-.14.57-.28.85-1.99,3.7-2.85,11.67-3.7,15.37Z"/><path class="cls-1" d="M176.79,103.77c-.71,1.71-1.28,1.85-3.99,1.85,0,0-23.06-.85-42.56-.85-9.82,0-18.65.14-23.2.85h-.43c-.85,0-1.28-.71-1.28-1.57s.43-1.85,1.28-2.56c12.67-1,12.38-2.14,12.67-24.77.14-6.41.14-13.81.14-21.21s0-14.95-.14-21.35c-.28-22.63,1.42-24.2-13.1-25.62-.85-.71-1.28-1.57-1.28-2.42s.57-1.71,1.57-1.71c0,0,10.96.71,22.06.71,5.98,0,12.1-.14,16.51-.85h.28c.85,0,1.28.85,1.28,1.71,0,1-.43,1.99-1.28,2.56-14.38,1.71-13.1,2.85-13.52,25.77,0,5.41-.14,13.38-.14,21.64s.14,16.8.14,23.2c.28,17.08.85,20.36,12.67,21.49.43,0,1,.14,1.71.14,2.42,0,5.84-.43,8.4-.71,15.09-1.57,20.21-8.11,26.9-18.08.14-.29.71-.43,1.28-.43,1.14,0,2.42.43,2.42,1.28,0,1.42-5.84,15.23-8.4,20.93Z"/><path class="cls-1" d="M284.12,103.63c0,1.14-.43,2.13-1.42,2.13,0,0-10.11-1-20.36-1-4.7,0-9.54.29-13.38.85h-.28c-.85,0-1.42-.85-1.42-1.71,0-1,.43-1.99,1.42-2.56,5.69-.71,9.11-1.71,9.11-5.84,0-3.84-7.26-24.77-9.25-30.18-.28-.85-.71-1.42-15.94-1.42-5.27,0-10.53.14-13.24.28-1.42,0-3.13.29-3.84,2.85-1.99,6.97-6.98,21.35-7.69,25.2-.14,1-.28,1.85-.28,2.71,0,4.7,3.7,5.41,10.11,6.41,1,.71,1.42,1.71,1.42,2.56,0,1-.71,1.85-1.71,1.85,0,0-8.68-1-17.79-1-4.13,0-8.4.14-11.96.85h-.28c-.85,0-1.28-.71-1.28-1.71,0-.86.28-1.85,1.14-2.56,6.69-1,9.54-3.84,12.53-9.68,6.55-12.95,17.94-51.67,28.61-78.72,0-.14.14-.43.14-.57,0-.71-.28-1.71-.57-2.28-.14-.14-.14-.43-.14-.71,0-.71.28-1.42,1-1.85,2.7-1.57,4.98-2.99,7.26-6.26.57-.85,1.28-1.28,1.99-1.28.57,0,1.14.57,1.42,1.85.57,2.7,2.85,13.52,31.32,88.4,2.28,5.98,5.12,9.82,12.24,10.96.85.57,1.14,1.42,1.14,2.42ZM231.59,19.64c-.14,0-.43.14-.57.43-2.56,5.69-10.39,29.75-12.38,36.73v.14c0,.57,1,.71,1.42.85,1.57.14,5.69.14,10.25.14,5.69,0,11.81,0,14.23-.28.71,0,1.14-.29,1.14-.85,0-.71-13.38-37.15-14.09-37.15Z"/><path class="cls-1" d="M316,107.47c-2.13,0-12.38,0-21.78-4.84-1.57-.85-1.99-1.57-2.14-3.56-.14-3.84-1.42-15.23-1.42-17.22,0-.71,1.14-1,2.14-1,.85,0,1.57.14,1.71.57,2.7,13.81,11.25,21.92,21.21,21.92,12.24,0,20.93-9.68,20.93-22.63-.14-8.11-6.41-15.09-12.95-19.5-2.42-1.71-4.98-3.42-7.69-5.12-10.25-6.83-19.64-15.52-19.64-28.75,0-22.63,25.05-24.91,30.75-24.91,7.26,0,13.52,1.42,15.66,1.57,1.28,0,1.71.28,2.14,1.85,1.28,3.99,2.42,14.23,2.56,16.65.14.43-1.57,1.28-2.7,1.28-.43,0-.85-.14-1-.57-2.7-9.82-8.4-16.51-18.51-16.51s-17.94,6.83-17.94,16.51c0,8.4,6.41,14.09,13.24,18.65,12.81,7.83,28.04,17.65,28.04,36.01,0,19.79-16.8,29.61-32.6,29.61Z"/><path class="cls-1" d="M387.31,107.47c-2.13,0-12.38,0-21.78-4.84-1.57-.85-1.99-1.57-2.14-3.56-.14-3.84-1.42-15.23-1.42-17.22,0-.71,1.14-1,2.14-1,.85,0,1.57.14,1.71.57,2.7,13.81,11.25,21.92,21.21,21.92,12.24,0,20.93-9.68,20.93-22.63-.14-8.11-6.41-15.09-12.95-19.5-2.42-1.71-4.98-3.42-7.69-5.12-10.25-6.83-19.64-15.52-19.64-28.75,0-22.63,25.05-24.91,30.75-24.91,7.26,0,13.52,1.42,15.66,1.57,1.28,0,1.71.28,2.14,1.85,1.28,3.99,2.42,14.23,2.56,16.65.14.43-1.57,1.28-2.7,1.28-.43,0-.85-.14-1-.57-2.7-9.82-8.4-16.51-18.51-16.51s-17.94,6.83-17.94,16.51c0,8.4,6.41,14.09,13.24,18.65,12.81,7.83,28.04,17.65,28.04,36.01,0,19.79-16.8,29.61-32.6,29.61Z"/><path class="cls-1" d="M473.15,103.92c0,1-.57,1.71-1.57,1.71,0,0-11.1-1-22.06-1-5.55,0-10.96.29-15.09,1h-.43c-.85,0-1.28-.71-1.28-1.57s.43-1.85,1.28-2.56c13.81-1.42,12.38-4.84,12.81-21.92.14-6.83.28-16.66.28-26.05s-.14-18.51-.28-23.49c-.71-20.36-.57-20.36-13.38-21.49-.85-.57-1.14-1.57-1.14-2.28,0-1,.57-1.85,1.57-1.85,0,0,9.82.71,20.64.71,5.84,0,11.96-.14,16.94-.85h.14c1,0,1.57,1,1.57,1.99s-.43,1.85-1.42,2.28c-13.52,1.28-11.96,3.27-12.53,21.21-.28,6.41-.28,13.52-.28,20.92,0,9.96.14,20.21.28,28.75.28,16.37-.57,20.64,12.67,22.06.85.71,1.28,1.56,1.28,2.42Z"/><path class="cls-1" d="M575.63,96.65c-.57,1.99-.43,1.99-2.13,3.13-6.98,4.41-20.21,7.83-30.75,7.83-30.32,0-57.37-17.79-57.37-53.81,0-27.9,23.63-51.82,55.09-51.82,12.95,0,20.5,2.7,30.32,2.7h.71c3.56,0,4.13,0,4.27,3.27.14,3.99,2.42,15.52,2.42,20.93,0,1-1.42,1.57-2.56,1.57-.71,0-1.42-.29-1.57-.85-5.69-16.37-18.79-22.78-34.16-22.78-19.5,0-39.72,15.23-39.72,46.98s20.64,48.68,43.99,48.68c12.1,0,24.77-9.54,30.89-23.35.28-.57,1-.71,1.71-.71,1.28,0,2.85.71,2.85,1.99,0,.29-.14.57-.28.85-1.99,3.7-2.85,11.67-3.7,15.37Z"/><path class="cls-1" d="M316,232.51c-.57,1.99-.43,1.99-2.14,3.13-6.98,4.41-20.21,7.83-30.75,7.83-30.32,0-57.37-17.79-57.37-53.81,0-27.9,23.63-51.82,55.09-51.82,12.95,0,20.5,2.7,30.32,2.7h.71c3.56,0,4.13,0,4.27,3.27.14,3.99,2.42,15.52,2.42,20.93,0,1-1.42,1.57-2.56,1.57-.71,0-1.42-.28-1.57-.85-5.69-16.37-18.79-22.78-34.16-22.78-19.5,0-39.72,15.23-39.72,46.98s20.64,48.68,43.99,48.68c12.1,0,24.77-9.54,30.89-23.34.28-.57,1-.71,1.71-.71,1.28,0,2.85.71,2.85,1.99,0,.28-.14.57-.28.85-1.99,3.7-2.85,11.67-3.7,15.37Z"/><path class="cls-1" d="M425.46,239.48c0,1.14-.43,2.13-1.42,2.13,0,0-10.11-1-20.36-1-4.7,0-9.54.28-13.38.85h-.28c-.85,0-1.42-.85-1.42-1.71,0-1,.43-1.99,1.42-2.56,5.69-.71,9.11-1.71,9.11-5.84,0-3.84-7.26-24.77-9.25-30.18-.28-.85-.71-1.42-15.94-1.42-5.27,0-10.53.14-13.24.29-1.42,0-3.13.28-3.84,2.85-1.99,6.98-6.98,21.35-7.69,25.2-.14,1-.28,1.85-.28,2.7,0,4.7,3.7,5.41,10.11,6.41,1,.71,1.42,1.71,1.42,2.56,0,1-.71,1.85-1.71,1.85,0,0-8.68-1-17.79-1-4.13,0-8.4.14-11.96.85h-.28c-.85,0-1.28-.71-1.28-1.71,0-.85.28-1.85,1.14-2.56,6.69-1,9.54-3.84,12.53-9.68,6.55-12.95,17.94-51.67,28.61-78.72,0-.14.14-.43.14-.57,0-.71-.28-1.71-.57-2.28-.14-.14-.14-.43-.14-.71,0-.71.28-1.42,1-1.85,2.7-1.57,4.98-2.99,7.26-6.26.57-.86,1.28-1.28,1.99-1.28.57,0,1.14.57,1.42,1.85.57,2.71,2.85,13.52,31.32,88.4,2.28,5.98,5.12,9.82,12.24,10.96.85.57,1.14,1.42,1.14,2.42ZM372.94,155.49c-.14,0-.43.14-.57.43-2.56,5.69-10.39,29.75-12.38,36.73v.14c0,.57,1,.71,1.42.85,1.57.14,5.69.14,10.25.14,5.69,0,11.81,0,14.23-.29.71,0,1.14-.28,1.14-.85,0-.71-13.38-37.15-14.09-37.15Z"/><path class="cls-1" d="M457.34,243.32c-2.14,0-12.38,0-21.78-4.84-1.57-.85-1.99-1.57-2.14-3.56-.14-3.84-1.42-15.23-1.42-17.22,0-.71,1.14-1,2.14-1,.85,0,1.57.14,1.71.57,2.7,13.81,11.25,21.92,21.21,21.92,12.24,0,20.93-9.68,20.93-22.63-.14-8.11-6.41-15.09-12.95-19.5-2.42-1.71-4.98-3.42-7.69-5.12-10.25-6.83-19.64-15.52-19.64-28.75,0-22.63,25.05-24.91,30.75-24.91,7.26,0,13.52,1.42,15.66,1.57,1.28,0,1.71.28,2.14,1.85,1.28,3.99,2.42,14.23,2.56,16.65.14.43-1.57,1.28-2.7,1.28-.43,0-.85-.14-1-.57-2.71-9.82-8.4-16.51-18.51-16.51s-17.94,6.83-17.94,16.51c0,8.4,6.41,14.09,13.24,18.65,12.81,7.83,28.04,17.65,28.04,36.01,0,19.79-16.8,29.61-32.6,29.61Z"/><path class="cls-1" d="M576.91,239.91c-.43,1-1.42,1.57-3.84,1.57,0,0-23.49-.57-43.99-.57-10.25,0-19.79.14-25.34.57h-.14c-1,0-1.57-.71-1.57-1.57s.43-1.85,1.28-2.56c12.24-1,12.67-2.13,12.67-18.36.28-9.82.43-19.64.43-29.61,0-5.69-.14-11.39-.14-17.08,0-10.25-.43-18.08-1.14-21.5-.57-3.27-2.56-6.41-12.38-6.41-.85-.71-1.28-1.57-1.28-2.42,0-1,.57-1.85,1.57-1.85h.14c4.41.43,12.95.57,22.63.57,19.07,0,41.99-.57,41.99-.57,2.42,0,3.13.14,3.13,1.42v.29c0,.57-.14,1.28-.14,1.99,0,4.56,1,10.53,1,15.23,0,2.56-2.14,2.56-2.28,2.56-.57,0-1.14-.14-1.28-.71-4.98-13.52-10.68-16.23-26.62-16.23-3.13,0-5.98.14-8.54.43-4.13.71-4.56,2.13-4.56,27.19v10.39c0,2.14,1.57,2.28,7.97,2.28,11.53,0,19.64-.57,21.78-12.67.14-.85,1.14-1.28,2.14-1.28,1.14,0,2.14.43,2.14,1.57v.14c-.57,3.56-.71,7.97-.71,12.53,0,8.83.71,17.51.71,17.51,0,.85-1,1.42-2.14,1.42-1,0-1.99-.57-2.14-1.42-1.14-12.67-10.96-13.52-22.49-13.52-6.69,0-7.26,0-7.26,2.42v5.98c0,6.83.14,16.65.29,20.36.57,11.81.14,16.8,13.81,18.79,1.71.28,3.56.43,5.69.43,15.37,0,23.77-5.41,33.74-20.07.28-.43.71-.71,1.28-.71,1.14,0,2.42,1.14,2.42,1.85v.14c-1.85,6.12-7.4,17.22-8.83,21.49Z"/></g></svg>