<?xml version="1.0" encoding="UTF-8"?><svg id="_圖層_2" xmlns="http://www.w3.org/2000/svg" viewBox="0 0 401.11 594.91"><defs><style>.cls-1{fill:#7092c5;}</style></defs><g id="_圖層_1-2"><path class="cls-1" d="M370.58,23.78c0,.28-.28.52-.96.68-.6.12-.68.32-.88.88-2.04,5.4-4.68,8.67-5.04,8.67-.04,0-.08-.04-.08-.12,0-.12.04-.28.16-.52,1.28-2.68,2.76-8.23,2.76-11.03,0-.4.08-.4.08-.4.52,0,3.96,1.04,3.96,1.84ZM379.41,18.54c0,1-.68,1.68-1.36,1.68-.56,0-1.16-.48-1.36-1.64-.08-.36-.12-.72-.24-1.08l-2.44.68c.24.12.4.24.4.4s-.16.36-.48.52q-.56.28-.56,3.8c0,3.24.08,8.15.16,11.43v.04c0,.84-.8,1.44-1.52,1.44-.56,0-1.04-.36-1.04-1.16v-.16c.28-4.24.4-8.55.4-12.79,0-1-.04-2.04-.08-2.88l-4.08.92c-.4.08-.68.48-.96.48-.64,0-1.88-2.84-1.88-3,0-.04,0-.08.08-.08s.16.04.28.04c.96.12,2.04.16,2.84.16h1.08c2.56-3.64,5.95-8.95,6.43-11.99.04-.28.08-.4.16-.4.12,0,3.6,1.48,3.6,2.16,0,.28-.32.56-1.12.64-.4.04-.64.24-.92.6-2.16,2.92-5.16,6.79-7.23,8.91,2.16-.12,4.75-.28,6.59-.48-.4-1-.92-1.88-1.32-2.52-.16-.24-.24-.4-.24-.48,0-.04.04-.08.08-.08.64,0,4.72,2.36,4.72,4.84ZM374.57,2.08c0,.24-.32.52-1.08.64-.48.08-.64.24-.88.64-.88,1.56-2.52,3.96-3.68,5.44,2.12,1,2.2,2.24,2.2,2.52,0,.84-.56,1.44-1.24,1.44-.48,0-1.04-.32-1.44-1.08-.84-1.6-2.04-2.56-3-3.32-.28-.2-.36-.36-.36-.44,0-.04.08-.08.2-.08.48,0,1.8.2,2.96.68,2.16-5.35,2.32-6.91,2.32-7.75V.2c0-.16,0-.2.08-.2.04,0,3.92,1.32,3.92,2.08ZM379.49,27.37c0,1-.64,1.68-1.32,1.68-.52,0-1.08-.4-1.32-1.44-.48-1.88-1.32-4.04-2.2-5.36-.16-.28-.28-.44-.28-.52l.04-.04c.8,0,5.08,3.08,5.08,5.67ZM400.23,33.09c0,.24-.16.48-.76.48h-9.71c-2.04,0-7.87.04-11.27.4h-.04c-.72,0-1.84-1.56-1.84-2.04,2.8.36,7.35.52,10.51.6.04-.68.04-1.4.04-2.04,0-1.36-.04-2.48-.04-2.68,0-1.56-.08-2.76-.28-3.88-1.64.04-3.6.12-5.83.36h-.04c-.68,0-1.76-1.36-1.76-1.84,3.8.44,7.75.52,9.83.52h3.48c.24,0,.48-.12.6-.32.08-.12,1.36-2.08,2-2.08.6,0,3.24,1.92,3.24,2.88,0,.24-.16.48-.76.48h-6.95c.16.08.24.2.24.36,0,.2-.2.4-.56.6-.8.4-.76.04-.84,2.2-.04,1.08-.08,2.28-.08,3.36,0,.76.04,1.52.04,2.12h4.64c.24,0,.52-.2.64-.4.12-.2,1.52-2.28,2-2.28.68,0,3.52,2.2,3.52,3.2ZM399.31,4.36c0,.24-.16.48-.76.48h-9.07c-2.08,0-5.4.08-8.87.44h-.04c-.72,0-1.88-1.56-1.88-2.08,3.96.52,8.83.64,10.99.64h3.56c.24,0,.52-.16.64-.36.4-.64,1.56-2.24,2-2.24.88,0,3.44,2.36,3.44,3.12ZM385.92,8.79c0,.24-.28.44-1,.48-.6.04-.56.2-.88.56-.88,1.04-1.72,2-3.24,3.6,2.44,1.48,4.08,3.4,4.08,4.71,0,.88-.64,1.44-1.32,1.44-.56,0-1.12-.4-1.36-1.4-.32-1.48-1.36-3.32-2.24-4.52-.04,0-.04-.04-.04-.08l-.28-.4c-.08-.08-.12-.16-.12-.2s.04-.08.12-.08c.12,0,.36.08.52.16,1.36-2.44,1.8-4.2,2.04-5.87.04-.24,0-.36.08-.36.12,0,3.64,1.24,3.64,1.96ZM391.68,8.79c0,.24-.28.44-1,.48-.6.04-.56.2-.88.56-.88,1.04-1.72,2-3.24,3.6,1.28.76,4.08,2.8,4.08,4.67,0,.92-.64,1.48-1.28,1.48-.6,0-1.16-.4-1.4-1.4-.32-1.48-1.36-3.32-2.24-4.52-.04,0-.04-.04-.04-.08l-.32-.4c-.08-.08-.12-.16-.12-.2s.04-.08.12-.08c.12,0,.36.08.52.16.52-.96,1.72-3.32,2.08-5.87.04-.24,0-.36.08-.36.16,0,3.64,1.12,3.64,1.96ZM397.59,8.79c0,.24-.28.44-1,.48-.6.04-.52.2-.84.56-.84,1.04-1.72,2-3.24,3.6,1.32.76,4.12,2.8,4.12,4.64,0,.92-.68,1.52-1.36,1.52-.6,0-1.2-.4-1.4-1.4-.32-1.48-1.32-3.32-2.2-4.52-.04,0-.04-.04-.04-.08l-.32-.4c-.08-.08-.12-.16-.12-.2s.04-.08.12-.08c.12,0,.36.08.52.16.52-.96,1.72-3.32,2.08-5.87.04-.24,0-.36.08-.36,0,0,3.6,1.08,3.6,1.96Z"/><path class="cls-1" d="M380.21,70.01c0,.28-.28.52-.84.52-.16,0-.4-.04-.64-.08-.12-.04-.2-.04-.28-.04-.32,0-.52.16-.84.36-6.99,4.79-14.11,5.31-14.67,5.31-.32,0-.52-.08-.52-.16,0-.12.28-.24.84-.4,4.44-1.08,11.99-5.16,13.07-8.43.04-.2.08-.32.2-.32.24,0,3.68,2.48,3.68,3.24ZM400.31,65.09c0,.24-.16.48-.8.48h-21.54c-2.2,0-8.67.08-12.27.44h-.04c-.76,0-1.76-1.56-1.76-2.08,1.72.2,4.04.36,6.35.44.04-2.88.04-12.55.04-13.11,0-.52-.12-3.2-.44-4.68-.04-.12-.04-.2-.04-.28,0-.04,0-.08.04-.08.4,0,2.52.64,3.68,1.44l.2.16h3.76v-2.56c0-.92-.04-2.88-.44-4.28-.04-.08-.04-.16-.04-.2,0-.08.04-.08.12-.08,1.24,0,4.08.4,4.08,1.08,0,.24-.36.52-.88.76-.28.12-.56.32-.6.76-.04.52-.04,2.24-.08,4.52h4.52v-2.56c0-.92-.04-2.88-.44-4.28-.04-.08-.04-.16-.04-.2,0-.08.04-.08.12-.08,1.68,0,4.08.52,4.08,1.08,0,.28-.32.52-.84.76-.28.12-.6.32-.64.76-.04.52-.04,2.24-.08,4.52h4.28c.2,0,.32-.04.48-.24.44-.52.92-1.04,1.28-1.04.4,0,3.12,1.52,3.12,2.28,0,.44-.52.68-1,.92-.68.36-.68.64-.68,1.68,0,.56,0,10.79.04,13.15h.76c.36,0,.52-.2.6-.36,1.36-2.48,1.64-2.52,1.84-2.52.88,0,3.28,2.8,3.28,3.4ZM377.49,48.87h-4l-.28.2c-.52.32-.56.32-.64,1.6,0,.28-.04,2.4-.04,5h4.96v-6.79ZM372.53,56.7v7.75c1.96.08,3.76.12,4.92.12.04-1.44.04-4.56.04-7.87h-4.96ZM384.16,48.87h-4.56c0,2.08-.04,4.48-.04,6.79h4.6v-6.79ZM379.57,56.7c0,3.44.04,6.55.04,7.87h4.52c.04-1.44.04-4.56.04-7.87h-4.6ZM396.23,73.72c0,.96-.68,1.76-1.52,1.76-.56,0-1.16-.32-1.68-1.2-1.28-2.2-5.2-5.32-7.91-7.11-.16-.12-.24-.2-.24-.28,0-.04.04-.04.12-.04.84,0,11.23,3.28,11.23,6.87ZM391.44,49.31c0-.12-.08-.44-.44-.44h-4.72v6.79h5.24c0-3.08-.04-5.83-.08-6.35ZM391.52,56.7h-5.24v7.87h5.24v-7.87Z"/><path class="cls-1" d="M400.91,112.32c0,.4-3.48,1.32-4.4,2.2-.16.16-.28.2-.4.2-1.2,0-9.15-4.28-13.11-10.03,0,3.72.12,7.67.2,9.75,0,.36-.24,1.52-1.6,1.52-.64,0-1.16-.36-1.16-1.28v-.16c.16-2,.24-5.2.28-8.31-6.71,7.27-16.98,9.07-17.54,9.07-.2,0-.32-.04-.32-.12s.28-.28.8-.44c4.68-1.52,10.95-4.88,15.83-10.75h-.76c-2.16,0-7.23.08-10.67.44h-.04c-.72,0-1.8-1.56-1.8-2.04,3.96.48,10.51.64,12.71.64h1.84c0-1.24.04-2.4.04-3.32h-.8c-2,0-5.27.04-8.51.4h-.04c-.68,0-1.72-1.44-1.72-1.92,3.72.48,8.35.6,10.43.6h.6c0-.8-.04-2.36-.12-3.24h-2.36c-2.08,0-5.4.08-8.75.44h-.04c-.68,0-1.76-1.56-1.76-2.04,3.68.48,8.27.64,10.51.64-.32-.16-.64-.48-.88-1.08-.36-.92-1.36-2.4-2.12-3.2-.2-.2-.32-.32-.32-.36,0,0,0-.04.04-.04,1.16,0,5,1.08,5,3.32,0,.64-.36,1.16-.84,1.36h4.4c1.08-1.76,2-3.44,2.32-5.12h-8.55c-2.2,0-7.15.08-10.71.44h-.04c-.72,0-1.76-1.56-1.76-2.04,4.08.48,10.43.64,12.71.64h.28v-3.64c0-1.72-.04-3.72-.32-4.92-.04-.12-.04-.2-.04-.24s0-.08.04-.08c.12,0,4.04.52,4.04,1.4,0,.2-.2.44-.56.68-.8.52-.84.12-.96,1.8-.04.6-.08,3.8-.08,5h3.44v-3.64c0-1.72-.08-3.72-.36-4.92-.04-.12-.04-.2-.04-.24s.04-.08.08-.08c.16,0,4.04.56,4.04,1.4,0,.2-.2.44-.56.68-.8.52-.88.12-1,1.8-.04.6-.08,3.8-.08,5h.68l.12-.12c1.24-1.48,2.52-3.64,3.32-5.16.4-.72.56-1.44.72-1.96.08-.28.08-.36.12-.36.28,0,3.4,2.16,3.4,2.68,0,.24-.28.4-.84.4h-.52c-.4,0-.44.16-.76.48-1,.96-2.8,2.64-4.68,4.04h5.91c.28,0,.56-.16.68-.36.52-.8,1.84-2.48,2.2-2.48,1.12,0,3.84,2.6,3.84,3.36,0,.24-.2.44-.88.44h-11.91c.44.24,2.44,1.32,2.44,1.92,0,.2-.24.36-.76.36h-.48c-.36,0-.44.12-.72.4-.6.56-1.72,1.56-2.8,2.44h5.23c.24,0,.48-.16.6-.36.04-.08,1.44-1.96,2.08-1.96.2,0,3.48,1.48,3.48,2.8,0,.24-.2.48-.84.48h-10.59c.04.08.08.12.08.2,0,.2-.24.4-.56.56-.56.24-.88.4-.88,2.48h4.24c.24,0,.52-.16.64-.36.4-.52,1.48-1.84,1.92-1.84.8,0,3.32,1.96,3.32,2.64,0,.24-.16.48-.76.48h-9.35c-.04,1-.04,2.12-.04,3.32h8.87c.24,0,.56-.16.68-.36.04-.08,1.48-2.12,2.16-2.12.88,0,3.64,2.16,3.64,2.96,0,.24-.16.48-.84.48h-14.15c3.12,3.72,9.55,7.15,17.14,8.19.24.04.36.08.36.16ZM375.61,85.51c0,.92-.64,1.6-1.36,1.6-.52,0-1.08-.36-1.48-1.24-.44-1-1.6-2.56-2.52-3.4-.24-.2-.36-.32-.36-.4,0-.04.08-.04.2-.04,2.32,0,5.51,1.48,5.51,3.48Z"/><path class="cls-1" d="M370.46,143.61c0,.28-.28.56-.96.72-.6.16-.64.4-.84.92-1.52,3.88-4.12,8.27-4.72,8.27-.04,0-.08-.04-.08-.12,0-.12.04-.28.16-.52,1.44-3.16,2.32-7.67,2.32-9.55,0-.4-.04-.76-.08-1.04-.04-.16-.04-.24-.04-.32s.04-.12.12-.12c.32,0,4.12.96,4.12,1.76ZM378.97,138.37c0,1-.68,1.64-1.32,1.64-.56,0-1.16-.48-1.32-1.6-.04-.36-.16-.72-.28-1.04l-2.28.68c.32.12.48.28.48.44s-.16.32-.48.52q-.52.24-.52,3.84c0,3.24.08,8.11.16,11.39v.04c0,.84-.8,1.44-1.52,1.44-.56,0-1.04-.36-1.04-1.16v-.16c.28-4.24.4-8.55.4-12.79,0-1-.04-2.08-.08-2.92l-3.92,1c-.4.12-.64.48-.96.48-.6,0-1.92-2.6-1.92-3,0-.04,0-.08.08-.08s.16.04.28.04c.92.08,2,.12,2.76.12h.68l.24-.04c2.6-3.52,6.47-10.23,6.79-12.35.04-.32.08-.4.16-.4.36,0,3.48,1.48,3.48,2.2,0,.32-.32.56-1.12.64-.4.04-.64.2-.92.6-2,2.76-5.04,6.83-7.47,9.27,2.16-.12,4.68-.28,6.47-.52-.4-.96-.92-1.84-1.32-2.48-.16-.24-.24-.4-.24-.48,0-.04.04-.08.08-.08.6,0,4.64,2.52,4.64,4.76ZM374.29,121.99c0,.28-.32.56-1.08.68-.48.08-.64.2-.88.6-.84,1.52-2.44,3.88-3.6,5.36,1.32.56,2.24,1.48,2.24,2.44,0,.8-.56,1.4-1.24,1.4-.44,0-.92-.28-1.28-.96-.8-1.52-1.96-2.44-2.84-3.16-.24-.2-.36-.32-.36-.4s.08-.12.24-.12c.68,0,1.72.28,2.52.56,2.28-5.71,2.28-7.07,2.28-8.07,0-.32,0-.44.12-.44.16,0,3.88,1.36,3.88,2.12ZM388.04,152c0,.28-.36.32-.72.32h-.28c-.28-.04-.44-.08-.56-.08-.16,0-.32.04-.68.24-5.12,2.68-10.47,3.16-12.03,3.16-.48,0-.76-.08-.76-.2s.24-.24.76-.32c2.24-.32,8.99-2.28,11.31-5.36.12-.16.16-.24.28-.24s2.68,1.72,2.68,2.48ZM378.97,146.36c0,.92-.64,1.56-1.28,1.56-.56,0-1.08-.4-1.36-1.4-.48-1.8-1.28-3.8-2.16-5.08-.16-.24-.24-.4-.24-.48t.04-.04c.48,0,5,2.76,5,5.43ZM400.27,132.94c0,.28-.16.56-.76.56h-12.47c-2.04,0-4.44.04-7.75.4h-.04c-.68,0-1.88-1.52-1.88-2,3.76.48,7.75.6,9.87.6h.08c.04-.88.08-2,.08-3.12-1.72,0-2.52.04-5.48.36h-.04c-.68,0-1.84-1.4-1.84-1.88,3.32.44,5.48.56,7.35.56,0-1.4-.04-2.52-.04-2.68v-.28h-.36c-2,0-3.24.08-6.43.4h-.04c-.68,0-1.8-1.48-1.8-1.96,3.68.48,6.39.6,8.43.6h.2c0-1.4-.08-2.76-.44-4.2-.04-.12-.04-.2-.04-.24s0-.08.04-.08c0,0,4.4.44,4.4,1.4,0,.2-.24.44-.64.64-.88.48-1,.16-1.08,2v.48h3.76c.24,0,.48-.16.6-.36.8-1.2,1.64-1.84,1.8-1.84.48,0,3.12,1.56,3.12,2.64,0,.24-.16.52-.76.52h-8.55c0,.88-.04,1.96-.04,2.96h2.12c.24,0,.44-.2.56-.36.24-.32,1.2-1.6,1.68-1.6.08,0,.16.04.28.08,1.28.56,2.76,1.72,2.76,2.36,0,.24-.16.48-.76.48h-6.63c0,1.28.04,2.4.08,3.12h5.04c.24,0,.48-.12.6-.32.08-.08,1.32-1.92,1.76-1.92.48,0,3.28,1.68,3.28,2.68ZM396.95,137.25c0,.4-.48.68-.84.88-.64.36-.72.48-.72,2.16,0,2.36.2,6.43.28,8.03v.08c0,.76-.76,1.24-1.44,1.24-.52,0-.96-.28-.96-.92v-.44h-9.63v.64c0,.72-.72,1.16-1.4,1.16-.52,0-1-.32-1-.96v-.12c.16-2.28.24-7.55.24-9.39,0-.48-.12-3.04-.44-4.36-.04-.12-.04-.16-.04-.24t.04-.04c.32,0,2.6.88,3.48,1.44l.04.04h7.87c.2,0,.4,0,.52-.2.2-.28.52-.76.76-.92.12-.04.2-.12.36-.12.32,0,2.88,1.2,2.88,2.04ZM393.35,141.01h-9.79v2.44h9.79v-2.44ZM393.27,137.85c0-.12-.12-.36-.36-.36h-8.51l-.16.12c-.44.28-.6.2-.64,1.44v.96h9.75c0-.88-.04-1.64-.08-2.16ZM383.6,144.41c0,.92.04,1.88.04,2.88h9.63c0-.84.04-1.84.04-2.88h-9.71ZM399.39,154.32c0,.68-.44,1.2-1.16,1.2-.56,0-1.24-.32-2-1.08-1.96-1.96-4.44-3-6.75-4.08-.24-.08-.32-.2-.32-.28s.12-.16.32-.16c1.88,0,9.91,1.36,9.91,4.4Z"/><path class="cls-1" d="M378.13,182.2c0,.24-.16.48-.68.48h-4.84v4c3.52,0,5.19,1.44,5.19,2.72,0,.72-.52,1.28-1.2,1.28-.44,0-.92-.24-1.36-.88-.68-.96-1.6-2.04-2.64-2.68.04,5.59.16,12.27.32,17.46v.04c0,.88-.88,1.48-1.68,1.48-.6,0-1.16-.36-1.16-1.28v-.08c.2-4.24.32-10.03.4-15.23-2.56,4.8-6.91,8.11-7.83,8.11-.04,0-.08-.04-.08-.08,0-.08.16-.28.56-.64,3.04-2.76,7.11-10.11,7.39-12.91v-1.32c-1.28,0-2.2.08-4.36.36h-.04c-.48,0-1.56-1.44-1.56-1.88,2.6.4,4.44.48,5.95.52,0-.68-.04-1.28-.04-1.84-.04-.88,0-3.04-.24-4.83-1.92.32-3.92.52-5.39.52-.56,0-.84-.08-.84-.16s.24-.2.76-.28c3.32-.52,8.91-2.4,10.19-4.04.08-.12.08-.24.2-.24.36,0,2.72,2.16,2.72,2.56,0,.24-.24.4-.64.4-.12,0-.28-.04-.48-.08-.12-.04-.28-.04-.4-.04-.2,0-.4.04-.6.12-.64.24-1.6.48-2.76.72.52.16.92.32.92.56,0,.2-.16.36-.52.56-.64.32-.6.4-.68,1.64-.04,1.08-.12,2.64-.12,4.48h.88c.12,0,.32-.12.44-.32.6-1.04,1.24-1.96,1.56-1.96.08,0,.16,0,.2.04,1.12.56,2.44,2.36,2.44,2.72ZM400.39,203.86c0,.24-.16.48-.8.48h-13.35c-2.08,0-5.91.08-9.23.44h-.04c-.68,0-1.88-1.56-1.88-2.08,3.76.52,9.23.64,11.35.64h.24c0-.88.04-2.16.04-3.72-1.8,0-4.08.08-6.51.32h-.04c-.64,0-1.84-1.6-1.84-2.04,2.84.36,6.15.6,8.39.68v-4.2h-4.4v1c0,.72-.76,1.16-1.4,1.16-.52,0-1-.28-1-.92v-.16c.2-2.4.28-6.83.28-8.43,0-.52-.12-3.36-.4-4.84v-.08c0-.12.04-.16.12-.16.16,0,2.4.76,3.24,1.44l.04.04h3.52c0-1.4-.04-2.6-.04-3.56-2.08,0-4.8.08-7.83.36h-.04c-.68,0-1.68-1.48-1.68-1.92,3.64.44,7.27.56,9.55.56v-.56c0-1.2-.04-2.44-.12-3.24-3.12.24-7.47.44-8.27.44-.44,0-.68-.12-.68-.24s.2-.24.76-.32c4-.56,10.15-1.68,13.39-2.76.76-.24,1.16-.64,1.44-.88.12-.08.16-.16.2-.16.28,0,2.44,2.12,2.44,2.96,0,.24-.16.36-.52.36-.24,0-.6-.04-1.04-.2-.12-.04-.28-.08-.44-.08-.12,0-.24.04-.32.04-1.16.24-2.68.48-4.4.64.28.08.8.24.8.48,0,.2-.24.4-.56.56-.4.16-.48.28-.48.84,0,.48-.04,1.2-.04,2.12h4.76c.12,0,.4-.12.52-.32.28-.44,1.4-2,1.88-2,.08,0,.16,0,.24.04,1.52.56,3.24,2.12,3.24,2.76,0,.28-.2.52-.88.52h-9.75v3.56h3.6c.2,0,.32-.04.48-.24.44-.52.84-.92,1.16-.92.36,0,2.84,1.36,2.84,2.12,0,.36-.48.6-.88.84-.56.32-.68.56-.68,1.52v.52c0,1.96.16,6.03.24,7.51v.04c0,.92-.92,1.32-1.36,1.32-.52,0-1-.32-1-1.04v-.72h-4.44c0,1.52.04,2.96.04,4.24h3.28c.24,0,.44-.16.6-.36.28-.36,1.32-1.64,1.72-1.64.2,0,3.12,1.4,3.12,2.48,0,.24-.16.52-.76.52h-7.95v3.72h5.55c.24,0,.52-.16.64-.36,1.4-1.96,1.8-2.08,1.96-2.08,1,0,3.4,2.16,3.4,2.96ZM386.72,184.48h-3.6l-.24.2c-.48.32-.56.32-.6,1.56,0,.4-.04,1.12-.04,2h4.48v-3.76ZM386.72,189.27h-4.48c0,1.32.04,2.8.04,4.08h4.44v-4.08ZM393.23,184.92c0-.12-.08-.44-.4-.44h-4c0,1.2-.04,2.48-.04,3.76h4.52c0-1.28-.04-2.48-.08-3.32ZM388.8,189.27v4.08h4.48c0-1.28.04-2.72.04-4.08h-4.52Z"/><path class="cls-1" d="M389.28,217.08c0,.28-.2.52-.76.52h-6.03v4.32h.28c.2,0,.4-.16.52-.36.4-.56.8-1.16,1.24-1.52.12-.08.2-.12.28-.12.04,0,.12.04.2.08,1.24.6,2.6,1.76,2.6,2.4,0,.24-.16.52-.72.52h-5.36c-1.04,0-2.8.12-4.16.36h-.08c-.64,0-1.76-1.4-1.84-1.92h-4.08v4.2c1.72,0,4.68.64,4.68,2.72,0,.68-.44,1.24-1,1.24-.4,0-.84-.24-1.24-.88-.6-.96-1.48-2.08-2.44-2.72,0,6.19.12,13.43.28,18.58v.04c0,.92-.84,1.52-1.6,1.52-.6,0-1.12-.4-1.12-1.32v-.08c.16-4.28.32-10.75.4-16.62-2.4,5.51-6.39,8.27-6.87,8.27-.04,0-.08,0-.08-.04,0-.08.16-.32.52-.68,2.12-2.24,6.03-9.67,6.47-13.55v-.68c-1.12,0-1.8.08-3.96.36h-.04c-.48,0-1.6-1.48-1.6-1.92,2.6.4,4.16.52,5.59.56,0-4.28-.04-7.51-.4-9.31-.04-.12-.04-.24-.04-.28,0-.08.04-.08.08-.08.28,0,4.12.52,4.12,1.44,0,.24-.24.48-.68.72-.64.36-.88.28-.96,1.56-.08,1.28-.12,3.4-.12,5.95h.36c.12,0,.36-.12.48-.32.88-1.48,1.44-1.96,1.6-1.96.84,0,2.76,2.24,2.76,2.76,0,.24-.16.52-.76.52,1.72.32,3.4.48,4.64.52.04-1.4.04-3.04.04-4.24-1.4.04-2.8.16-4.16.36h-.04c-.68,0-1.84-1.52-1.84-2,2.72.48,4.32.6,5.99.6v-.4c0-2.2,0-3.24-.4-4.96-.04-.16-.04-.24-.04-.28s0-.04.04-.04c.44,0,4.08.68,4.08,1.44,0,.24-.24.48-.6.68-.84.48-.96.16-1,2.04,0,.48-.04.96-.04,1.52h1.68c.2,0,.4-.16.52-.36,1.04-1.56,1.44-1.96,1.68-1.96.4,0,2.92,1.76,2.92,2.8ZM376.73,243.86c-.36.12-.48.48-.76.48-.56,0-2.24-2.48-2.24-2.72,0-.08.08-.08.2-.08.24.04.48.04.76.04,1.48,0,3.12-.32,7.19-1.16.16-.32,1.72-3.76,1.8-6.23v-.24h.04c.32,0,3.36,1.16,3.36,1.64,0,.2-.28.44-.96.52-.52.08-.48.2-.72.56-.6.84-1.44,2.2-2.44,3.56,2.12-.48,4.4-1,6.07-1.44.32-.08.56-.12.72-.12.12,0,.2,0,.2.08s-.2.24-.56.4c-3.68,1.68-10.43,3.92-12.67,4.72ZM387.44,227.03c0,.32-.36.52-.64.72-.56.36-.64.64-.64,1.12l.2,3.44v.08c0,.84-.6,1.36-1.28,1.36-.48,0-.92-.32-.92-1.04v-.32h-5.27v.8c0,1.04-1.16,1.28-1.32,1.28-.48,0-.88-.32-.88-1v-.2c.12-1.44.24-3.2.24-4.36v-.48c0-.4-.08-2.16-.32-3.36,0-.08-.04-.12-.04-.2,0-.04.04-.08.08-.08.2,0,2.04.76,2.96,1.36h3.84c.16,0,.36-.12.48-.32.12-.2.64-.96.96-.96.4,0,2.56,1.4,2.56,2.16ZM381.01,238.3c0,.84-.64,1.48-1.28,1.48-.48,0-.96-.36-1.2-1.28-.24-.92-.96-2.4-1.68-3.28-.16-.24-.28-.36-.28-.4,0,0,.04-.04.08-.04.32,0,4.36,1.32,4.36,3.52ZM384.24,229.75c0-.6,0-1.28-.08-2.12,0-.12-.12-.44-.44-.44h-4.04l-.24.2c-.56.36-.52.32-.56,1.16-.04.6-.04,1.72-.04,2.84h5.35c.04-.52.04-1.04.04-1.64ZM392.36,231.59c0,.8-.6,1.44-1.24,1.44-.48,0-.96-.28-1.32-1.08-.52-1.16-1.6-2.44-2.64-3.32-.2-.16-.28-.24-.28-.28s.04-.08.12-.08c2.12,0,5.35,1.28,5.35,3.32ZM400.55,222.08c0,.2-.16.4-.68.4h-4.36v2.68c0,4,.04,8.15.12,11.55,0,.76.16,3.96.16,4.84,0,3.44-3.28,4.12-4,4.12-.32,0-.44-.08-.6-.44-.56-1-3.12-2.64-3.12-3,0-.04.04-.04.12-.04s.2,0,.36.04c1.28.32,2.24.48,2.96.48,1.36,0,1.84-.56,1.88-1.72.04-2.32.08-5.44.08-8.71s-.04-6.79-.08-9.79c-1.2.04-2.64.12-4.24.36h-.04c-.44,0-1.52-1.48-1.52-1.92,2.04.32,4.16.48,5.79.52-.12-6.35-.2-8.23-.56-9.99-.04-.12-.04-.2-.04-.24,0-.08.04-.12.12-.12.32,0,4.32.68,4.32,1.52,0,.32-.36.64-.72.84-.8.44-.8.08-.88,2.04-.08,1.72-.12,3.76-.12,5.99h.68c.08,0,.32-.12.44-.32,1-1.68,1.16-1.84,1.44-1.84.04,0,.12,0,.16.04.92.44,2.32,2.12,2.32,2.72Z"/><path class="cls-1" d="M399.75,283.93c0,.88-.8,1.4-1.96,1.4-.32,0-6.23-.24-10.51-7.79-6.95,7.99-16.42,8.95-17.78,8.95-.32,0-.52-.04-.52-.12,0-.12.28-.24.92-.4,5.79-1.32,11.91-4.48,16.3-10.51-2.44-5.39-3.2-11.71-3.56-15.91h-10.07l-.44.24c-.56.28-.56.36-.56,2.16,0,1.24,0,2.52-.04,3.8h4.44c.44,0,.76-.16.92-.32.6-.68.8-.88,1-.88.4,0,3.16,1.28,3.16,2.08,0,.36-.4.68-1.12,1.04-.48.24-.52.4-.52.8,0,3.4-.08,4.52-.28,5.47-.8,4.16-3.64,4.76-4.64,4.76-.2,0-.36-.08-.44-.28-.44-1.04-3-2.48-3-2.76,0-.04.04-.04.12-.04.04,0,.12,0,.24.04.8.16,1.6.32,2.32.32,2.72,0,3.4-1.64,3.4-5.79,0-1.24-.04-2.4-.08-2.96,0-.28-.24-.44-.48-.44h-5.08c-.32,6.75-1.64,13.51-7.47,17.98-.64.48-1.16.8-1.4.8-.04,0-.08-.04-.08-.08,0-.16.24-.48.8-1.08,4.56-4.72,5.59-10.99,5.59-18.1,0-4.2-.32-7.91-.68-9.43-.04-.16-.04-.24-.04-.28,0-.08,0-.12.04-.12.4,0,3.2,1.2,4.24,1.88.08.04.16.12.24.2h9.83c-.36-5.55-.72-7.27-.96-7.99-.04-.16-.08-.24-.08-.28s.04-.04.08-.04c.68,0,4.72.52,4.72,1.48,0,.28-.28.56-.72.84-.76.48-.76.64-.76,3.24,0,.88,0,1.8.04,2.76h7.11c.28,0,.56-.16.68-.36,1.52-2.16,1.8-2.44,2.24-2.44.08,0,.16,0,.24.04,1.36.48,3.56,2.64,3.56,3.28,0,.24-.2.48-.88.48h-12.91c.24,4.4,1,9.47,2.72,13.71,2.96-4.96,3.32-8.23,3.52-10.43.04-.2,0-.28.16-.28s4.2,1.44,4.2,2.36c0,.28-.32.6-1.2.84-.64.2-.76.2-1.04,1-1.2,3.48-2.72,6.39-4.52,8.91,2.64,4.8,5.71,5.83,6.31,5.83,1.24,0,2.12-1.96,3.68-6.23.16-.4.24-.64.32-.72l.04-.04s.08.16.08.44c0,1-.36,3.76-.36,5.59,0,.84.08,1.48.28,1.76.44.64.64,1.16.64,1.64ZM392.88,255.72c0,.84-.6,1.48-1.32,1.48-.48,0-1-.24-1.48-.92-.8-1.12-2.12-2.24-3.4-2.96-.24-.12-.36-.2-.36-.24,0-.2,1.48-.2,1.52-.2,3.88,0,5.04,1.72,5.04,2.84Z"/><path class="cls-1" d="M381.33,300.87c0,.24-.16.48-.72.48h-5.95l-.08,4.44h.24c2.68,0,6.15,1.04,6.15,3.2,0,.72-.52,1.32-1.2,1.32-.48,0-1.04-.28-1.6-1-.92-1.16-2.28-2.56-3.6-3.24-.04,3.88-.08,8.11-.08,11.99,0,2.36,0,4.6.04,6.55v.04c0,1-1.12,1.52-1.68,1.52-.6,0-1.16-.4-1.16-1.28v-.12c.28-4.32.56-11.07.72-17.1-3.56,6.87-9.43,9.91-9.75,9.91-.08,0-.12-.04-.12-.08,0-.08.2-.32.64-.72,2-1.8,8.27-9.67,9.35-15.03v-.4c-1.56,0-3.68.04-5.95.36h-.04c-.48,0-1.6-1.52-1.6-1.96,2.72.44,5.87.56,7.63.6v-3.48c0-3.04-.08-4.72-.28-5.95-.04-.12-.04-.24-.04-.28,0-.08.04-.08.08-.08.12,0,4.36.56,4.36,1.4,0,.24-.24.52-.72.76-.68.36-.96.24-1.04,1.52-.08,1.28-.16,3.44-.24,6.11h1.36c.12,0,.36-.12.48-.32.36-.6,1.36-2.04,1.8-2.04.6,0,3,2.16,3,2.88ZM401.11,315.62c0,.36-2.68.36-3.92,1.24-.16.12-.28.2-.4.2-.4,0-4.72-6.07-6.95-14.51,0,7.87.16,18.5.28,21.86v.04c0,1.08-1.24,1.52-1.64,1.52-.64,0-1.2-.36-1.2-1.32v-.08c.12-3.52.32-11.83.4-18.78-3.68,9.35-10.63,12.59-10.87,12.59-.08,0-.12-.04-.12-.08,0-.12.16-.36.52-.64,2.92-2.44,7.15-7.87,9.75-16.26-1.24.04-2.64.12-4.08.32h-.04c-.68,0-1.68-1.48-1.68-2,2.4.36,4.68.52,6.55.56,0-2.64,0-7.67-.4-9.47-.04-.16-.04-.24-.04-.28s0-.04.04-.04c.84,0,4.44.8,4.44,1.52,0,.28-.24.52-.64.76-.8.48-1.08.16-1.16,1.72-.08,1.16-.12,3.28-.12,5.83h3.08c.24,0,.52-.16.64-.36.04-.04,1.48-2.44,2.08-2.44.56,0,3.6,2.28,3.6,3.32,0,.28-.2.52-.84.52h-8.27c1.8,4.92,5.75,11.39,10.75,14.07.16.08.24.16.24.2Z"/><path class="cls-1" d="M381.21,505.61v-177.4h1.56v177.4h-1.56Z"/><path class="cls-1" d="M257.24,41.92c0,1.11-1.11,1.85-1.97,2.59-1.11.86-2.71,1.11-3.7,4.32-15.42,47-40.21,55.63-41.32,55.63-.25,0-.37-.12-.37-.25,0-.37.74-1.23,2.47-2.59,21.22-16.78,32.56-55.26,32.56-58.72,0-.62-.49-.74-1.11-.74h-4.19s-11.35.25-17.76,1.11h-.12c-1.73,0-5.8-4.81-5.8-6.29,7.77,1.23,19.12,1.85,22.82,1.85h4.81c.62,0,1.11-.62,1.6-1.23,2.1-2.96,2.84-3.08,3.08-3.08.37,0,9,4.19,9,7.4ZM330.26,95.95c0,.99-9.99.74-13.69,3.58-.49.37-.99.62-1.36.62s-.62-.12-.86-.37c-14.31-11.1-27.51-48.85-28.62-76.23-2.84,1.97-5.92,4.19-8.76,5.92,1.48.49,1.97,1.11,1.97,1.73,0,.86-1.23,1.73-2.59,2.47-2.34,1.23-2.34.99-2.59,5.3-.12,1.48-.25,5.55-.25,10.85h1.36c.25,0,.86-.25,1.11-.86.62-1.11,2.96-4.69,3.95-4.69.25,0,.49.12.62.12,6.54,3.45,6.66,6.41,6.66,6.91,0,.74-.37,1.48-1.85,1.48h-11.84v12.21h3.82c.25,0,.99-.25,1.23-.86,1.11-2.22,3.7-4.93,4.19-4.93.25,0,.49.12.62.12.99.49,7.03,4.44,7.03,7.15,0,.74-.37,1.48-1.97,1.48h-14.93v12.95h7.4c.25,0,.99-.37,1.36-.99.99-1.73,3.45-5.3,4.56-5.3.25,0,.49.12.62.12,2.96,1.36,7.52,5.3,7.52,7.65,0,.74-.49,1.48-2.1,1.48h-19.37c0,3.45.12,6.17.12,7.15,0,2.47.49,6.17.49,8.88,0,11.1-9.87,14.68-15.42,14.68-1.11,0-1.73-.49-2.47-1.6-2.1-3.08-15.3-8.51-15.3-9.37,0-.12.12-.25.37-.25.37,0,.86.12,1.6.25,6.66,1.23,11.84,2.1,15.54,2.1,5.43,0,8.02-1.85,8.26-6.91.12-1.85.25-7.77.25-14.92-2.84,0-12.33.37-16.41.99h-.12c-1.6,0-5.43-3.82-5.43-5.55,6.17,1.23,18.38,1.48,21.96,1.6,0-4.07-.12-8.51-.12-12.83-2.22,0-8.02.25-11.97.86h-.12c-1.6,0-5.43-3.82-5.43-5.55,6.04,1.11,14.56,1.48,17.52,1.6v-12.21h-.99c-1.11,0-3.21.12-7.77.86h-.12c-1.6,0-4.93-3.82-4.93-5.55,7.03,1.36,11.97,1.73,13.08,1.73h.74c0-3.33-.12-5.8-.12-6.91-.12-4.19-.37-9.99-1.48-15.05-.12-.49-.12-.74-.12-.99s0-.25.25-.25c1.23,0,6.29,1.23,8.88,1.97,3.21-3.7,9-11.23,9-12.34,0-.37-.25-.62-1.11-.62h-11.84c-8.76,0-16.53,0-27.14.86h-.12c-1.97,0-5.43-4.19-5.43-5.8,13.82,1.48,28.37,1.73,32.81,1.73h11.84c1.23,0,1.85-.37,2.59-1.11,3.58-2.96,3.95-2.96,4.19-2.96,1.48,0,9.37,5.43,9.37,8.02,0,1.36-1.48,2.34-3.08,2.71-2.1.37-4.19.74-6.66,2.47l-1.36.99c.99,8.02,2.84,17.02,5.8,25.9,2.59-1.97,15.67-11.84,17.15-18.01.12-.49.25-.62.62-.62,1.97,0,11.6,7.65,11.6,9.74,0,.99-.99,1.48-2.84,1.48-.62,0-1.23,0-1.97-.12-.62-.12-1.23-.25-1.73-.25-.74,0-1.36.12-2.1.49-2.47,1.11-11.97,6.04-20.11,9.13,6.78,19.61,18.5,38.49,35.53,45.02.62.25.99.49.99.62Z"/><path class="cls-1" d="M324.47,227.32c0,3.33-4.93,7.03-14.56,8.02-4.07.37-8.76.62-12.83.62-12.33,0-21.83-1.73-21.83-12.83v-.49c.25-14.43.37-29.73.37-31.58,0-6.78,0-7.65-.12-9.5h-13.94c1.6.37,2.71.74,2.71,1.73,0,.62-.49,1.23-1.48,1.6-1.6.74-1.85.49-2.1,5.18-2.1,37.62-35.03,48.97-46.87,48.97-.62,0-.99-.12-.99-.25,0-.25,1.48-.86,3.58-1.6,24.42-7.52,36.51-28.12,36.51-49.59,0-2.59-.12-4.69-.37-6.04-7.52.12-19.24.37-28.62,1.36h-.12c-2.22,0-5.92-4.93-5.92-6.54,12.71,1.48,31.7,1.97,38.86,1.97h8.39c.12-6.17.25-14.56.25-21.34h-24.42c-10.61,14.31-17.64,18.26-18.38,18.26-.12,0-.25-.12-.25-.25,0-.25.37-.74,1.11-1.6,6.54-7.15,19.12-29.73,19.12-38.36,0-1.36.12-1.36.25-1.36.86,0,13.08,3.95,13.08,6.66,0,.99-1.6,1.73-3.7,1.85-1.85.12-1.97.25-2.96,1.97-1.73,3.08-3.82,6.42-6.04,9.62h22.2c0-3.33-.12-5.92-.12-7.03-.25-5.92-.25-13.32-1.23-17.39-.12-.37-.12-.62-.12-.86q0-.12.12-.12c.99,0,14.68,1.97,14.68,4.69,0,.86-.74,1.73-1.97,2.47-2.84,1.85-3.33.49-3.7,6.29-.12,2.34-.25,6.91-.25,11.97h13.94c.86,0,1.6-.49,1.97-1.11.12-.25,4.81-7.89,7.15-7.89.37,0,.62,0,.86.12,4.07,1.48,10.98,8.51,10.98,10.49,0,.86-.62,1.6-2.71,1.6h-32.19c0,8.02,0,16.78.12,21.34h26.77c.86,0,1.6-.49,1.97-1.11.86-1.36,5.43-8.26,7.52-8.26.37,0,.62,0,.86.12,4.19,1.48,11.23,9.13,11.23,10.86,0,.86-.62,1.6-2.71,1.6h-33.06c.37.25.49.49.49.74,0,.62-.99,1.23-1.85,1.73-.99.49-.99.86-1.11,5.55-.12,3.45-.49,18.75-.49,28.12s.25,11.1,14.8,11.1c3.58,0,7.52-.25,11.47-.86,6.17-.99,7.65-10.86,9.37-20.6.12-.62.25-.86.25-.86.74,0,1.48,15.79,3.7,17.27,1.6.99,2.34,2.22,2.34,3.58Z"/><path class="cls-1" d="M255.39,275.93c2.22-2.59,2.71-2.71,3.21-2.71,1.6,0,8.63,3.7,8.63,6.41,0,.86-.74,1.6-2.22,2.22-2.84,1.23-2.1.86-2.34,3.7v1.73c0,3.82.25,11.97.49,14.31v.37c0,1.6-1.73,3.82-4.44,3.82-1.6,0-2.96-.86-2.96-2.96v-.49c.12-.86.25-2.1.25-3.45h-23.31c-3.21,24.55-19.86,30.59-20.35,30.59-.12,0-.25,0-.25-.12,0-.25.37-.74,1.23-1.48,10.98-10.24,12.83-25.66,12.83-37.62,0-1.48-.12-2.84-.12-4.19,0-1.23-.25-9.13-.99-12.71,0-.25-.12-.37-.12-.49,0-.37.12-.37.37-.37.86,0,7.52,2.84,9.99,4.44h18.26c.74,0,1.36-.37,1.85-.99ZM272.41,262.85c0,.86-.62,1.6-2.47,1.6h-28.86c-6.17,0-9.37.25-19.24,1.23h-.12c-2.1,0-5.55-4.56-5.55-6.04,11.35,1.48,19.12,1.85,25.41,1.85h13.45c.74,0,1.48-.62,1.85-1.11,4.07-5.8,5.43-5.8,5.67-5.8,1.85,0,9.87,5.43,9.87,8.26ZM256.01,290.6c0-4.07,0-7.89-.12-9,0-.86-.37-1.6-1.73-1.6h-19l-.62.49c-.99.62-1.48,1.48-1.48,2.84.12,1.97.12,3.95.12,6.04s0,4.19-.25,6.41h23.07v-5.18ZM247,353.51c0,1.73.12,3.45.12,5.43v.12c0,2.22-2.47,3.7-5.06,3.7-1.85,0-3.45-.86-3.45-3.08v-.37c1.11-12.09,1.11-17.27,1.11-23.56,0-1.6-.49-10.61-1.48-15.17-.12-.37-.12-.62-.12-.74,0-.25,0-.37.25-.37.74,0,7.65,2.84,11.72,5.8.12,0,.12.12.12.12h38.12c.62,0,1.36-.12,1.85-.74,3.21-3.7,3.7-3.82,4.19-3.82.74,0,9.75,3.7,9.75,6.54,0,.99-.99,1.73-2.34,2.47q-2.96,1.6-2.96,8.63c0,4.93.37,11.59,1.11,18.87v.37c0,2.59-2.47,4.07-4.81,4.07-1.97,0-3.7-1.11-3.7-3.45,0-1.6.12-3.21.12-4.81h-44.53ZM291.53,350.31c.12-3.7.12-7.4.12-10.73s0-6.78-.25-9.62c0-.49-.25-1.48-1.48-1.48h-39.97l-.74.49c-2.34,1.48-2.1,1.11-2.22,4.93-.12,2.22-.12,4.32-.12,6.54,0,3.08,0,6.29.12,9.87h44.53ZM328.91,312.68c0,.99-9.25,2.96-12.46,5.43-.62.49-1.11.62-1.6.62-2.1,0-13.57-4.81-22.82-15.79-17.76,17.52-40.71,18.38-41.08,18.38-.99,0-1.6-.25-1.6-.49,0-.37.99-.86,2.96-1.23,14.93-3.33,27.38-11.84,36.02-21.71-4.44-6.54-7.65-13.94-8.76-21.34-9.5,15.54-13.94,17.02-14.06,17.02l-.12-.12c0-.37.49-1.23,1.6-2.84,2.47-3.58,14.8-26.52,14.8-37.75,0-.99,0-1.36.37-1.36.12,0,.37.12.74.25,9.87,3.33,10.49,3.58,10.49,4.93,0,.86-.99,1.73-3.08,2.1-1.6.37-1.48.86-2.22,2.22-1.36,2.59-3.33,6.54-5.67,10.73h26.52c.37,0,1.11-.37,1.48-.99.86-1.48,4.07-5.67,5.06-5.67,1.48,0,9.5,5.3,9.5,8.39,0,.62-.49,1.11-2.22,1.11h-16.28c2.84.86,5.3,2.1,5.3,3.33,0,.74-.86,1.36-2.34,1.48-.99,0-1.6.37-2.34,1.85-2.84,6.17-6.41,11.96-10.85,17.15,7.4,6.79,17.52,12.09,31.33,13.82.99.12,1.36.25,1.36.49ZM291.66,293.69c6.29-8.39,7.89-14.31,8.88-19.12h-19.37c1.97,6.17,5.3,13.08,10.48,19.12Z"/><path class="cls-1" d="M255.64,407.91c0,.86-1.11,1.6-3.82,1.73-1.6,0-1.85.49-3.33,1.97l-8.14,7.89c.74.12,4.07.62,4.07,2.1,0,.74-.86,1.6-2.22,2.22q-2.59,1.23-2.84,5.06c-.37,6.78-.49,16.9-.49,26.77,0,8.88.12,17.76.25,23.93v.25c0,3.45-3.45,4.81-5.3,4.81s-3.45-1.11-3.45-3.95v-.74c1.23-12.83,2.1-35.53,2.1-45.52v-7.89c-14.31,11.96-22.2,14.31-22.82,14.31-.12,0-.25,0-.25-.12,0-.25.49-.86,1.85-1.73,9.62-6.41,31.82-29.73,34.17-38.49.12-.49.25-.74.49-.74.86,0,9.74,6.17,9.74,8.14ZM253.66,384.84c0,.86-.86,1.6-2.96,1.6h-1.11c-.99,0-1.23.25-2.47,1.36-12.83,10.73-30.59,20.48-34.66,20.48-.25,0-.37,0-.37-.12,0-.25.49-.74,1.6-1.36,7.65-4.44,27.88-21.46,30.47-30.1.12-.37.12-.49.37-.49.49,0,9.13,6.54,9.13,8.63ZM328.17,475.01c.49,0,.74,0,.74.25,0,.74-9.75,4.19-13.32,8.02-.37.37-.74.62-1.23.62-1.11,0-16.65-1.73-28.74-16.41-18.01,16.16-38.49,17.64-40.46,17.64-.86,0-1.36-.12-1.36-.25,0-.37,1.36-.99,3.82-1.6,13.2-3.21,24.92-11.22,34.17-21.09-3.33-5.18-5.67-11.1-7.15-17.27-15.67,22.45-31.7,30.1-32.44,30.1-.37,0-.49-.12-.49-.37s.49-.99,1.6-1.85c15.54-12.83,30.1-35.77,32.81-45.52-6.41.99-12.95,1.85-19.86,2.84-1.23.12-1.97,1.48-2.96,1.48-1.73,0-6.17-9.74-6.17-9.74,0-.12.12-.12.12-.12.25,0,.49,0,.86.12,2.71.49,5.92.62,8.26.62,1.11,0,4.93,0,11.23-.25,9.74-8.51,27.26-27.63,29.6-35.28.25-.74.37-1.11.62-1.11.99,0,10.73,6.78,10.73,9,0,.86-.86,1.48-2.71,1.48-.49,0-.99-.12-1.48-.12h-.49c-.99,0-1.6.37-2.59,1.23-8.76,8.02-21.09,18.75-30.34,24.67,11.1-.62,22.7-1.85,35.28-3.33-2.71-3.33-5.55-6.17-8.88-8.63-.49-.25-.62-.62-.62-.74,0-.25.25-.37.62-.37,3.33,0,22.45,6.29,22.45,14.93,0,2.84-2.1,5.06-4.44,5.06-1.48,0-3.21-.86-4.44-3.21-.86-1.6-1.85-3.21-2.84-4.56-8.76,2.1-16.78,3.58-24.79,4.93,2.84,1.23,4.69,2.1,4.69,3.21,0,.86-1.11,1.6-3.33,1.85-1.48.12-1.6.25-2.59,1.97-.99,1.6-1.97,3.45-3.08,5.18h16.28c.74,0,1.36-.25,1.85-.74,2.34-2.34,2.59-2.59,3.21-2.59,1.85,0,8.88,4.93,8.88,6.78,0,.99-.99,2.1-3.33,2.71-1.73.49-1.85.49-3.08,2.34-3.58,5.55-8.02,11.35-13.2,16.65,7.77,6.91,19.12,11.6,34.79,11.6,1.11,0,2.22-.12,3.45-.12h.37ZM288.57,381.64c0,.99-.99,1.73-3.33,1.73-1.48,0-1.97.49-2.84,1.73-3.08,4.32-9,11.1-13.2,15.54,4.93,2.47,6.91,5.3,6.91,8.02,0,2.34-1.6,4.19-3.7,4.19-1.36,0-2.84-.74-4.32-2.84-2.71-3.95-7.89-9-13.69-12.21-.37-.25-.62-.49-.62-.62s.25-.25.99-.25c3.33.12,8.02,1.11,12.09,2.71,5.92-10.98,9.74-19,10.11-24.05.12-.99.12-1.23.49-1.23.62,0,11.1,4.81,11.1,7.28ZM295.97,441.83c0-.37-.25-.49-.86-.49h-18.01l-.74,1.11c1.73,5.67,4.44,11.35,8.51,16.28,5.67-6.78,11.1-15.67,11.1-16.9Z"/><path class="cls-1" d="M177.88,109.89c0,2.34-1.85,3.7-4.32,3.7-1.85,0-14.19-2.59-23.31-22.2-16.65,19.61-40.21,23.31-43.54,23.31-.74,0-1.11-.12-1.11-.37s.74-.74,2.34-1.23c14.31-4.07,29.11-12.46,39.84-27.88-6.29-17.27-7.28-37.99-8.02-51.44h-20.6l-.99.74c-1.48.86-1.85.99-1.85,4.07v14.06h7.65c1.23,0,2.22-.49,2.59-.99,1.6-1.97,2.34-2.71,2.71-2.71.99,0,8.51,3.82,8.51,6.04,0,1.11-1.11,2.1-3.08,3.21-1.48.86-1.48,1.36-1.48,2.96-.12,2.84,0,14.56-.99,19.12-1.73,8.14-6.41,12.58-12.95,13.2-.62,0-1.23-.25-1.48-.86-.86-2.34-5.67-5.3-7.52-6.78-8.51,20.23-27.88,28.25-29.73,28.25-.12,0-.25,0-.25-.12,0-.37.99-1.23,3.21-2.71,14.8-9.99,21.46-24.05,24.05-40.34-2.1,2.1-19.86,12.46-32.69,18.5-.99.49-1.23,1.73-1.97,1.73-1.97,0-7.15-8.14-7.15-8.76,0-.25.12-.37.49-.37,6.17-.37,6.41-.49,16.53-3.7.12-8.63.25-24.05.25-36.76-3.58.25-6.78.74-10.98,1.11h-.12c-1.85,0-5.55-4.44-5.55-6.04,7.77.99,12.46,1.48,16.65,1.73,0-5.3-.12-9.99-.12-13.08-.12-5.18-.25-12.09-1.48-18.5-.12-.25-.12-.49-.12-.62,0-.25.12-.37.37-.37,1.36,0,13.94,2.1,13.94,5.18,0,1.11-1.36,2.1-3.08,2.84-1.97.86-2.47,2.22-2.47,24.67h1.11c.62,0,.99-.49,1.36-1.11.49-.86,3.7-6.04,5.18-6.04,2.1,0,8.88,5.8,8.88,8.63,0,.74-.62,1.48-2.34,1.48h-14.19v34.54c5.67-1.97,11.47-4.07,16.04-5.92.74-.25,1.36-.37,1.73-.37.74-5.67,1.11-11.6,1.11-17.64,0-15.79-1.73-24.42-2.22-26.15-.12-.37-.12-.62-.12-.74,0-.25.12-.37.37-.37,2.34,0,10.11,3.95,12.34,5.43l.49.37h19.74c-1.23-16.65-1.48-20.11-2.47-23.56-.12-.37-.12-.62-.12-.86,0-.12,0-.25,1.11-.25.12,0,12.34.74,12.34,4.32,0,.86-.74,1.73-1.85,2.47-2.1,1.36-2.22.74-2.34,5.3-.12,3.95-.12,8.26-.12,12.58h10.86c.37,0,1.36-.37,1.73-.99,3.45-4.93,4.69-6.54,6.04-6.54,2.84,0,10.85,6.66,10.85,9.13,0,.86-.62,1.6-2.71,1.6h-26.77c.25,14.92,1.97,31.33,6.04,44.53,3.82-7.03,6.91-15.17,9-24.79.62-2.71.62-6.66.74-9,0-.74,0-.86.25-.86,0,0,11.84,3.08,11.84,5.92,0,.74-.99,1.6-3.21,2.47-1.73.62-1.97.62-2.59,2.96-3.21,12.21-7.77,22.33-13.45,30.59,5.67,13.08,12.71,16.16,13.57,16.16,2.22,0,4.07-3.58,8.26-14.68.62-1.6.99-2.1,1.23-2.1s.25.86.25,1.11c0,3.58-1.48,13.57-1.48,18.13,0,.99.12,1.6.25,1.97.74,1.36,1.11,2.59,1.11,3.7ZM125.57,55.86h-9.37c-.49,9.99-1.85,19.98-5.55,29.11,2.34.49,4.56.86,6.54.86,9.5,0,9.62-8.02,9.62-28.62,0-.86-.62-1.36-1.23-1.36ZM165.66,17.5c0,2.34-1.85,4.32-3.95,4.32-1.11,0-2.47-.74-3.45-2.47-1.48-2.71-4.19-5.18-6.78-7.4-.49-.37-.74-.62-.74-.74s.86-.37,3.21-.37c.74,0,11.72,0,11.72,6.66Z"/><path class="cls-1" d="M176.77,153.06c0,.74-.62,1.48-2.71,1.48h-65.38c-6.91,0-22.94.25-34.05,1.36h-.12c-2.34,0-5.8-4.81-5.8-6.42,12.71,1.6,33.43,1.97,40.58,1.97h9.62v-4.56c0-6.04-.37-12.95-1.36-17.15-.12-.37-.12-.62-.12-.86q0-.12.12-.12c.62,0,14.68,1.73,14.68,4.56,0,.86-.74,1.6-1.97,2.47-2.84,1.85-3.21.62-3.58,6.41-.12,1.85-.25,6.29-.25,9.25h29.11c.86,0,1.73-.49,2.1-1.11,1.73-2.71,5.8-8.14,7.15-8.14,2.59,0,11.97,8.39,11.97,10.85ZM165.66,177.73c0,.86-.74,1.48-2.1,2.22-2.84,1.48-3.21.86-3.45,4.81v3.21c0,6.29.12,19,.12,20.97,0,2.1.25,3.33.25,5.67,0,9-8.51,12.71-13.45,12.71-.99,0-1.36-.49-1.97-1.48-1.6-2.71-13.69-8.02-13.69-8.88q0-.12.25-.12c.37,0,.86.12,1.73.25,5.18,1.11,9,1.6,11.84,1.6,6.54,0,7.52-2.59,7.65-6.17v-32.93c0-.62-.12-1.6-1.73-1.6h-25.16v10.49c0,17.15.25,37.99.49,46.75v.12c0,2.71-2.59,4.56-4.93,4.56-1.73,0-3.33-1.11-3.33-3.95v-.25c.37-11.97.74-41.82.86-57.73h-21.71c-.25.25-.49.37-.74.49-2.84,1.48-2.34.37-2.71,4.69-.25,2.22-.25,8.02-.25,14.68,0,10.11.12,21.96.12,26.4,0,2.47-2.59,4.32-4.93,4.32-1.73,0-3.33-1.11-3.33-3.58v-.37c.49-7.03.99-26.52.99-36.51,0-5.67-.49-12.7-1.36-17.64v-.37c0-.37.12-.62.62-.62,1.97,0,9.5,3.82,10.86,4.69.25.12.37.37.49.49h21.96v-4.32c0-9-.25-11.47-.86-13.94-.12-.37-.12-.62-.12-.86q0-.12.12-.12c.86,0,12.46,1.48,12.46,3.82,0,.74-.99,1.6-1.85,2.1-2.34,1.48-2.59.62-2.71,5.3,0,2.1-.12,4.93-.12,8.02h24.79c.74,0,1.36-.49,1.73-1.11,1.97-2.71,2.34-2.71,2.84-2.71,1.85,0,10.36,4.93,10.36,6.91Z"/><path class="cls-1" d="M111.76,260.75c0,.74-.62,1.23-1.85,1.23-.49,0-.99,0-1.6-.25-.37-.12-.86-.12-1.23-.12-.62,0-1.23.12-1.85.37-2.1.86-5.3,1.73-9,2.47,1.73.62,2.96,1.11,2.96,1.73,0,.49-.49.99-1.6,1.6-1.97,1.11-1.85,1.11-2.1,5.06-.25,3.33-.37,8.26-.37,13.94h1.11c.37,0,1.11-.37,1.48-.99,3.33-5.55,4.07-6.04,4.81-6.04,2.34,0,8.39,6.91,8.39,8.63,0,.74-.49,1.48-2.22,1.48h-13.57v12.71c7.15.12,15.17,3.08,15.17,8.39,0,2.22-1.48,3.95-3.45,3.95-1.23,0-2.71-.74-3.95-2.71-1.97-2.96-4.81-6.41-7.77-8.39,0,17.02.37,37.13.99,53.04v.12c0,2.84-2.71,4.69-5.18,4.69-1.85,0-3.58-1.23-3.58-4.07v-.25c.49-13.45,1.11-31.45,1.23-47.49-8.76,16.28-22.7,25.29-24.67,25.29-.12,0-.25-.12-.25-.25,0-.25.49-.86,1.73-1.97,6.54-5.8,21.46-27.51,23.31-40.09v-2.96c-4.07.12-7.03.25-13.69,1.11h-.12c-1.48,0-4.93-4.56-4.93-5.92,8.14,1.23,13.94,1.73,18.75,1.73-.12-12.09-.49-17.64-.86-20.85-6.17.99-12.46,1.6-17.02,1.6-1.73,0-2.71-.25-2.71-.49s.86-.62,2.47-.86c9.87-1.6,27.88-7.15,32.07-12.58.37-.37.37-.74.62-.74.74,0,8.51,6.17,8.51,7.89ZM177.75,271.36c0,.74-.49,1.48-2.47,1.48h-27.01c-.37,4.44-.49,9-.62,12.34h7.52c.62,0,1.23-.37,1.6-.99.49-.86,1.48-2.22,2.1-2.59.25-.25.62-.37.99-.37s.62,0,.99.25c.86.25,7.89,3.33,7.89,6.04,0,1.23-1.23,1.97-2.22,2.59-1.97,1.23-2.1,1.36-2.1,7.77,0,8.76.37,32.19.74,39.47v.25c0,2.47-2.34,3.95-4.32,3.95-1.73,0-3.33-.99-3.33-3.33v-2.96h-19c0,1.97.12,3.82.12,4.93,0,1.73-1.6,3.33-4.32,3.33-1.6,0-2.96-.86-2.96-2.59v-.37c.49-5.3.62-19.12.62-30.1,0-18.26-.25-23.81-1.23-29.11-.12-.37-.12-.62-.12-.86s.12-.37.37-.37c.74,0,7.52,3.08,10.11,5.06l.62-12.34h-1.85c-6.29,0-12.58.25-22.82,1.36h-.12c-2.1,0-5.8-4.81-5.8-6.41,11.6,1.6,22.82,1.97,29.36,1.97h1.36c0-2.1.12-3.95.12-5.18,0-3.58-.25-8.14-.86-11.47,0-.25-.12-.49-.12-.62,0-.37.25-.37.62-.37.86,0,12.09,1.23,12.09,3.95,0,.99-1.11,2.1-2.84,2.96-.86.37-1.48,1.11-1.6,2.71-.37,2.22-.49,5.06-.74,8.02h10.85c.74,0,1.6-.49,1.97-1.11,1.36-2.22,4.81-6.42,6.04-6.42,2.34,0,10.36,6.04,10.36,9.13ZM162.7,348.46c1.36-2.22,4.93-6.54,6.66-6.54.25,0,.49,0,.74.12,3.21,1.11,10.11,6.66,10.11,9.13,0,.74-.49,1.48-2.59,1.48h-56.87c0,1.36.12,2.71.12,3.7,0,2.34-1.85,4.32-4.19,4.32-1.85,0-3.45-1.11-3.45-3.82v-.25c.37-8.14.49-35.03.49-50.33,0-12.71,0-16.53-.86-20.72-.12-.37-.12-.62-.12-.74,0-.37.12-.37.49-.37.86,0,11.84.99,11.84,3.58,0,.86-.74,1.6-1.36,1.97-2.1,1.23-2.71,1.6-2.96,4.81-.12,2.96-.25,10.48-.25,19.37,0,11.84.12,26.15.25,35.4h39.97c.74,0,1.6-.49,1.97-1.11ZM140.87,288.26l-.86.62c-1.48.99-1.6,1.97-1.6,11.35h19.37c0-4.56-.12-8.76-.25-10.73,0-.37-.25-1.23-1.23-1.23h-15.42ZM157.77,303.18h-19.37v12.21h19.37v-12.21ZM157.77,318.36h-19.37c0,5.06,0,9.87.12,13.94h19.12c0-3.82.12-8.76.12-13.94Z"/><path class="cls-1" d="M176.89,417.53c0,.86-.49,1.6-2.59,1.6h-64.51c-6.66,0-24.18.25-34.91,1.36h-.12c-2.34,0-6.17-4.81-6.17-6.41,12.21,1.6,34.91,1.97,41.82,1.97h8.14c.12-2.96.25-6.91.25-10.85h-2.22c-6.29,0-15.17.12-25.29,1.11h-.12c-2.22,0-5.8-4.44-5.8-5.92,11.6,1.48,25.41,1.73,31.83,1.73h1.6c0-4.93-.12-9-.12-9.5v-.86h-7.4c-6.41,0-18.01.25-28.37,1.36h-.12c-2.1,0-5.55-4.81-5.55-6.41,11.84,1.6,27.88,1.97,34.54,1.97h6.91c0-4.93-.37-9.99-1.48-14.68-.12-.37-.12-.62-.12-.74q0-.25.25-.25c.49,0,14.19,1.6,14.19,4.69,0,.86-.74,1.85-1.97,2.59-2.71,1.85-3.33.49-3.58,6.29v2.1h20.23c.74,0,1.6-.49,1.97-1.11,4.32-5.8,5.55-6.78,6.54-6.78,3.33,0,10.98,7.4,10.98,9.37,0,.86-.62,1.6-2.59,1.6h-37.25c0,3.08-.12,6.78-.12,10.36h13.94c.74,0,1.36-.49,1.85-1.11,3.58-4.56,4.81-5.67,5.92-5.67,1.48,0,10.11,5.06,10.11,8.26,0,.74-.49,1.6-2.47,1.6h-29.36c0,4.44.12,8.51.25,10.85h30.47c.74,0,1.73-.49,2.1-1.11,3.45-4.93,5.43-7.65,6.78-7.65,2.71,0,11.6,7.4,11.6,10.24ZM156.04,431.72c0,1.36-1.48,2.1-2.59,2.84-2.1,1.36-2.71.37-2.84,2.84-.12,2.84-.25,7.15-.25,11.47s.12,8.63.12,11.72c0,2.1.49,8.26.49,10.48,0,11.97-12.34,14.19-15.79,14.19-1.11,0-1.36-.37-2.1-1.48-1.73-2.34-15.91-7.89-15.91-8.88,0,0,.12-.12.37-.12.12,0,.49,0,.86.12,6.41.99,11.47,1.73,15.3,1.73,6.17,0,9.13-1.73,9.37-6.29.12-2.1.12-6.05.12-10.61h-39.72c0,7.65.25,15.79.37,21.96v.12c0,2.59-2.59,4.07-4.93,4.07-1.85,0-3.58-.86-3.58-2.96v-.25c.62-11.35.86-22.7.86-31.95,0-3.82,0-7.4-.12-10.36,0-1.6-.49-10.98-1.6-15.17-.12-.37-.12-.62-.12-.74s0-.12.12-.12c.25,0,7.77,2.47,11.23,4.44h34.79c.62,0,1.36-.37,1.73-.99.12-.12,1.97-3.21,3.58-3.21.62,0,10.24,3.82,10.24,7.15ZM143.09,433.57c0-.37-.12-1.36-1.6-1.36h-35.77l-.37.25c-1.73,1.11-1.6,1.11-1.73,4.44,0,1.23-.12,3.33-.12,5.92h39.72c0-3.82-.12-7.03-.12-9.25ZM143.21,446.15h-39.72v10.24h39.72v-10.24Z"/><path class="cls-1" d="M10.74,274.7c-.13.33-.53.63-1.25.59-.69,1.81-1.48,3.56-2.37,5.21h7.22v-7.91l3.03.3c-.1.5-.4.82-1.22.96v6.66h7.98l1.55-1.88s1.71,1.25,2.83,2.34c-.1.36-.4.49-.86.49h-11.5v8.34h6.76l1.52-1.91s1.78,1.35,2.83,2.34c-.07.36-.4.53-.86.53h-10.25v9.53h9.85l1.58-1.95s1.78,1.35,2.93,2.41c-.1.33-.43.49-.89.49H.63l-.3-.96h14.01v-9.53H4.28l-.26-.96h10.32v-8.34h-7.75c-1.75,3.03-3.79,5.64-5.97,7.55l-.49-.36c2.97-3.46,5.93-9.06,7.65-14.96l2.97,1.02Z"/><path class="cls-1" d="M4.02,323.92c-.59-1.35-2.37-2.97-3.89-3.79l.33-.33c6.59.89,5.7,5.27,3.56,4.12ZM2.97,332.48q.59-1.15,6.39-14.27l.66.16c-1.48,4.12-4.45,11.8-4.91,13.32-.3,1.02-.53,1.98-.53,2.8.03,1.38.86,2.97.73,5.6-.07,1.35-.63,2.17-1.62,2.17-.56,0-.86-.66-.89-1.68.43-3.33.23-5.77-.49-6.23-.4-.33-.89-.4-1.58-.46v-.73h1.48c.33,0,.46-.03.76-.69ZM6.46,317.13c-.53-1.52-2.37-3.3-3.89-4.25l.33-.3c6.79,1.22,5.77,5.7,3.56,4.55ZM11.3,328.79l1.98.89h5.34v-6.53h-9.2l-.26-.96h9.46v-6.06c-2.8.4-5.8.73-8.64.86l-.1-.59c5.83-.76,13.02-2.47,16.71-3.96l2.31,2.11c-.33.23-.89.23-1.65-.03-1.91.46-4.28.92-6.86,1.32v6.36h5.87l1.48-1.91s1.71,1.35,2.8,2.34c-.1.36-.43.53-.89.53h-9.26v6.53h5.08l1.05-1.15,2.44,1.85c-.23.26-.73.53-1.38.66v10.22c-.03.2-.96.69-1.52.69h-.26v-2.41h-12.72v1.88c0,.2-.76.63-1.48.63h-.3v-13.25ZM25.81,330.67h-12.72v7.88h12.72v-7.88Z"/><path class="cls-1" d="M12.85,358c-.07.36-.4.53-.82.53H.4l-.26-.99h8.87l1.38-1.68s1.52,1.19,2.47,2.14ZM11.54,362.19c-.1.36-.4.53-.86.53H1.81l-.26-.99h6.46l1.22-1.48s1.42,1.05,2.31,1.94ZM11.54,366.47c-.1.36-.4.53-.86.53H1.81l-.26-.99h6.46l1.22-1.48s1.42,1.05,2.31,1.95ZM2.18,381.34h-.26v-11.9l1.88.89h4.55l1.05-1.15,2.41,1.81c-.23.26-.79.5-1.45.63v8.07c-.03.2-.86.59-1.45.59h-.23v-1.42H3.63v1.88c0,.17-.73.59-1.45.59ZM6.16,356.39c-.36-1.45-1.65-3.33-2.7-4.45l.36-.23c5.83,2.14,4.25,6,2.34,4.68ZM8.67,371.32H3.63v6.56h5.04v-6.56ZM29.33,354.21c-.07.36-.4.53-.79.53h-8.44l-.89,4.28h4.91l1.12-1.15,2.37,1.81c-.23.26-.82.49-1.45.63v5.64h.92l1.35-1.68s1.48,1.19,2.37,2.14c-.07.36-.36.53-.82.53H12.19l-.26-.99h3.92c.43-1.65.92-3.82,1.42-5.97h-3.89l-.3-.96h4.38l.86-4.28h-5.87l-.26-.99h13.32l1.32-1.75s1.58,1.22,2.5,2.21ZM14.17,381.57h-.3v-12.26l1.88.92h9.43l1.05-1.22,2.44,1.88c-.23.26-.79.53-1.45.66v8.96c-.03.2-.89.66-1.48.66h-.23v-1.75h-9.92v1.52c0,.2-.73.63-1.42.63ZM15.59,371.18v7.25h9.92v-7.25h-9.92ZM17.57,365.94h6.89v-5.97h-5.47c-.46,2.17-.99,4.32-1.42,5.97Z"/><path class="cls-1" d="M4.52,401.55h22.54l1.19-1.19,2.18,2.14c-.23.2-.63.23-1.22.26-.66.86-1.88,1.95-2.8,2.54l-.49-.26c.36-.63.82-1.65,1.15-2.5H4.48c-.2,1.78-1.19,2.9-2.04,3.39-.76.43-1.78.5-2.08-.1-.23-.56.16-1.12.73-1.45,1.32-.56,2.67-2.14,2.7-4.02h.59c.07.43.13.82.13,1.19ZM30.06,414.07c-.1.36-.43.53-.89.53h-12.1c3.07,2.27,8.67,3.86,13.41,4.48l-.03.33c-.66.17-1.22.69-1.42,1.52-4.91-1.12-10.05-3.23-12.89-6.2v5.9c0,.13-.59.59-1.52.59h-.26v-6c-3.49,2.64-8.44,4.55-13.68,5.67l-.3-.59c4.65-1.32,9.03-3.3,12.03-5.7H1.29l-.3-.99h13.38v-2.04h-6.33v.82c0,.13-.76.56-1.48.56h-.26v-9.62l1.91.92h14.3l1.02-1.09,2.31,1.75c-.2.23-.69.46-1.25.56v6.53c-.03.2-.92.66-1.52.66h-.26v-1.09h-6.66v2.04h9.82l1.42-1.75s1.65,1.22,2.67,2.21ZM30.16,399.3c-.1.36-.43.53-.86.53H.89l-.3-.96h19.38l.53-1.55h-11.44l-.89.79-1.81-1.55c.26-.2.73-.4,1.12-.53.69-1.48,1.52-3.72,1.91-4.98l2.77.53c-.1.36-.46.76-1.29.73l-.26.69h10.94l1.02-.99,1.91,1.75c-.23.26-.53.33-1.12.36l-1.55,4.75h4.25l1.45-1.75s1.61,1.22,2.64,2.18ZM8.04,405.24v2.14h6.33v-2.14h-6.33ZM14.37,408.37h-6.33v2.21h6.33v-2.21ZM20.8,396.34l.76-2.34h-11.3l-1.02,2.34h11.57ZM16.15,407.38h6.66v-2.14h-6.66v2.14ZM22.81,410.58v-2.21h-6.66v2.21h6.66Z"/><path class="cls-1" d="M30.32,455.21c-.07.36-.4.53-.82.53h-6.36l-.36,3.56c-.46.2-.96.3-1.78.16l.1-.63h-12.29l-.86.92-2.11-1.68c.33-.23.82-.43,1.25-.59l.23-1.75H.96l-.3-.99h6.76c.16-1.45.3-2.93.33-4.02l2.11.96h11.57l.96-1.09,2.37,1.88c-.23.3-.76.43-1.42.5l-.13,1.78h3.39l1.32-1.45s1.45,1.05,2.41,1.91ZM4.61,448.88h10.48l-.23-.17c.1-.92-.4-2.04-1.02-2.67l.4-.23c2.9.76,2.9,2.54,2.04,3.07h10.09l1.22-1.22,2.24,2.17c-.23.2-.63.26-1.25.3-.56.92-1.58,2.18-2.41,2.93l-.49-.26c.3-.73.63-1.94.86-2.93H4.71c-.03,1.71-.73,2.84-1.48,3.36-.69.43-1.71.53-2.01-.1-.26-.56.1-1.12.69-1.48,1.15-.59,2.01-2.27,1.81-4.02l.63-.03c.13.46.23.89.26,1.29ZM12.79,472.75c-2.64,1.25-7.05,2.54-11.24,3.03l-.16-.59c3.96-.86,8.37-2.7,10.51-4.25l2.37,1.75c-.3.26-.79.3-1.48.07ZM6.56,471.49h-.26v-12.06l1.91.96h14.01l.99-1.05,2.14,1.68c-.16.23-.59.46-1.09.49v8.9c-.03.23-.92.66-1.52.66h-.26v-.66h-14.44v.5c0,.2-.73.59-1.48.59ZM8.04,461.37v2.01h14.44v-2.01h-14.44ZM22.48,466.38v-2.01h-14.44v2.01h14.44ZM22.48,469.45v-2.08h-14.44v2.08h14.44ZM14.17,457.85l.2-2.11h-5.41l-.26,2.11h5.47ZM9.1,454.75h5.34l.16-2.08h-5.34l-.16,2.08ZM21.19,457.85l.23-2.11h-5.34l-.16,2.11h5.27ZM16.15,454.75h5.37l.13-2.08h-5.37l-.13,2.08ZM26.99,475.25c-2.08-1.29-5.47-2.57-9.95-3.49l.13-.59c15.13,1.19,12.13,5.5,9.82,4.09Z"/><path class="cls-1" d="M2.44,513.69c-.49.76-1.52,1.15-1.98.66-.4-.46-.13-1.12.36-1.65.99-1.05,1.85-3.82,1.68-6.23h.63c.79,3.46.13,6.1-.69,7.22ZM10.35,504.98c-.03-.76-.23-1.58-.49-2.47-1.81.59-4.52,1.42-7.35,2.18-.26.46-.56.76-.89.86l-1.02-2.67s.66-.13.92-.3c1.65-1.55,3.56-4.05,5.21-6.56-1.12.3-2.54.63-3.99.92-.23.43-.53.69-.82.79l-.99-2.64s.53-.13.76-.3c1.88-2.08,4.22-6.82,5.08-9.33l2.77,1.38c-.16.3-.56.56-1.25.46-1.22,2.31-3.43,5.54-5.54,7.81,1.29.03,2.93.03,4.58,0,1.02-1.65,1.91-3.23,2.47-4.45l2.54,1.75h.03c-.2.26-.66.49-1.29.33-1.78,2.83-5.14,7.05-8.24,9.99l6.79-.82c-.43-1.19-.99-2.34-1.52-3.2l.46-.16c5.04,4.09,3.39,7.98,1.78,6.43ZM5.83,513.03c.36-2.18.03-5.08-.4-6.92l.49-.13c3.36,4.88,1.29,8.83-.1,7.05ZM10.48,511.25c-.1-1.88-1.22-4.35-2.24-5.83l.43-.2c5.04,3.66,3.43,7.51,1.81,6.03ZM19.12,511.91c-2.04,1.35-5.67,2.87-9.1,3.63l-.23-.53c3.13-1.15,6.59-3.3,8.21-4.88l2.6,1.61c-.23.3-.73.36-1.48.17ZM30.12,488.83c-.1.36-.4.53-.86.53h-7.55v2.31h3.63l1.22-1.48s1.38,1.09,2.27,1.94c-.1.36-.4.53-.82.53h-6.3v2.57h5.6l1.25-1.48s1.42,1.09,2.27,1.94c-.07.36-.36.53-.79.53H11.83l-.26-.99h8.4v-2.57h-5.97l-.26-.99h6.23v-2.31h-7.32l-.26-.99h7.58v-2.97l2.97.33c-.07.46-.43.76-1.22.89v1.75h4.84l1.25-1.48s1.38,1.09,2.31,1.94ZM14.44,511.15h-.3v-13.78l1.91.92h9.72l1.02-1.15,2.31,1.78c-.2.23-.73.49-1.29.59v10.48c-.03.2-.89.63-1.48.63h-.26v-1.45h-10.18v1.35c0,.2-.69.63-1.45.63ZM15.89,499.25v2.24h10.18v-2.24h-10.18ZM26.07,504.82v-2.34h-10.18v2.34h10.18ZM26.07,508.18v-2.37h-10.18v2.37h10.18ZM28.48,514.9c-1.19-1.32-3.39-2.8-6.49-4.02l.23-.56c11.21,2.18,8.14,6.16,6.26,4.58Z"/><path class="cls-1" d="M14.67,525.72c-.16.33-.46.46-1.29.33-.53.86-1.12,1.78-1.81,2.67h10.28l1.52-1.32,2.21,2.21c-.26.23-.63.3-1.52.33-1.71,2.57-3.92,4.91-6.56,6.99,3.95,2.47,8.77,4.22,13.61,5.21l-.07.33c-.79.1-1.45.63-1.71,1.52-4.84-1.25-9.39-3.3-13.08-6.1-2.5,1.81-5.37,3.39-8.6,4.68l1.45.69h13.05l1.05-1.12,2.34,1.78c-.2.23-.73.5-1.29.63v9.56c-.03.2-.92.66-1.55.66h-.23v-2.27h-13.51v1.91c0,.17-.76.59-1.52.59h-.3v-12.23c-2.14.86-4.42,1.55-6.86,2.14l-.3-.56c5.64-1.75,10.81-4.32,14.93-7.51-2.04-1.75-3.76-3.76-5.04-6-2.41,2.7-5.34,5.27-8.34,6.99l-.4-.46c4.15-2.93,8.44-8.11,10.51-12.59l3,.95ZM22.48,551.5v-7.25h-13.51v7.25h13.51ZM10.84,529.64l-.46.56c1.35,2.18,3.33,4.09,5.67,5.77,2.27-1.95,4.22-4.05,5.64-6.33h-10.84Z"/><path class="cls-1" d="M16.25,565.64v2.74h8.7l1.42-1.78s1.65,1.29,2.64,2.24c-.07.36-.4.53-.86.53h-11.9v3.59h7.28l1.35-1.65s1.52,1.19,2.47,2.11c-.1.36-.4.53-.86.53h-10.25v3.76h9.72l1.45-1.85s1.61,1.32,2.67,2.31c-.07.36-.4.53-.86.53h-12.52c.82,2.7,2.11,5.01,3.76,6.89,2.21-1.68,4.68-4.09,5.9-5.74l2.7,1.65c-.26.3-.53.43-1.25.2-1.55,1.42-4.28,3.2-6.89,4.42,2.64,2.77,6.03,4.58,9.79,5.57l-.03.36c-.92.23-1.61.82-1.78,1.71-6.26-2.21-10.98-7.15-12.99-15.06h-.56c-1.29,1.62-2.87,3.1-4.68,4.42v8.9c2.21-.72,5.31-1.81,8.47-2.93l.2.46c-2.14,1.05-5.77,2.9-9.69,4.71-.13.33-.33.53-.46.66l-1.55-1.94c1.09-.76,1.25-.99,1.25-1.42v-7.22c-2.5,1.58-5.37,2.93-8.4,3.96l-.3-.56c5.04-2.18,9.62-5.47,12.56-9.03H1.09l-.3-.99h13.68v-3.76H4.38l-.26-.99h10.35v-3.59H2.93l-.3-.99h11.83v-3.96l3,.33c-.07.46-.43.76-1.22.89Z"/></g></svg>