<?xml version="1.0" encoding="UTF-8"?><svg id="_圖層_2" xmlns="http://www.w3.org/2000/svg" viewBox="0 0 374.07 53.25"><defs><style>.cls-1{fill:#534741;}</style></defs><g id="_圖層_1-2"><path class="cls-1" d="M12.26,35.57c.02.24.02.49.02.72,0,.83-.06.83-.25.83-.11,0-.23-.06-.26-.13-.42-1.32-.4-1.87-2.4-2.13-.38-.06-.7-.08-.96-.08-1.06,0-1.19.06-1.28.36-.09.51-.13,2.44-.13,4.48,0,1.15,0,2.57.02,3.68,0,2.76,0,3.29,1.98,3.53.13.09.19.23.19.32,0,.13-.08.23-.23.23-.02,0-1.57-.13-3.15-.13-.79,0-1.59.04-2.19.13h-.04c-.11,0-.17-.1-.17-.23,0-.11.06-.24.17-.34,2.02-.32,1.98-.34,2.02-3.55.02-.85.02-1.83.02-2.72s0-1.68-.02-2.13c0-.15,0-2.93-.11-3.23-.02-.04.06-.27-.3-.32-.13-.02-.68-.06-1.27-.06-2.04,0-2.49.21-3.38,2.32-.06.09-.15.15-.26.15-.13,0-.26-.08-.26-.21v-.04c.25-1.27.62-2.47.72-3.25.02-.1.15-.15.28-.15.11,0,.23.04.26.13.17.49.62.53,5.53.53,3.46,0,4.76-.09,5.04-.55.04-.06.11-.09.19-.09.13,0,.28.09.28.15-.06.34-.06.72-.06,1.78Z"/><path class="cls-1" d="M22.27,47.21c0,.1-.06.17-.19.17-.02,0-1.06-.11-2.15-.11-.55,0-1.1.02-1.55.11h-.04c-.09,0-.15-.08-.15-.17s.06-.23.17-.3c1.25-.11,1.27-.83,1.27-2.81,0-.15,0-1.47-.02-1.64-.08-1.42-1.06-1.89-1.72-1.89-1.3,0-2,1.02-2.06,1.53-.02.25-.04.85-.04,1.51,0,.91.02,1.95.06,2.25.04.57.32,1.02,1.28,1.04.09.09.13.19.13.28,0,.11-.06.19-.15.19-.02,0-1.06-.11-2.12-.11-.57,0-1.15.04-1.59.13h-.02c-.09,0-.15-.1-.15-.21,0-.09.04-.23.15-.3.96-.09,1.08-.49,1.11-1,.08-.96.11-5.69.11-7.44,0-3.7-.02-3.76-1.13-4.04-.06-.02-.09-.11-.09-.19,0-.1.04-.17.08-.17.89-.17,1.7-.51,2.25-.79h.04c.08,0,.19.04.19.17-.08,1.74-.06,3.27-.09,6.23l-.04,1.23c0,.06.04.09.08.09.02,0,.04,0,.06-.02,1.04-1.21,2.06-1.21,2.32-1.21,1.4,0,2.55.87,2.61,2.47.02.36.02,1.38.04,1.89,0,.53,0,1.51.02,1.74.04.57.28,1.06,1.19,1.08.09.07.15.19.15.3Z"/><path class="cls-1" d="M26.93,47.66c-1.89,0-3.61-1.36-3.61-3.89,0-1.95,1.44-4.08,3.72-4.08,2.1,0,2.61,1.64,2.61,1.98,0,.26-.23.81-1.28.87-.93.04-2.32.06-3.21.06-.4,0-.55.11-.55.83,0,1.72,1.02,3.34,2.85,3.34,1.1,0,1.59-.47,1.85-.72.04-.04.08-.06.13-.06.15,0,.3.19.3.34,0,.17-.79,1.32-2.81,1.32ZM26.74,40.2c-1.57,0-2.02,1.68-2.02,1.93,0,.06.02.09.06.09h.04c.62-.23,1.87-.34,2.85-.43.17-.02.57-.1.57-.42-.02-.44-.47-1.17-1.49-1.17Z"/><path class="cls-1" d="M44.31,40.62c0,.28-.15.7-.4.7h-.02c-.68-.06-.96-.08-1.13-.08-.02,0-.47,0-.47.1,0,0,0,.02.02.04.19.42.25.55.25,1,0,1.53-.72,2.83-2.93,2.91-1.57.08-1.79,1-1.83,1.13v.11c0,.49.49.74,1.64.74.15,0,.3-.02.47-.02.6-.02,1.51-.1,2.04-.1,1.38.02,2.29.85,2.29,2.04,0,2.12-2.34,4.06-4.89,4.06-1.95,0-3.59-1.17-3.59-1.98,0-.19.21-.4.38-.61.26-.28,1.15-1.55,1.87-2.3l.02-.02c0-.06-.11-.1-.17-.1-.89-.07-1.68-.91-1.68-1.34,0-.34.06-.38.23-.45.06-.02,1.83-1.21,1.83-1.29,0-.02-.02-.04-.06-.06-1.04-.3-1.78-1.36-1.78-2.47,0-1.98,1.55-2.98,3.06-2.98.72,0,1.44.15,2,.55.08.06.42.28.6.28.53-.02.93-.15,1.44-.17h.17c.47,0,.64,0,.64.3ZM43.27,49.57c0-1.06-1.21-1.19-2.06-1.19-.49,0-1.08.04-1.76.08-.45.02-.77.08-1.1.38-.53.47-.89,1.57-.89,2.1,0,1.17,1.98,1.32,2.63,1.32,2.42,0,3.17-1.79,3.17-2.68ZM39.39,40.09c-.93,0-1.64.85-1.64,2.17,0,1.55.76,2.61,1.89,2.61,1.23,0,1.62-1.27,1.62-2.15,0-1.12-.51-2.63-1.87-2.63Z"/><path class="cls-1" d="M50.73,40.22c0,.42-.49.94-.94.94-.09,0-.19-.02-.26-.06-.3-.15-.57-.21-.79-.21-.77,0-1.1.74-1.13,1.21-.02.21-.02.55-.02.91,0,.7.02,1.51.02,1.68,0,1.78.04,2,1.49,2.19.09.08.11.17.11.26,0,.12-.06.21-.15.21-.02,0-1.15-.09-2.29-.09-.57,0-1.13.02-1.57.09h-.02c-.09,0-.17-.08-.17-.19,0-.08.06-.17.15-.26,1.19-.1,1.23-.72,1.23-2.15v-2.29c-.02-.96-.02-1.66-.89-1.85-.08-.02-.11-.09-.11-.17,0-.06.04-.13.11-.15.77-.17,1.55-.61,1.81-.72.11.02.23.11.23.3l-.06.96v.04s0,.08.11.08c.68-.7,1.64-1.25,2.36-1.25.57,0,.77.23.77.51Z"/><path class="cls-1" d="M55.29,47.66c-1.89,0-3.61-1.36-3.61-3.89,0-1.95,1.44-4.08,3.72-4.08,2.1,0,2.61,1.64,2.61,1.98,0,.26-.23.81-1.28.87-.93.04-2.32.06-3.21.06-.4,0-.55.11-.55.83,0,1.72,1.02,3.34,2.85,3.34,1.1,0,1.59-.47,1.85-.72.04-.04.08-.06.13-.06.15,0,.3.19.3.34,0,.17-.79,1.32-2.81,1.32ZM55.11,40.2c-1.57,0-2.02,1.68-2.02,1.93,0,.06.02.09.06.09h.04c.62-.23,1.87-.34,2.85-.43.17-.02.57-.1.57-.42-.02-.44-.47-1.17-1.49-1.17Z"/><path class="cls-1" d="M63.06,47.66c-1.89,0-3.61-1.36-3.61-3.89,0-1.95,1.44-4.08,3.72-4.08,2.1,0,2.61,1.64,2.61,1.98,0,.26-.23.81-1.28.87-.93.04-2.32.06-3.21.06-.4,0-.55.11-.55.83,0,1.72,1.02,3.34,2.85,3.34,1.1,0,1.59-.47,1.85-.72.04-.04.08-.06.13-.06.15,0,.3.19.3.34,0,.17-.79,1.32-2.82,1.32ZM62.87,40.2c-1.57,0-2.02,1.68-2.02,1.93,0,.06.02.09.06.09h.04c.62-.23,1.87-.34,2.85-.43.17-.02.57-.1.57-.42-.02-.44-.47-1.17-1.49-1.17Z"/><path class="cls-1" d="M76.05,47.19c0,.11-.06.19-.17.19-.02,0-1.17-.1-2.25-.1-.55,0-1.08.02-1.42.1h-.04c-.11,0-.15-.08-.15-.17s.06-.23.15-.3c1.23-.1,1.27-.55,1.27-2.95,0-.51,0-1.25-.02-1.53-.08-1.4-1.02-1.83-1.76-1.83-1.36,0-2.04.91-2.1,1.44-.04.46-.06.81-.06,2.47.02.46,0,1.04.08,1.55.08.57.43.85,1.27.85.08.07.11.17.11.26,0,.11-.06.21-.15.21,0,0-1.11-.08-2.19-.08-.55,0-1.08.02-1.47.08h-.02c-.08,0-.13-.08-.13-.19,0-.1.04-.19.13-.28,1.1-.15,1.11-.32,1.19-2.53v-1.87c0-1.1,0-1.61-.85-1.78-.09-.02-.15-.11-.15-.21s.06-.19.13-.21c.76-.13,1.4-.51,1.83-.72.04-.02.06-.02.08-.02.08,0,.11.08.11.25,0,.21-.02.62-.02.94v.23s.02.08.06.08c.02,0,.04-.02.06-.04,1.02-1.19,1.96-1.3,2.53-1.3,1.4,0,2.53.79,2.59,2.44v2.34c0,1.83.06,2.29,1.23,2.4.09.07.13.19.13.28Z"/><path class="cls-1" d="M79.01,47.59c-.83,0-1.34-.21-1.83-.38-.15-.07-.19-.23-.38-1.61,0-.11.13-.17.26-.17.11,0,.23.04.26.11.25.72.68,1.57,1.62,1.57,1.42,0,1.42-1.3,1.42-1.38,0-.59-.38-1.15-1.02-1.53-1.59-.98-2.08-1.47-2.08-2.59,0-1.4,1.4-1.96,2.42-1.96.72,0,1.47.15,1.62.45.15.4.21,1.17.21,1.19,0,.1-.15.15-.28.15-.06,0-.11-.02-.13-.06-.32-.68-.7-1.32-1.44-1.32-.79,0-1.3.41-1.3,1.21,0,.62.34.87,1,1.27,1.57.94,2.21,1.61,2.21,2.79,0,1.78-1.62,2.25-2.57,2.25Z"/><path class="cls-1" d="M92.01,47.64c-2.47,0-3.89-1.85-3.89-3.93,0-2.21,1.66-4,3.93-4,2.38,0,3.85,1.79,3.85,4s-1.45,3.93-3.89,3.93ZM91.95,40.14c-1.62,0-2.4,1.55-2.4,3.17,0,.61.15,3.85,2.61,3.85,1.87,0,2.29-1.8,2.29-3.15,0-1.15-.4-3.87-2.49-3.87Z"/><path class="cls-1" d="M104.87,35.18c-.21,0-.53-.13-1.02-.7-.3-.36-.87-.78-1.4-.78-1.66,0-2.38,1.32-2.49,3.23-.04.81-.04,2.06-.06,2.79,0,.13.19.27.34.27h.04c.06,0,.64-.04.91-.08h.02c.09,0,.15.08.15.28,0,.17-.04.57-.23.57-.19-.02-.45-.02-.7-.02-.55,0-.55.06-.55.21v.06c.02.3.02.64.02.96,0,.72-.02,1.47-.02,2.12v.7c0,1.34.02,1.89,1.57,2.12.09.09.13.19.13.26,0,.11-.08.21-.19.21-.02,0-1.13-.13-2.36-.13-.6,0-1.23.04-1.74.13h-.04c-.09,0-.15-.08-.15-.17s.06-.23.15-.3c1.49-.21,1.32-1.21,1.36-2.3v-3.51c0-.25-.09-.34-.42-.34q-.68,0-.68-.27c0-.13.04-.28.13-.3.42-.11.85-.44.93-1,.06-.61.09-.98.13-1.42.26-3.21,2.1-4.57,4.1-4.57.25,0,2.46.06,2.46,1.36,0,.59-.28.62-.4.62Z"/><path class="cls-1" d="M111.16,47.62c-1.19,0-2.02-.7-2.1-1.89-.04-.55-.06-1.21-.06-1.85,0-1.02.04-2.06.08-2.78v-.07c0-.17-.04-.17-.09-.17h-.17c-.25,0-.62.07-.81.09-.11,0-.17-.15-.17-.3,0-.13.04-.28.13-.3.76-.23,1.68-.91,2.02-1.89.06-.17.21-.24.32-.24.15,0,.26.07.26.21,0,.49-.08,1.19-.08,1.3,0,.19.04.27.17.27.11,0,1.55-.1,2.32-.27h.06c.17,0,.19.19.19.32,0,.26-.09.57-.17.57-1.13.02-2.29.15-2.44.15-.23,0-.19.1-.21.21-.06.57-.09,1.49-.09,2.38,0,2.19.09,3.31,1.36,3.31.43,0,.87-.11,1.45-.3h.02c.08,0,.23.19.23.32s-.96.94-2.23.94Z"/><path class="cls-1" d="M123.21,47.21c0,.1-.06.17-.19.17-.02,0-1.06-.11-2.15-.11-.55,0-1.1.02-1.55.11h-.04c-.09,0-.15-.08-.15-.17s.06-.23.17-.3c1.25-.11,1.27-.83,1.27-2.81,0-.15,0-1.47-.02-1.64-.08-1.42-1.06-1.89-1.72-1.89-1.3,0-2,1.02-2.06,1.53-.02.25-.04.85-.04,1.51,0,.91.02,1.95.06,2.25.04.57.32,1.02,1.28,1.04.09.09.13.19.13.28,0,.11-.06.19-.15.19-.02,0-1.06-.11-2.12-.11-.57,0-1.15.04-1.59.13h-.02c-.09,0-.15-.1-.15-.21,0-.09.04-.23.15-.3.96-.09,1.08-.49,1.11-1,.08-.96.11-5.69.11-7.44,0-3.7-.02-3.76-1.13-4.04-.06-.02-.09-.11-.09-.19,0-.1.04-.17.08-.17.89-.17,1.7-.51,2.25-.79h.04c.08,0,.19.04.19.17-.08,1.74-.06,3.27-.09,6.23l-.04,1.23c0,.06.04.09.08.09.02,0,.04,0,.06-.02,1.04-1.21,2.06-1.21,2.32-1.21,1.4,0,2.55.87,2.61,2.47.02.36.02,1.38.04,1.89,0,.53,0,1.51.02,1.74.04.57.28,1.06,1.19,1.08.09.07.15.19.15.3Z"/><path class="cls-1" d="M127.87,47.66c-1.89,0-3.61-1.36-3.61-3.89,0-1.95,1.44-4.08,3.72-4.08,2.1,0,2.61,1.64,2.61,1.98,0,.26-.23.81-1.28.87-.93.04-2.32.06-3.21.06-.4,0-.55.11-.55.83,0,1.72,1.02,3.34,2.85,3.34,1.1,0,1.59-.47,1.85-.72.04-.04.08-.06.13-.06.15,0,.3.19.3.34,0,.17-.79,1.32-2.81,1.32ZM127.68,40.2c-1.57,0-2.02,1.68-2.02,1.93,0,.06.02.09.06.09h.04c.62-.23,1.87-.34,2.85-.43.17-.02.57-.1.57-.42-.02-.44-.47-1.17-1.49-1.17Z"/><path class="cls-1" d="M140.82,47.62c-2.12,0-3.72-1.4-3.72-3.64,0-2.59,1.87-4.27,4.17-4.27.32,0,.68.04,1.04.09.15.02.21.02.28.02.06,0,.11,0,.21-.02h.02c.47,0,.91.85.91,1.45,0,.32-.15.42-.3.42-.34,0-.79-.61-.79-.61-.28-.38-.93-.87-1.64-.87-1.38,0-2.59,1.02-2.59,2.97,0,3.38,2.66,3.46,3.12,3.46h.06c.72,0,1.27-.36,1.85-.83.06-.06.11-.08.19-.08.15,0,.26.15.26.32,0,.23-1.13,1.59-3.06,1.59Z"/><path class="cls-1" d="M148.87,47.17c0,.11-.06.19-.13.19-.02,0-1.06-.11-2.19-.11-.57,0-1.15.02-1.62.11h-.04c-.08,0-.13-.08-.13-.17s.04-.19.15-.28c1.34-.17,1.34-1,1.34-2.78,0-.62-.04-1.25-.06-2-.04-.93-.04-1.19-.93-1.38-.06-.02-.09-.11-.09-.21s.02-.17.09-.17c.83-.13,1.51-.49,2.13-.79.02-.02.04-.02.08-.02.08,0,.13.1.13.21-.06.45-.15,2.47-.15,4.53v1.1c0,.78.11,1.44,1.3,1.51.08.07.11.19.11.26ZM146.72,36.31c-.59,0-1.06-.49-1.06-1.1s.47-1.06,1.06-1.06,1.06.47,1.06,1.06-.47,1.1-1.06,1.1Z"/><path class="cls-1" d="M153.1,47.62c-1.19,0-2.02-.7-2.1-1.89-.04-.55-.06-1.21-.06-1.85,0-1.02.04-2.06.08-2.78v-.07c0-.17-.04-.17-.09-.17h-.17c-.25,0-.62.07-.81.09-.11,0-.17-.15-.17-.3,0-.13.04-.28.13-.3.76-.23,1.68-.91,2.02-1.89.06-.17.21-.24.32-.24.15,0,.26.07.26.21,0,.49-.08,1.19-.08,1.3,0,.19.04.27.17.27.11,0,1.55-.1,2.32-.27h.06c.17,0,.19.19.19.32,0,.26-.09.57-.17.57-1.13.02-2.29.15-2.44.15-.23,0-.19.1-.21.21-.06.57-.09,1.49-.09,2.38,0,2.19.09,3.31,1.36,3.31.43,0,.87-.11,1.45-.3h.02c.08,0,.23.19.23.32s-.96.94-2.23.94Z"/><path class="cls-1" d="M162.77,41.37c-1.38,3.25-2.15,6.5-3.82,9.69-.32.6-1.17,2.19-2.47,2.19-.6,0-.68-.47-.68-.66,0-.32.25-.76.64-.81.6-.09,1.1,0,1.68-.81.74-1.04,1.61-3.04,1.61-3.4,0-.11-.02-.24-.08-.36-.98-1.93-2.21-4.87-2.74-6.01-.26-.53-.32-.59-1-.7-.08-.08-.11-.21-.11-.3,0-.13.06-.25.17-.25.02,0,.93.1,1.93.1.51,0,1.02-.02,1.47-.1h.04c.11,0,.17.12.17.25,0,.11-.06.25-.19.3-.4.06-1.06.08-1.06.53s2,4.84,2.1,4.84c.04,0,.06-.04.08-.08.53-1.42,1.44-4.21,1.44-4.65,0-.53-.6-.59-1.17-.64-.09-.08-.17-.23-.17-.34s.06-.19.17-.19c0,0,.76.08,1.64.08.49,0,1-.02,1.45-.1h.04c.11,0,.19.13.19.27,0,.11-.04.21-.15.26-.66.11-.94.36-1.17.89Z"/><path class="cls-1" d="M166.28,47.21c0,1.93-2.08,2.66-2.4,2.66-.13,0-.3-.26-.3-.43,0-.08.04-.13.09-.15,1.17-.32,1.47-.85,1.47-1.3,0-.51-.21-.6-.68-.81-.34-.15-.49-.42-.49-.7,0-.3.3-.91.98-.91.64,0,1.32.55,1.32,1.64Z"/><path class="cls-1" d="M177.04,47.62c-2.12,0-3.72-1.4-3.72-3.64,0-2.59,1.87-4.27,4.17-4.27.32,0,.68.04,1.04.09.15.02.21.02.28.02.06,0,.11,0,.21-.02h.02c.47,0,.91.85.91,1.45,0,.32-.15.42-.3.42-.34,0-.79-.61-.79-.61-.28-.38-.93-.87-1.64-.87-1.38,0-2.59,1.02-2.59,2.97,0,3.38,2.66,3.46,3.12,3.46h.06c.72,0,1.27-.36,1.85-.83.06-.06.11-.08.19-.08.15,0,.26.15.26.32,0,.23-1.13,1.59-3.06,1.59Z"/><path class="cls-1" d="M186.68,47.64c-.55,0-1.02-.25-1.25-1.02-.06-.17-.06-.28-.09-.28-.02,0-.04.02-.06.06-.32.4-1.32,1.32-2.53,1.32s-1.72-.95-1.72-1.59c0-.72.62-1.4,1.34-1.72,1.42-.62,2.38-.77,2.93-1.19.04-.02.09,0,.11-.15,0-.09.02-.43.06-.87,0-.28,0-1.89-1.32-1.89-.64,0-1,.55-1.02.78-.02.36-.04.7-.74,1.02-.11.06-.25.08-.36.08-.26,0-.47-.15-.47-.4,0-.55,1.25-2.08,3.12-2.08,1.36,0,2.12.62,2.12,2.08v.26c-.09,1.12-.17,2.62-.17,3.04,0,.81.32,1.53.74,1.53.28,0,.79-.3.81-.32.02-.02.04-.02.08-.02.11,0,.25.23.25.36,0,0-.53,1-1.81,1ZM185.39,44.07c0-.15-.02-.23-.09-.23s-1.95.83-2.15.94c-.42.25-.53.53-.53.89,0,.25.25,1.21,1.08,1.21.66,0,1.7-1.06,1.7-1.68v-.04c-.02-.13-.02-.26-.02-.4,0-.19,0-.36.02-.53v-.17Z"/><path class="cls-1" d="M194.8,40.22c0,.42-.49.94-.94.94-.09,0-.19-.02-.26-.06-.3-.15-.57-.21-.79-.21-.77,0-1.1.74-1.13,1.21-.02.21-.02.55-.02.91,0,.7.02,1.51.02,1.68,0,1.78.04,2,1.49,2.19.09.08.11.17.11.26,0,.12-.06.21-.15.21-.02,0-1.15-.09-2.29-.09-.57,0-1.13.02-1.57.09h-.02c-.09,0-.17-.08-.17-.19,0-.08.06-.17.15-.26,1.19-.1,1.23-.72,1.23-2.15v-2.29c-.02-.96-.02-1.66-.89-1.85-.08-.02-.11-.09-.11-.17,0-.06.04-.13.11-.15.77-.17,1.55-.61,1.81-.72.11.02.23.11.23.3l-.06.96v.04s0,.08.11.08c.68-.7,1.64-1.25,2.36-1.25.57,0,.77.23.77.51Z"/><path class="cls-1" d="M199.37,47.66c-1.89,0-3.61-1.36-3.61-3.89,0-1.95,1.44-4.08,3.72-4.08,2.1,0,2.61,1.64,2.61,1.98,0,.26-.23.81-1.28.87-.93.04-2.32.06-3.21.06-.4,0-.55.11-.55.83,0,1.72,1.02,3.34,2.85,3.34,1.1,0,1.59-.47,1.85-.72.04-.04.08-.06.13-.06.15,0,.3.19.3.34,0,.17-.79,1.32-2.81,1.32ZM199.18,40.2c-1.57,0-2.02,1.68-2.02,1.93,0,.06.02.09.06.09h.04c.62-.23,1.87-.34,2.85-.43.17-.02.57-.1.57-.42-.02-.44-.47-1.17-1.49-1.17Z"/><path class="cls-1" d="M210.09,47.68c-.08.06-.11.08-.15.08-.09,0-.45-.66-.55-1.04-.02-.04-.06-.06-.09-.06-.02,0-.04,0-.06.02-.25.26-1.02.91-2.21.91-.57,0-3.55-.15-3.55-3.83,0-2.15,1.36-4.01,3.87-4.01.64,0,1.11.21,1.83.36h.04c.09,0,.17-.17.17-.3v-.3c0-.55.02-1.38.02-2.13,0-.72-.02-1.38-.08-1.76-.15-1.1-.19-1.04-1.04-1.21-.09-.02-.15-.17-.15-.28,0-.06.02-.11.06-.11.91-.15,1.85-.57,2.32-.79h.04c.09,0,.23.07.23.24-.06,1.21-.19,6.73-.19,9.67,0,.59,0,1.15.02,1.74.02,1.02.45,1.62,1.17,1.62.15,0,.3-.04.45-.08h.02c.08,0,.13.15.13.28,0,.08-.02.15-.08.17-.64.15-1.79.53-2.23.81ZM207.2,40.31c-2.23,0-2.42,2.13-2.42,2.93,0,1.95,1.11,3.44,2.76,3.44,1.36,0,1.74-.85,1.79-1.34.06-.36.08-1.12.08-1.76,0-.32-.02-.62-.02-.83-.06-1.64-1-2.44-2.19-2.44Z"/><path class="cls-1" d="M225.77,35.18c-.21,0-.53-.13-1.02-.7-.3-.36-.87-.78-1.4-.78-1.66,0-2.38,1.32-2.49,3.23-.04.81-.04,2.06-.06,2.79,0,.13.19.27.34.27h.04c.06,0,.64-.04.91-.08h.02c.09,0,.15.08.15.28,0,.17-.04.57-.23.57-.19-.02-.45-.02-.7-.02-.55,0-.55.06-.55.21v.06c.02.3.02.64.02.96,0,.72-.02,1.47-.02,2.12v.7c0,1.34.02,1.89,1.57,2.12.09.09.13.19.13.26,0,.11-.08.21-.19.21-.02,0-1.13-.13-2.36-.13-.6,0-1.23.04-1.74.13h-.04c-.09,0-.15-.08-.15-.17s.06-.23.15-.3c1.49-.21,1.32-1.21,1.36-2.3v-3.51c0-.25-.09-.34-.42-.34q-.68,0-.68-.27c0-.13.04-.28.13-.3.42-.11.85-.44.93-1,.06-.61.09-.98.13-1.42.26-3.21,2.1-4.57,4.1-4.57.25,0,2.46.06,2.46,1.36,0,.59-.28.62-.4.62Z"/><path class="cls-1" d="M227.75,47.64c-2.47,0-3.89-1.85-3.89-3.93,0-2.21,1.66-4,3.93-4,2.38,0,3.85,1.79,3.85,4s-1.45,3.93-3.89,3.93ZM227.69,40.14c-1.62,0-2.4,1.55-2.4,3.17,0,.61.15,3.85,2.61,3.85,1.87,0,2.29-1.8,2.29-3.15,0-1.15-.4-3.87-2.49-3.87Z"/><path class="cls-1" d="M238.67,40.22c0,.42-.49.94-.94.94-.09,0-.19-.02-.26-.06-.3-.15-.57-.21-.79-.21-.77,0-1.1.74-1.13,1.21-.02.21-.02.55-.02.91,0,.7.02,1.51.02,1.68,0,1.78.04,2,1.49,2.19.09.08.11.17.11.26,0,.12-.06.21-.15.21-.02,0-1.15-.09-2.29-.09-.57,0-1.13.02-1.57.09h-.02c-.09,0-.17-.08-.17-.19,0-.08.06-.17.15-.26,1.19-.1,1.23-.72,1.23-2.15v-2.29c-.02-.96-.02-1.66-.89-1.85-.08-.02-.11-.09-.11-.17,0-.06.04-.13.11-.15.77-.17,1.55-.61,1.81-.72.11.02.23.11.23.3l-.06.96v.04s0,.08.11.08c.68-.7,1.64-1.25,2.36-1.25.57,0,.77.23.77.51Z"/><path class="cls-1" d="M248.62,47.13c0,.11-.08.23-.19.23,0,0-1.02-.08-2.08-.08-.59,0-1.19.02-1.62.1h-.04c-.09,0-.15-.08-.15-.17s.04-.21.15-.28c1.1-.06,1.13-.7,1.17-1.15.04-.53.08-1.57.08-5.38,0-1.7-.02-3.68-.09-4.84-.04-.96-.3-1-.81-1.13-.17-.04-.23-.13-.23-.23,0-.11.08-.23.13-.25,1-.13,1.62-.53,2.15-.72.02-.02.06-.02.09-.02.08,0,.17.04.17.17v.02c-.17,1.91-.19,5.18-.19,8.9,0,.76.02,2.96.06,3.47.06.51.17,1.04,1.28,1.15.08.06.11.13.11.21Z"/><path class="cls-1" d="M253.58,47.17c0,.11-.06.19-.13.19-.02,0-1.06-.11-2.19-.11-.57,0-1.15.02-1.62.11h-.04c-.08,0-.13-.08-.13-.17s.04-.19.15-.28c1.34-.17,1.34-1,1.34-2.78,0-.62-.04-1.25-.06-2-.04-.93-.04-1.19-.93-1.38-.06-.02-.09-.11-.09-.21s.02-.17.09-.17c.83-.13,1.51-.49,2.13-.79.02-.02.04-.02.08-.02.08,0,.13.1.13.21-.06.45-.15,2.47-.15,4.53v1.1c0,.78.11,1.44,1.3,1.51.08.07.11.19.11.26ZM251.43,36.31c-.59,0-1.06-.49-1.06-1.1s.47-1.06,1.06-1.06,1.06.47,1.06,1.06-.47,1.1-1.06,1.1Z"/><path class="cls-1" d="M263.29,47.15c0,.13-.08.23-.19.23,0,0-1-.1-2.06-.1-.53,0-1.08.02-1.51.1h-.04c-.11,0-.17-.08-.17-.17,0-.11.08-.24.19-.3.09-.02.72-.11.72-.42,0-.28-2.42-3-2.81-3.06h-.06c-.08,0-.17,0-.19.02-.08.06-.09.19-.09.4,0,.34-.02.66-.02.96,0,1.42.02,1.95,1.3,2.1.08.07.11.17.11.26,0,.11-.08.21-.17.21,0,0-1.04-.11-2.13-.11-.53,0-1.1.04-1.53.11h-.04c-.09,0-.17-.08-.17-.19,0-.1.06-.21.17-.28,1.02-.11,1.11-.53,1.15-1.04.11-1.46.15-5.57.15-7.29,0-3.64,0-3.91-1.1-4.21-.08-.02-.13-.13-.13-.23,0-.08.04-.17.15-.17,1-.15,1.79-.62,2.13-.74.04-.02.08-.02.13-.02.08,0,.13.02.13.11v.02c-.11,1.7-.08,5.25-.13,7.12,0,.74-.02,1.36-.02,2.1,0,.28.13.4.28.4.04,0,.08.02.09.02.4,0,2.76-2.02,2.76-2.25,0-.19-.36-.25-.62-.3-.09-.06-.15-.19-.15-.3,0-.08.04-.15.13-.15.02,0,.74.1,1.62.1.49,0,1.02-.04,1.49-.12h.02c.09,0,.15.13.15.27,0,.09-.04.19-.13.23-.47.08-1.15.36-1.83.81-.6.38-1.68,1.29-2.02,1.51-.04.02-.08.06-.08.13,0,.15.64.81,3.19,3.36.34.32.68.55,1.17.62.09.08.13.19.13.26Z"/><path class="cls-1" d="M267.73,47.66c-1.89,0-3.61-1.36-3.61-3.89,0-1.95,1.44-4.08,3.72-4.08,2.1,0,2.61,1.64,2.61,1.98,0,.26-.23.81-1.28.87-.93.04-2.32.06-3.21.06-.4,0-.55.11-.55.83,0,1.72,1.02,3.34,2.85,3.34,1.1,0,1.59-.47,1.85-.72.04-.04.08-.06.13-.06.15,0,.3.19.3.34,0,.17-.79,1.32-2.81,1.32ZM267.54,40.2c-1.57,0-2.02,1.68-2.02,1.93,0,.06.02.09.06.09h.04c.62-.23,1.87-.34,2.85-.43.17-.02.57-.1.57-.42-.02-.44-.47-1.17-1.49-1.17Z"/><path class="cls-1" d="M282.38,47.64c-.55,0-1.02-.25-1.25-1.02-.06-.17-.06-.28-.09-.28-.02,0-.04.02-.06.06-.32.4-1.32,1.32-2.53,1.32s-1.72-.95-1.72-1.59c0-.72.62-1.4,1.34-1.72,1.42-.62,2.38-.77,2.93-1.19.04-.02.09,0,.11-.15,0-.09.02-.43.06-.87,0-.28,0-1.89-1.32-1.89-.64,0-1,.55-1.02.78-.02.36-.04.7-.74,1.02-.11.06-.25.08-.36.08-.26,0-.47-.15-.47-.4,0-.55,1.25-2.08,3.12-2.08,1.36,0,2.12.62,2.12,2.08v.26c-.09,1.12-.17,2.62-.17,3.04,0,.81.32,1.53.74,1.53.28,0,.79-.3.81-.32.02-.02.04-.02.08-.02.11,0,.25.23.25.36,0,0-.53,1-1.81,1ZM281.1,44.07c0-.15-.02-.23-.09-.23s-1.95.83-2.15.94c-.42.25-.53.53-.53.89,0,.25.25,1.21,1.08,1.21.66,0,1.7-1.06,1.7-1.68v-.04c-.02-.13-.02-.26-.02-.4,0-.19,0-.36.02-.53v-.17Z"/><path class="cls-1" d="M298.27,43.51c0,2.15-1.38,4.04-3.78,4.04-.87,0-1.79-.19-2.32-.57-.09-.07-.17-.11-.25-.11-.06,0-.11.04-.21.08-.15.09-.23.15-.43.3-.04.04-.09.06-.13.06-.11,0-.19-.11-.19-.23v-.02c.04-.76.19-5.84.19-8.9,0-3.5-.06-3.53-1.13-3.78-.09-.02-.13-.13-.13-.23,0-.06.02-.13.08-.13.87-.13,1.83-.59,2.23-.78.04-.02.08-.02.11-.02.09,0,.19.06.21.19,0,.78-.08,1.87-.09,2.85-.02,1.4,0,2.51-.06,3.57v.59c0,.06,0,.1.04.1.02,0,.06-.02.09-.04.76-.53,1.38-.76,2.36-.76,2.36,0,3.42,1.89,3.42,3.78ZM294.36,40.35c-1.42,0-2.02.96-2.06,1.45,0,.13-.02.68-.02,1.25s.02,1.11.02,1.27c.08,1.38.64,2.7,2.27,2.7,1.19,0,2.29-.93,2.29-2.89,0-1.53-.62-3.78-2.49-3.78Z"/><path class="cls-1" d="M303.65,47.64c-2.47,0-3.89-1.85-3.89-3.93,0-2.21,1.66-4,3.93-4,2.38,0,3.85,1.79,3.85,4s-1.45,3.93-3.89,3.93ZM303.59,40.14c-1.62,0-2.4,1.55-2.4,3.17,0,.61.15,3.85,2.61,3.85,1.87,0,2.29-1.8,2.29-3.15,0-1.15-.4-3.87-2.49-3.87Z"/><path class="cls-1" d="M317.89,47.19c0,.11-.06.19-.17.19-.02,0-1.17-.1-2.25-.1-.55,0-1.08.02-1.42.1h-.04c-.11,0-.15-.08-.15-.17s.06-.23.15-.3c1.23-.1,1.27-.55,1.27-2.95,0-.51,0-1.25-.02-1.53-.08-1.4-1.02-1.83-1.76-1.83-1.36,0-2.04.91-2.1,1.44-.04.46-.06.81-.06,2.47.02.46,0,1.04.08,1.55.08.57.43.85,1.27.85.08.07.11.17.11.26,0,.11-.06.21-.15.21,0,0-1.11-.08-2.19-.08-.55,0-1.08.02-1.47.08h-.02c-.08,0-.13-.08-.13-.19,0-.1.04-.19.13-.28,1.1-.15,1.11-.32,1.19-2.53v-1.87c0-1.1,0-1.61-.85-1.78-.09-.02-.15-.11-.15-.21s.06-.19.13-.21c.76-.13,1.4-.51,1.83-.72.04-.02.06-.02.08-.02.08,0,.11.08.11.25,0,.21-.02.62-.02.94v.23s.02.08.06.08c.02,0,.04-.02.06-.04,1.02-1.19,1.96-1.3,2.53-1.3,1.4,0,2.53.79,2.59,2.44v2.34c0,1.83.06,2.29,1.23,2.4.09.07.13.19.13.28Z"/><path class="cls-1" d="M320.85,47.59c-.83,0-1.34-.21-1.83-.38-.15-.07-.19-.23-.38-1.61,0-.11.13-.17.26-.17.11,0,.23.04.26.11.25.72.68,1.57,1.62,1.57,1.42,0,1.42-1.3,1.42-1.38,0-.59-.38-1.15-1.02-1.53-1.59-.98-2.08-1.47-2.08-2.59,0-1.4,1.4-1.96,2.42-1.96.72,0,1.47.15,1.62.45.15.4.21,1.17.21,1.19,0,.1-.15.15-.28.15-.06,0-.11-.02-.13-.06-.32-.68-.7-1.32-1.44-1.32-.79,0-1.3.41-1.3,1.21,0,.62.34.87,1,1.27,1.57.94,2.21,1.61,2.21,2.79,0,1.78-1.62,2.25-2.57,2.25Z"/><path class="cls-1" d="M330.41,47.64c-.55,0-1.02-.25-1.25-1.02-.06-.17-.06-.28-.09-.28-.02,0-.04.02-.06.06-.32.4-1.32,1.32-2.53,1.32s-1.72-.95-1.72-1.59c0-.72.62-1.4,1.34-1.72,1.42-.62,2.38-.77,2.93-1.19.04-.02.09,0,.11-.15,0-.09.02-.43.06-.87,0-.28,0-1.89-1.32-1.89-.64,0-1,.55-1.02.78-.02.36-.04.7-.74,1.02-.11.06-.25.08-.36.08-.26,0-.47-.15-.47-.4,0-.55,1.25-2.08,3.12-2.08,1.36,0,2.12.62,2.12,2.08v.26c-.09,1.12-.17,2.62-.17,3.04,0,.81.32,1.53.74,1.53.28,0,.79-.3.81-.32.02-.02.04-.02.08-.02.11,0,.25.23.25.36,0,0-.53,1-1.81,1ZM329.12,44.07c0-.15-.02-.23-.09-.23s-1.95.83-2.15.94c-.42.25-.53.53-.53.89,0,.25.25,1.21,1.08,1.21.66,0,1.7-1.06,1.7-1.68v-.04c-.02-.13-.02-.26-.02-.4,0-.19,0-.36.02-.53v-.17Z"/><path class="cls-1" d="M336.88,47.17c0,.11-.06.19-.13.19-.02,0-1.06-.11-2.19-.11-.57,0-1.15.02-1.62.11h-.04c-.08,0-.13-.08-.13-.17s.04-.19.15-.28c1.34-.17,1.34-1,1.34-2.78,0-.62-.04-1.25-.06-2-.04-.93-.04-1.19-.93-1.38-.06-.02-.09-.11-.09-.21s.02-.17.09-.17c.83-.13,1.51-.49,2.13-.79.02-.02.04-.02.08-.02.08,0,.13.1.13.21-.06.45-.15,2.47-.15,4.53v1.1c0,.78.11,1.44,1.3,1.51.08.07.11.19.11.26ZM334.73,36.31c-.59,0-1.06-.49-1.06-1.1s.47-1.06,1.06-1.06,1.06.47,1.06,1.06-.47,1.1-1.06,1.1Z"/><path class="cls-1" d="M346.16,47.62c-1.19,0-2.02-.7-2.1-1.89-.04-.55-.06-1.21-.06-1.85,0-1.02.04-2.06.08-2.78v-.07c0-.17-.04-.17-.09-.17h-.17c-.25,0-.62.07-.81.09-.11,0-.17-.15-.17-.3,0-.13.04-.28.13-.3.76-.23,1.68-.91,2.02-1.89.06-.17.21-.24.32-.24.15,0,.26.07.26.21,0,.49-.08,1.19-.08,1.3,0,.19.04.27.17.27.11,0,1.55-.1,2.32-.27h.06c.17,0,.19.19.19.32,0,.26-.09.57-.17.57-1.13.02-2.29.15-2.44.15-.23,0-.19.1-.21.21-.06.57-.09,1.49-.09,2.38,0,2.19.09,3.31,1.36,3.31.43,0,.87-.11,1.45-.3h.02c.08,0,.23.19.23.32s-.96.94-2.23.94Z"/><path class="cls-1" d="M354.92,40.22c0,.42-.49.94-.94.94-.09,0-.19-.02-.26-.06-.3-.15-.57-.21-.79-.21-.77,0-1.1.74-1.13,1.21-.02.21-.02.55-.02.91,0,.7.02,1.51.02,1.68,0,1.78.04,2,1.49,2.19.09.08.11.17.11.26,0,.12-.06.21-.15.21-.02,0-1.15-.09-2.29-.09-.57,0-1.13.02-1.57.09h-.02c-.09,0-.17-.08-.17-.19,0-.08.06-.17.15-.26,1.19-.1,1.23-.72,1.23-2.15v-2.29c-.02-.96-.02-1.66-.89-1.85-.08-.02-.11-.09-.11-.17,0-.06.04-.13.11-.15.77-.17,1.55-.61,1.81-.72.11.02.23.11.23.3l-.06.96v.04s0,.08.11.08c.68-.7,1.64-1.25,2.36-1.25.57,0,.77.23.77.51Z"/><path class="cls-1" d="M359.49,47.66c-1.89,0-3.61-1.36-3.61-3.89,0-1.95,1.44-4.08,3.72-4.08,2.1,0,2.61,1.64,2.61,1.98,0,.26-.23.81-1.28.87-.93.04-2.32.06-3.21.06-.4,0-.55.11-.55.83,0,1.72,1.02,3.34,2.85,3.34,1.1,0,1.59-.47,1.85-.72.04-.04.08-.06.13-.06.15,0,.3.19.3.34,0,.17-.79,1.32-2.81,1.32ZM359.3,40.2c-1.57,0-2.02,1.68-2.02,1.93,0,.06.02.09.06.09h.04c.62-.23,1.87-.34,2.85-.43.17-.02.57-.1.57-.42-.02-.44-.47-1.17-1.49-1.17Z"/><path class="cls-1" d="M367.25,47.66c-1.89,0-3.61-1.36-3.61-3.89,0-1.95,1.44-4.08,3.72-4.08,2.1,0,2.61,1.64,2.61,1.98,0,.26-.23.81-1.28.87-.93.04-2.32.06-3.21.06-.4,0-.55.11-.55.83,0,1.72,1.02,3.34,2.85,3.34,1.1,0,1.59-.47,1.85-.72.04-.04.08-.06.13-.06.15,0,.3.19.3.34,0,.17-.79,1.32-2.81,1.32ZM367.06,40.2c-1.57,0-2.02,1.68-2.02,1.93,0,.06.02.09.06.09h.04c.62-.23,1.87-.34,2.85-.43.17-.02.57-.1.57-.42-.02-.44-.47-1.17-1.49-1.17Z"/><path class="cls-1" d="M373.03,47.55c-.59,0-1.06-.47-1.06-1.06s.47-1.04,1.04-1.04,1.06.47,1.06,1.04-.47,1.06-1.04,1.06Z"/><path class="cls-1" d="M118.03,7.95c0,.16-.11.29-.5.29h-4.31c-.79,1.06-1.56,1.99-2.33,2.79h3.2c.09,0,.18,0,.27-.13.09-.16.16-.23.27-.32.02-.02.11-.07.2-.07.14,0,1.43.61,1.43,1.07,0,.25-.34.38-.45.47-.36.27-.39.29-.39,1.63s.07,3.13.14,4.78v.05c0,.47-.36.77-.7.77-.23,0-.45-.18-.45-.59v-.66h-4.03c0,.38.02.82.02,1.27,0,.41-.36.68-.7.68-.25,0-.45-.16-.45-.55v-.07c.09-1.31.11-2.56.11-3.62s-.02-1.95-.02-2.52c0-.05,0-.34-.02-.72-2.18,1.79-3.97,2.43-4.03,2.43s-.11-.02-.11-.07c0-.09.16-.27.34-.38,1.25-.73,2.49-1.59,3.76-2.79-.05-.52-.09-1.02-.16-1.38,0-.07-.02-.11-.02-.14,0-.07.02-.09.05-.09.18,0,.75.32,1.16.57.63-.68,1.25-1.47,1.9-2.4h-1.22c-1.2,0-1.95,0-4.12.18h-.02c-.39,0-1.02-.79-1.02-1.04,2.11.2,3.63.27,4.8.29v-3.06c-.63,0-1.22.07-2.72.2h-.02c-.41,0-.93-.84-.93-1.09,1.65.18,2.74.27,3.67.29,0-1.29,0-2.38-.2-3.22,0-.04-.02-.09-.02-.11,0-.07.02-.09.07-.09.14,0,2.18.25,2.18.7,0,.14-.18.29-.39.41-.43.27-.45.27-.5.86-.02.34-.07.86-.07,1.47h.36s.18-.07.23-.18c.2-.41.59-1.02.77-1.02.05,0,.09.02.11.02.95.47,1.34,1.2,1.34,1.43,0,.16-.11.32-.41.32h-2.4v3.06h.91c.86-1.29,1.75-2.81,2.67-4.64.39-.77.5-1.31.61-1.88.02-.07.02-.11.09-.11.02,0,.07,0,.11.02,1.47.63,1.79.79,1.79,1.18,0,.13-.09.25-.41.25h-.05c-.16,0-.25-.02-.32-.02-.14,0-.2.09-.5.59-1.02,1.77-1.99,3.31-2.95,4.62h1.31s.2-.07.27-.18c.16-.27.7-1.04.95-1.04.63,0,1.86,1.2,1.86,1.49ZM114.38,11.96v-.07c0-.07,0-.23-.09-.23h-3.49l-.09.07c-.34.27-.34.38-.34,1.06v1.22h4.08c0-.86-.02-1.59-.07-2.06ZM110.37,14.62v2.83h4.03c0-1.02.05-1.99.05-2.83h-4.08ZM122.72,17.63h-.07c-.11,0-.18,0-.29-.13-.36-.48-1.77-1.43-1.77-1.61t.05-.02s.11,0,.23.04c.54.18,1.09.29,1.59.29.75,0,2.04-.27,2.04-2.72,0-1.59-.84-2.52-1.61-3.69-.43-.66-.68-1.04-.68-1.61,0-.27.07-.61.2-1.06.93-2.99,1.2-3.96,1.2-4.03,0-.11-.09-.16-.23-.16h-3.01l-.11.09c-.25.18-.29.32-.29,1.31,0,4.26-.05,7.77-.05,11.51,0,1.25.02,2.51.02,3.85,0,.45-.45.77-.82.77-.27,0-.5-.16-.5-.59v-.07c.14-2.49.18-5.71.18-8.93,0-2.02,0-4.03-.05-5.82,0-.45-.11-2.65-.29-3.44-.02-.07-.02-.11-.02-.16s.02-.07.04-.07,1.13.32,1.97.86l.09.07h2.86c.11,0,.23-.05.34-.14.16-.14.25-.25.32-.29.07-.07.14-.09.23-.09.39,0,1.65.79,1.65,1.11,0,.23-.25.43-.59.57-.18.07-.29.09-.57.52-.48.72-2.06,3.47-2.06,4.26,0,.38.23.68.66,1.16.97,1.02,2.38,2.4,2.38,4.58s-1.43,3.65-3.04,3.65Z"/><path class="cls-1" d="M137.82,4.94c-1.27,0-3.99.04-6.05.25h-.02c-.43,0-1.04-.88-1.04-1.18,2.36.29,5.91.36,7.23.36h2.15v-.75c0-1.11-.02-2.33-.23-3.13-.02-.09-.05-.13-.05-.16,0-.02.02-.04.05-.04.11,0,2.33.27,2.33.79,0,.11-.09.25-.25.36-.66.47-.68.18-.77,1.38-.02.34-.05,1.07-.05,1.54h5.67c.16,0,.34-.09.41-.2.84-1.18.97-1.36,1.2-1.36.66,0,2.11,1.52,2.11,1.88,0,.13-.11.25-.5.25h-12.19ZM146.27,9.52c0-.25-.14-.27-.23-.27h-5.01c0,3.31,0,8.5.07,10.56v.02c0,.45-.39.79-.73.79-.25,0-.48-.2-.48-.68v-.02c.04-2.24.14-7.71.16-10.67h-4.26l-.11.07c-.54.25-.45.09-.52,1.02-.02.39-.05,1.27-.05,7.43,0,.38-.39.66-.73.66-.25,0-.45-.13-.45-.52v-.07c.07-1.31.14-4.71.14-6.64,0-2.08-.09-2.51-.2-3.22,0-.04-.02-.09-.02-.14s.02-.07.07-.07c.11,0,1.09.34,1.79.82l.07.04h4.28v-.84c0-1.7-.07-2.18-.16-2.49-.02-.07-.02-.11-.02-.16s0-.05.05-.05c.07,0,2.02.29,2.02.66,0,.16-.25.29-.32.36-.5.34-.59.09-.59,1.09v1.43h4.87c.11,0,.2-.02.29-.16.23-.36.25-.38.41-.38.11,0,1.74.68,1.74,1.11,0,.14-.11.23-.29.34-.59.34-.68.11-.73,1v.5c0,1,.02,3.08.02,3.85,0,.39.02.75.02,1.13-.07,1.65-1.65,2.22-2.29,2.22-.18,0-.23-.05-.36-.23-.29-.41-2.56-1.34-2.56-1.49h.07c.07,0,.18,0,.36.04.97.2,1.68.29,2.22.29,1.27,0,1.43-.54,1.45-1.22v-6.12Z"/><path class="cls-1" d="M164.69,6.87c0,5.39-4.19,10.08-5.96,10.08-1.04,0-1.36-1.4-2.33-2.76-.36-.5-.52-1.22-.52-2.04,0-3.42,2.99-8.86,9.06-8.86,5.12,0,7.68,3.56,7.68,7.23,0,7-8,8.84-9.59,8.84-.2,0-.32-.04-.32-.09,0-.11.36-.29.95-.47,6.44-1.81,7.73-5.69,7.73-8.38,0-3.31-2.2-6.41-6.68-6.46-.29,0-.59.04-.88.07.57.32.86,1.43.86,2.85ZM156.87,11.78c0,1.9,1.11,3.56,2.11,3.56,1.38,0,5.03-4.55,5.03-9.04,0-1.77-.41-2.11-.91-2.11-.18,0-.36.05-.63.11-3.26,1.02-5.6,4.51-5.6,7.48Z"/><path class="cls-1" d="M181.21,13.51c0,.16-.18.32-.57.41-.36.07-.39.18-.5.5-1.18,3.29-2.47,5.01-2.72,5.01-.02,0-.02-.02-.02-.07,0-.07.02-.16.09-.32.79-1.56,1.54-4.85,1.54-6.3,0-.23.05-.23.05-.23.25,0,2.13.55,2.13,1ZM186.24,10.61c0,.5-.34.86-.68.86-.29,0-.59-.25-.68-.86-.05-.23-.11-.45-.18-.66l-1.54.38c.11.07.16.14.16.2,0,.09-.07.2-.25.3-.29.16-.27.11-.29.93-.02.41-.02,1.07-.02,1.86,0,1.77.02,4.17.05,5.98,0,.47-.39.79-.7.79-.25,0-.45-.18-.45-.59v-.11c.18-2.22.23-4.89.23-7.79,0-.48-.02-.93-.05-1.27-1.04.23-1.99.41-2.47.5-.25.04-.41.27-.57.27-.25,0-.95-1.31-.95-1.52,0-.02,0-.04.04-.04s.09.02.16.02c.52.04,1.16.07,1.61.07h.48c1.5-2.11,3.6-5.23,3.85-6.8.02-.18.02-.23.07-.23.11,0,1.81.7,1.81,1.06,0,.16-.18.32-.63.36-.23.02-.34.16-.5.36-1.29,1.74-3.06,4.08-4.15,5.21,1.29-.07,2.86-.2,3.97-.34-.25-.57-.57-1.02-.82-1.4-.09-.14-.11-.2-.11-.27,0-.02.02-.04.05-.04.29,0,2.58,1.5,2.58,2.77ZM183.43,1.09c0,.16-.18.29-.59.36-.27.04-.36.11-.5.36-.48.91-1.38,2.31-2.04,3.17,1.25.59,1.27,1.29,1.27,1.45,0,.43-.27.72-.59.72-.25,0-.52-.16-.75-.57-.52-.95-1.27-1.43-1.81-1.88-.14-.11-.2-.18-.2-.23s.05-.07.14-.07.75.05,1.61.41c.84-2.02,1.45-3.65,1.45-4.49V.09c0-.07,0-.09.05-.09.14,0,1.97.7,1.97,1.09ZM186.11,15.21c0,.47-.32.81-.66.81-.25,0-.54-.2-.7-.72-.34-1.06-.75-2.04-1.31-2.81-.09-.14-.14-.21-.14-.25t.02-.02s1.95.73,2.67,2.47c.07.18.11.36.11.52ZM198.82,17.74c0,.16-1.47.11-2.13.52-.05.02-.09.04-.16.04-.27,0-3.58-3.31-4.42-9.9-.18.14-.18.73-.18,1.09,0,1.27.11,6.75.14,7.07.02.34.14,1.06.14,1.5v.04c0,1.79-2.11,2.11-2.11,2.11-.16,0-.25-.07-.32-.18-.25-.38-2.33-1.29-2.33-1.43,0-.02.02-.02.07-.02s.16,0,.32.05c.82.18,1.56.32,2.13.32.77,0,1.25-.23,1.27-.88,0-.23-.02-2.56-.05-4.78-1.7,1.99-3.42,3.35-4.31,4.15-.18.16-.16.34-.32.34-.27,0-1.18-.68-1.34-.88,0-.02-.02-.04-.02-.07,0-.02.02-.05.02-.05,1.45-.38,5.39-3.31,5.91-3.69l.05-.02c-.02-1.95-.07-3.74-.07-3.83-.02-.43-.02-.93-.09-1.4h-1.77c-1.06,0-2.29.07-3.38.18h-.02c-.34,0-.79-.68-.79-.97v-.02c1.38.18,3.17.27,4.28.27h3.87l.11-2.45h-.77c-1.54,0-1.47.02-4.08.18h-.02c-.43,0-1.09-.77-1.09-1.04,3.06.29,3.44.29,5.14.29h.84c.02-.77.05-1.45.05-1.83,0-.34-.07-.5-.23-.5h-1.04c-1.77,0-2.65.02-4.33.18h-.04c-.41,0-1-.7-1-.95,1.34.13,2.15.2,5.35.2h.82c.18,0,.23-.07.25-.09.11-.14.2-.34.34-.45.05-.04.11-.09.23-.09.23,0,1.27.82,1.36.93.07.11.09.2.09.3,0,.27-.27.41-.43.52-.43.3-.36.18-.43.84-.02.36-.04,2.92-.07,3.96h.93s.23-.09.29-.2c.54-.77.7-.79.86-.79.04,0,.11.02.16.02.88.32,1.47,1.02,1.47,1.22,0,.16-.11.29-.5.29h-5.03c.07.04.09.11.09.16,0,.11-.09.23-.25.32.36,1.43.82,2.81,1.4,4.06,1.72-1.52,1.95-2.29,1.99-2.58.02-.05.02-.07.07-.07.25,0,1.68.95,1.68,1.43,0,.16-.16.27-.52.27-.07,0-.14-.02-.23-.02-.07,0-.16-.02-.23-.02-.16,0-.29.04-.45.11l-2.18,1.13c1.13,2.31,2.7,4.17,4.76,4.98.16.07.23.11.23.16ZM189.78,11.94c0,.41-.25.77-.57.77-.2,0-.45-.16-.66-.52-.3-.52-1.22-1.36-1.81-1.79-.18-.13-.29-.2-.29-.23,0-.02.02-.02.09-.02.77,0,3.24.43,3.24,1.79Z"/><path class="cls-1" d="M203.67,14.64c0-2.49.77-4.46,1.13-6.14.18-.88.43-1.68.43-2.52,0-.88-.25-1.81-1.09-2.97-.14-.18-.29-.32-.29-.38,0-.09.23-.09.25-.09.79,0,2.45,2.11,2.45,3.62,0,.86-.5,1.47-.95,2.76-.52,1.5-1.13,3.17-1.13,4.76,0,.34.07,1.5.29,1.5.07,0,.16-.13.29-.45.57-1.36,1.93-4.3,2.29-4.3.05,0,.09.04.09.13,0,.05-.02.14-.07.23-.97,1.97-1.95,4.92-1.95,6.48,0,.41.04.79.18,1.13.09.2.11.38.11.54,0,.36-.18.59-.45.59-.82,0-1.59-2.27-1.59-4.89ZM215.57,7.14c0-.45.02-.88.02-1.31v-.32c0-1.99-.2-1.99-.66-2.17-.39-.14-.63-.21-.63-.34,0-.09.36-.63.86-.63.41,0,1.56.72,1.56,1.59,0,.13-.02.25-.04.38.45.2,1.2.57,1.43.63.29.11.77.2.93.25.2.07.41.32.41.61,0,1.22-2.65,1.93-3.04,2.02,0,.5-.02,1-.02,1.47,0,1.59.05,2.97.09,3.67.02.66.09,1.38.09,2.04,2.13.68,3.56,2.08,3.56,2.81,0,.38-.2.72-.5.72-.18,0-.41-.14-.63-.52-.59-1-1.61-1.74-2.47-2.18-.23,1.84-1.75,3.29-3.47,3.29-1.63,0-3.01-1.27-3.01-2.29,0-1.2,1.61-2.22,3.92-2.22.54,0,1.11.04,1.65.16.02-.43.02-.84.02-1.22-.02-1.02-.07-3.29-.07-5.53-.82.13-1.13.13-1.2.13-2.63,0-3.63-1.79-3.63-1.93,0-.04.02-.07.09-.07.09,0,.25.05.5.14.36.14,1.13.5,1.59.66.45.16,1.02.27,1.63.27.18,0,.34,0,.52-.02l.5-.09ZM213.76,15.34c-1.43,0-3.01.48-3.01,1.52,0,.72,1.09,1.29,2.06,1.29,1.34,0,2.45-1.09,2.72-2.58-.63-.16-1.22-.23-1.77-.23ZM216.59,5.01c-.07.63-.14,1.29-.16,1.95,1.61-.43,1.77-.86,1.77-1,0-.29-.2-.45-1.54-1.43l-.07.48Z"/><path class="cls-1" d="M237.44,5.64c.29,0,.32-.14.43-.23q.43-.38.48-.38c.29,0,1.34.95,1.34,1.22,0,.16-.11.32-.45.41-.36.11-.32.25-.43,1-.43,2.67-1.79,4.35-3.72,4.35-.57,0-.61,0-.68-.2-.11-.34-2.36-1.5-2.76-1.81-2.74,2.7-7.05,3.06-7.14,3.06-.14,0-.2-.02-.2-.07,0-.07.25-.21.68-.32,3.9-.93,6-2.56,7.36-5.14.27-.52.41-.97.48-1.27-.93.05-2.02.11-3.06.21h-.02c-.27,0-.66-.36-.86-.7-1.65,1.4-4.4,3.01-4.8,3.01-.07,0-.09-.02-.09-.07s.11-.16.36-.32c1.75-1.04,5.46-4.46,5.64-5.87.02-.11-.02-.25.09-.25.09,0,1.74.63,1.74,1.02,0,.14-.18.29-.63.39-.32.07-.32,0-.61.36-.41.5-.88.97-1.36,1.41,1.95.13,4.44.2,5.6.2h2.63ZM232.18,19.6c-1.27,0-4.35.04-6.39.25h-.02c-.43,0-1.09-.88-1.09-1.18,1.11.13,2.58.23,3.97.27.02-.54.02-.95.02-1.29,0-.7-.02-1.16-.02-1.79,0-.2-.11-2.11-.32-2.99-.02-.07-.02-.11-.02-.16s.02-.07.05-.07c.14,0,1.34.5,1.93.88h8.45c.14,0,.2-.04.29-.13.45-.45.57-.52.68-.52.14,0,1.68.84,1.68,1.29,0,.3-.36.43-.61.55-.41.2-.43.68-.43,1.79,0,.66.05,1.27.09,2.54h.84c.16,0,.32-.09.39-.2.36-.57.84-1.2,1.09-1.2.41,0,1.84,1.31,1.84,1.7,0,.14-.11.27-.52.27h-11.87ZM232.18,15.45c0-.88-.02-1.11-.05-1.34h-1.72c-.7.48-.73.48-.73,2.24,0,.59.02,1.25.02,2.63.97.02,1.84.04,2.38.04.02-1.18.09-2.06.09-2.85v-.73ZM235.29,1.72c-.68,0-2.52.04-3.81.23h-.02c-.34,0-1.06-.84-1.06-1.13,1.65.27,4.17.32,4.85.32h1.2c.11,0,.27-.09.34-.23.2-.36.39-.63.54-.63.09,0,1.45.66,1.45,1.16,0,.23-.27.34-.57.43-.45.16-.61.32-.61.48,0,.14.16.27.27.38,1.43,1.43,3.83,3.45,7.11,3.58.14,0,.2.02.2.07,0,.14-1.52.59-2.02,1.16-.05.04-.11.07-.18.07-.61,0-4.28-2.29-5.96-5.46-.14-.25-.14-.41-.39-.41h-1.36ZM234.15,6.19c.11.05.32.14.32.27,0,.11-.14.25-.45.34-.25.07-.27.09-.57.68-.48.95-1.04,1.74-1.75,2.45h.02c1.54.36,2.61.81,3.47.81,2.08,0,2.63-3.22,2.63-4.19,0-.32-.07-.36-.32-.36h-3.35ZM235.65,19.03c.02-1.18.09-2.06.09-2.85v-.73c0-.88-.02-1.11-.05-1.34h-1.99c.09.04.14.14.14.2,0,.16-.14.32-.41.41-.16.04-.23.07-.23,3.6v.7h2.45ZM239.3,19.03c.02-1.15.05-1.95.05-2.67s-.02-1.31-.05-2.04c0-.09-.09-.2-.16-.2h-1.88c.09.04.14.14.14.2,0,.16-.14.32-.41.41-.16.04-.23.07-.23,3.6v.7h2.54Z"/><path class="cls-1" d="M255.57,18.17c0,.36-.34.66-.7.66-.27,0-.5-.18-.5-.63v-.04l.18-4.71c-1.84,2.24-5.39,3.62-5.96,3.62-.09,0-.14-.02-.14-.04,0-.07.11-.16.41-.27,1.31-.52,3.67-2.09,5.37-4.26.11-.16.23-.34.34-.55,0-.09.02-.18.02-.27-1.13,0-2.29,0-3.94.16h-.02c-.34,0-.91-.81-.91-1.04,1.88.25,3.58.32,4.85.32v-.25c-.02-.72,0-1.43-.2-2.11-.02-.04-.02-.09-.02-.11,0-.04.02-.04.07-.04.11,0,2.2.23,2.2.7,0,.13-.16.29-.36.41-.59.32-.63.09-.68,1,0,.14-.02.27-.02.41h1.38s.23-.18.32-.27c.18-.21.43-.59.66-.79.05-.05.11-.07.18-.07.43,0,1.77,1.04,1.77,1.43,0,.13-.14.27-.54.27h-3.81c-.02.45-.02.93-.02,1.43h.11c1.86.04,3.26.68,3.26,1.61,0,.32-.2.57-.5.57-.23,0-.45-.11-.7-.41-.72-.91-1.54-1.2-2.15-1.63h-.02c0,1.52.05,3.17.09,4.89v.05ZM261.91,7.8c.16,1.86.48,3.83,1.06,5.55.61-.91,1.16-1.95,1.59-3.08.14-.39.2-1.13.29-1.5.02-.05,0-.07.05-.07.02,0,.05,0,.09.02,1.81.91,1.86.97,1.86,1.2,0,.16-.18.34-.73.45-.45.09-.36,0-.52.41-.59,1.41-1.31,2.65-2.18,3.72,1.47,3.22,3.49,3.56,3.49,3.56.73,0,1.38-1.47,2.24-4.26.07-.23.11-.34.16-.36.02,0,.05.09.05.23,0,.77-.29,3.15-.29,4.17,0,.25,0,.41.05.45.2.29.29.57.29.79,0,.52-.48.84-1.11.84-.79,0-3.72-.57-5.57-4.58-3.97,4.33-10.04,4.94-10.26,4.94-.18,0-.29-.07-.29-.14,0-.05.07-.11.27-.16,3.35-.79,7.16-2.47,9.83-5.73-.79-2.13-1.13-4.46-1.29-6.46h-3.51c-1.2,0-5.21.04-7.21.25h-.02c-.39,0-1-.86-1-1.18v-.02c1.36.16,3.58.27,5.44.32,0-.61-.02-1.99-.02-2.79-.91.02-1.95.04-3.31.18h-.02c-.38,0-.88-.79-.88-1.04,1.59.2,3.08.29,4.21.32v-.04c0-.95-.07-2.33-.18-3.22v-.13q0-.07.07-.07c.75,0,2.02.38,2.02.68,0,.13-.14.29-.39.43-.57.34-.57.43-.57,2.36h1.2s.23-.07.29-.18c.48-.82.73-1.09.95-1.09.54,0,1.79,1.13,1.79,1.54,0,.14-.11.27-.5.27h-3.74v2.81c.86.02,1.56.05,1.95.05h3.38c-.11-1.47-.11-2.67-.14-3.33,0-.39-.05-2.54-.25-3.38-.02-.07-.02-.11-.02-.14,0,0,0-.02.18-.02.09,0,2.04.11,2.04.63,0,.16-.14.34-.39.5-.5.32-.43.34-.5,1.31-.05.63-.07,1.36-.07,2.15,0,.72.02,1.5.07,2.27h3.44c.14,0,.32-.07.39-.18.95-1.29,1.02-1.34,1.18-1.34.05,0,.09.02.14.02.75.27,1.9,1.52,1.9,1.77,0,.14-.11.3-.5.3h-6.5ZM264.99,4.49c-.48-.63-1.34-1.31-2.08-1.65-.09-.05-.14-.07-.14-.09,0-.07.34-.11.7-.11,1.97,0,2.9.84,2.9,1.59,0,.43-.27.75-.63.75-.23,0-.5-.14-.75-.48Z"/></g></svg>