<?xml version="1.0" encoding="UTF-8"?><svg id="_圖層_2" xmlns="http://www.w3.org/2000/svg" viewBox="0 0 257.73 60.83"><defs><style>.cls-1{fill:#fff;}</style></defs><g id="_圖層_1-2"><path class="cls-1" d="M58.84,0l-29.42,16.99L0,0v2.47l28.84,16.65s.05.03.08.05l5.03,2.91s.06.04.09.05l10.2,5.89h0s.03.02.05.03c0,0,0,0,.01,0,.01,0,.02.01.04.02,0,0,.02,0,.03.01t0,0c.13.05.26.08.4.08h0c.13,0,.27-.02.4-.08,0,0,0,0,0,0,0,0,.02,0,.03-.01.01,0,.02-.01.04-.02,0,0,0,0,.02,0,.02-.01.03-.02.05-.03h0l13.52-7.81v-2.47l-14.05,8.12-2.98-1.72,17.04-9.84v-2.47l-19.18,11.07-2.98-1.72,22.16-12.8v-2.47l-24.3,14.03-2.99-1.72L58.84,2.47V0Z"/><path class="cls-1" d="M38.59,55.54l2.14-1.23v-24.29s0-.04,0-.06c0-.02,0-.03,0-.05,0-.02,0-.03,0-.05,0-.02,0-.04-.01-.06,0-.01,0-.03,0-.04,0-.02-.01-.04-.02-.06,0-.01,0-.03-.02-.04,0-.02-.01-.04-.02-.05,0-.01-.02-.03-.02-.04,0-.02-.02-.03-.03-.05,0-.02-.02-.03-.03-.04,0-.01-.02-.03-.02-.04-.01-.02-.02-.03-.04-.05,0-.01-.02-.02-.03-.03-.01-.02-.02-.03-.04-.05,0-.01-.02-.02-.03-.03-.01-.01-.03-.03-.04-.04-.02-.01-.03-.02-.04-.03-.02-.01-.03-.02-.04-.03-.02-.01-.04-.02-.05-.03-.01,0-.02-.01-.03-.02L0,5.91v2.47l38.59,22.28v24.88Z"/><path class="cls-1" d="M33.47,58.49l2.14-1.23v-24.28s0-.04,0-.06c0-.02,0-.03,0-.05,0-.02,0-.04,0-.05,0-.02,0-.04-.01-.06,0-.02,0-.03,0-.04,0-.02-.01-.04-.02-.06,0-.02,0-.03-.02-.04,0-.02-.01-.04-.02-.05,0-.01-.02-.03-.02-.04,0-.01-.02-.03-.02-.04,0-.02-.02-.03-.03-.05,0-.01-.02-.03-.02-.04-.01-.02-.02-.03-.04-.05,0-.01-.02-.02-.02-.03-.02-.02-.03-.03-.04-.05,0-.01-.02-.02-.03-.03-.02-.01-.03-.03-.04-.04-.01-.01-.03-.02-.04-.03-.01-.01-.03-.02-.04-.03-.02-.01-.04-.02-.05-.03,0,0-.02-.01-.03-.02L0,11.83v2.47l33.47,19.33v24.87Z"/><path class="cls-1" d="M18.11,54.29l2.14,1.23v-23.63l2.98,1.72v23.63l2.14,1.23v-23.63l2.98,1.72v23.63l1.08.62,1.05-.61v-24.29s0-.04,0-.06c0-.02,0-.03,0-.05,0-.02,0-.04,0-.05,0-.02,0-.04-.01-.06,0-.01,0-.03-.01-.04,0-.02-.01-.04-.02-.06,0-.01,0-.03-.01-.04,0-.02-.01-.04-.02-.05,0-.02-.01-.03-.02-.04,0-.02-.02-.03-.03-.04-.01-.02-.02-.03-.03-.05,0-.01-.02-.02-.03-.04-.01-.02-.02-.03-.04-.05,0-.01-.02-.02-.02-.03-.01-.02-.03-.03-.04-.04,0-.01-.02-.02-.03-.03-.02-.01-.03-.02-.04-.04-.01-.01-.03-.02-.04-.03-.01-.01-.03-.02-.04-.03-.02-.01-.03-.02-.05-.03,0,0-.02-.01-.03-.02L0,17.74v2.47l18.11,10.45v23.63Z"/><path class="cls-1" d="M120.22,40.34h-6.88c0,1.32.09,7.05.09,8.24,0,1.87,0,2.34-.72,3.02-.55.51-1.61.93-2.42.93-2.25,0-2.25-1.36-2.25-2.8s.08-8.07.13-9.38h-.89c-1.95,0-2.97,0-4.59.3l-.72-1.57c1.78.25,3.61.25,5.39.25h.81v-7.13c-2,0-3.14.04-4.59.3l-.68-1.57c1.4.13,2.89.25,5.27.25v-6.67h-.89c-.93,0-1.87.04-2.8.09-.09.17-.17.3-.64.3h-4.46v.76l.09,5.14c.04,2.59-2.85,2.63-2.93,2.63-.89,0-1.78-.47-1.78-1.32v-.42h-3.82c-.55,1.74-1.1,3.31-2.21,5.35l2.68.93h3.4l1.32-1.91c.25-.38.34-.47.55-.47.17,0,.3.04.64.3l3.61,2.51c.17.13.38.38.38.68,0,.47-.17.59-1.53,1.74,0,.85.04,7.98,0,8.15-.25,1.32-1.27,2.04-3.14,2.04s-1.78-.72-1.74-1.57h-3.91c.04.3.09.55.09.89,0,2.34-2.63,2.34-2.93,2.34-1.27,0-1.91-.64-1.91-1.91,0-.21.21-4.97.21-5.52,0-.76,0-4.03.04-4.71-1.95,2.55-3.61,4.03-4.67,4.97h-.34c1.27-2.04,4.08-6.54,5.39-13.8-2.04,0-2.76.08-3.65.3l-.72-1.57c1.32.17,2.21.25,4.54.25.3-1.66.51-3.69.68-5.78h-.98c-2.59,0-3.52.13-4.59.3l-.68-1.57c2.51.25,5.31.25,6.28.25.13-1.87.13-4.46.13-5.65-2.8,0-3.23.04-4.5.3l-.68-1.57c2.51.21,5.18.25,6.03.25h5.48l1.61-2.25c.08-.17.3-.38.51-.38.25,0,.51.21.72.38l3.31,2.63c.3.25.42.34.42.51,0,.47-.81,1.15-1.4,1.66v4.12h.3l1.15-2.04c.13-.25.34-.55.64-.55.34,0,.59.25.76.47l1.49,1.61c1.36.09,4.12.13,4.33.13h3.01c.85-2.68,2-8.37,2.04-9.89l6.03,2.68c.3.13.81.42.81.72,0,.55-.98.68-1.36.72-1.7,2-5.44,5.14-6.28,5.78h2.76l1.19-2.38c.08-.17.38-.51.64-.51s.64.3.81.42l2.51,2.38c.25.25.42.42.42.68,0,.38-.38.42-.64.42h-6.62v6.67h.09l1.49-2.8c.13-.25.38-.51.64-.51s.68.34.76.42l3.31,2.8s.38.34.38.64c0,.38-.34.47-.64.47h-6.03v7.13h.81l1.66-3.23c.21-.42.42-.55.59-.55.25,0,.59.3.76.47l3.27,3.18c.42.42.42.51.42.68,0,.38-.34.47-.64.47ZM94.91,38.98h-3.99v9.43h3.99v-9.43ZM94.74,24.88h-2.34c-.47,3.23-.93,4.93-1.19,5.78h3.52v-5.78ZM94.74,18.22h-1.87c-.08,3.27-.25,4.8-.34,5.65h2.21v-5.65ZM107.65,22.17c-1.36,0-1.61-.72-2.34-3.06-.68-2.29-1.66-3.61-2.29-4.54v-.34c3.91.72,7.35,2.17,7.35,5.22,0,1.95-1.61,2.72-2.72,2.72Z"/><path class="cls-1" d="M164.09,50.4c-1.49,1.1-3.86,1.4-12.7,1.4-3.14,0-13.33,0-15.84-.42-4.97-.89-4.97-4.67-4.97-6.2,0-1.32,0-14.74-.13-17.16-.04-1.1-.17-1.66-.3-2.25l5.69,2h21.11l1.23-1.87c.34-.51.42-.59.68-.59.21,0,.3.04.98.51l3.35,2.34c.34.25.68.47.68.85,0,.55-.68.98-1.91,1.78,0,.98.13,5.35.13,6.24,0,1.57,0,3.69-3.06,3.69-2.04,0-2.04-1.02-2.04-1.66,0-.09.04-.81.08-.89h-21.36c0,1.02,0,6.67.13,7.18.3,1.1,1.27,1.4,1.91,1.53.68.17,12.02.17,13.84.17,1.53,0,7.52,0,8.58-.59,1.1-.64,2.12-4.71,2.55-6.41h.34c.13,1.15.51,4.93.98,5.52.17.21,1.23.81,1.44.93.25.17.3.47.3.68,0,1.02-.59,2.42-1.7,3.23ZM159.25,18.9c.04.68.17,3.4.17,3.91,0,.68-.04,1.27-.81,1.83-.81.55-2.08.81-2.84.81-.89,0-1.4-.3-1.4-.93,0-.34.13-.81.21-1.02h-16.09c-.09,2.42-3.31,2.42-3.52,2.42-.89,0-1.66-.3-1.66-1.4,0-.42.08-2.25.08-2.63,0-2.55-.08-5.22-.55-7.73l5.78,1.78h15.88l.98-1.53c.21-.34.42-.64.72-.64s.55.21.85.38l3.57,2.29c.3.17.55.38.55.64,0,.51-1.19,1.32-1.91,1.83ZM143.96,28.79h-8.24v8.37h8.24v-8.37ZM154.62,16.94h-16.14v5.52h16.14v-5.52ZM157.13,28.79h-8.54v8.37h8.54v-8.37Z"/><path class="cls-1" d="M208.64,51.81c-1.27.13-3.06.25-6.2.25-9.43,0-16.73-1.57-21.66-5.82-1.4,1.66-3.74,3.91-7.69,6.58l-.25-.34c2.21-2.25,3.99-4.67,5.73-8.62-3.1-3.95-3.57-8.54-3.74-10.19l.34-.17c1.74,3.65,2.85,5.39,4.54,7.09.3-.98,1.32-4.76,2.04-10.23h-2.08c-.64,1.44-.93,2.21-2.89,2.21-1.15,0-2.63-.55-2.63-1.78,0-.38.17-.85.3-1.1,1.19-2.63,2.8-6.37,3.99-10.87h-1.53c-1.1,0-2.12.09-3.14.3l-.68-1.57c1.15.13,2.21.25,3.99.25h1.36l1.19-1.53c.34-.42.42-.59.72-.59.34,0,.59.21.81.38l3.1,2.46c.13.08.64.47.64.85,0,.42-.3.72-1.61,1.23-.89,2.8-2.51,7.18-3.18,8.75h1.44l1.15-1.78c.21-.34.38-.59.72-.59.25,0,.47.21.76.47l3.52,3.06c.17.17.55.55.55.89,0,.25-.09.59-1.49,1.23-.42,2.46-1.7,6.96-3.78,10.57,2.04,1.19,5.14,3.02,16.18,3.02,3.82,0,7.98-.38,11.98-.72l.25.3c-2.25,2.42-2.76,2.97-2.76,6.03ZM211.44,24.25h-5.14c0,.68.08,3.86.08,4.59,0,.85-.13,1.19-.55,1.53.25.13.42.25.55.38l3.1,2.85c.21.21.42.38.42.68,0,.42-.42.42-.64.42h-10.32v4.59h4.93l1.78-2.93c.13-.21.34-.51.64-.51.25,0,.47.21.81.47l3.44,2.85c.17.13.38.38.38.68,0,.42-.38.47-.64.47h-11.34c0,3.65,0,5.1-3.27,5.1-1.61,0-2.04-.89-2.04-2.04v-3.06h-1.66c-2.93,0-3.78.13-4.59.25l-.98-1.53c2,.17,4.03.25,6.03.25h1.19c0-2.04.04-3.52.04-4.59h-1.02c-2.93,0-3.78.17-4.59.3l-.68-1.57c2.68.25,5.39.25,6.28.25v-4.29c-3.1,0-3.91.13-5.01.3l-.72-1.57c2.51.25,4.54.25,5.73.25,0-1.02-.04-3.19-.04-4.12h-3.65c-2.97,0-3.78.17-4.59.3l-.72-1.57c2.04.17,4.03.25,6.07.25h2.85c0-1.15-.04-3.23-.04-4.03-3.1,0-3.86.08-5.01.3l-.68-1.57c2.46.21,4.54.25,5.69.25-.04-1.87-.38-4.16-.51-4.88l6.11,1.06c.59.09.93.13.93.59,0,.51-.55.85-1.15,1.15v2.08h2.68l1.23-2.12c.17-.25.34-.42.64-.42.21,0,.47.17.76.34l3.19,2.04c.3.21.64.47.64.81,0,.72-1.06,1.32-1.78,1.78v2.63h.64l1.23-2.46c.08-.17.34-.55.59-.55.21,0,.55.21.76.47l2.17,2.46c.25.3.42.47.42.64,0,.47-.42.47-.68.47ZM201.88,19.19h-2.93v4.03h2.93v-4.03ZM201.88,24.25h-2.93v4.12h2.93v-4.12ZM203.88,30.79c-.42,0-2.08,0-2.04-1.4h-2.89v4.29h4.29l1.61-2.63c.08-.13.17-.21.25-.38-.3.08-.64.13-1.23.13Z"/><path class="cls-1" d="M235.9,23.14h-11.81c-2.59,0-3.52.13-4.59.3l-.72-1.57c2.68.25,5.65.25,6.07.25h4.59l1.61-2.97c.17-.34.42-.55.59-.55.21,0,.42.17.81.47l3.65,2.97c.21.17.42.38.42.68,0,.38-.38.42-.64.42ZM234.07,40.77c0,.72-.04,2.25-.04,3.27-.04,1.61,0,3.82,0,4.76,0,1.36-2.21,1.66-3.52,1.66-1.06,0-1.27-.55-1.19-1.87h-4.29c.04.17.17,2.25-.04,2.76-.42,1.06-3.14,1.15-3.27,1.15-1.32,0-1.44-.89-1.44-1.44,0-.3.04-1.49.04-1.74.09-1.44.09-2.85.09-4.16,0-.64-.04-7.56-.34-9.09l5.27,1.83h3.57l1.1-1.87c.25-.47.47-.76.89-.76.21,0,.55.17.81.34l3.35,2.46c.3.21.64.51.64.89,0,.34-.38,1.06-1.61,1.83ZM234.54,18.17h-8.79c-2.63,0-3.52.08-4.59.25l-.72-1.53c2.63.21,5.65.25,6.07.25h1.95l1.53-3.01c.09-.17.34-.55.59-.55.3,0,.72.38.81.47l3.35,3.01c.21.21.42.38.42.64,0,.38-.34.47-.64.47ZM234.03,28.41h-8.15c-2.59,0-3.52.08-4.59.3l-.72-1.57c2.68.21,5.65.25,6.07.25h1.7l1.49-2.8c.13-.21.34-.51.64-.51.25,0,.59.3.76.42l3.01,2.8c.3.25.42.38.42.64,0,.42-.34.47-.64.47ZM234.5,33.55h-8.62c-2.59,0-3.52.08-4.59.3l-.72-1.57c2.68.21,5.65.25,6.07.25h1.7l1.53-2.76c.17-.3.34-.55.59-.55.21,0,.34.13.76.47l3.48,2.76c.17.13.42.38.42.64,0,.38-.34.47-.64.47ZM229.36,38.9h-4.33v8.66h4.33v-8.66ZM253.18,52.74c-1.61-.64-5.1-2.04-8.83-6.03-2.34,1.66-5.82,3.82-12.65,5.65l-.17-.34c4.88-2.68,8.2-5.86,10.36-8.49-.93-1.44-2.68-4.42-3.4-9.47-1.19.09-1.66.17-2.08.25l-.72-1.57c2.63.25,5.65.25,6.07.25h5.56l1.15-1.23c.38-.38.72-.81.98-.81.3,0,.64.3.85.47l3.86,3.14c.55.47.85.85.85,1.1,0,.59-.68.81-1.95,1.27-2.25,3.65-3.99,5.52-5.05,6.58,3.86,2.17,7.26,2.93,9.43,3.35v.51c-2.85,1.53-3.95,4.2-4.25,5.35ZM256.03,29.04c-1.1.68-2.25.89-4.12.89-3.35,0-5.14-.55-5.14-2.59v-9.94h-3.31c-.42,6.67-3.02,12.1-9,14.52l-.17-.25c3.27-3.4,3.91-9.09,3.91-13.04,0-1.83-.21-3.82-.3-4.42l6.2,2.17h2.34l1.36-2.04c.17-.3.42-.51.76-.51.3,0,.72.34.85.42l3.14,2.46c.25.21.59.59.59.89,0,.55-.3.72-1.4,1.36,0,1.61,0,3.82.04,4.88,0,.42.13.59.59.59.89,0,1.61,0,2.89-5.48h.34c0,.89.13,4.33.34,5.01.13.38.68.76,1.23,1.15.42.3.55.59.55,1.02,0,.89-.59,2.21-1.7,2.89ZM240.99,34.01c-.47,0-.81,0-1.36.04.64,1.74,1.83,4.25,4.42,6.62,2.17-3.23,2.97-5.31,3.48-6.67h-6.54Z"/></g></svg>