<?xml version="1.0" encoding="UTF-8"?><svg id="_圖層_2" xmlns="http://www.w3.org/2000/svg" viewBox="0 0 393.21 140.36"><defs><style>.cls-1{fill:#604c3f;}</style></defs><g id="_圖層_1-2"><path class="cls-1" d="M108.91,123.94c-.16-.37-.36-.75-.58-1.15-.22-.4-.45-.77-.69-1.12-.23-.35-.46-.67-.69-.96-.22-.29-.42-.51-.58-.66-.43-.41-.89-.68-1.39-.81-.5-.13-1.14-.21-1.91-.23-.39,0-.72,0-1.01-.01-.29-.01-.57-.02-.86-.02h-2.02c0,.51,0,1.2-.02,2.08-.01.88-.02,1.79-.02,2.75v11.95c0,.59.02,1.16.05,1.7.03.54.13.92.29,1.15.31.45.74.75,1.3.92.56.16,1.06.29,1.51.37v.31h-9.93v-.31c.53-.06,1.04-.16,1.53-.31.49-.14.97-.48,1.44-1.01.1-.1.18-.27.23-.5.05-.23.09-.5.12-.79.03-.3.05-.62.06-.96,0-.35.02-.68.02-1.01,0-.29,0-.66.02-1.13,0-.47.02-.99.03-1.56,0-.57.02-1.16.02-1.77v-11.86h-2.02c-.27,0-.55,0-.84.02-.3.01-.64.01-1.02.01-.77.02-1.41.11-1.91.28-.5.16-.96.45-1.39.86-.16.14-.35.36-.57.64-.21.29-.44.6-.67.93-.23.34-.46.7-.67,1.09-.21.39-.38.76-.5,1.13l-.27-.09.92-5.81c.47.1.9.18,1.3.24.4.06.97.1,1.73.12.77.02,1.47.04,2.08.05.61.01,1.2.02,1.77.02h5.81c.61,0,1.2,0,1.77-.02.57,0,1.16-.02,1.77-.03.61-.01,1.3-.02,2.08-.02.67-.02,1.23-.08,1.67-.17.44-.09.89-.21,1.36-.35l.98,5.96-.28.09Z"/><path class="cls-1" d="M128.44,140.21v-.31c.75-.06,1.39-.2,1.9-.41.51-.21.85-.45,1.01-.72.04-.06.08-.18.11-.37.03-.18.06-.4.08-.64.02-.24.04-.5.05-.76s.02-.52.02-.76c.02-.67.03-1.37.03-2.08v-4.83h-12.07v6.57c0,.59,0,1.16.03,1.71.02.55.11.94.27,1.16.24.35.59.61,1.04.79.45.18.89.3,1.31.34v.31h-9.02v-.31c.51-.08,1-.22,1.47-.41.47-.19.83-.43,1.07-.72.08-.1.15-.27.2-.5s.09-.5.12-.81c.03-.31.06-.64.08-.99.02-.36.03-.7.03-1.02,0-.29,0-.67.02-1.16.01-.49.02-1.02.03-1.6,0-.58.02-1.18.02-1.79v-8.83c0-.37-.02-.71-.05-1.02-.03-.32-.08-.6-.14-.86-.06-.25-.15-.45-.28-.6-.29-.35-.64-.6-1.05-.75-.42-.15-.89-.26-1.42-.32v-.31h9.11v.31c-.29.04-.59.1-.92.18-.33.08-.62.21-.89.38-.27.17-.49.41-.67.72-.18.31-.29.69-.31,1.16-.02.71-.04,1.48-.05,2.31-.01.83-.02,1.62-.02,2.37v3.09h12.07v-4.92c0-.53-.01-1.13-.03-1.8-.02-.39-.05-.79-.08-1.21-.03-.42-.13-.76-.29-1.02-.37-.55-.78-.89-1.25-1.02-.47-.13-.94-.21-1.41-.23v-.31h9.2v.31c-.49.06-.97.2-1.44.41-.47.21-.82.52-1.04.93-.08.14-.14.34-.18.6-.04.26-.07.54-.09.86-.02.32-.03.64-.03.96v10c0,.57,0,1.16.02,1.77.01.61.02,1.28.02,2.02,0,.59.02,1.14.05,1.64.03.5.11.84.23,1.02.26.41.62.69,1.07.86.45.16.94.27,1.47.34v.31h-9.38Z"/><path class="cls-1" d="M162.38,140.21h-18.71v-.31c.51-.08.98-.21,1.42-.4.44-.18.8-.44,1.09-.76.1-.12.18-.3.24-.53.06-.23.12-.5.17-.81.05-.31.09-.63.11-.96.02-.34.03-.67.03-.99,0-.29,0-.67.02-1.16,0-.49.02-1.02.03-1.6,0-.58.02-1.18.02-1.79v-7.73c0-.37,0-.74-.02-1.13-.01-.39-.03-.75-.06-1.1-.03-.35-.08-.66-.15-.93-.07-.27-.17-.47-.29-.6-.31-.33-.63-.54-.98-.63-.35-.09-.79-.18-1.34-.26v-.31h16.87l2.08,5.04-.31.15c-1.65-2.06-3.2-3.44-4.65-4.16-.35-.16-.99-.31-1.93-.43-.94-.12-2.08-.18-3.42-.18-.43,0-.87.02-1.33.05-.46.03-.79.07-.99.11-.04.33-.08,1-.11,2.02-.03,1.02-.05,2.2-.05,3.55v1.96c0,.53,0,.96.02,1.3,0,.34.02.6.02.78v.34h.61c.31,0,.66,0,1.05-.03.4-.02.79-.05,1.19-.08.4-.03.73-.08.99-.14.61-.14,1.12-.34,1.53-.58.41-.24.74-.54.99-.89.25-.35.46-.75.61-1.21.15-.46.29-.97.41-1.54h.37v9.63h-.37c-.16-.65-.41-1.32-.75-2.02s-.69-1.21-1.05-1.56c-.33-.29-.72-.52-1.18-.7-.46-.18-.99-.29-1.6-.34-.31-.02-.56-.04-.76-.05-.2-.01-.41-.02-.61-.02h-1.41c-.04.29-.06.7-.06,1.25v3.67c0,.33,0,.64.02.93,0,.3.02.55.02.75.02.65.06,1.27.11,1.85.05.58.17,1.01.35,1.3.18.29.62.49,1.31.61.69.12,1.45.18,2.26.18.35,0,.79-.01,1.33-.03.54-.02,1.1-.07,1.7-.15.65-.08,1.25-.24,1.8-.47.55-.23,1.08-.57,1.59-.99.51-.43,1-.95,1.48-1.57.48-.62.97-1.37,1.48-2.25l.34.09-1.53,5.84Z"/><path class="cls-1" d="M199.73,130.29c-.41.13-.7.34-.89.63-.14.22-.22.57-.24,1.04-.02.47-.03.94-.03,1.41v4.46c-.14.12-.49.33-1.05.61-.56.29-1.24.58-2.05.87-.81.3-1.7.55-2.67.75-.98.2-1.96.31-2.93.31-1.94,0-3.67-.25-5.2-.75-1.53-.5-2.82-1.23-3.87-2.2s-1.85-2.15-2.41-3.55c-.56-1.4-.84-2.96-.84-4.69,0-.51.05-1.09.15-1.76.1-.66.28-1.36.53-2.09.25-.73.61-1.48,1.07-2.23.46-.75,1.03-1.47,1.73-2.14.98-.96,2.18-1.73,3.61-2.31,1.43-.58,3.16-.87,5.2-.87,1.22,0,2.3.11,3.24.32.94.21,1.73.45,2.37.7.64.26,1.14.49,1.48.7.35.21.54.32.58.32s.15-.12.34-.37c.18-.24.41-.54.67-.89h.27v6.66h-.37c-.22-.92-.56-1.78-1.01-2.6-.45-.82-.93-1.49-1.44-2.02-.65-.69-1.49-1.25-2.51-1.68-1.02-.43-2.16-.64-3.42-.64-1.35,0-2.56.3-3.64.9-1.08.6-2,1.41-2.75,2.41-.75,1.01-1.34,2.17-1.74,3.48-.41,1.31-.61,2.7-.61,4.14,0,1.59.19,3.04.58,4.36.39,1.31.95,2.44,1.68,3.38.73.94,1.63,1.67,2.69,2.19,1.06.52,2.27.78,3.64.78.98,0,1.89-.17,2.74-.5.85-.34,1.51-.88,2-1.64.16-.26.28-.73.37-1.41.08-.67.12-1.37.12-2.08s-.04-1.35-.11-1.93c-.07-.57-.28-1.04-.63-1.41-.47-.53-1.29-.85-2.48-.95v-.31h8.96v.31c-.35.04-.72.13-1.13.26Z"/><path class="cls-1" d="M225.62,140.21h-19.62v-.31c.51-.08,1.01-.21,1.51-.4.5-.18.89-.44,1.18-.76.1-.12.19-.3.26-.53.07-.23.13-.5.17-.81.04-.31.08-.63.11-.96.03-.34.05-.67.05-.99,0-.29,0-.67.02-1.16,0-.49.02-1.02.03-1.6,0-.58.02-1.18.02-1.79v-8.77c0-.37-.02-.71-.05-1.02-.03-.32-.08-.6-.14-.84-.06-.24-.15-.44-.28-.58-.29-.35-.67-.61-1.15-.79-.48-.18-.98-.31-1.51-.37v-.31h9.75v.31c-.26.04-.58.1-.95.18-.37.08-.71.21-1.04.4-.33.18-.61.44-.84.78-.23.34-.36.78-.38,1.33-.02.71-.04,1.37-.05,1.96-.01.59-.02,1.17-.03,1.74-.01.57-.02,1.16-.02,1.77v5.56c0,.53,0,1.08.02,1.64.01.56.02,1.19.02,1.88.02.65.05,1.27.08,1.86.03.59.14,1.03.32,1.31.08.1.24.2.49.31.24.1.54.19.89.26.35.07.72.13,1.13.18.41.05.81.08,1.22.08.16,0,.42,0,.78-.02.36,0,.75-.03,1.18-.06.43-.03.87-.08,1.31-.14.45-.06.85-.14,1.19-.24.81-.22,1.49-.52,2.03-.89.54-.37,1-.79,1.39-1.27.39-.48.71-1,.98-1.56.26-.56.52-1.15.76-1.76l.31.09-1.13,6.3Z"/><path class="cls-1" d="M252.55,133.57c-.61,1.39-1.44,2.59-2.49,3.61-1.05,1.02-2.27,1.8-3.67,2.35-1.4.55-2.88.82-4.45.82s-3.02-.27-4.4-.81c-1.39-.54-2.6-1.3-3.64-2.29-1.04-.99-1.86-2.17-2.46-3.55-.6-1.38-.9-2.89-.9-4.54,0-1.75.32-3.33.95-4.72.63-1.4,1.48-2.58,2.55-3.55,1.07-.97,2.32-1.71,3.76-2.23,1.44-.52,2.95-.78,4.54-.78,1.73,0,3.29.31,4.66.92,1.38.61,2.54,1.43,3.5,2.46.96,1.03,1.69,2.22,2.2,3.56.51,1.34.76,2.75.76,4.22,0,1.63-.31,3.14-.92,4.52ZM249.2,125.32c-.32-1.26-.8-2.41-1.44-3.44-.64-1.03-1.44-1.86-2.4-2.51-.96-.64-2.09-.96-3.39-.96s-2.47.32-3.44.96c-.97.64-1.76,1.47-2.38,2.49-.62,1.02-1.08,2.18-1.38,3.47-.3,1.29-.44,2.6-.44,3.93s.16,2.72.49,4c.33,1.28.81,2.41,1.45,3.39.64.98,1.45,1.76,2.42,2.35.97.59,2.09.89,3.38.89s2.4-.33,3.35-.98c.95-.65,1.74-1.49,2.37-2.52.63-1.03,1.11-2.19,1.42-3.47.32-1.28.47-2.57.47-3.85s-.16-2.5-.47-3.76Z"/><path class="cls-1" d="M275.51,140.21c-.18-.18-.32-.32-.4-.41-.08-.09-.17-.2-.28-.32-.1-.12-.23-.3-.38-.54-.15-.23-.39-.59-.72-1.05-.39-.57-.73-1.09-1.02-1.54-.3-.46-.6-.91-.9-1.36-.31-.45-.64-.9-.99-1.36-.36-.46-.78-.97-1.27-1.54-.41-.47-.85-.91-1.33-1.31-.48-.41-.98-.66-1.51-.76-.39-.08-.68-.12-.89-.12-.18,0-.42,0-.7-.03v3.45c0,.98,0,1.8.03,2.48.02.65.04,1.21.06,1.68.02.47.13.86.34,1.16.16.26.48.53.95.81.47.27,1.12.43,1.96.47v.31h-9.78v-.31c.51-.08,1-.2,1.47-.37.47-.16.84-.41,1.1-.73.1-.12.18-.31.24-.55s.11-.52.14-.83c.03-.31.06-.63.08-.98.02-.35.03-.68.03-1.01,0-.29,0-.67.02-1.16.01-.49.02-1.02.03-1.6,0-.58.02-1.18.02-1.79v-7.73c0-.37,0-.74-.02-1.12-.01-.38-.03-.73-.06-1.07-.03-.34-.08-.64-.15-.92-.07-.28-.17-.47-.29-.6-.31-.33-.65-.54-1.02-.66-.38-.11-.84-.21-1.39-.29v-.31h1.25c.69,0,1.48,0,2.35-.02.88-.01,1.75-.02,2.63-.02h2.14c1.36,0,2.58.04,3.64.12,1.06.08,2.03.36,2.9.83.9.47,1.62,1.11,2.17,1.91.55.81.83,1.82.83,3.04,0,.75-.14,1.43-.41,2.03-.27.6-.64,1.13-1.1,1.59-.46.46-.99.85-1.6,1.18-.61.33-1.25.6-1.93.82v.09c.35.18.68.45,1.01.79.33.35.64.73.95,1.16.53.77,1.11,1.61,1.73,2.51.62.9,1.18,1.69,1.67,2.38.75,1.06,1.49,1.83,2.2,2.32.71.49,1.55.81,2.51.95v.31h-6.27ZM272.48,121.16c-.51-.79-1.25-1.43-2.23-1.9-.49-.22-1-.39-1.54-.49-.54-.1-1.11-.15-1.7-.15-.43,0-.77.01-1.04.03-.27.02-.47.04-.61.06-.02.12-.04.23-.06.32-.02.09-.04.21-.05.35-.01.14-.02.34-.03.6-.01.26-.03.62-.05,1.09-.02.71-.04,1.52-.05,2.41-.01.9-.02,1.76-.02,2.6v3.36c.84,0,1.61-.04,2.34-.11.72-.07,1.42-.22,2.09-.44.65-.2,1.21-.48,1.68-.82.47-.35.85-.74,1.15-1.18.3-.44.51-.91.66-1.42.14-.51.21-1.04.21-1.59,0-1.02-.26-1.93-.76-2.72Z"/><path class="cls-1" d="M303.14,118.93c-.41.2-.78.47-1.13.79-.35.33-.68.71-.99,1.16-.32.45-.66.96-1.02,1.53-.24.39-.59.91-1.02,1.57-.44.66-.89,1.35-1.34,2.06-.46.71-.9,1.4-1.33,2.05-.43.65-.76,1.16-1.01,1.53v6.14c0,.59.02,1.17.05,1.73.03.56.13.95.29,1.18.31.45.7.74,1.19.89.49.14.96.26,1.41.34v.31h-9.41v-.31c.53-.06.99-.16,1.39-.29.4-.13.82-.45,1.27-.96.1-.1.18-.27.23-.52.05-.24.09-.52.12-.83.03-.31.05-.63.06-.98.01-.35.02-.68.02-1.01.02-.57.04-1.25.05-2.03.01-.78.02-1.74.02-2.86-.04-.06-.16-.26-.37-.58-.2-.33-.45-.73-.75-1.21-.3-.48-.62-1.01-.98-1.6-.36-.59-.71-1.17-1.05-1.73-.35-.56-.67-1.09-.98-1.57-.31-.49-.56-.89-.76-1.19-.39-.59-.74-1.13-1.05-1.62-.32-.49-.64-.91-.96-1.25-.33-.35-.65-.62-.96-.82-.32-.2-.68-.32-1.08-.34v-.31h9.26v.31c-.31.02-.61.05-.92.09-.31.04-.59.11-.86.2-.27.09-.48.21-.64.37-.16.15-.24.36-.24.63s.15.67.44,1.21c.3.54.61,1.09.93,1.64.22.37.49.81.79,1.33.31.52.64,1.07,1.01,1.65.37.58.74,1.18,1.12,1.79.38.61.73,1.19,1.05,1.74.26-.39.59-.88.98-1.48.39-.6.78-1.21,1.18-1.83.4-.62.77-1.22,1.13-1.79.36-.57.63-1.02.81-1.34.1-.16.21-.35.34-.57.12-.21.24-.44.35-.67.11-.23.21-.47.29-.72.08-.24.12-.47.12-.67,0-.33-.08-.58-.24-.76-.16-.18-.37-.33-.63-.43-.26-.1-.54-.18-.84-.23-.31-.05-.6-.1-.89-.14v-.31h7.06v.31c-.57.08-1.06.22-1.47.43Z"/><rect class="cls-1" x="213.81" y="10.85" width="33.28" height="3.88"/><rect class="cls-1" x="252.92" y="4.64" width="33.28" height="3.88"/><rect class="cls-1" x="252.17" y="49.14" width="33.28" height="3.88"/><rect class="cls-1" x="252.17" y="64.12" width="33.28" height="3.88"/><rect class="cls-1" x="247.1" y="38.81" width="53.05" height="3.88"/><rect class="cls-1" x="310.09" y="17.61" width="77.21" height="3.76"/><rect class="cls-1" x="317.02" y="30.43" width="63.36" height="3.76"/><rect class="cls-1" x="310.09" y="59.37" width="77.21" height="3.76"/><rect class="cls-1" x="308.25" y="44.26" width="80.95" height="3.76"/><rect class="cls-1" x="252.92" y="15.62" width="33.28" height="3.88"/><rect class="cls-1" x="252.92" y="25.92" width="33.28" height="3.88"/><rect class="cls-1" x="216.23" y="40.75" width="26.76" height="3.88"/><path class="cls-1" d="M228.04,68.68V13.25h6.88v55.75c0,3.8-3.08,6.88-6.88,6.88v-7.19Z"/><path class="cls-1" d="M344.31,39.71v-21.51h6.52v21.82c0,3.68-2.92,6.67-6.52,6.67v-6.98Z"/><rect class="cls-1" x="6.66" y="5.98" width="33.28" height="3.88"/><rect class="cls-1" x="6.66" y="40.75" width="33.28" height="3.88"/><rect class="cls-1" x="18.91" y="60" width="23.3" height="3.88"/><rect class="cls-1" x="18.91" y="84.59" width="23.3" height="3.88"/><rect class="cls-1" x="4.95" y="24.04" width="45.14" height="3.88"/><rect class="cls-1" x="51.74" y="22.1" width="37.77" height="3.88"/><rect class="cls-1" x="47.94" y="63.29" width="42.34" height="3.88"/><rect class="cls-1" x="51.74" y="42.69" width="34.47" height="3.88"/><path class="cls-1" d="M16.86,23.45h43.96c1.21,0,2.19.98,2.19,2.19v4.69H16.86v-6.88h0Z" transform="translate(66.83 -13.05) rotate(90)"/><path class="cls-1" d="M63.75,70.89V24.74h6.88v65.73c0,3.8-3.08,6.88-6.88,6.88v-26.46Z"/><path class="cls-1" d="M-.89,73.36h37.4c1.21,0,2.19.98,2.19,2.19v4.69H-.89v-6.88h0Z" transform="translate(95.71 57.89) rotate(90)"/><path class="cls-1" d="M22.26,71.24h33.17c1.21,0,2.19.98,2.19,2.19v4.69H22.26v-6.88h0Z" transform="translate(114.62 34.74) rotate(90)"/><path class="cls-1" d="M17.51,7.92S20.26,52.91,0,84.59c0,0,26.06-16.76,25.11-69.91.02-7.64.02-7.76.02-7.76l-7.62,1Z"/><path class="cls-1" d="M50.09,0s18.41,7.44,13.34,19.95c-1.81,3.08-6.45,2.47-7.59-6.56-1.07-8.44-5.75-13.39-5.75-13.39Z"/><path class="cls-1" d="M75.57,0l8.71,3.81s-11.1,18.79-17.91,23.43c0,0,8.16-16.43,9.2-27.24Z"/><rect class="cls-1" x="115.79" y="5.98" width="52.51" height="3.88"/><rect class="cls-1" x="111.39" y="37.98" width="61.32" height="3.88"/><polygon class="cls-1" points="170.01 63.17 111.39 63.17 111.39 59.29 172.71 59.29 170.01 63.17"/><rect class="cls-1" x="115.79" y="24.95" width="52.51" height="3.88"/><path class="cls-1" d="M98.82,15.35h27.76c1.21,0,2.19.98,2.19,2.19v4.69h-29.95v-6.88h0Z" transform="translate(132.59 -95.01) rotate(90)"/><path class="cls-1" d="M95.39,47.64h27.76c1.21,0,2.19.98,2.19,2.19v4.69h-29.95v-6.88h0Z" transform="translate(161.44 -59.28) rotate(90)"/><path class="cls-1" d="M151.08,15.35h27.76c1.21,0,2.19.98,2.19,2.19v4.69h-29.95v-6.88h0Z" transform="translate(184.84 -147.27) rotate(90)"/><path class="cls-1" d="M265.52,33.88h7.82c1.21,0,2.19.98,2.19,2.19v4.69h-10.01v-6.88h0Z" transform="translate(307.84 -233.21) rotate(90)"/><path class="cls-1" d="M238.01,14.88h29.56c1.21,0,2.19.98,2.19,2.19v4.69h-31.75v-6.88h0Z" transform="translate(272.21 -235.56) rotate(90)"/><path class="cls-1" d="M271.67,14.51h28.81c1.21,0,2.19.98,2.19,2.19v4.69h-31v-6.88h0Z" transform="translate(305.12 -269.22) rotate(90)"/><path class="cls-1" d="M276.09,55.98h21.46c1.21,0,2.19.98,2.19,2.19v4.69h-23.65v-6.88h0Z" transform="translate(347.34 -228.5) rotate(90)"/><path class="cls-1" d="M241.09,55.98h21.46c1.21,0,2.19.98,2.19,2.19v4.69h-23.65v-6.88h0Z" transform="translate(312.34 -193.5) rotate(90)"/><path class="cls-1" d="M128.59,47.64h20.49c1.21,0,2.19.98,2.19,2.19v4.69h-22.68v-6.88h0Z" transform="translate(191.01 -88.84) rotate(90)"/><path class="cls-1" d="M154.52,47.64h27.76c1.21,0,2.19.98,2.19,2.19v4.69h-29.95v-6.88h0Z" transform="translate(220.57 -118.41) rotate(90)"/><path class="cls-1" d="M113.8,52.19v22.49c0,6.22-.42,10.91,6.09,10.91h42.72c5.69,0,11.49-.39,13.65-11.74,0,0-1.2,9.57,2.28,10.74,2.63.88,5.33,7.77-8.1,7.77h-53.2c-10.31,0-10.31-7.96-10.31-16.57v-18.78l6.88-4.81Z"/><path class="cls-1" d="M215.26,73.22l2.57,8.85s22.04-6.38,27.35-17.69c0,0-10.26,7.91-29.92,8.85Z"/><path class="cls-1" d="M254.92,72.28l6.67,4.12s-10.83,12.53-21.66,13.12c0,0,9.55-6.21,14.99-17.24Z"/><path class="cls-1" d="M361.02,2.45l9.39,4.73s-11.42,13.57-22.84,14.2c0,0,8.32-6.52,13.45-18.93Z"/><path class="cls-1" d="M267.09,66.06v16.34c0,3.92-.91,6.48-7.17,6.48,0,0,4.75.8,5.19,4.49.34,2.81,7.75,3.45,7.75-3.77v-23.55h-5.77Z"/><path class="cls-1" d="M277.35,73.38s20.05,4.58,18.64,14.41c-1.13,4.32-6.57,3.05-9.28-2.45-2.72-5.51-9.36-11.96-9.36-11.96Z"/><path class="cls-1" d="M324.85,2.45s19.01,4.46,17.67,14.03c-1.07,4.21-6.22,2.97-8.8-2.39-2.58-5.36-8.87-11.64-8.87-11.64Z"/><path class="cls-1" d="M343.77,53.26h7.06s3.12,36.26-45.97,39.1c0,0,35.93-6.33,38.91-39.1Z"/><path class="cls-1" d="M349.55,59.29s17.91,22.78,43.66,27.73l-14.74,3.5s-21.73-7.88-32.17-30.33l3.26-.9Z"/><path class="cls-1" d="M198.85,49.14c0,2.17-1.76,3.92-3.93,3.92s-3.92-1.76-3.92-3.92,1.76-3.92,3.92-3.92,3.93,1.76,3.93,3.92Z"/></g></svg>