<?xml version="1.0" encoding="UTF-8"?><svg id="_圖層_2" xmlns="http://www.w3.org/2000/svg" viewBox="0 0 30 30"><defs><style>.cls-1{fill:none;}.cls-2{fill:#4c3b30;}</style></defs><g id="_圖層_1-2"><path class="cls-2" d="M28.52,23.23c-.12-.36-.25-.68-.57-.98-.85-.51-1.71-1.12-2.53-1.72-.99-.71-2-1.43-3.03-2.01-1.6-.9-2.46.33-3.21,1.4-.26.38-.53.76-.81,1.04-.3.26-.76.01-1.29-.31-.07-.04-.13-.08-.19-.12-2.28-1.33-6.82-5.66-7.89-8.27-.12-.3-.1-.46.09-.67.28-.31.68-.58,1.07-.85,1.04-.71,2.22-1.52,1.32-3.13-.57-1.02-1.3-2.04-2.01-3.03-.59-.83-1.21-1.68-1.74-2.56-.28-.29-.6-.42-.96-.54h-.58s-.24.07-.24.07c-.15.06-.3.11-.45.19-1,.51-2.83,1.6-3.34,2.42-1.52,2.45-.34,6.51,1.14,9.24,2.61,4.84,9.42,11.83,15.03,14.12,1.2.49,2.98.98,4.65.98,1.51,0,2.94-.4,3.79-1.57.43-.6,1.13-1.74,1.49-2.45.08-.15.14-.31.2-.46l.06-.16v-.59s0-.06,0-.06ZM7.95,12.94c1.46,2.99,5.54,7.01,8.21,8.61l.16.1c.59.36,1.26.77,2.03.66.76-.1,1.37-.98,1.91-1.75.25-.36.5-.71.72-.92.24-.24.52-.25.82-.03l5.32,3.56c.2.23.22.38.1.66-.25.6-1.5,2.54-1.91,2.87-1.66,1.29-5.37.29-7.32-.65-4.97-2.39-11.66-9.09-14.03-14.06-1.04-2.18-2.03-6.2-.25-7.67.42-.35,1.91-1.26,2.45-1.5l.06-.03c.06-.03.11-.05.16-.06.16-.02.33.04.46.16l3.73,5.66c.04.21-.08.38-.19.5-.28.3-.67.56-1.04.82-1.01.7-2.17,1.49-1.38,3.09Z"/><path class="cls-2" d="M16.55,6.23c.29.05.57.07.84.09.29.02.59.05.88.1,2.86.55,5.23,2.95,5.77,5.84.05.26.06.53.08.8.01.21.02.42.05.63.04.26.21.49.44.57.06.02.13.04.2.04.15,0,.29-.06.42-.17.23-.21.22-.75.12-1.5v-.06c-.48-3.9-3.79-7.11-7.69-7.48-.21-.02-.9-.08-1.12.03-.21.1-.34.3-.36.52-.01.23.1.45.3.58l.06.03Z"/><path class="cls-2" d="M21.55,13.84v.06s.04.05.04.05c.23.27.43.34.58.34.06,0,.12-.01.17-.03.28-.11.43-.48.41-.97-.11-2.37-1.86-4.6-4.15-5.31-.37-.11-1.54-.38-2.03-.24-.21.06-.35.25-.38.5-.03.26.1.51.31.62.2.1.4.1.57.09.08,0,.16,0,.23,0,2.51.36,4.17,2.27,4.24,4.88Z"/><path class="cls-2" d="M16.38,10.55c-.12.1-.24.29-.16.64.08.38.46.41.68.43.06,0,.12,0,.18.02.48.11,1.34.43,1.64,1.3.03.09.06.25.08.41.06.39.11.64.24.77.13.12.27.18.42.18.07,0,.15-.02.22-.05.25-.11.42-.38.42-.68.02-1.13-.89-2.47-1.99-2.93-.01,0-1.23-.5-1.73-.09Z"/><rect class="cls-1" width="30" height="30"/></g></svg>