<?xml version="1.0" encoding="UTF-8"?><svg id="_圖層_2" xmlns="http://www.w3.org/2000/svg" viewBox="0 0 30 30"><defs><style>.cls-1{fill:none;}.cls-2{fill:#4c3b30;}</style></defs><g id="_圖層_1-2"><path class="cls-2" d="M14.62,5.58c-2.04.14-3.79,1.33-4.68,3.18-.89,1.83-.74,3.92.4,5.6,1.04,1.54,2.78,2.46,4.65,2.46h.02c1.85,0,3.58-.91,4.63-2.43,1.23-1.79,1.32-4.09.24-5.99-1.08-1.89-3.08-2.99-5.25-2.83ZM18.61,13.69c-.83,1.2-2.14,1.89-3.6,1.89h-.01c-1.48,0-2.79-.7-3.62-1.92-.88-1.3-1-2.93-.31-4.35.7-1.44,2.06-2.36,3.65-2.48.1,0,.21-.01.31-.01,1.55,0,2.98.83,3.77,2.21.85,1.48.78,3.26-.18,4.66Z"/><path class="cls-2" d="M15.58.63h-.02s-1.13,0-1.13,0c-5.84.35-10.32,5.4-9.98,11.26.3,5.14,5.41,12.05,7.6,14.79l.31.39c.41.52.84,1.07,1.27,1.53.36.38.8.78,1.37.78h0c.57,0,1-.39,1.39-.81.42-.45.84-.98,1.25-1.5l.31-.39c2.19-2.74,7.3-9.65,7.6-14.79.34-5.92-4.04-10.86-9.97-11.26ZM24.3,11.82c-.28,4.78-5.22,11.43-7.33,14.08l-.31.4c-.39.49-.79,1-1.18,1.42-.35.38-.47.41-.48.41-.01,0-.13-.03-.46-.38-.39-.42-.81-.94-1.21-1.45l-.32-.4c-2.11-2.64-7.05-9.3-7.33-14.08-.3-5.17,3.65-9.63,8.77-9.94h1.05c5.23.36,9.09,4.72,8.79,9.94Z"/><rect class="cls-1" width="30" height="30"/></g></svg>