<?xml version="1.0" encoding="UTF-8"?><svg id="_圖層_2" xmlns="http://www.w3.org/2000/svg" viewBox="0 0 362.85 648.45"><defs><style>.cls-1{fill:#fff;}</style></defs><g id="_圖層_1-2"><path class="cls-1" d="M299.82,97.13c-12.87,0-12.98-6.05-12.98-6.6,0-4.18,4.18-4.73,4.95-4.73.33,0,.66.11.88.11,5.17.99,5.61,6.93,11.77,6.93,8.69,0,20.79-10.45,20.79-26.18,0-14.08-8.36-17.82-13.09-17.82-1.87,0-4.62.88-5.72,1.65-.77.55-1.54.88-2.2.88s-1.1-.33-1.1-1.43c0-4.29,3.08-5.28,3.41-5.39,12.65-3.85,14.96-12.21,14.96-16.83,0-5.06-2.86-9.35-8.25-9.35s-11.44,3.85-15.51,9.46c-.66.99-1.54,1.43-2.2,1.43-.77,0-1.32-.55-1.32-1.43,0-2.31,9.57-15.84,22.88-15.84,8.14,0,14.08,5.28,14.08,12.65,0,6.05-3.85,13.2-11.44,18.48-.11.11-.33.33-.33.44s.11.22.44.22c4.4.55,15.73,4.95,15.73,19.47,0,19.47-19.58,33.88-35.75,33.88Z"/><path class="cls-1" d="M313.24,123.86c0,.55-.44,1.1-2.09,1.1h-27.83c-10.01,11.22-18.26,15.07-18.81,15.07-.11,0-.22,0-.22-.11,0-.22.33-.66,1.1-1.32,7.04-6.38,17.16-20.57,18.37-28.82.11-.88,0-1.21.33-1.21.77,0,11.11,4.4,11.11,6.82,0,.88-1.54,1.32-3.41,1.32-1.65,0-1.76.22-2.86,1.65-.99,1.32-2.2,2.64-3.3,3.96h13.53c.33,0,.99-.33,1.32-.88.88-1.54,3.3-5.17,4.62-5.17,1.87,0,8.14,5.39,8.14,7.59ZM360.76,150.04c0,.66-.44,1.21-2.31,1.21h-54.89c-5.83,0-21.34.22-30.8,1.21h-.11c-1.98,0-5.17-4.07-5.17-5.5,9.13,1.1,24.53,1.65,32.78,1.76-.66-.55-1.21-1.32-1.65-2.42-1.1-2.64-3.85-5.72-5.72-7.59-.55-.55-.77-.88-.77-.99,0,0,0-.11,1.32-.11,6.49.22,12.76,2.75,12.76,7.7,0,1.43-.66,2.64-1.54,3.41h14.96c3.08-5.39,3.85-9.24,4.4-12.65.11-.88.11-1.21.44-1.21.99,0,10.67,4.95,10.67,7.15,0,.66-.77,1.1-2.53,1.1h-1.21c-1.1,0-1.76.66-2.75,1.43-.99.77-3.85,2.75-5.94,4.18h19.91c.66,0,1.54-.44,1.87-.99,1.1-1.65,4.73-6.05,6.05-6.05,1.76,0,10.23,5.72,10.23,8.36ZM314.23,161.92c0,1.1-1.21,1.76-2.2,2.31q-1.98,1.32-1.98,14.41c0,4.62.11,9.35.11,11.66,0,1.65.33,5.28.33,6.93,0,9.46-8.69,9.9-9.9,9.9-.99,0-1.32-.33-1.76-1.21-.99-1.98-8.8-5.83-8.8-6.6,0-.11.11-.22.33-.22s.44.11.66.11c3.3.44,6.16.99,8.47.99,2.86,0,4.73-.88,4.84-3.52.11-1.54.11-4.95.11-9.13h-19.69c0,6.38.11,12.87.33,17.27,0,1.43-.99,3.19-3.96,3.19-1.54,0-2.97-.77-2.97-2.42v-.11c.55-9.57.66-24.53.66-32.01,0-6.71,0-12.32-1.1-16.39-.11-.33-.11-.55-.11-.66s0-.22.11-.22c.88,0,7.15,2.53,8.91,3.52h15.84c.44,0,1.1-.22,1.43-.77.55-.77,1.54-1.87,2.09-2.31.33-.11.55-.33.99-.33,1.54,0,7.26,3.63,7.26,5.61ZM304.44,175.01h-19.58c0,2.86-.11,6.16-.11,9.57h19.69v-9.57ZM304.33,163.57c0-.33-.11-.99-1.32-.99h-16.39q-.11,0-.22.11c-1.43.88-1.32,1.1-1.43,3.74,0,1.1-.11,2.97-.11,5.61h19.58c0-3.63-.11-6.71-.11-8.47ZM301.58,132.99c0,2.31-1.98,4.18-3.96,4.18-1.21,0-2.53-.88-3.3-2.86s-2.75-5.06-4.84-7.04c-.44-.44-.77-.77-.77-.99,0-.11.22-.11.55-.11,4.29,0,12.32,2.2,12.32,6.82ZM361.09,123.64c0,.66-.44,1.32-2.09,1.32h-38.28c-8.69,8.47-15.73,12.54-16.83,12.54q-.11,0-.11-.11c0-.22.22-.66.99-1.32,5.83-5.5,12.32-13.75,15.73-20.57,1.1-2.2,1.54-4.73,1.76-6.05.11-.88.11-1.21.44-1.21.99,0,11,4.29,11,6.71,0,.88-1.21,1.32-3.41,1.32q-1.54,0-2.75,1.43c-1.32,1.54-2.64,3.08-4.18,4.62h21.78c.33,0,.99-.33,1.32-.88,4.18-5.61,5.06-6.05,5.5-6.05,2.31,0,9.13,6.49,9.13,8.25ZM328.09,167.97c-.11.99-.11,7.26-.11,13.2,0,4.4,0,8.58.11,10.56v.22c0,2.09-1.98,3.41-3.85,3.41-1.32,0-2.53-.88-2.53-2.86v-.44c.44-4.62.66-21.23.66-23.21-.11-3.08-.22-6.49-.88-9.35-.11-.33-.11-.44-.11-.55s0-.22.22-.22c.44,0,10.56,1.32,10.56,3.63,0,.66-.55,1.21-1.54,1.76-2.09,1.1-2.31.44-2.53,3.85ZM352.51,157.85c0,.66-.77,1.43-1.76,1.87-2.09.99-2.2.22-2.31,4.51,0,1.76-.11,7.26-.11,12.87s.11,11.11.11,12.98c.11,1.32.44,7.26.44,7.92,0,8.25-9.24,9.9-11.22,9.9-.77,0-1.1-.22-1.65-.99-1.43-2.09-10.23-6.38-10.23-7.04h.22c.22,0,.44,0,.88.11,4.18.88,7.48,1.43,9.9,1.43,3.74,0,5.5-1.21,5.61-4.18v-10.01c0-23.1-.11-27.61-1.1-31.9-.11-.33-.11-.44-.11-.55,0-.22.11-.22.33-.22,0,0,11,1.21,11,3.3ZM340.96,133.65c0,2.31-1.98,4.29-3.96,4.29-1.21,0-2.53-.88-3.3-2.97-.77-2.09-2.75-5.28-4.84-7.37-.44-.44-.77-.77-.77-.99s.22-.22.66-.22c4.4,0,12.21,2.42,12.21,7.26Z"/><path class="cls-1" d="M333.81,287.43c-1.65,0-2.75,0-5.17-.11-.44,0-.77.22-.77.77,0,17.16.44,18.15,8.8,18.92.55.55.77,1.21.77,1.87,0,.77-.33,1.32-1.21,1.32,0,0-6.93-.88-14.63-.88-3.85,0-7.92.22-11.33.88h-.33c-.66,0-.99-.55-.99-1.21s.33-1.43.99-1.98c10.56-1.1,8.47-4.4,8.91-13.75v-2.2c0-3.41-.11-3.85-.77-3.96-1.32,0-3.41-.11-5.83-.11-6.6,0-15.62.22-19.03,1.32-.77.22-1.32.44-1.98.44-1.43,0-4.84-1.21-4.84-3.08,0-.88.66-1.76,1.54-2.53,8.25-7.81,31.24-47.96,35.31-54.67.77-1.21,2.09-2.97,6.16-2.97,3.19,0,3.41.99,3.41,1.54,0,.99-.55,1.98-.99,2.53-4.73,6.27-9.57,13.31-13.53,19.47-7.81,12.32-14.52,21.56-21.56,31.57-.33.44-.66,1.1-.66,1.76s.44,1.21,1.87,1.21h.22c6.6-.44,14.3-.44,19.91-.66.55,0,.77-.44.77-.88,0-2.97,0-14.74-.33-19.47v-.77c0-4.07,8.69-6.6,8.8-6.6.77,0,1.54.55,1.54,1.65,0,.11-.11.33-.11.55-.77,3.52-.88,21.23-.88,24.53,0,.44.22.77.66.77h.11c1.32-.11,4.07-.33,7.92-.77.66-.11,1.32-.11,1.76-.11.77,0,1.21.22,1.21,1.1,0,4.18-2.09,4.51-5.72,4.51Z"/><path class="cls-1" d="M282.44,381.59c0,13.42-7.92,25.3-15.07,25.3-2.64,0-4.51-1.76-4.51-3.96,0-1.76,1.1-3.85,3.74-5.61,7.81-5.17,11.44-12.43,14.08-21.12.22-.88.55-1.21.77-1.21.44,0,.99,3.3.99,6.6ZM341.73,417.45c0,3.52-5.28,7.37-15.51,8.03-3.96.22-8.36.44-11.99.44-12.32,0-19.58-2.42-19.58-13.31v-.77c.33-10.45.55-28.38.55-34.98,0-11.66,0-16.39-.88-20.68-.11-.44-.22-.77-.22-.99s.22-.33.55-.33c1.43,0,12.65,2.09,12.65,4.73,0,.77-.77,1.54-2.31,2.42-2.2,1.21-2.2,1.87-2.53,5.61-.66,8.25-.77,28.49-.77,42.68,0,7.81,2.86,8.8,14.63,8.8,14.19,0,15.29-1.87,18.81-20.9.11-.88.33-1.32.44-1.32.88,0,1.32,15.51,3.63,16.83,1.65.99,2.53,2.42,2.53,3.74ZM326.88,348.15c0,2.53-1.65,4.4-3.85,4.4-1.65,0-3.63-.99-5.61-3.52-4.51-5.94-10.45-9.57-16.17-12.76-.55-.33-.77-.55-.77-.77s.33-.44.99-.44c5.83,0,25.41,3.96,25.41,13.09ZM362.85,394.24c0,2.97-1.76,5.17-4.07,5.17-1.98,0-4.29-1.54-6.16-5.61-3.96-8.47-10.89-15.29-18.26-19.91-.88-.55-1.32-.88-1.32-1.1,0-.11.11-.11.22-.11,5.94,0,29.59,10.34,29.59,21.56Z"/><path class="cls-1" d="M172.46,28.6c0,.66-.44,1.43-1.98,1.43h-12.76v12.65c4.4.33,13.2,2.64,13.2,8.69,0,1.98-1.43,3.63-2.97,3.63-1.21,0-2.53-.88-3.63-2.86-1.54-2.97-3.96-6.49-6.6-8.47.11,16.94.33,36.19.77,49.94v.11c0,2.53-2.31,4.18-4.4,4.18-1.76,0-3.19-1.1-3.19-3.63v-.22c.44-11.66.88-29.7,1.1-45.87-7.59,14.52-19.14,22.66-20.79,22.66-.11,0-.22,0-.22-.11,0-.33.55-.88,1.54-1.87,6.6-6.27,18.48-27.39,19.58-37.4v-1.43c-3.52,0-6.16.22-12.21.99h-.11c-1.32,0-4.29-4.07-4.29-5.28,7.26,1.1,12.43,1.43,16.61,1.54,0-9.35-.33-21.89-1.1-26.18-.11-.33-.11-.66-.11-.77,0-.22.11-.22.22-.22.77,0,11.33,1.43,11.33,3.96,0,.66-.66,1.32-1.87,1.98-1.76.99-2.31.77-2.53,4.29-.22,3.63-.33,9.57-.33,16.94h2.09c.33,0,.77-.33,1.1-.88,1.32-2.2,3.3-5.39,4.4-5.39.22,0,.44,0,.55.11,2.97,1.43,6.6,6.49,6.6,7.48ZM232.74,17.49c0,.66-.44,1.32-2.2,1.32h-24.09l-.55,11h6.71c.44,0,1.1-.33,1.43-.88.55-.77,1.32-1.87,1.87-2.31.33-.11.55-.33.99-.33,1.87,0,7.81,3.85,7.81,5.72,0,.99-.99,1.65-1.98,2.2-1.76,1.1-1.87,1.21-1.87,6.93,0,7.81.33,28.71.66,35.2v.22c0,2.2-2.09,3.52-3.85,3.52-1.54,0-2.97-.88-2.97-2.97v-2.64h-17.49v4.4c0,1.76-2.09,2.97-3.96,2.97-1.32,0-2.53-.66-2.53-2.31v-.33c.44-4.73.55-17.05.55-26.84,0-16.28-.22-21.23-1.1-25.96,0-.33-.11-.55-.11-.66,0-.33.11-.44.33-.44s.44,0,.66.11c1.21.33,6.27,2.75,8.36,4.29l.11.11h.55c.33-4.62.33-6.16.55-11h-1.65c-5.61,0-12.43.22-21.45,1.21h-.11c-1.87,0-5.17-4.29-5.17-5.72,10.34,1.43,21.45,1.76,27.28,1.76h1.21v-.66c0-.99.11-2.42.11-3.96,0-3.19-.22-7.26-.77-10.23,0-.22-.11-.44-.11-.55,0-.33.22-.33.55-.33,1.54,0,10.89,1.1,10.89,3.52,0,.88-.99,1.87-2.64,2.64-1.1.44-1.43.99-2.09,9.57h9.68c.66,0,1.43-.44,1.76-.99,1.21-1.98,4.29-5.72,5.39-5.72,2.09,0,9.24,5.39,9.24,8.14ZM234.94,88.66c0,.66-.44,1.32-2.31,1.32h-51.26v3.3c0,2.09-1.65,3.85-3.74,3.85-1.65,0-3.08-.99-3.08-3.41v-.22c.33-6.93.55-29.26.55-43.12,0-11.55-.22-16.72-.88-20.24-.11-.33-.11-.55-.11-.66,0-.33.11-.33.44-.33,1.21,0,10.56,1.1,10.56,3.19,0,.66-.66,1.43-1.21,1.76-1.98,1.1-2.53,1.43-2.64,4.29-.11,2.75-.22,10.01-.22,18.48,0,10.34.11,22.44.22,30.36h36.3c.66,0,1.43-.44,1.76-.99,1.21-1.98,4.4-5.83,5.94-5.83.22,0,.44,0,.66.11,2.86.99,9.02,5.94,9.02,8.14ZM214.7,33.66c0-.33-.22-1.1-1.1-1.1h-14.41l-.77.55c-1.21.88-1.43,1.1-1.43,10.12h17.93c0-4.29-.11-7.81-.22-9.57ZM214.92,45.87h-17.93v10.89h17.93v-10.89ZM197.1,59.4v12.43h17.71c0-3.41.11-7.81.11-12.43h-17.82Z"/><path class="cls-1" d="M203.81,127.71c0,.77-.55,1.43-2.09,1.43h-16.61v11.88h.77c.55,0,1.1-.44,1.43-.99,1.1-1.54,2.2-3.19,3.41-4.18.33-.22.55-.33.77-.33.11,0,.33.11.55.22,3.41,1.65,7.15,4.84,7.15,6.6,0,.66-.44,1.43-1.98,1.43h-14.74c-2.86,0-7.7.33-11.44.99h-.22c-1.76,0-4.84-3.85-5.06-5.28h-11.22v11.55c4.73,0,12.87,1.76,12.87,7.48,0,1.87-1.21,3.41-2.75,3.41-1.1,0-2.31-.66-3.41-2.42-1.65-2.64-4.07-5.72-6.71-7.48,0,17.05.33,36.96.77,51.15v.11c0,2.53-2.31,4.18-4.4,4.18-1.65,0-3.08-1.1-3.08-3.63v-.22c.44-11.77.88-29.59,1.1-45.76-6.6,15.18-17.6,22.77-18.92,22.77-.11,0-.22,0-.22-.11,0-.22.44-.88,1.43-1.87,5.83-6.16,16.61-26.62,17.82-37.29v-1.87c-3.08,0-4.95.22-10.89.99h-.11c-1.32,0-4.4-4.07-4.4-5.28,7.15,1.1,11.44,1.43,15.4,1.54,0-11.77-.11-20.68-1.1-25.63-.11-.33-.11-.66-.11-.77,0-.22.11-.22.22-.22.77,0,11.33,1.43,11.33,3.96,0,.66-.66,1.32-1.87,1.98-1.76.99-2.42.77-2.64,4.29-.22,3.52-.33,9.35-.33,16.39h.99c.33,0,.99-.33,1.32-.88,2.42-4.07,3.96-5.39,4.4-5.39,2.31,0,7.59,6.16,7.59,7.59,0,.66-.44,1.43-2.09,1.43,4.73.88,9.35,1.32,12.76,1.43.11-3.85.11-8.36.11-11.66-3.85.11-7.7.44-11.44.99h-.11c-1.87,0-5.06-4.18-5.06-5.5,7.48,1.32,11.88,1.65,16.5,1.65v-1.1c0-6.05,0-8.91-1.1-13.64-.11-.44-.11-.66-.11-.77s0-.11.11-.11c1.21,0,11.22,1.87,11.22,3.96,0,.66-.66,1.32-1.65,1.87-2.31,1.32-2.64.44-2.75,5.61,0,1.32-.11,2.64-.11,4.18h4.62c.55,0,1.1-.44,1.43-.99,2.86-4.29,3.96-5.39,4.62-5.39,1.1,0,8.03,4.84,8.03,7.7ZM169.27,201.41c-.99.33-1.32,1.32-2.09,1.32-1.54,0-6.16-6.82-6.16-7.48,0-.22.22-.22.55-.22.66.11,1.32.11,2.09.11,4.07,0,8.58-.88,19.8-3.19.44-.88,4.73-10.34,4.95-17.16v-.66h.11c.88,0,9.24,3.19,9.24,4.51,0,.55-.77,1.21-2.64,1.43-1.43.22-1.32.55-1.98,1.54-1.65,2.31-3.96,6.05-6.71,9.79,5.83-1.32,12.1-2.75,16.72-3.96.88-.22,1.54-.33,1.98-.33.33,0,.55,0,.55.22s-.55.66-1.54,1.1c-10.12,4.62-28.71,10.78-34.87,12.98ZM198.75,155.1c0,.88-.99,1.43-1.76,1.98-1.54.99-1.76,1.76-1.76,3.08l.55,9.46v.22c0,2.31-1.65,3.74-3.52,3.74-1.32,0-2.53-.88-2.53-2.86v-.88h-14.52v2.2c0,2.86-3.19,3.52-3.63,3.52-1.32,0-2.42-.88-2.42-2.75v-.55c.33-3.96.66-8.8.66-11.99v-1.32c0-1.1-.22-5.94-.88-9.24,0-.22-.11-.33-.11-.55,0-.11.11-.22.22-.22.55,0,5.61,2.09,8.14,3.74h10.56c.44,0,.99-.33,1.32-.88.33-.55,1.76-2.64,2.64-2.64,1.1,0,7.04,3.85,7.04,5.94ZM181.04,186.12c0,2.31-1.76,4.07-3.52,4.07-1.32,0-2.64-.99-3.3-3.52-.66-2.53-2.64-6.6-4.62-9.02-.44-.66-.77-.99-.77-1.1,0,0,.11-.11.22-.11.88,0,11.99,3.63,11.99,9.68ZM189.95,162.58c0-1.65,0-3.52-.22-5.83,0-.33-.33-1.21-1.21-1.21h-11.11l-.66.55c-1.54.99-1.43.88-1.54,3.19-.11,1.65-.11,4.73-.11,7.81h14.74c.11-1.43.11-2.86.11-4.51ZM212.28,167.64c0,2.2-1.65,3.96-3.41,3.96-1.32,0-2.64-.77-3.63-2.97-1.43-3.19-4.4-6.71-7.26-9.13-.55-.44-.77-.66-.77-.77s.11-.22.33-.22c5.83,0,14.74,3.52,14.74,9.13ZM234.83,141.46c0,.55-.44,1.1-1.87,1.1h-11.99v7.37c0,11,.11,22.44.33,31.79,0,2.09.44,10.89.44,13.31,0,9.46-9.02,11.33-11,11.33-.88,0-1.21-.22-1.65-1.21-1.54-2.75-8.58-7.26-8.58-8.25,0-.11.11-.11.33-.11s.55,0,.99.11c3.52.88,6.16,1.32,8.14,1.32,3.74,0,5.06-1.54,5.17-4.73.11-6.38.22-14.96.22-23.98s-.11-18.7-.22-26.95c-3.3.11-7.26.33-11.66.99h-.11c-1.21,0-4.18-4.07-4.18-5.28,5.61.88,11.44,1.32,15.95,1.43-.33-17.49-.55-22.66-1.54-27.5-.11-.33-.11-.55-.11-.66,0-.22.11-.33.33-.33.88,0,11.88,1.87,11.88,4.18,0,.88-.99,1.76-1.98,2.31-2.2,1.21-2.2.22-2.42,5.61-.22,4.73-.33,10.34-.33,16.5h1.87c.22,0,.88-.33,1.21-.88,2.75-4.62,3.19-5.06,3.96-5.06.11,0,.33,0,.44.11,2.53,1.21,6.38,5.83,6.38,7.48Z"/><path class="cls-1" d="M234.61,283.91c0,.77-.44,1.54-2.31,1.54h-17.93c0,1.87.11,3.52.11,4.62,0,6.38.33,8.47.33,12.98,0,9.02-8.47,13.86-13.86,13.86-.77,0-.99-.33-1.54-1.21-1.54-2.64-12.65-7.7-12.65-8.58,0-.11.11-.11.33-.11s.55,0,.99.11c5.17,1.1,9.02,1.65,11.88,1.65,5.61,0,7.48-2.2,7.59-6.82.11-4.29.22-10.12.22-16.5h-49.39c0,9.02,0,18.81.11,28.38v.22c0,2.75-2.64,3.96-4.51,3.96-1.65,0-3.08-.99-3.08-3.41v-.33c.55-9.79.88-19.36,1.1-28.71-4.4.11-9.35.44-14.63.88h-.11c-1.87,0-4.62-4.18-4.62-5.39,6.82.77,13.64,1.21,19.36,1.43,0-3.52.11-7.15.11-10.67,0-10.12-.22-23.54-1.54-30.14-.11-.44-.11-.66-.11-.77,0-.22,0-.33.11-.33.66,0,8.14,3.08,10.89,5.06l.44.33h17.71c0-4.62,0-11.44-.44-14.41h-5.17c-6.16,0-20.9.22-30.69,1.21h-.11c-1.98,0-4.84-4.29-4.84-5.72,11.33,1.32,29.7,1.76,36.08,1.76h35.31c.77,0,1.54-.44,1.87-.99.99-1.54,4.62-7.04,6.38-7.04.22,0,.44,0,.66.11,3.3,1.21,9.9,7.26,9.9,9.35,0,.66-.55,1.32-2.42,1.32h-38.83l.66.22c.77.33,1.1.66,1.1.99,0,.44-.44.88-1.21,1.21-1.65.77-1.65.88-1.65,2.64-.11,2.42-.11,5.61-.11,9.35h18.59c.55,0,1.21-.44,1.65-.99.99-1.32,2.75-3.52,3.85-3.52,1.21,0,9.13,4.62,9.13,7.26,0,1.21-1.43,2.09-3.3,3.08-1.65.88-1.98,1.1-1.98,11.66,0,5.94.22,13.42.33,19.14h3.74c.33,0,1.1-.33,1.43-.88,2.75-5.28,4.18-7.48,5.39-7.48.33,0,.55.11.77.11,3.96,1.54,8.91,7.92,8.91,9.57ZM158.6,266.86c-.11,4.62-.11,10.01-.11,15.73h21.12c0-3.74.11-9.68.11-15.73h-21.12ZM179.61,249.81v-.99h-18.15l-.88.66c-1.76,1.21-1.87,1.76-1.87,4.73,0,2.42-.11,5.72-.11,9.79h21.12c0-5.39-.11-10.67-.11-14.19ZM207.33,250.36c0-.77-.66-1.54-1.43-1.54h-19.8v15.18h21.56c-.11-5.17-.11-9.9-.33-13.64ZM207.66,266.86h-21.56c0,6.05.11,11.66.11,15.73h21.56c0-5.17,0-10.56-.11-15.73Z"/><path class="cls-1" d="M236.26,413.38c.22,0,.22.11.22.22,0,.99-7.59,5.83-9.13,9.13-.44.88-.99,1.54-2.09,1.76-.88.11-14.96,1.76-29.26,1.76-12.32,0-34.65-.33-39.6-18.37-2.64,3.63-9.46,10.78-14.3,16.06-.33.44-.55,2.53-1.65,2.53-1.65,0-8.36-7.04-8.36-7.7,0-.22.22-.44.77-.55,4.84-1.1,12.76-6.16,17.82-10.23,1.65-1.43,1.98-2.53,1.98-20.13,0-2.75-.11-5.06-.11-6.27,0-.77-.55-1.21-1.32-1.21h-2.09c-1.87,0-6.82,1.1-8.91,1.21h-.11c-1.76,0-4.84-4.29-4.84-5.83,3.85.55,11.88,1.54,13.97,1.54h1.76c.66,0,1.32-.44,1.76-.99,2.31-2.75,2.86-2.75,3.19-2.75.44,0,8.91,3.52,8.91,6.38,0,1.21-1.65,2.09-2.75,2.53-1.54.66-2.75.44-2.97,2.97-.33,3.52-.55,8.91-.55,13.75,0,2.09.11,4.18.11,5.94,0,.66.11,2.31.55,3.3,3.85,8.69,14.96,10.89,30.47,10.89,14.19,0,32.78-1.87,45.1-5.61.66-.22,1.1-.33,1.43-.33ZM162.12,348.04c0,2.53-1.65,4.51-3.74,4.51-1.54,0-3.3-.99-4.84-3.41-2.86-4.4-8.25-8.91-11.99-11.11-.44-.33-.66-.55-.66-.66,0-.22.33-.33.88-.33,3.74,0,20.35,2.64,20.35,11ZM229.77,403.81c0,.66-.44,1.21-2.31,1.21h-46.75c0,1.43.11,2.64.11,3.52,0,.99-.88,4.62-4.51,4.62-1.65,0-2.97-.99-2.97-3.52v-.77c.88-8.58,1.54-38.39,1.54-42.68v-8.58c-7.7,10.01-13.42,14.08-14.52,14.08-.11,0-.22-.11-.22-.22,0-.22.33-.66.88-1.32,6.6-7.04,18.26-27.94,19.36-37.51.11-.77,0-.99.44-.99.66,0,11.22,3.3,11.22,5.39,0,.99-1.54,1.87-3.52,1.98-1.76.11-1.87.11-2.64,1.54-1.98,3.63-4.18,7.37-6.6,11l3.41.88.66.22h13.09c.44-1.21,4.18-12.43,4.18-18.04,0-.55,0-1.1-.11-1.54,0-.22-.11-.44-.11-.66,0-.33.11-.44.44-.44.11,0,11.33,2.64,11.33,5.06,0,.77-.77,1.43-2.86,1.76-1.43.22-1.87.44-2.42,1.54-2.2,4.18-5.28,8.69-8.14,12.32h11.66c.33,0,1.21-.44,1.54-.99,2.86-4.4,3.96-5.94,5.28-5.94.22,0,.44,0,.55.11,3.85,1.43,9.13,7.26,9.13,8.47,0,.66-.44,1.1-2.31,1.1h-20.79c.44.22.66.55.66.88,0,.66-.99,1.32-2.2,1.65-.77.22-.88.99-.88,2.09-.11,2.31-.11,5.28-.11,8.47h7.26c.33,0,1.21-.44,1.54-.99,3.08-4.73,4.4-5.17,4.84-5.17.22,0,.44,0,.55.11,2.97,1.1,8.14,6.16,8.14,7.7,0,.66-.44,1.1-2.31,1.1h-20.13v12.54h7.37c.33,0,1.21-.44,1.54-.99,2.42-3.63,3.85-5.28,4.84-5.28.22,0,.44,0,.55.11,1.87.66,8.14,5.83,8.14,7.81,0,.66-.44,1.1-2.31,1.1h-20.13c0,5.83.11,11.44.11,15.73h11.66c.33,0,1.1-.44,1.43-.99,3.19-4.95,4.07-6.27,5.5-6.27.22,0,.44,0,.55.11,4.29,1.54,9.35,7.48,9.35,8.69ZM195.23,367.4c0-7.59-.11-9.9-.44-11.99h-11.22l-1.1.55c-1.21.66-1.87.88-1.87,12.54h14.63v-1.1ZM180.6,371.25v12.54h14.52c0-4.73.11-9.35.11-12.54h-14.63ZM180.6,386.54c0,5.72.11,11.33.11,15.73h14.3c0-3.3.11-9.46.11-15.73h-14.52Z"/><path class="cls-1" d="M177.96,448.91c0,.88-1.1,1.76-3.74,2.31-1.76.33-2.09.55-3.52,2.64-3.19,4.73-6.49,9.35-9.9,13.75,4.18.88,6.49,1.32,6.49,2.42,0,.66-.88,1.32-2.42,1.98-2.42,1.1-2.64,1.1-2.75,4.62-.33,9.02-.55,20.46-.55,32.34,0,8.03.11,16.17.33,23.76,0,2.31-2.42,4.62-5.06,4.62-1.87,0-3.41-.99-3.41-3.63v-.66c1.32-15.51,2.2-35.2,2.2-49.06v-10.12c-13.75,15.84-23.98,21.34-25.08,21.34-.11,0-.22-.11-.22-.22,0-.33.55-.99,1.32-1.65,10.12-8.91,23.87-25.96,32.01-42.24,1.21-2.42,2.09-5.83,2.53-8.03.11-.55,0-.88.33-.88.88,0,10.01,4.73,10.56,5.28.55.55.88.99.88,1.43ZM232.19,526.79c0,2.86-4.73,6.16-14.08,6.82-2.97.22-8.8.33-13.75.33-11.88,0-18.92-.88-18.92-11v-.77c.22-12.87.55-53.68.66-63.47,0-3.85-.22-10.12-.77-14.52,0-.44-.11-.66-.11-.88s.11-.33.44-.33c1.76,0,12.1,2.42,12.1,4.51,0,.66-.77,1.43-2.31,2.2-1.54.66-2.2.44-2.42,4.07-.22,2.53-.33,17.6-.44,32.89,7.04-4.4,24.31-15.95,25.74-21.45.11-.44.22-.55.44-.55,1.54,0,9.9,7.15,9.9,9.02,0,.88-.77,1.54-2.53,1.54-.44,0-.99,0-1.54-.11-.55-.11-.99-.11-1.32-.11-.44,0-.77,0-1.32.33-6.93,4.07-20.35,10.45-29.37,13.64-.11,14.08-.22,27.83-.22,31.46.11,5.94.44,7.04,13.53,7.04,4.07,0,8.58-.11,11.22-.55,5.72-.77,7.26-9.68,9.9-21.67.22-.88.33-1.21.44-1.21.88,0,.33,18.37,2.42,19.58,1.54.88,2.31,1.98,2.31,3.19Z"/><path class="cls-1" d="M44.88,9.9c0,.55-.44,1.1-2.09,1.1h-5.06c0,.55-.55,1.32-1.65,1.65-1.1.44-1.32.88-1.32,2.31-.11,3.19-.22,11.11-.22,20.79,0,20.35.33,48.73.99,58.3v.33c0,2.09-2.2,3.96-4.4,3.96-1.43,0-2.75-.99-2.75-3.3v-.33c.22-4.62.44-14.19.55-24.97-6.82,4.07-13.75,7.7-18.48,9.9-.88.44-1.21,1.43-1.76,1.43-1.32,0-6.05-6.49-6.05-7.7,0-.22.22-.33.55-.33h1.21c1.87,0,3.74-.22,8.03-1.1.11-8.36.22-31.9.22-44.77v-6.93c0-6.71-.11-7.59-.22-8.8-1.54.11-3.08.22-4.51.44h-.11c-1.32,0-4.4-4.07-4.4-5.28,8.03,1.21,19.14,1.65,23.43,1.65h4.62c.33,0,.88-.22,1.32-.88,1.1-1.65,1.76-3.3,3.3-5.06.22-.22.44-.33.77-.33.22,0,.44.11.66.11,3.52,1.43,7.37,6.49,7.37,7.81ZM28.93,21.67c0-1.54,0-7.26-.33-10.67h-7.15c0,.11.11.22.11.22,0,.66-.99,1.21-2.09,1.54-.66.22-.77.99-.77,2.09-.11,2.75-.22,7.37-.22,12.87h10.56c0-2.64-.11-4.62-.11-6.05ZM29.04,30.69h-10.56v15.95h10.67c0-5.94-.11-11.44-.11-15.95ZM29.04,49.61h-10.56c0,8.36.11,16.17.11,20.9,3.19-.77,6.82-1.87,10.45-3.08v-17.82ZM104.72,93.83c0,2.2-1.43,3.3-3.52,3.3-3.96,0-13.75-5.61-19.69-20.24-16.94,20.02-38.61,20.9-41.14,20.9-1.1,0-1.65-.11-1.65-.33,0-.44,1.32-.88,3.52-1.32,14.96-2.64,27.94-11.77,37.18-25.19-2.97-9.9-4.07-20.9-4.62-30.69h-18.59c-.11.11-.22.11-.33.11s-.22,0-.22-.11c-5.28,0-9.13.22-15.18.77h-.11c-1.76,0-4.51-3.74-4.51-4.95,10.12,1.21,14.85,1.54,20.46,1.54,1.65-4.84,3.41-12.76,3.41-16.72,0-1.1.11-1.1.22-1.1.99,0,9.57,3.19,9.57,5.28,0,.77-.77,1.43-2.53,1.65-1.32.22-1.21.66-1.98,1.76-1.54,2.31-3.85,5.72-6.49,9.13h16.06c-.33-7.81-.33-14.74-.66-19.25-.22-2.97-.66-12.54-1.98-17.16-.11-.33-.11-.55-.11-.66,0,0,0-.11.99-.11,1.43.11,10.56.99,10.56,3.74,0,.77-.55,1.65-1.65,2.31-1.76,1.21-1.87.77-1.98,4.84-.22,4.62-.33,9.57-.33,14.85,0,3.74.11,7.59.22,11.44h8.91c.33,0,1.1-.33,1.43-.88,1.76-2.64,3.19-4.73,4.29-4.73.22,0,.44.11.66.11,2.2.88,7.59,5.06,7.59,6.93,0,.66-.55,1.21-2.31,1.21h-20.46c.44,8.69,1.43,17.27,3.3,24.75,3.96-7.15,6.27-14.52,6.49-16.83,0-.44,0-.66.33-.66.99,0,9.57,3.85,9.57,5.83,0,.77-.99,1.54-2.97,1.54-1.32,0-1.87.44-2.31,1.43-2.53,5.72-5.39,11-8.91,15.84,4.4,11.66,9.9,14.63,11.11,14.63,1.87,0,3.52-3.3,7.26-13.42.44-1.21.77-1.87.99-1.98h.11c.11,0,.22.44.22,1.1,0,3.19-1.32,12.1-1.32,16.17,0,.88.11,1.54.22,1.87.66,1.32.88,2.42.88,3.3ZM72.6,15.95c0,.66-.44,1.43-2.2,1.43h-14.19c-1.87,0-6.49,0-13.53.88h-.11c-1.76,0-4.51-3.52-4.51-4.73,7.48,1.1,10.89,1.32,14.41,1.32v-1.98c-.11-3.74-.11-9.13-.66-11.88-.11-.33-.11-.55-.11-.66,0-.22.11-.33.22-.33.88,0,10.89,1.32,10.89,3.74,0,.66-.66,1.43-1.87,2.09-2.53,1.43-2.31,1.32-2.42,4.51-.11,1.21-.11,2.97-.11,4.51h1.98c.33,0,1.1-.22,1.43-.77.88-1.32,1.65-3.19,2.86-4.4.22-.22.55-.33.88-.33.99,0,7.04,3.96,7.04,6.6ZM71.06,52.14c0,.99-1.21,1.65-2.09,2.2-1.32.88-1.76,1.21-1.76,5.61s.33,12.98.66,17.49v.11c0,2.2-2.09,3.3-3.74,3.3-1.32,0-2.42-.66-2.42-2.42v-.88h-12.76v4.4c0,1.87-1.98,3.08-3.63,3.08-1.32,0-2.42-.66-2.42-2.42v-.33c.55-7.26.66-17.27.66-22.44,0-1.32-.33-9.68-1.1-13.64,0-.33-.11-.44-.11-.66,0-.11.11-.22.22-.22s.33.22.77.33c1.21.33,5.83,2.64,7.81,4.18l.22.11h8.25c.44,0,1.1-.33,1.43-.88.66-1.1,1.87-2.64,2.64-2.64.22,0,.55.11.88.22.33.11,6.49,3.3,6.49,5.5ZM53.9,30.25c0,2.31-1.65,4.07-3.3,4.07-1.21,0-2.53-.99-3.08-3.52-.55-2.31-2.2-6.05-3.85-8.25-.33-.44-.55-.88-.55-1.1s.11-.22.44-.22c1.87,0,10.34,3.41,10.34,9.02ZM61.71,53.9c0-.33-.22-1.21-1.1-1.21h-9.46l-.22.22c-1.76,1.1-1.98.66-1.98,3.52v5.83h12.87c0-3.41,0-6.38-.11-8.36ZM48.95,64.9v9.9h12.76c.11-3.19.11-6.6.11-9.9h-12.87ZM97.46,23.87c0,2.2-1.54,3.96-3.41,3.96-1.21,0-2.53-.77-3.63-2.75-1.76-3.08-5.06-6.38-8.14-8.58-.55-.44-.77-.66-.77-.77,0,0,0-.11,1.1-.11h.44c7.37,0,14.41,3.74,14.41,8.25Z"/><path class="cls-1" d="M105.82,199.98c0,.88-10.67,1.1-13.64,4.18-.33.33-.77.55-1.21.55-2.53,0-34.87-23.98-34.87-75.46,0-2.2.11-4.4.22-6.71-1.76.77-2.2.88-2.31,6.27-.88,62.37-45.32,77.77-47.41,77.77-.22,0-.33-.11-.33-.22,0-.44,1.1-1.43,2.53-2.2,25.85-14.3,37.51-48.07,37.51-75.79v-.44c0-5.28-.55-10.12-.99-12.54-.11-.22-.11-.44-.11-.55s.11-.22.22-.22c1.32,0,14.19,1.98,14.19,5.06,0,.66-.55,1.32-1.65,1.98v2.2c0,28.71,16.28,66.11,46.97,75.57.66.22.88.33.88.55Z"/><path class="cls-1" d="M101.42,307.56c0,.77-.55,1.54-2.42,1.54H19.47v4.51c0,2.53-2.53,4.18-4.73,4.18-1.76,0-3.19-.99-3.19-3.3v-.44c1.1-16.17,1.54-41.69,1.54-60.72,0-4.4-.11-8.36-.11-11.88,0-3.08-.33-13.09-1.32-17.6-.11-.33-.11-.55-.11-.77s.11-.33.22-.33c.66,0,8.36,3.08,11.22,5.06l.55.44h56.87c.66,0,1.54-.44,1.87-.99,1.43-2.09,4.95-6.16,5.94-6.16.22,0,.44.11.66.11,3.3,1.21,9.57,6.38,9.57,8.36,0,.77-.55,1.65-2.42,1.65H22.88l-.77.55c-1.87,1.21-1.87,1.76-1.87,4.73-.11,8.8-.66,45.1-.77,69.63h63.47c.66,0,1.54-.44,1.87-.99,1.21-1.76,4.62-6.71,6.05-6.71.33,0,.55.11.77.11,3.52,1.21,9.79,7.04,9.79,9.02ZM92.62,264.22c0,.77-.55,1.43-2.2,1.43h-24.64c.33.11,3.19.55,3.19,1.65,0,.66-.88,1.32-1.43,1.54-1.98.88-1.98,1.1-1.98,11.77,0,5.83.22,12.65.33,18.26,0,1.65-1.65,3.3-3.96,3.3-1.65,0-3.19-.88-3.19-2.86v-.22c.33-6.05.66-15.07.66-21.12,0-2.31-.11-10.01-.33-12.32h-18.48c-2.31,28.82-19.47,36.19-20.13,36.19-.22,0-.33-.11-.33-.22,0-.22.33-.66,1.1-1.32,10.23-9.35,12.98-25.74,12.98-39.82,0-1.65,0-3.3-.11-4.95,0-1.1-.44-8.58-1.21-11.99-.11-.33-.11-.55-.11-.66s.11-.22.11-.22c.33,0,6.93,2.42,9.68,4.07,7.48-1.87,16.94-4.95,25.3-8.47,1.32-.55,2.75-1.65,3.74-2.64.33-.33.44-.66.77-.66.55,0,6.93,6.05,6.93,7.92,0,.77-.55,1.32-1.87,1.32-.44,0-.88,0-1.54-.22-.55-.11-1.1-.22-1.54-.22-.55,0-1.1.11-1.65.22-9.13,2.2-20.46,3.96-29.37,4.95-.22.33-.66.66-1.32,1.1-.99.55-1.21,1.54-1.21,2.86v4.95c0,1.65,0,3.41-.11,5.06h36.08c.33,0,.99-.33,1.32-.88.11-.22,3.74-6.38,5.39-6.38,1.76,0,9.13,5.72,9.13,8.58Z"/><path class="cls-1" d="M22.44,381.59c0,13.42-7.92,25.3-15.07,25.3-2.64,0-4.51-1.76-4.51-3.96,0-1.76,1.1-3.85,3.74-5.61,7.81-5.17,11.44-12.43,14.08-21.12.22-.88.55-1.21.77-1.21.44,0,.99,3.3.99,6.6ZM81.73,417.45c0,3.52-5.28,7.37-15.51,8.03-3.96.22-8.36.44-11.99.44-12.32,0-19.58-2.42-19.58-13.31v-.77c.33-10.45.55-28.38.55-34.98,0-11.66,0-16.39-.88-20.68-.11-.44-.22-.77-.22-.99s.22-.33.55-.33c1.43,0,12.65,2.09,12.65,4.73,0,.77-.77,1.54-2.31,2.42-2.2,1.21-2.2,1.87-2.53,5.61-.66,8.25-.77,28.49-.77,42.68,0,7.81,2.86,8.8,14.63,8.8,14.19,0,15.29-1.87,18.81-20.9.11-.88.33-1.32.44-1.32.88,0,1.32,15.51,3.63,16.83,1.65.99,2.53,2.42,2.53,3.74ZM66.88,348.15c0,2.53-1.65,4.4-3.85,4.4-1.65,0-3.63-.99-5.61-3.52-4.51-5.94-10.45-9.57-16.17-12.76-.55-.33-.77-.55-.77-.77s.33-.44.99-.44c5.83,0,25.41,3.96,25.41,13.09ZM102.85,394.24c0,2.97-1.76,5.17-4.07,5.17-1.98,0-4.29-1.54-6.16-5.61-3.96-8.47-10.89-15.29-18.26-19.91-.88-.55-1.32-.88-1.32-1.1,0-.11.11-.11.22-.11,5.94,0,29.59,10.34,29.59,21.56Z"/><path class="cls-1" d="M45.65,460.57c0,.55-.55.88-1.87.88h-1.43c-.99,0-1.21.33-1.98,1.1-2.64,2.53-6.82,6.93-11.55,10.78v4.95h2.64c.33,0,.99-.33,1.32-.88.22-.33,2.97-4.95,4.29-4.95,1.54,0,7.59,5.17,7.59,7.26,0,.66-.44,1.32-1.98,1.32h-13.86v8.58c5.17.11,15.29,2.31,15.29,9.02,0,2.09-1.32,3.74-3.08,3.74-1.21,0-2.53-.88-3.85-2.86-1.98-3.19-5.17-6.93-8.36-9.02.11,15.07.55,31.24.88,43.23v.11c0,2.53-2.31,4.18-4.4,4.18-1.65,0-3.08-1.1-3.08-3.63v-.22c.44-9.9.77-24.42.99-38.39-8.03,15.62-21.45,24.09-22.99,24.09-.11,0-.22-.11-.22-.22,0-.33.55-.99,1.65-1.98,6.49-5.72,19.14-25.52,21.67-35.75v-.88c-3.96,0-8.8.22-14.74.99h-.11c-1.32,0-4.51-4.07-4.51-5.28,7.15,1.1,14.63,1.43,19.36,1.54,0-16.61,0-31.02-.99-36.19-.11-.44-.11-.66-.11-.88q0-.11.11-.11c.44,0,11.33,1.76,11.33,3.96,0,.66-.66,1.32-1.87,1.98-1.76.99-2.42.66-2.64,4.18-.22,4.07-.33,11.33-.33,20.02,2.97-4.4,6.71-10.67,8.36-16.72.22-.77.22-1.1.44-1.1.99,0,8.03,5.83,8.03,7.15ZM20.46,466.29c0,2.42-1.65,4.18-3.52,4.18-1.21,0-2.53-.88-3.41-3.3-.88-2.64-3.41-6.71-5.72-9.02-.55-.55-.88-.88-.88-1.1,0-.11.11-.11.33-.11,2.97,0,13.2,3.3,13.2,9.35ZM104.39,478.28c0,.77-.55,1.43-2.2,1.43h-32.67c-5.5,0-11.55.11-20.46,1.1h-.11c-1.87,0-5.06-4.29-5.06-5.61,9.68,1.32,19.47,1.76,25.3,1.76.11-2.53.11-6.05.11-9.46-4.62,0-5.06.11-13.09.99h-.11c-1.87,0-4.95-3.96-4.95-5.28,8.91,1.21,13.2,1.54,18.15,1.54,0-4.29-.11-7.81-.11-8.25l.11-.77h-1.1c-5.39,0-8.25.22-16.83,1.21h-.11c-1.76,0-4.84-4.29-4.84-5.61,9.9,1.32,16.72,1.76,22.22,1.76h.66c0-4.29-.22-8.8-1.21-12.87-.11-.33-.11-.55-.11-.77q0-.11.11-.11c.77,0,11.88,1.65,11.88,3.96,0,.55-.66,1.21-1.76,1.76-2.42,1.32-2.75.44-2.97,5.5v2.53h10.89c.66,0,1.32-.44,1.65-.99,1.21-1.76,3.74-5.28,5.06-5.28,1.43,0,8.47,4.84,8.47,7.59,0,.66-.44,1.32-2.09,1.32h-24.09v9.02h5.72c.66,0,1.21-.44,1.54-.88.88-1.21,3.41-4.51,4.62-4.51.88,0,8.36,3.96,8.36,6.82,0,.66-.55,1.32-2.09,1.32h-18.15c0,3.85,0,7.37.11,9.46h13.09c.66,0,1.32-.44,1.65-.99,1.21-1.76,4.18-5.61,5.28-5.61,1.54,0,9.13,5.5,9.13,7.92ZM95.92,490.82c0,.88-.99,1.43-1.87,1.98-1.43.77-2.2.77-2.31,2.86-.11,2.42-.22,6.16-.22,10.01s.11,7.59.11,10.23c0,1.87.33,7.26.33,9.13,0,10.45-9.35,12.32-12.21,12.32-.88,0-1.21-.44-1.76-1.32-1.43-1.98-11.44-6.6-11.44-7.48,0,0,.11-.11.33-.11.11,0,.44,0,.77.11,4.84.88,8.47,1.32,11.11,1.32,5.06,0,6.71-1.65,6.82-5.39.11-1.87.11-5.28.11-9.35h-25.74c0,6.71.11,13.75.22,19.14v.22c0,2.31-2.09,3.52-3.96,3.52-1.54,0-2.86-.88-2.86-2.64v-.22c.44-9.13.66-18.15.66-25.74,0-4.29-.11-8.14-.22-11.22,0-1.43-.33-9.35-1.21-12.98-.11-.33-.11-.44-.11-.66s.11-.22.22-.22c.99,0,6.71,2.42,8.91,3.74h22c.44,0,.99-.33,1.32-.88.11-.11,1.76-2.75,2.86-2.75,1.43,0,8.14,4.51,8.14,6.38ZM85.58,492.25c0-.33,0-1.21-1.21-1.21h-22.55l-.33.22c-1.43.99-1.43,1.1-1.54,3.96v5.17h25.74c0-3.3-.11-6.27-.11-8.14ZM85.69,503.25h-25.74v9.02h25.85c0-2.97-.11-6.05-.11-9.02Z"/><path class="cls-1" d="M45.1,574.64c0,1.21-1.76,1.87-2.64,2.31-1.1.44-1.76.88-3.08,3.19-2.31,3.85-5.06,8.14-8.36,12.43l.99.33c1.1.33,1.54.77,1.54,1.1,0,.66-.88,1.21-1.65,1.65-1.98.99-2.31.55-2.42,4.29-.11,5.5-.22,13.2-.22,21.23s.11,16.5.44,23.54v.11c0,2.31-2.53,3.63-4.4,3.63-1.65,0-3.19-.88-3.19-3.08v-.33c.77-13.64,1.1-29.26,1.1-38.61v-5.06c-11.88,11.66-22,13.97-22.77,13.97-.22,0-.33-.11-.33-.22,0-.33.99-1.1,2.97-2.31,19.8-12.32,30.25-35.42,30.25-37.51,0-.44-.33-.66-.77-.66l-3.41.11c-3.74.11-13.42.33-18.81,1.1h-.11c-1.32,0-4.29-3.96-4.29-5.17,4.84.66,12.1.99,17.6,1.1v-4.29c0-5.39-.33-11.55-1.21-15.29-.11-.33-.11-.55-.11-.77q0-.11.11-.11c1.1,0,12.65,1.76,12.65,4.07,0,.77-.66,1.43-1.76,2.2-2.53,1.65-2.86.55-3.19,5.72-.11,1.76-.22,5.94-.22,8.47l3.19-.11c.55,0,1.1-.44,1.54-.99,1.76-1.98,2.2-2.31,2.64-2.31.88,0,7.92,3.63,7.92,6.27ZM47.3,605.77c0,2.31-1.54,4.07-3.52,4.07-1.32,0-2.75-.77-3.85-2.97-1.32-2.53-4.84-6.6-7.7-8.69-.77-.55-1.1-.88-1.1-1.1,0,0,.11-.11.33-.11,7.59,0,15.84,3.74,15.84,8.8ZM99.44,573.32c0,1.21-1.32,1.98-2.42,2.64-2.09,1.21-2.09,1.32-2.09,10.23,0,9.46.33,24.53.77,32.67v.22c0,2.42-2.2,3.96-4.07,3.96-1.54,0-2.97-.99-2.97-3.19,0-1.54.11-3.3.11-5.06h-13.64c.11,9.9.33,19.8.55,28.16v.11c0,3.08-3.08,4.07-4.73,4.07-1.76,0-3.19-.88-3.19-3.3v-.44c.55-7.81.88-18.04,1.1-28.6h-12.43v6.38c0,2.09-2.2,3.52-4.18,3.52-1.43,0-2.75-.77-2.75-2.86v-.33c.66-10.78.77-26.4.77-34.98,0-10.56-.77-16.61-1.32-19.03,0-.33-.11-.44-.11-.66s.11-.22.22-.22c.33,0,6.93,2.31,9.9,4.4l.11.11h9.9c0-.77-.11-1.54-.11-2.31-.11-3.08.11-12.98-1.1-17.82-.11-.44-.22-.66-.22-.77s.11-.11.22-.11c1.32,0,12.54,1.76,12.54,4.18,0,.77-.88,1.65-2.31,2.53-2.42,1.43-2.09,1.21-2.42,4.62-.22,2.09-.44,5.5-.55,9.68h11.88c.55,0,.66-.22.99-.77,1.87-2.53,2.42-2.86,2.97-2.86,1.32,0,8.58,3.52,8.58,5.83ZM56.32,593.56c0,5.83.11,12.32.11,18.37h12.43c.11-6.16.22-12.43.22-18.37h-12.76ZM68.97,574.09h-10.34c-.22.22-.66.44-.99.66-.99.55-1.21.44-1.21,3.19v12.76h12.65c0-6.05,0-11.77-.11-16.61ZM88.66,575.3c0-.33-.33-1.21-.99-1.21h-12.65c-.11,4.84-.11,10.45-.11,16.61h13.97c0-6.82,0-12.54-.22-15.4ZM74.91,593.56c0,5.83,0,12.1.11,18.37h13.75c.11-5.94.11-12.43.11-18.37h-13.97Z"/></g></svg>