<?xml version="1.0" encoding="UTF-8"?><svg id="_圖層_2" xmlns="http://www.w3.org/2000/svg" viewBox="0 0 600.87 340.99"><defs><style>.cls-1{fill:#fff;}</style></defs><g id="_圖層_1-2"><path class="cls-1" d="M135.94,92.66c-7.73,0-15.09-.87-22.95-.87-3.74,0-7.61.25-11.6.75h-.25c-.87,0-1.25-.62-1.25-1.37s.37-1.62,1.25-2.25c10.48-1,10.6-3.24,10.97-15.09,0-3.87,0-8.85.12-14.96.12-3.12.12-8.11.12-12.97s0-9.85-.12-12.85v-2.49c0-19.45-.12-22.07-10.48-22.57-.75-.12-1.12-1.12-1.12-2s.37-1.62,1-1.62h.12c1.87.25,4.12.25,6.61.25,7.48,0,16.84-.75,22.82-.75,17.09,0,30.55,5.49,30.55,19.46,0,12.35-9.48,18.21-17.71,19.83-.62.12-.87.25-.87.37,0,.37,1.75.62,2.12.75,10.73,1.12,23.57,8.36,23.57,22.07,0,19.83-19.7,26.31-32.92,26.31ZM131.32,7.48c-6.61,0-7.73,1-8.36,5.49-.12.37-.12.75-.12,12.72v13.72c.12.87.25,3.24,2.12,3.24h.62c1.25-.25,3.74-.5,5.86-.5,6.61-.25,18.33-1.87,18.33-16.46,0-8.48-4.49-18.21-18.46-18.21ZM132.82,46.14c-4.36,0-6.98.25-7.98.5-1.37.37-2,1-2,2.37,0,6.24,0,15.34.12,20.33.37,12.72.62,19.7,13.47,19.7,11.85,0,20.2-9.73,20.2-20.83,0-10.23-5.36-22.07-23.82-22.07Z"/><path class="cls-1" d="M244.44,91.16c-.37.87-1.25,1.37-3.37,1.37,0,0-20.58-.5-38.54-.5-8.98,0-17.33.12-22.2.5h-.12c-.87,0-1.37-.62-1.37-1.37s.37-1.62,1.12-2.25c10.73-.87,11.1-1.87,11.1-16.09.25-8.6.37-17.21.37-25.94,0-4.99-.12-9.98-.12-14.96,0-8.98-.37-15.84-1-18.83-.5-2.87-2.24-5.61-10.85-5.61-.75-.62-1.12-1.37-1.12-2.12,0-.87.5-1.62,1.37-1.62h.12c3.87.37,11.35.5,19.83.5,16.71,0,36.79-.5,36.79-.5,2.12,0,2.74.12,2.74,1.25v.25c0,.5-.12,1.12-.12,1.75,0,3.99.87,9.23.87,13.34,0,2.24-1.87,2.24-2,2.24-.5,0-1-.12-1.12-.62-4.36-11.85-9.35-14.22-23.32-14.22-2.74,0-5.24.12-7.48.37-3.62.62-3.99,1.87-3.99,23.82v9.1c0,1.87,1.37,2,6.98,2,10.1,0,17.21-.5,19.08-11.1.12-.75,1-1.12,1.87-1.12,1,0,1.87.37,1.87,1.37v.12c-.5,3.12-.62,6.98-.62,10.97,0,7.73.62,15.34.62,15.34,0,.75-.87,1.25-1.87,1.25-.87,0-1.75-.5-1.87-1.25-1-11.1-9.6-11.85-19.7-11.85-5.86,0-6.36,0-6.36,2.12v5.24c0,5.99.12,14.59.25,17.83.5,10.35.12,14.72,12.1,16.46,1.5.25,3.12.37,4.99.37,13.47,0,20.83-4.74,29.56-17.58.25-.37.62-.62,1.12-.62,1,0,2.12,1,2.12,1.62v.12c-1.62,5.36-6.48,15.09-7.73,18.83Z"/><path class="cls-1" d="M336.73,8.36c0,3.12.12,6.48.12,9.6,0,1.75,0,3.37-.12,4.86,0,.87-.75,1.25-1.5,1.25s-1.62-.37-1.75-.87c-2.74-8.98-3.74-12.85-16.59-14.59-2.12-.25-3.99-.37-5.61-.37-2.24,0-4.24.12-5.86.25-2.24,0-2.62,1.37-2.74,2.49-.12.87-.87,10.72-.87,30.3,0,8.11.12,18.21.12,25.07.12,16.84-1.12,20.83,13.22,22.57.87.62,1.25,1.5,1.25,2.12,0,.87-.5,1.5-1.5,1.5,0,0-10.97-.87-21.95-.87-5.49,0-10.97.25-15.09.87h-.37c-.75,0-1.12-.62-1.12-1.37s.37-1.75,1.12-2.37c13.22-2,13.22-2.12,13.47-22.57.12-5.74.12-12.6.12-18.96s0-12.35-.12-16.34c0-.5-.12-17.08-.75-19.83-.62-2.62-.87-2.74-9.73-2.74-12.97,0-17.58,2.99-23.2,15.84-.25.62-1,.87-1.75.87-.87,0-1.75-.37-1.75-1.25v-.25c1.5-7.98,4.49-16.96,4.86-22.32.12-.75,1-1.25,2-1.25.75,0,1.5.37,1.75,1,1,2.62,4.99,3.49,12.22,3.49,7.73.12,15.34.25,22.7.25,27.06,0,34.3-.87,36.79-4.12.25-.37.75-.5,1.12-.5.87,0,1.87.5,1.87,1v.12c-.25,1.75-.37,4.36-.37,7.11Z"/><path class="cls-1" d="M428.89,8.36c0,3.12.12,6.48.12,9.6,0,1.75,0,3.37-.12,4.86,0,.87-.75,1.25-1.5,1.25s-1.62-.37-1.75-.87c-2.74-8.98-3.74-12.85-16.59-14.59-2.12-.25-3.99-.37-5.61-.37-2.24,0-4.24.12-5.86.25-2.24,0-2.62,1.37-2.74,2.49-.12.87-.87,10.72-.87,30.3,0,8.11.12,18.21.12,25.07.12,16.84-1.12,20.83,13.22,22.57.87.62,1.25,1.5,1.25,2.12,0,.87-.5,1.5-1.5,1.5,0,0-10.97-.87-21.95-.87-5.49,0-10.97.25-15.09.87h-.37c-.75,0-1.12-.62-1.12-1.37s.37-1.75,1.12-2.37c13.22-2,13.22-2.12,13.47-22.57.12-5.74.12-12.6.12-18.96s0-12.35-.12-16.34c0-.5-.12-17.08-.75-19.83-.62-2.62-.87-2.74-9.73-2.74-12.97,0-17.58,2.99-23.2,15.84-.25.62-1,.87-1.75.87-.87,0-1.75-.37-1.75-1.25v-.25c1.5-7.98,4.49-16.96,4.86-22.32.12-.75,1-1.25,2-1.25.75,0,1.5.37,1.75,1,1,2.62,4.99,3.49,12.22,3.49,7.73.12,15.34.25,22.7.25,27.06,0,34.3-.87,36.79-4.12.25-.37.75-.5,1.12-.5.87,0,1.87.5,1.87,1v.12c-.25,1.75-.37,4.36-.37,7.11Z"/><path class="cls-1" d="M501.35,91.16c-.37.87-1.25,1.37-3.37,1.37,0,0-20.58-.5-38.54-.5-8.98,0-17.33.12-22.2.5h-.12c-.87,0-1.37-.62-1.37-1.37s.37-1.62,1.12-2.25c10.73-.87,11.1-1.87,11.1-16.09.25-8.6.37-17.21.37-25.94,0-4.99-.12-9.98-.12-14.96,0-8.98-.37-15.84-1-18.83-.5-2.87-2.24-5.61-10.85-5.61-.75-.62-1.12-1.37-1.12-2.12,0-.87.5-1.62,1.37-1.62h.12c3.87.37,11.35.5,19.83.5,16.71,0,36.79-.5,36.79-.5,2.12,0,2.74.12,2.74,1.25v.25c0,.5-.12,1.12-.12,1.75,0,3.99.87,9.23.87,13.34,0,2.24-1.87,2.24-2,2.24-.5,0-1-.12-1.12-.62-4.36-11.85-9.35-14.22-23.32-14.22-2.74,0-5.24.12-7.48.37-3.62.62-3.99,1.87-3.99,23.82v9.1c0,1.87,1.37,2,6.98,2,10.1,0,17.21-.5,19.08-11.1.12-.75,1-1.12,1.87-1.12,1,0,1.87.37,1.87,1.37v.12c-.5,3.12-.62,6.98-.62,10.97,0,7.73.62,15.34.62,15.34,0,.75-.87,1.25-1.87,1.25-.87,0-1.75-.5-1.87-1.25-1-11.1-9.6-11.85-19.7-11.85-5.86,0-6.36,0-6.36,2.12v5.24c0,5.99.12,14.59.25,17.83.5,10.35.12,14.72,12.1,16.46,1.5.25,3.12.37,4.99.37,13.47,0,20.83-4.74,29.56-17.58.25-.37.62-.62,1.12-.62,1,0,2.12,1,2.12,1.62v.12c-1.62,5.36-6.48,15.09-7.73,18.83Z"/><path class="cls-1" d="M590.39,93.41c-9.23,0-17.46-2.62-23.45-10.48-7.36-9.85-12.72-23.2-20.33-32.18-.87-1.12-2.12-2-3.74-2h-.62c-1.87.12-2.74.12-4.24.12-1,.12-1.62.5-1.62,1.37.12,5.61,0,11.22.25,16.71.62,18.96.75,20.95,12.72,21.95.75.62,1.12,1.37,1.12,2.12,0,.87-.5,1.5-1.37,1.5,0,0-9.48-.75-19.58-.75-5.11,0-10.23.12-14.47.75h-.37c-.75,0-1.12-.5-1.12-1.37,0-.75.37-1.62,1.25-2.25,10.6-1.25,10.73-2.24,10.97-21.57.12-4.86.12-15.34.12-24.57,0-6.86,0-13.09-.12-16.21-.5-17.71.12-16.34-11.47-18.58-.75-.62-1.12-1.37-1.12-2.12,0-.87.5-1.62,1.25-1.62h.12c3.99.25,7.48.37,10.73.37,6.36,0,11.97-.37,19.33-.75,1,0,2-.12,2.87-.12,15.84,0,28.93,5.99,28.93,20.45,0,12.97-9.35,19.45-19.45,21.82-.62.12-.75.25-.75.5,0,.37.5,1,1,1.5,8.48,9.6,12.97,22.82,21.7,32.55,5.61,6.24,10.97,8.85,19.33,8.85,2.62,0,2.62.62,2.62,1.62,0,1.62-2.12,2.37-10.48,2.37ZM545,7.48c-7.23,0-7.86,1.62-8.23,5.49-.12,3.12-.25,5.24-.25,11.72-.12,6.86-.12,11.35-.12,18.33,0,.87.5,2.24,1.37,2.24h1.5c10.48,0,25.44-2.62,25.44-18.21s-11.35-19.58-19.7-19.58Z"/><path class="cls-1" d="M146.79,131.71c0,3.12.12,6.48.12,9.6,0,1.75,0,3.37-.12,4.86,0,.87-.75,1.25-1.5,1.25s-1.62-.37-1.75-.87c-2.74-8.98-3.74-12.85-16.59-14.59-2.12-.25-3.99-.37-5.61-.37-2.24,0-4.24.12-5.86.25-2.24,0-2.62,1.37-2.74,2.49-.12.87-.87,10.73-.87,30.3,0,8.11.12,18.21.12,25.07.12,16.84-1.12,20.83,13.22,22.57.87.62,1.25,1.5,1.25,2.12,0,.87-.5,1.5-1.5,1.5,0,0-10.97-.87-21.95-.87-5.49,0-10.97.25-15.09.87h-.37c-.75,0-1.12-.62-1.12-1.37s.37-1.75,1.12-2.37c13.22-2,13.22-2.12,13.47-22.57.12-5.74.12-12.6.12-18.96s0-12.35-.12-16.34c0-.5-.12-17.09-.75-19.83-.62-2.62-.87-2.74-9.73-2.74-12.97,0-17.58,2.99-23.2,15.84-.25.62-1,.87-1.75.87-.87,0-1.75-.37-1.75-1.25v-.25c1.5-7.98,4.49-16.96,4.86-22.32.12-.75,1-1.25,2-1.25.75,0,1.5.37,1.75,1,1,2.62,4.99,3.49,12.22,3.49,7.73.12,15.34.25,22.7.25,27.06,0,34.3-.87,36.79-4.12.25-.37.75-.5,1.12-.5.87,0,1.87.5,1.87,1v.12c-.25,1.75-.37,4.36-.37,7.11Z"/><path class="cls-1" d="M250.8,214.39c0,.75-.37,1.37-1.25,1.37,0,0-9.1-.87-18.58-.87-4.99,0-10.1.25-13.97,1h-.37c-.75,0-1.12-.62-1.12-1.37s.37-1.75,1.25-2.37c11.47-1.12,10.6-3.37,10.85-19.7.12-5.61.25-18.96.25-18.96,0-2.74-.25-2.87-21.7-2.87-10.35,0-21.7.25-26.69.5-1.75,0-2.24,1-2.24,2.37l.12,17.58c.12,20.2,1.5,19.7,11.1,21.08.75.62,1.12,1.5,1.12,2.12,0,.87-.5,1.5-1.37,1.5,0,0-8.98-1-18.58-1-4.99,0-10.1.25-14.22,1.12h-.37c-.75,0-1.12-.62-1.12-1.37s.37-1.75,1.25-2.37c10.97-1.12,10.85-2.99,11.22-20.45.12-4.24.25-12.72.25-21.2s-.12-17.08-.25-21.45c-.37-14.47.62-17.33-11.72-18.08-.75-.5-1-1.37-1-2.12,0-.87.37-1.62,1.25-1.62,0,0,8.61.62,18.21.62,5.24,0,10.6-.12,15.09-.75h.25c.62,0,1,.62,1,1.5s-.25,1.75-1,2.37c-9.85.87-10.97-.5-11.1,17.33-.12,4.61-.12,15.84-.12,15.84,0,2.62.12,2.62,27.69,2.62,22.07,0,22.95,0,22.95-2.62,0,0-.12-9.85-.12-14.34-.5-18.33-.75-17.96-11.6-18.83-.75-.5-1-1.37-1-2.12,0-.87.37-1.62,1.37-1.62,0,0,8.98.62,18.58.62,5.11,0,10.35-.12,14.47-.75h.25c.75,0,1.12.75,1.12,1.62,0,.75-.37,1.62-1.12,2.25-10.48,1.12-10.85.62-11.22,19.33-.12,5.86-.12,12.22-.12,18.58,0,8.73,0,17.21.12,23.82.25,17.33,1.25,18.58,11.22,19.45.75.62,1,1.5,1,2.24Z"/><path class="cls-1" d="M341.22,214.14c0,1-.37,1.87-1.25,1.87,0,0-8.85-.87-17.83-.87-4.12,0-8.36.25-11.72.75h-.25c-.75,0-1.25-.75-1.25-1.5,0-.87.37-1.75,1.25-2.24,4.99-.62,7.98-1.5,7.98-5.11,0-3.37-6.36-21.7-8.11-26.44-.25-.75-.62-1.25-13.97-1.25-4.61,0-9.23.12-11.6.25-1.25,0-2.74.25-3.37,2.49-1.75,6.11-6.11,18.71-6.73,22.07-.12.87-.25,1.62-.25,2.37,0,4.12,3.24,4.74,8.85,5.61.87.62,1.25,1.5,1.25,2.24,0,.87-.62,1.62-1.5,1.62,0,0-7.61-.87-15.59-.87-3.62,0-7.36.12-10.48.75h-.25c-.75,0-1.12-.62-1.12-1.5,0-.75.25-1.62,1-2.24,5.86-.87,8.36-3.37,10.97-8.48,5.74-11.35,15.71-45.27,25.07-68.96,0-.12.12-.37.12-.5,0-.62-.25-1.5-.5-2-.12-.12-.12-.37-.12-.62,0-.62.25-1.25.87-1.62,2.37-1.37,4.36-2.62,6.36-5.49.5-.75,1.12-1.12,1.75-1.12.5,0,1,.5,1.25,1.62.5,2.37,2.49,11.85,27.44,77.44,2,5.24,4.49,8.6,10.73,9.6.75.5,1,1.25,1,2.12ZM295.2,140.56c-.12,0-.37.12-.5.37-2.24,4.99-9.1,26.06-10.85,32.18v.12c0,.5.87.62,1.25.75,1.37.12,4.99.12,8.98.12,4.99,0,10.35,0,12.47-.25.62,0,1-.25,1-.75,0-.62-11.72-32.55-12.35-32.55Z"/><path class="cls-1" d="M428.77,152.91c-.12,2.99-.25,7.73-.25,13.34,0,14.84.5,35.79,1.62,47.14v1c0,2.49-1.25,3.24-2.74,3.24s-2.62-.87-4.12-3.24c-4.12-6.48-14.47-19.21-26.06-32.42-11.47-13.09-24.94-28.43-33.8-39.28q-.12-.12-.25-.12c-.25,0-.5.25-.5.62,0,3.12-.12,6.73-.12,10.73,0,14.22.37,31.68.87,39.66,1.12,16.59,3.49,17.09,13.47,18.71.75.62,1,1.5,1,2.25s-.37,1.37-1.25,1.37c0,0-8.48-.87-17.46-.87-4.49,0-9.1.25-12.85.87h-.25c-.62,0-1-.62-1-1.37s.25-1.62,1-2.25c10.6-1.37,11.47-3.62,11.47-31.55,0-11.6-.12-27.69-.12-40.53,0-3.37-1.75-7.98-11.85-9.35-.62-.5-1.12-1.37-1.12-2.12,0-.87.5-1.5,1.75-1.5,0,0,5.99.5,12.22.5,2.74,0,5.49-.12,7.86-.37h.25c.62,0,.87.62,1.37,2,.37,1.12,2.49,6.73,31.3,37.54,7.98,8.73,16.59,19.33,23.69,27.44.25.25.37.37.5.37.25,0,.37-.25.37-.75v-.5c-.25-4.61-.37-10.97-.37-17.46,0-7.61.12-15.21.12-20.08,0-18.96,0-23.45-13.84-25.07-.75-.62-1.12-1.5-1.12-2.12,0-.87.5-1.5,1.37-1.5,0,0,8.85.62,17.83.62,4.61,0,9.1-.12,12.6-.62h.25c.62,0,1.12.62,1.12,1.5,0,.75-.25,1.5-1,2.12-11.85,1.37-11.35,4.74-11.97,22.07Z"/><path class="cls-1" d="M32.05,299.71c-1.75,0-2.49-1-2.49-2,0-.87.62-1.75,1.5-1.75h.62c11.22,0,19.58-6.73,19.58-18.83,0-12.97-6.36-22.82-19.58-22.82-6.98,0-7.61,2-7.86,5.74-.12,3.24-.5,5.86-.5,12.35-.12,8.6-.25,17.96-.25,26.56,0,35.42.75,35.54,13.09,36.54.75.75,1.12,1.5,1.12,2.24,0,.87-.5,1.5-1.37,1.5,0,0-9.98-.87-19.95-.87-5.11,0-10.23.25-14.09.87h-.25c-.87,0-1.25-.62-1.25-1.37s.37-1.75,1.12-2.37c10.73-1.12,10.6-2.24,10.97-21.57.12-4.86.12-15.46.12-25.07,0-6.98,0-13.34-.12-16.46-.5-17.21-.75-16.59-11.35-17.83-.75-.5-1.12-1.25-1.12-2,0-.87.5-1.62,1.37-1.62h.12c3.99.25,7.48.37,10.6.37,6.36,0,11.72-.37,19.08-.75h2.12c15.84,0,29.68,8.11,29.68,23.94,0,20.45-18.83,25.19-30.93,25.19Z"/><path class="cls-1" d="M136.81,337.87c-.37.87-1.25,1.37-3.37,1.37,0,0-20.58-.5-38.54-.5-8.98,0-17.33.12-22.2.5h-.12c-.87,0-1.37-.62-1.37-1.37s.37-1.62,1.12-2.25c10.73-.87,11.1-1.87,11.1-16.09.25-8.6.37-17.21.37-25.94,0-4.99-.12-9.98-.12-14.96,0-8.98-.37-15.84-1-18.83-.5-2.87-2.24-5.61-10.85-5.61-.75-.62-1.12-1.37-1.12-2.12,0-.87.5-1.62,1.37-1.62h.12c3.87.37,11.35.5,19.83.5,16.71,0,36.79-.5,36.79-.5,2.12,0,2.74.12,2.74,1.25v.25c0,.5-.12,1.12-.12,1.75,0,3.99.87,9.23.87,13.34,0,2.24-1.87,2.24-2,2.24-.5,0-1-.12-1.12-.62-4.36-11.85-9.35-14.22-23.32-14.22-2.74,0-5.24.12-7.48.37-3.62.62-3.99,1.87-3.99,23.82v9.1c0,1.87,1.37,2,6.98,2,10.1,0,17.21-.5,19.08-11.1.12-.75,1-1.12,1.87-1.12,1,0,1.87.37,1.87,1.37v.12c-.5,3.12-.62,6.98-.62,10.97,0,7.73.62,15.34.62,15.34,0,.75-.87,1.25-1.87,1.25-.87,0-1.75-.5-1.87-1.25-1-11.1-9.6-11.85-19.7-11.85-5.86,0-6.36,0-6.36,2.12v5.24c0,5.99.12,14.59.25,17.83.5,10.35.12,14.72,12.1,16.46,1.5.25,3.12.37,4.99.37,13.47,0,20.83-4.74,29.56-17.58.25-.37.62-.62,1.12-.62,1,0,2.12,1,2.12,1.62v.12c-1.62,5.36-6.48,15.09-7.73,18.83Z"/><path class="cls-1" d="M225.86,340.12c-9.23,0-17.46-2.62-23.45-10.48-7.36-9.85-12.72-23.2-20.33-32.18-.87-1.12-2.12-2-3.74-2h-.62c-1.87.12-2.74.12-4.24.12-1,.12-1.62.5-1.62,1.37.12,5.61,0,11.22.25,16.71.62,18.96.75,20.95,12.72,21.95.75.62,1.12,1.37,1.12,2.12,0,.87-.5,1.5-1.37,1.5,0,0-9.48-.75-19.58-.75-5.11,0-10.23.12-14.47.75h-.37c-.75,0-1.12-.5-1.12-1.37,0-.75.37-1.62,1.25-2.25,10.6-1.25,10.73-2.24,10.97-21.57.12-4.86.12-15.34.12-24.57,0-6.86,0-13.09-.12-16.21-.5-17.71.12-16.34-11.47-18.58-.75-.62-1.12-1.37-1.12-2.12,0-.87.5-1.62,1.25-1.62h.12c3.99.25,7.48.37,10.73.37,6.36,0,11.97-.37,19.33-.75,1,0,2-.12,2.87-.12,15.84,0,28.93,5.99,28.93,20.45,0,12.97-9.35,19.45-19.45,21.82-.62.12-.75.25-.75.5,0,.37.5,1,1,1.5,8.48,9.6,12.97,22.82,21.7,32.55,5.61,6.24,10.97,8.85,19.33,8.85,2.62,0,2.62.62,2.62,1.62,0,1.62-2.12,2.37-10.48,2.37ZM180.46,254.19c-7.23,0-7.86,1.62-8.23,5.49-.12,3.12-.25,5.24-.25,11.72-.12,6.86-.12,11.35-.12,18.33,0,.87.5,2.24,1.37,2.24h1.5c10.48,0,25.44-2.62,25.44-18.21s-11.35-19.58-19.7-19.58Z"/><path class="cls-1" d="M295.94,268.04c0,.87-1,1.37-1.87,1.37-.5,0-1-.25-1.25-.75-4.49-10.73-6.36-14.22-23.07-14.22-2.74,0-5.24.12-7.36.5-3.37.5-3.87.87-3.87,27.31v6.86c0,1.37,1,2,8.23,2,9.6,0,18.08-.5,19.95-11.1.12-.87,1-1.25,1.87-1.25s1.75.5,1.75,1.5v.25c-.5,3.12-.62,6.98-.62,10.97,0,7.73.62,15.34.62,15.34,0,.87-1,1.37-1.87,1.37s-1.75-.37-1.75-1.37c-1.25-11.97-10.6-12.1-20.83-12.1-6.86,0-7.36.25-7.36,2.24v1.62c0,4.36.25,11.97.25,16.46v1.75c0,16.96,1.5,16.84,12.85,18.83.75.12,1.12.87,1.12,1.62,0,1-.5,2-1.25,2,0,0-9.85-.87-19.95-.87-5.11,0-10.23.25-14.34.87h-.37c-.75,0-1.12-.62-1.12-1.37s.37-1.62,1.12-2.25c10.97-1.5,10.85-3.49,10.97-19.7.12-7.23.12-16.96.12-26.31,0-6.86,0-13.59-.12-18.83-.25-15.84-.62-15.09-11.47-16.59-.75-.62-1.12-1.37-1.12-2.12,0-.87.5-1.5,1.25-1.5h.25c3.24.37,7.61.5,12.6.5,9.85,0,22.32-.5,33.42-.5,12.85,0,13.09.25,13.09,1.25,0,.5-.12,1.12-.25,1.87-.12.87-.12,1.75-.12,2.74,0,3.49.37,7.86.5,11.47v.12Z"/><path class="cls-1" d="M371.52,337.87c-.37.87-1.25,1.37-3.37,1.37,0,0-20.58-.5-38.54-.5-8.98,0-17.33.12-22.2.5h-.12c-.87,0-1.37-.62-1.37-1.37s.37-1.62,1.12-2.25c10.73-.87,11.1-1.87,11.1-16.09.25-8.6.37-17.21.37-25.94,0-4.99-.12-9.98-.12-14.96,0-8.98-.37-15.84-1-18.83-.5-2.87-2.24-5.61-10.85-5.61-.75-.62-1.12-1.37-1.12-2.12,0-.87.5-1.62,1.37-1.62h.12c3.87.37,11.35.5,19.83.5,16.71,0,36.79-.5,36.79-.5,2.12,0,2.74.12,2.74,1.25v.25c0,.5-.12,1.12-.12,1.75,0,3.99.87,9.23.87,13.34,0,2.24-1.87,2.24-2,2.24-.5,0-1-.12-1.12-.62-4.36-11.85-9.35-14.22-23.32-14.22-2.74,0-5.24.12-7.48.37-3.62.62-3.99,1.87-3.99,23.82v9.1c0,1.87,1.37,2,6.98,2,10.1,0,17.21-.5,19.08-11.1.12-.75,1-1.12,1.87-1.12,1,0,1.87.37,1.87,1.37v.12c-.5,3.12-.62,6.98-.62,10.97,0,7.73.62,15.34.62,15.34,0,.75-.87,1.25-1.87,1.25-.87,0-1.75-.5-1.87-1.25-1-11.1-9.6-11.85-19.7-11.85-5.86,0-6.36,0-6.36,2.12v5.24c0,5.99.12,14.59.25,17.83.5,10.35.12,14.72,12.1,16.46,1.5.25,3.12.37,4.99.37,13.47,0,20.83-4.74,29.56-17.58.25-.37.62-.62,1.12-.62,1,0,2.12,1,2.12,1.62v.12c-1.62,5.36-6.48,15.09-7.73,18.83Z"/><path class="cls-1" d="M465.68,331.39c-.5,1.75-.37,1.75-1.87,2.74-6.11,3.87-17.71,6.86-26.94,6.86-26.56,0-50.26-15.59-50.26-47.14,0-24.44,20.7-45.39,48.26-45.39,11.35,0,17.96,2.37,26.56,2.37h.62c3.12,0,3.62,0,3.74,2.87.12,3.49,2.12,13.59,2.12,18.33,0,.87-1.25,1.37-2.24,1.37-.62,0-1.25-.25-1.37-.75-4.99-14.34-16.46-19.95-29.93-19.95-17.09,0-34.79,13.34-34.79,41.15s18.08,42.65,38.54,42.65c10.6,0,21.7-8.36,27.06-20.45.25-.5.87-.62,1.5-.62,1.12,0,2.49.62,2.49,1.75,0,.25-.12.5-.25.75-1.75,3.24-2.49,10.23-3.24,13.47Z"/><path class="cls-1" d="M559.09,255.07c0,3.12.12,6.48.12,9.6,0,1.75,0,3.37-.12,4.86,0,.87-.75,1.25-1.5,1.25s-1.62-.37-1.75-.87c-2.74-8.98-3.74-12.85-16.59-14.59-2.12-.25-3.99-.37-5.61-.37-2.24,0-4.24.12-5.86.25-2.24,0-2.62,1.37-2.74,2.49-.12.87-.87,10.72-.87,30.3,0,8.11.12,18.21.12,25.07.12,16.84-1.12,20.83,13.22,22.57.87.62,1.25,1.5,1.25,2.12,0,.87-.5,1.5-1.5,1.5,0,0-10.97-.87-21.95-.87-5.49,0-10.97.25-15.09.87h-.37c-.75,0-1.12-.62-1.12-1.37s.37-1.75,1.12-2.37c13.22-2,13.22-2.12,13.47-22.57.12-5.74.12-12.6.12-18.96s0-12.35-.12-16.34c0-.5-.12-17.08-.75-19.83-.62-2.62-.87-2.74-9.73-2.74-12.97,0-17.58,2.99-23.2,15.84-.25.62-1,.87-1.75.87-.87,0-1.75-.37-1.75-1.25v-.25c1.5-7.98,4.49-16.96,4.86-22.32.12-.75,1-1.25,2-1.25.75,0,1.5.37,1.75,1,1,2.62,4.99,3.49,12.22,3.49,7.73.12,15.34.25,22.7.25,27.06,0,34.3-.87,36.79-4.12.25-.37.75-.5,1.12-.5.87,0,1.87.5,1.87,1v.12c-.25,1.75-.37,4.36-.37,7.11Z"/></g></svg>