<?xml version="1.0" encoding="UTF-8"?><svg id="_圖層_2" xmlns="http://www.w3.org/2000/svg" viewBox="0 0 30 30"><defs><style>.cls-1{fill:none;}.cls-2{fill:#4c3b30;}</style></defs><g id="_圖層_1-2"><path class="cls-2" d="M24.93,7.75l-2.23,3.79V3.79c.06-.37.05-2.11,0-2.45-.04-.24-.25-.36-.47-.41H1.5c-.29-.02-.45.21-.57.44v27.71h21.39c.19-.13.35-.21.39-.46l.02-7.84,6.23-10.87c.75-2.49-2.36-4.16-4.02-2.15ZM15.12,27.98H2.03V2.03h19.57v1.73s0,.04,0,.05l-.05,9.75-6.04,10.46-.41,3.96ZM16.49,25.12l1.59.91-1.81,1.29.22-2.2ZM21.6,27.98h-4.29c.71-.62,1.56-1.09,2.25-1.73l2.03-3.49v5.22ZM18.91,25.15h-.11s-1.97-1.2-1.97-1.2l8.05-13.89,2.05,1.23-8.02,13.86ZM27.53,10.27c-.07.04-.2-.04-.27-.07-.62-.29-1.25-.77-1.87-1.1.33-.78,1.12-1.51,2-.95.83.53.64,1.44.14,2.13Z"/><path class="cls-2" d="M17.42,6.79H6.23c-.28,0-.52.23-.52.52s.23.52.52.52h11.19c.28,0,.52-.23.52-.52s-.23-.52-.52-.52Z"/><path class="cls-2" d="M17.42,9.87H6.23c-.28,0-.52.23-.52.52s.23.52.52.52h11.19c.28,0,.52-.23.52-.52s-.23-.52-.52-.52Z"/><path class="cls-2" d="M17.42,12.95h-4.25c-.28,0-.52.23-.52.52s.23.52.52.52h4.25c.28,0,.52-.23.52-.52s-.23-.52-.52-.52Z"/><path class="cls-2" d="M6.23,13.98h3.83c.28,0,.52-.23.52-.52s-.23-.52-.52-.52h-3.83c-.28,0-.52.23-.52.52s.23.52.52.52Z"/><path class="cls-2" d="M17.42,16.03H6.23c-.28,0-.52.23-.52.52s.23.52.52.52h11.19c.28,0,.52-.23.52-.52s-.23-.52-.52-.52Z"/><path class="cls-2" d="M15,19.11h-3.33c-.28,0-.52.23-.52.52s.23.52.52.52h3.33c.28,0,.52-.23.52-.52s-.23-.52-.52-.52Z"/><path class="cls-2" d="M6.23,20.14h2.26c.28,0,.52-.23.52-.52s-.23-.52-.52-.52h-2.26c-.28,0-.52.23-.52.52s.23.52.52.52Z"/><path class="cls-2" d="M11.03,22.18h-4.8c-.28,0-.52.23-.52.52s.23.52.52.52h4.8c.28,0,.52-.23.52-.52s-.23-.52-.52-.52Z"/><rect class="cls-1" width="30" height="30"/></g></svg>